#
# Exported by OpenBRF -- marco tarini
#
s china_scab_25huanshou
newmtl sg_china_weapons
Ka 0.8 0.8 0.8
Kd 0.2 0.2 0.2
usemtl sg_china_weapons
v -0.000624 0.014781 0.937375
v 0.010557 0.013836 0.937375
v 0.010557 0.013836 0.120896
v -0.000624 0.014781 0.120896
v 0.018685 0.010118 0.937375
v 0.018685 0.010118 0.120896
v 0.021737 -0.000584 0.937375
v 0.021737 -0.000584 0.120896
v 0.018685 -0.011113 0.937375
v 0.018685 -0.011113 0.120896
v 0.010557 -0.01479 0.937375
v 0.010557 -0.01479 0.120896
v -0.000624 -0.016334 0.937375
v -0.000624 -0.016334 0.120896
v -0.011804 -0.01479 0.937375
v -0.011804 -0.01479 0.120896
v -0.019953 -0.011113 0.937375
v -0.019953 -0.011113 0.120896
v -0.022984 -0.000584 0.937375
v -0.022984 -0.000584 0.120896
v -0.019953 0.010118 0.937375
v -0.019953 0.010118 0.120896
v -0.011804 0.013836 0.937375
v -0.011804 0.013836 0.120896
v 0.009303 0.020555 0.295702
v 0.009303 0.020555 0.390037
v 0.009303 0.01679 0.390037
v 0.009303 0.01679 0.299194
v 0.009303 0.008451 0.295702
v 0.009303 0.008451 0.299194
v -0.012584 0.020555 0.295702
v -0.012584 0.01679 0.299194
v -0.012584 0.01679 0.390037
v -0.012584 0.020555 0.390037
v -0.012584 0.008451 0.295702
v -0.012584 0.008451 0.299194
v -0.000623 0.013569 0.120974
v 0.009567 0.012709 0.120974
v 0.009567 0.012709 -0.08279
v -0.000623 0.013569 -0.08279
v 0.016977 0.009319 0.120974
v 0.016977 0.009319 -0.08279
v 0.019758 -0.000436 0.120974
v 0.019758 -0.000436 -0.08279
v 0.016977 -0.010033 0.120974
v 0.016977 -0.010033 -0.08279
v 0.009567 -0.013384 0.120974
v 0.009567 -0.013384 -0.08279
v -0.000623 -0.014791 0.120974
v -0.000623 -0.014791 -0.08279
v -0.010814 -0.013384 0.120974
v -0.010814 -0.013384 -0.08279
v -0.018242 -0.010033 0.120974
v -0.018242 -0.010033 -0.08279
v -0.021004 -0.000436 0.120974
v -0.021004 -0.000436 -0.08279
v -0.018242 0.009319 0.120974
v -0.018242 0.009319 -0.08279
v -0.010814 0.012709 0.120974
v -0.010814 0.012709 -0.08279
v -0.00062 0.003119 -0.143707
v 0.014621 0.003119 -0.140866
v 0.014621 -0.003693 -0.140866
v -0.00062 -0.003693 -0.143707
v 0.027544 0.003119 -0.131824
v 0.027544 -0.003693 -0.131824
v 0.036178 0.003119 -0.118901
v 0.036178 -0.003693 -0.118901
v 0.039211 0.003119 -0.105251
v 0.039211 -0.003693 -0.105251
v 0.036178 0.003119 -0.091624
v 0.036178 -0.003693 -0.091624
v 0.027544 0.003119 -0.083552
v 0.027544 -0.003693 -0.083552
v -0.000758 0.003119 -0.07779
v -0.000758 -0.003693 -0.07779
v 0.011966 0.003119 -0.134254
v -0.00062 0.003119 -0.13655
v -0.00062 -0.003693 -0.13655
v 0.011966 -0.003693 -0.134254
v 0.022563 0.003119 -0.126766
v 0.022563 -0.003693 -0.126766
v 0.029643 0.003119 -0.11617
v 0.029643 -0.003693 -0.11617
v 0.032129 0.003119 -0.105264
v 0.032129 -0.003693 -0.105264
v 0.029643 0.003119 -0.094089
v 0.029643 -0.003693 -0.094089
v 0.022673 0.003119 -0.088921
v 0.022673 -0.003693 -0.088921
v -0.00092 0.003119 -0.086475
v -0.00092 -0.003693 -0.086475
v -0.01586 0.003119 -0.140866
v -0.01586 -0.003693 -0.140866
v -0.028783 0.003119 -0.131824
v -0.028783 -0.003693 -0.131824
v -0.037417 0.003119 -0.118901
v -0.037417 -0.003693 -0.118901
v -0.04045 0.003119 -0.105251
v -0.04045 -0.003693 -0.105251
v -0.037417 0.003119 -0.091624
v -0.037417 -0.003693 -0.091624
v -0.028783 0.003119 -0.083552
v -0.028783 -0.003693 -0.083552
v -0.013205 0.003119 -0.134254
v -0.013205 -0.003693 -0.134254
v -0.023801 0.003119 -0.126766
v -0.023801 -0.003693 -0.126766
v -0.030882 0.003119 -0.11617
v -0.030882 -0.003693 -0.11617
v -0.033368 0.003119 -0.105264
v -0.033368 -0.003693 -0.105264
v -0.030882 0.003119 -0.094089
v -0.030882 -0.003693 -0.094089
v -0.023913 0.003119 -0.088921
v -0.023913 -0.003693 -0.088921
v 0.015309 -0.007038 0.202192
v 0.018459 -0.001524 0.204835
v 0.084227 -0.01004 0.135409
v 0.081077 -0.015553 0.132766
v 0.023555 -0.00363 0.209112
v 0.089323 -0.012146 0.139686
v 0.023555 -0.010445 0.209112
v 0.089323 -0.018961 0.139686
v 0.018459 -0.012551 0.204835
v 0.084227 -0.021067 0.135409
v 0.170381 -0.032143 0.04743
v 0.167231 -0.037657 0.044787
v 0.175477 -0.034249 0.051707
v 0.175477 -0.041064 0.051707
v 0.170381 -0.04317 0.04743
v 0.006525 -0.001028 0.385422
v 0.008933 0.004601 0.388861
v 0.084163 -0.004092 0.233398
v 0.081755 -0.009721 0.22996
v 0.012829 0.002451 0.394425
v 0.088059 -0.006242 0.238962
v 0.012829 -0.004507 0.394425
v 0.088059 -0.0132 0.238962
v 0.008933 -0.006657 0.388861
v 0.084163 -0.01535 0.233398
v 0.187029 -0.032232 0.063382
v 0.184621 -0.037861 0.059943
v 0.190925 -0.034383 0.068946
v 0.190925 -0.04134 0.068946
v 0.187029 -0.04349 0.063382
vn -3e-06 0.72511 0.688633
vt 0.064037 -0.510507
vn 0.188347 0.717635 0.670467
vt 0.07054 -0.510506
vn 0.188348 0.717635 -0.670467
vt 0.070538 -0.147705
vn -3e-06 0.725111 -0.688632
vt 0.064035 -0.147705
vn 0.59277 0.50929 0.623897
vt 0.075268 -0.510506
vn 0.59277 0.50929 -0.623897
vt 0.075266 -0.147705
vn 0.760037 -0.001645 0.649878
vt 0.077043 -0.510506
vn 0.760037 -0.001645 -0.649878
vt 0.077041 -0.147705
vn 0.760037 -0.001645 0.649878
vt 0.076223 -0.510687
vn 0.590591 -0.5118 0.623909
vt 0.074581 -0.510687
vn 0.590591 -0.5118 -0.623909
vt 0.074583 -0.148565
vn 0.760037 -0.001645 -0.649878
vt 0.076225 -0.148565
vn 0.204318 -0.707792 0.676228
vt 0.070208 -0.510687
vn 0.204318 -0.707792 -0.676228
vt 0.07021 -0.148565
vn -5e-06 -0.735455 0.677573
vt 0.064193 -0.510687
vn -4e-06 -0.735455 -0.677573
vt 0.064195 -0.148565
vn -0.203955 -0.707801 0.676328
vt 0.058178 -0.510687
vn -0.203955 -0.707802 -0.676328
vt 0.05818 -0.148565
vn -0.590949 -0.511659 0.623686
vt 0.053793 -0.510687
vn -0.590949 -0.511659 -0.623686
vt 0.053795 -0.148565
vn -0.759751 -0.001634 0.650212
vt 0.052163 -0.510687
vn -0.759751 -0.001634 -0.650212
vt 0.052164 -0.148565
vn -0.759751 -0.001634 0.650212
vt 0.051031 -0.510507
vn -0.593118 0.509155 0.623676
vt 0.052794 -0.510507
vn -0.593119 0.509156 -0.623675
vt 0.052792 -0.147705
vn -0.759751 -0.001634 -0.650212
vt 0.05103 -0.147705
vn -0.187978 0.71764 0.670565
vt 0.057534 -0.510507
vn -0.187978 0.71764 -0.670565
vt 0.057532 -0.147705
vn 0.590591 -0.5118 0.623909
vt 0.075268 -0.510506
vn 0.204318 -0.707792 0.676228
vt 0.07054 -0.510507
vn -5e-06 -0.735455 0.677573
vt 0.064037 -0.510507
vn -0.203955 -0.707801 0.676328
vt 0.057534 -0.510507
vn -0.590949 -0.511659 0.623686
vt 0.052794 -0.510507
vn 0.590591 -0.5118 -0.623909
vt 0.075266 -0.147705
vn 0.204318 -0.707792 -0.676228
vt 0.070538 -0.147705
vn -4e-06 -0.735455 -0.677573
vt 0.064035 -0.147705
vn -0.203955 -0.707802 -0.676328
vt 0.057532 -0.147705
vn -0.590949 -0.511659 -0.623686
vt 0.052792 -0.147705
vn 0.57735 0.57735 -0.57735
vt 0.063078 0.558551
vn 0.57735 0.57735 0.57735
vt 0.063078 0.533244
vn 0.57735 -0.57735 0.57735
vt 0.063078 0.533244
vn 0.904534 -0.301511 0.301511
vt 0.063078 0.557614
vn 0.57735 -0.57735 -0.57735
vt 0.063078 0.558551
vn 0.57735 -0.57735 0.57735
vt 0.063078 0.557614
vn -0.57735 0.57735 -0.57735
vt 0.050319 0.558551
vn -0.904534 -0.301511 0.301511
vt 0.050319 0.557614
vn -0.57735 -0.57735 0.57735
vt 0.050319 0.533244
vn -0.57735 0.57735 0.57735
vt 0.050319 0.533244
vn -0.57735 -0.57735 -0.57735
vt 0.050319 0.558551
vn -0.57735 -0.57735 0.57735
vt 0.050319 0.557614
vn 0.57735 -0.57735 0.57735
vt 0.062905 0.558551
vn -0.57735 -0.57735 0.57735
vt 0.050146 0.558551
vn -0.904534 -0.301511 0.301511
vt 0.050147 0.534181
vn 0.904534 -0.301511 0.301511
vt 0.062905 0.534181
vn -0.57735 -0.57735 -0.57735
vt 0.050147 0.533244
vn 0.57735 -0.57735 -0.57735
vt 0.062905 0.533244
vn 0.57735 -0.57735 0.57735
vt 0.062905 0.534181
vn -0.57735 -0.57735 0.57735
vt 0.050147 0.534181
vn 3e-06 0.725084 0.68866
vt 0.453866 0.00271499
vn 0.188325 0.717656 0.67045
vt 0.464528 0.00277001
vn 0.188326 0.717656 -0.67045
vt 0.462667 0.127803
vn 3e-06 0.725084 -0.68866
vt 0.452006 0.127749
vn 0.592807 0.509251 0.623894
vt 0.47228 0.00281
vn 0.592807 0.50925 -0.623894
vt 0.470419 0.127843
vn 0.760024 -0.001647 0.649893
vt 0.47519 0.00282401
vn 0.760024 -0.001647 -0.649893
vt 0.473329 0.127858
vn 0.760024 -0.001647 0.649893
vt 0.475277 0.003232
vn 0.590588 -0.511824 0.623892
vt 0.472367 0.00321698
vn 0.590588 -0.511824 -0.623892
vt 0.470506 0.128251
vn 0.760024 -0.001647 -0.649893
vt 0.473416 0.128266
vn 0.204263 -0.707796 0.67624
vt 0.464615 0.003178
vn 0.204263 -0.707796 -0.67624
vt 0.462755 0.128211
vn 5e-06 -0.73545 0.677579
vt 0.453954 0.00312299
vn 5e-06 -0.73545 -0.677579
vt 0.452093 0.128157
vn -0.203913 -0.70781 0.676332
vt 0.443292 0.00306797
vn -0.203913 -0.70781 -0.676332
vt 0.441431 0.128102
vn -0.590954 -0.511667 0.623675
vt 0.43552 0.00302899
vn -0.590954 -0.511667 -0.623675
vt 0.43366 0.128062
vn -0.75974 -0.001637 0.650225
vt 0.43263 0.00301403
vn -0.75974 -0.001637 -0.650225
vt 0.43077 0.128048
vn -0.75974 -0.001637 0.650225
vt 0.432543 0.00260597
vn -0.593163 0.5091 0.623678
vt 0.435433 0.002621
vn -0.593163 0.5091 -0.623678
vt 0.433572 0.127655
vn -0.75974 -0.001637 -0.650225
vt 0.430683 0.12764
vn -0.187973 0.717664 0.67054
vt 0.443205 0.00266099
vn -0.187973 0.717664 -0.67054
vt 0.441344 0.127694
vn -4e-06 0.668092 -0.744079
vt 1.46613 1.116
vn 0.28992 0.662457 -0.690723
vt 1.45937 1.10474
vn 0.28992 -0.662456 -0.690723
vt 1.45937 1.10474
vn -4e-06 -0.668092 -0.744079
vt 1.46613 1.116
vn 0.531942 0.667826 -0.520621
vt 1.46142 1.09694
vn 0.531942 -0.667826 -0.520621
vt 1.46142 1.09694
vn 0.684373 0.667918 -0.292438
vt 1.46236 1.09099
vn 0.684373 -0.667918 -0.292438
vt 1.46236 1.09099
vn 0.750074 0.661354 0.000134
vt 1.46408 1.08651
vn 0.750074 -0.661354 0.000134
vt 1.46408 1.08651
vn 0.662633 0.646244 0.378532
vt 1.46347 1.08019
vn 0.662633 -0.646244 0.378532
vt 1.46347 1.08019
vn 0.348154 0.650704 0.674814
vt 1.46389 1.07238
vn 0.348154 -0.650704 0.674814
vt 1.46389 1.07238
vn 0.348154 0.650704 0.674814
vt 0.465937 1.10295
vn -0.000722 0.664651 0.747154
vt 0.467571 1.11496
vn -0.000722 -0.664651 0.747154
vt 0.467571 1.11496
vn 0.348154 -0.650704 0.674814
vt 0.465937 1.10295
vn -0.252217 0.759018 0.600232
vt 1.43552 1.10449
vn 5e-06 0.749822 0.661639
vt 1.43569 1.11544
vn 5e-06 -0.749822 0.661639
vt 1.43569 1.11544
vn -0.252217 -0.759018 0.600232
vt 1.43552 1.10449
vn -0.473343 0.750527 0.461146
vt 1.43764 1.09706
vn -0.473343 -0.750527 0.461146
vt 1.43764 1.09706
vn -0.607182 0.750321 0.261438
vt 1.43946 1.09068
vn -0.607182 -0.750321 0.261438
vt 1.43946 1.09068
vn -0.649849 0.760061 0.001697
vt 1.44057 1.08601
vn -0.649849 -0.760061 0.001697
vt 1.44057 1.08601
vn -0.508974 0.794828 -0.330445
vt 1.43955 1.08033
vn -0.508974 -0.794828 -0.330445
vt 1.43955 1.08033
vn -0.230383 0.771679 -0.59282
vt 1.43966 1.07282
vn -0.230383 -0.771679 -0.59282
vt 1.43966 1.07282
vn 0.000912 0.731391 -0.681958
vt 1.43531 1.06377
vn 0.000912 -0.731391 -0.681958
vt 1.43531 1.06377
vn 5e-06 -0.749822 0.661639
vt 0.444752 1.05294
vn -4e-06 -0.668092 -0.744079
vt 0.466461 1.05134
vn 0.28992 -0.662456 -0.690723
vt 0.465127 1.05983
vn -0.252217 -0.759018 0.600232
vt 0.442669 1.06053
vn 0.531942 -0.667826 -0.520621
vt 0.46706 1.06958
vn -0.473343 -0.750527 0.461146
vt 0.444616 1.06902
vn 0.684373 -0.667918 -0.292438
vt 0.467193 1.07928
vn -0.607182 -0.750321 0.261438
vt 0.440873 1.07894
vn 0.750074 -0.661354 0.000134
vt 0.468359 1.08909
vn -0.649849 -0.760061 0.001697
vt 0.442855 1.08807
vn 0.662633 -0.646244 0.378532
vt 0.468235 1.09508
vn -0.508974 -0.794828 -0.330445
vt 0.44078 1.09434
vn -0.230383 -0.771679 -0.59282
vt 0.437686 1.10281
vn 0.000912 -0.731391 -0.681958
vt 0.439367 1.11409
vn -0.000722 0.664651 0.747154
vt 1.46441 1.06378
vn -0.289924 0.662458 -0.69072
vt 1.45679 1.01509
vn -4e-06 0.668092 -0.744079
vt 1.45739 1.00983
vn -4e-06 -0.668092 -0.744079
vt 1.45739 1.00983
vn -0.289924 -0.662458 -0.69072
vt 1.45679 1.01509
vn -0.531942 0.667826 -0.520621
vt 1.45766 1.02006
vn -0.531942 -0.667826 -0.520621
vt 1.45766 1.02006
vn -0.684373 0.667918 -0.292438
vt 1.46052 1.02696
vn -0.684373 -0.667918 -0.292438
vt 1.46052 1.02696
vn -0.750074 0.661354 0.000134
vt 1.46164 1.03603
vn -0.750074 -0.661354 0.000134
vt 1.46164 1.03603
vn -0.662633 0.646244 0.378532
vt 1.46259 1.04653
vn -0.662633 -0.646244 0.378532
vt 1.46259 1.04653
vn -0.348736 0.650881 0.674342
vt 1.46331 1.05441
vn -0.348736 -0.650881 0.674342
vt 1.46331 1.05441
vn -0.000722 -0.664651 0.747154
vt 1.46441 1.06378
vn 5e-06 0.749822 0.661639
vt 1.43267 1.01007
vn 0.252233 0.759022 0.60022
vt 1.43233 1.01502
vn 0.252233 -0.759022 0.60022
vt 1.43233 1.01502
vn 5e-06 -0.749822 0.661639
vt 1.43267 1.01007
vn 0.47335 0.750513 0.461161
vt 1.4343 1.01937
vn 0.47335 -0.750513 0.461161
vt 1.4343 1.01937
vn 0.607165 0.750329 0.261454
vt 1.43337 1.02717
vn 0.607165 -0.750329 0.261454
vt 1.43337 1.02717
vn 0.649849 0.760061 0.001697
vt 1.43383 1.03591
vn 0.649849 -0.760061 0.001697
vt 1.43383 1.03591
vn 0.649849 0.760061 0.001697
vt 0.435583 1.0269
vn 0.508995 0.794819 -0.330434
vt 0.430562 1.01871
vn 0.508995 -0.794819 -0.330434
vt 0.430562 1.01871
vn 0.649849 -0.760061 0.001697
vt 0.435583 1.0269
vn 0.508995 0.794819 -0.330434
vt 1.434 1.04645
vn 0.231343 0.771346 -0.592879
vt 1.43333 1.05405
vn 0.231343 -0.771346 -0.592879
vt 1.43333 1.05405
vn 0.508995 -0.794819 -0.330434
vt 1.434 1.04645
vn 0.252233 -0.759022 0.60022
vt 0.442185 1.04658
vn -0.289924 -0.662458 -0.69072
vt 0.464452 1.04756
vn 0.47335 -0.750513 0.461161
vt 0.437667 1.03972
vn -0.531942 -0.667826 -0.520621
vt 0.459742 1.03862
vn 0.607165 -0.750329 0.261454
vt 0.436704 1.03503
vn -0.684373 -0.667918 -0.292438
vt 0.459906 1.03421
vn -0.750074 -0.661354 0.000134
vt 0.459274 1.02551
vn -0.662633 -0.646244 0.378532
vt 0.459122 1.01849
vn 0.231343 -0.771346 -0.592879
vt 0.433025 1.01121
vn -0.348736 -0.650881 0.674342
vt 0.456075 1.01123
vn 0.000912 -0.731391 -0.681958
vt 0.431447 1.00583
vn -0.000722 -0.664651 0.747154
vt 0.454817 1.00619
vn 0.590588 -0.511824 0.623892
vt 0.47228 0.00281
vn 0.204263 -0.707796 0.67624
vt 0.464528 0.00277001
vn 5e-06 -0.73545 0.677579
vt 0.453866 0.00271499
vn -0.203913 -0.70781 0.676332
vt 0.443205 0.00266099
vn -0.590954 -0.511667 0.623675
vt 0.435433 0.002621
vn 0.590588 -0.511824 -0.623892
vt 0.470419 0.127843
vn 0.204263 -0.707796 -0.67624
vt 0.462667 0.127803
vn 5e-06 -0.73545 -0.677579
vt 0.452006 0.127749
vn -0.203913 -0.70781 -0.676332
vt 0.441344 0.127694
vn -0.590954 -0.511667 -0.623675
vt 0.433572 0.127655
vn -0.723589 0.032565 -0.689463
vt 0.064941 0.658094
vn -0.174929 0.943498 -0.281445
vt 0.065987 0.658299
vn -0.136936 0.942818 -0.303881
vt 0.065164 0.72586
vn -0.717544 0.013448 -0.696383
vt 0.064117 0.725655
vn 0.604734 0.622737 0.496484
vt 0.067034 0.658504
vn 0.629696 0.601576 0.491518
vt 0.06621 0.726065
vn 0.604734 0.622737 0.496484
vt 0.061801 0.657479
vn 0.556865 -0.576237 0.598207
vt 0.062847 0.657684
vn 0.533504 -0.573447 0.621717
vt 0.062024 0.725244
vn 0.629696 0.601576 0.491518
vt 0.060977 0.725039
vn -0.298619 -0.939533 -0.167644
vt 0.063894 0.657889
vn -0.310107 -0.942826 -0.122115
vt 0.063071 0.725451
vn -0.102492 0.936404 -0.335623
vt 0.065554 0.80384
vn -0.721473 -0.070197 -0.688875
vt 0.064507 0.803633
vn 0.668341 0.530802 0.521123
vt 0.066601 0.804045
vn 0.484898 -0.608877 0.627808
vt 0.062414 0.803224
vn 0.668341 0.530802 0.521123
vt 0.061367 0.803017
vn -0.298228 -0.953044 -0.052608
vt 0.063461 0.803429
vn -0.899399 0.023064 -0.436519
vt 0.064941 0.658094
vn -0.077762 0.992612 -0.093134
vt 0.065987 0.658299
vn -0.223718 0.949753 -0.218907
vt 0.065164 0.72586
vn -0.872264 0.031533 -0.488017
vt 0.064117 0.725655
vn 0.803831 0.471558 0.362613
vt 0.067034 0.658504
vn 0.740651 0.578405 0.341883
vt 0.06621 0.726065
vn 0.803831 0.471558 0.362613
vt 0.061801 0.657479
vn 0.789161 -0.459464 0.407574
vt 0.062847 0.657684
vn 0.687732 -0.587115 0.42699
vt 0.062024 0.725244
vn 0.740651 0.578405 0.341883
vt 0.060977 0.725039
vn -0.172036 -0.984687 -0.02819
vt 0.063894 0.657889
vn -0.370976 -0.924485 -0.08777
vt 0.063071 0.725451
vn -0.310727 0.889428 -0.335212
vt 0.065554 0.80384
vn -0.857816 -0.039881 -0.512408
vt 0.064507 0.803633
vn 0.733549 0.58431 0.347113
vt 0.066601 0.804045
vn 0.560245 -0.693039 0.453677
vt 0.062414 0.803224
vn 0.733549 0.58431 0.347113
vt 0.061367 0.803017
vn -0.47461 -0.868434 -0.143419
vt 0.063461 0.803429
f 1/1/1 2/2/2 3/3/3
f 3/3/3 4/4/4 1/1/1
f 2/2/2 5/5/5 6/6/6
f 6/6/6 3/3/3 2/2/2
f 5/5/5 7/7/7 8/8/8
f 8/8/8 6/6/6 5/5/5
f 7/9/9 9/10/10 10/11/11
f 10/11/11 8/12/12 7/9/9
f 9/10/10 11/13/13 12/14/14
f 12/14/14 10/11/11 9/10/10
f 11/13/13 13/15/15 14/16/16
f 14/16/16 12/14/14 11/13/13
f 13/15/15 15/17/17 16/18/18
f 16/18/18 14/16/16 13/15/15
f 15/17/17 17/19/19 18/20/20
f 18/20/20 16/18/18 15/17/17
f 17/19/19 19/21/21 20/22/22
f 20/22/22 18/20/20 17/19/19
f 19/23/23 21/24/24 22/25/25
f 22/25/25 20/26/26 19/23/23
f 21/24/24 23/27/27 24/28/28
f 24/28/28 22/25/25 21/24/24
f 23/27/27 1/1/1 4/4/4
f 4/4/4 24/28/28 23/27/27
f 9/29/29 7/7/7 5/5/5
f 5/5/5 2/2/2 11/30/30
f 11/30/30 9/29/29 5/5/5
f 2/2/2 1/1/1 13/31/31
f 13/31/31 11/30/30 2/2/2
f 13/31/31 1/1/1 23/27/27
f 23/27/27 15/32/32 13/31/31
f 17/33/33 15/32/32 23/27/27
f 23/27/27 21/24/24 17/33/33
f 21/24/24 19/23/23 17/33/33
f 10/34/34 6/6/6 8/8/8
f 12/35/35 3/3/3 6/6/6
f 6/6/6 10/34/34 12/35/35
f 4/4/4 3/3/3 12/35/35
f 12/35/35 14/36/36 4/4/4
f 4/4/4 14/36/36 16/37/37
f 16/37/37 24/28/28 4/4/4
f 22/25/25 18/38/38 20/26/26
f 24/28/28 16/37/37 18/38/38
f 18/38/38 22/25/25 24/28/28
f 25/39/39 26/40/40 27/41/41
f 27/41/41 28/42/42 25/39/39
f 29/43/43 25/39/39 28/42/42
f 28/42/42 30/44/44 29/43/43
f 31/45/45 32/46/46 33/47/47
f 33/47/47 34/48/48 31/45/45
f 31/45/45 35/49/49 36/50/50
f 36/50/50 32/46/46 31/45/45
f 33/47/47 27/41/41 26/40/40
f 26/40/40 34/48/48 33/47/47
f 25/39/39 31/45/45 34/48/48
f 34/48/48 26/40/40 25/39/39
f 29/43/43 35/49/49 31/45/45
f 31/45/45 25/39/39 29/43/43
f 28/42/42 32/46/46 36/50/50
f 36/50/50 30/44/44 28/42/42
f 27/51/51 33/52/52 32/53/53
f 32/53/53 28/54/54 27/51/51
f 35/55/55 29/56/56 30/57/57
f 30/57/57 36/58/58 35/55/55
f 37/59/59 38/60/60 39/61/61
f 39/61/61 40/62/62 37/59/59
f 38/60/60 41/63/63 42/64/64
f 42/64/64 39/61/61 38/60/60
f 41/63/63 43/65/65 44/66/66
f 44/66/66 42/64/64 41/63/63
f 43/67/67 45/68/68 46/69/69
f 46/69/69 44/70/70 43/67/67
f 45/68/68 47/71/71 48/72/72
f 48/72/72 46/69/69 45/68/68
f 47/71/71 49/73/73 50/74/74
f 50/74/74 48/72/72 47/71/71
f 49/73/73 51/75/75 52/76/76
f 52/76/76 50/74/74 49/73/73
f 51/75/75 53/77/77 54/78/78
f 54/78/78 52/76/76 51/75/75
f 53/77/77 55/79/79 56/80/80
f 56/80/80 54/78/78 53/77/77
f 55/81/81 57/82/82 58/83/83
f 58/83/83 56/84/84 55/81/81
f 57/82/82 59/85/85 60/86/86
f 60/86/86 58/83/83 57/82/82
f 59/85/85 37/59/59 40/62/62
f 40/62/62 60/86/86 59/85/85
f 61/87/87 62/88/88 63/89/89
f 63/89/89 64/90/90 61/87/87
f 62/88/88 65/91/91 66/92/92
f 66/92/92 63/89/89 62/88/88
f 65/91/91 67/93/93 68/94/94
f 68/94/94 66/92/92 65/91/91
f 67/93/93 69/95/95 70/96/96
f 70/96/96 68/94/94 67/93/93
f 69/95/95 71/97/97 72/98/98
f 72/98/98 70/96/96 69/95/95
f 71/97/97 73/99/99 74/100/100
f 74/100/100 72/98/98 71/97/97
f 73/101/101 75/102/102 76/103/103
f 76/103/103 74/104/104 73/101/101
f 77/105/105 78/106/106 79/107/107
f 79/107/107 80/108/108 77/105/105
f 81/109/109 77/105/105 80/108/108
f 80/108/108 82/110/110 81/109/109
f 83/111/111 81/109/109 82/110/110
f 82/110/110 84/112/112 83/111/111
f 85/113/113 83/111/111 84/112/112
f 84/112/112 86/114/114 85/113/113
f 87/115/115 85/113/113 86/114/114
f 86/114/114 88/116/116 87/115/115
f 89/117/117 87/115/115 88/116/116
f 88/116/116 90/118/118 89/117/117
f 91/119/119 89/117/117 90/118/118
f 90/118/118 92/120/120 91/119/119
f 79/121/121 64/122/122 63/123/123
f 63/123/123 80/124/124 79/121/121
f 61/87/87 78/106/106 77/105/105
f 77/105/105 62/88/88 61/87/87
f 80/124/124 63/123/123 66/125/125
f 66/125/125 82/126/126 80/124/124
f 62/88/88 77/105/105 81/109/109
f 81/109/109 65/91/91 62/88/88
f 82/126/126 66/125/125 68/127/127
f 68/127/127 84/128/128 82/126/126
f 65/91/91 81/109/109 83/111/111
f 83/111/111 67/93/93 65/91/91
f 84/128/128 68/127/127 70/129/129
f 70/129/129 86/130/130 84/128/128
f 67/93/93 83/111/111 85/113/113
f 85/113/113 69/95/95 67/93/93
f 86/130/130 70/129/129 72/131/131
f 72/131/131 88/132/132 86/130/130
f 88/132/132 72/131/131 74/104/104
f 74/104/104 90/133/133 88/132/132
f 90/133/133 74/104/104 76/103/103
f 76/103/103 92/134/134 90/133/133
f 69/95/95 85/113/113 87/115/115
f 87/115/115 71/97/97 69/95/95
f 71/97/97 87/115/115 89/117/117
f 89/117/117 73/99/99 71/97/97
f 73/99/99 89/117/117 91/119/119
f 91/119/119 75/135/135 73/99/99
f 93/136/136 61/137/137 64/138/138
f 64/138/138 94/139/139 93/136/136
f 95/140/140 93/136/136 94/139/139
f 94/139/139 96/141/141 95/140/140
f 97/142/142 95/140/140 96/141/141
f 96/141/141 98/143/143 97/142/142
f 99/144/144 97/142/142 98/143/143
f 98/143/143 100/145/145 99/144/144
f 101/146/146 99/144/144 100/145/145
f 100/145/145 102/147/147 101/146/146
f 103/148/148 101/146/146 102/147/147
f 102/147/147 104/149/149 103/148/148
f 75/135/135 103/148/148 104/149/149
f 104/149/149 76/150/150 75/135/135
f 78/151/151 105/152/152 106/153/153
f 106/153/153 79/154/154 78/151/151
f 105/152/152 107/155/155 108/156/156
f 108/156/156 106/153/153 105/152/152
f 107/155/155 109/157/157 110/158/158
f 110/158/158 108/156/156 107/155/155
f 109/157/157 111/159/159 112/160/160
f 112/160/160 110/158/158 109/157/157
f 111/161/161 113/162/162 114/163/163
f 114/163/163 112/164/164 111/161/161
f 113/165/165 115/166/166 116/167/167
f 116/167/167 114/168/168 113/165/165
f 115/166/166 91/119/119 92/120/120
f 92/120/120 116/167/167 115/166/166
f 64/122/122 79/121/121 106/169/169
f 106/169/169 94/170/170 64/122/122
f 78/151/151 61/137/137 93/136/136
f 93/136/136 105/152/152 78/151/151
f 94/170/170 106/169/169 108/171/171
f 108/171/171 96/172/172 94/170/170
f 105/152/152 93/136/136 95/140/140
f 95/140/140 107/155/155 105/152/152
f 96/172/172 108/171/171 110/173/173
f 110/173/173 98/174/174 96/172/172
f 107/155/155 95/140/140 97/142/142
f 97/142/142 109/157/157 107/155/155
f 98/174/174 110/173/173 112/164/164
f 112/164/164 100/175/175 98/174/174
f 109/157/157 97/142/142 99/144/144
f 99/144/144 111/159/159 109/157/157
f 100/175/175 112/164/164 114/163/163
f 114/163/163 102/176/176 100/175/175
f 102/176/176 114/163/163 116/177/177
f 116/177/177 104/178/178 102/176/176
f 104/178/178 116/177/177 92/179/179
f 92/179/179 76/180/180 104/178/178
f 111/159/159 99/144/144 101/146/146
f 101/146/146 113/165/165 111/159/159
f 113/165/165 101/146/146 103/148/148
f 103/148/148 115/166/166 113/165/165
f 115/166/166 103/148/148 75/135/135
f 75/135/135 91/119/119 115/166/166
f 45/181/181 43/65/65 41/63/63
f 41/63/63 38/60/60 47/182/182
f 47/182/182 45/181/181 41/63/63
f 38/60/60 37/59/59 49/183/183
f 49/183/183 47/182/182 38/60/60
f 49/183/183 37/59/59 59/85/85
f 59/85/85 51/184/184 49/183/183
f 53/185/185 51/184/184 59/85/85
f 59/85/85 57/82/82 53/185/185
f 57/82/82 55/81/81 53/185/185
f 46/186/186 42/64/64 44/66/66
f 48/187/187 39/61/61 42/64/64
f 42/64/64 46/186/186 48/187/187
f 40/62/62 39/61/61 48/187/187
f 48/187/187 50/188/188 40/62/62
f 40/62/62 50/188/188 52/189/189
f 52/189/189 60/86/86 40/62/62
f 58/83/83 54/190/190 56/84/84
f 52/189/189 54/190/190 58/83/83
f 58/83/83 60/86/86 52/189/189
f 117/191/191 118/192/192 119/193/193
f 119/193/193 120/194/194 117/191/191
f 118/192/192 121/195/195 122/196/196
f 122/196/196 119/193/193 118/192/192
f 121/197/197 123/198/198 124/199/199
f 124/199/199 122/200/200 121/197/197
f 123/198/198 125/201/201 126/202/202
f 126/202/202 124/199/199 123/198/198
f 125/201/201 117/191/191 120/194/194
f 120/194/194 126/202/202 125/201/201
f 120/194/194 119/193/193 127/203/203
f 127/203/203 128/204/204 120/194/194
f 119/193/193 122/196/196 129/205/205
f 129/205/205 127/203/203 119/193/193
f 122/200/200 124/199/199 130/206/206
f 130/206/206 129/207/207 122/200/200
f 124/199/199 126/202/202 131/208/208
f 131/208/208 130/206/206 124/199/199
f 126/202/202 120/194/194 128/204/204
f 128/204/204 131/208/208 126/202/202
f 132/209/209 133/210/210 134/211/211
f 134/211/211 135/212/212 132/209/209
f 133/210/210 136/213/213 137/214/214
f 137/214/214 134/211/211 133/210/210
f 136/215/215 138/216/216 139/217/217
f 139/217/217 137/218/218 136/215/215
f 138/216/216 140/219/219 141/220/220
f 141/220/220 139/217/217 138/216/216
f 140/219/219 132/209/209 135/212/212
f 135/212/212 141/220/220 140/219/219
f 135/212/212 134/211/211 142/221/221
f 142/221/221 143/222/222 135/212/212
f 134/211/211 137/214/214 144/223/223
f 144/223/223 142/221/221 134/211/211
f 137/218/218 139/217/217 145/224/224
f 145/224/224 144/225/225 137/218/218
f 139/217/217 141/220/220 146/226/226
f 146/226/226 145/224/224 139/217/217
f 141/220/220 135/212/212 143/222/222
f 143/222/222 146/226/226 141/220/220
