#
# Exported by OpenBRF -- marco tarini
#
s china_scab_s25huan
newmtl sg_china_weapons
Ka 0.8 0.8 0.8
Kd 0.2 0.2 0.2
usemtl sg_china_weapons
v 0.137574 0.013972 -0.084324
v 0.126405 0.014915 -0.084324
v 0.126405 0.014915 0.65744
v 0.137574 0.013972 0.65744
v 0.145695 0.010257 -0.084324
v 0.145695 0.010257 0.65744
v 0.148743 -0.000435 -0.084324
v 0.148743 -0.000435 0.65744
v 0.145695 -0.010954 -0.084324
v 0.145695 -0.010954 0.65744
v 0.137574 -0.014627 -0.084324
v 0.137574 -0.014627 0.65744
v 0.126405 -0.016169 -0.084324
v 0.126405 -0.016169 0.65744
v 0.115236 -0.014627 -0.084324
v 0.115236 -0.014627 0.65744
v 0.107094 -0.010954 -0.084324
v 0.107094 -0.010954 0.65744
v 0.104066 -0.000435 -0.084324
v 0.104066 -0.000435 0.65744
v 0.107094 0.010257 -0.084324
v 0.107094 0.010257 0.65744
v 0.115236 0.013972 -0.084324
v 0.115236 0.013972 0.65744
v 0.136582 0.013 -0.251604
v 0.126401 0.01386 -0.251604
v 0.126401 0.01386 -0.084051
v 0.136582 0.013 -0.084052
v 0.143984 0.009614 -0.251604
v 0.143984 0.009614 -0.084052
v 0.146763 -0.000132 -0.251604
v 0.146763 -0.000132 -0.084052
v 0.143984 -0.00972 -0.251604
v 0.143984 -0.00972 -0.084052
v 0.136582 -0.013068 -0.251604
v 0.136582 -0.013068 -0.084051
v 0.126401 -0.014474 -0.251604
v 0.126401 -0.014474 -0.084051
v 0.116221 -0.013068 -0.251604
v 0.116221 -0.013068 -0.084051
v 0.108799 -0.00972 -0.251604
v 0.108799 -0.00972 -0.084051
v 0.10604 -0.000132 -0.251604
v 0.10604 -0.000132 -0.084051
v 0.108799 0.009614 -0.251604
v 0.108799 0.009614 -0.084051
v 0.116221 0.013 -0.251604
v 0.116221 0.013 -0.084051
v 0.14163 -0.003386 -0.309624
v 0.126405 -0.003386 -0.312462
v 0.126405 0.00342 -0.312462
v 0.14163 0.00342 -0.309624
v 0.154541 -0.003386 -0.30059
v 0.154541 0.00342 -0.30059
v 0.163167 -0.003386 -0.28768
v 0.163167 0.00342 -0.28768
v 0.166196 -0.003386 -0.274043
v 0.166196 0.00342 -0.274043
v 0.163167 -0.003386 -0.260429
v 0.163167 0.00342 -0.260429
v 0.154541 -0.003386 -0.252365
v 0.154541 0.00342 -0.252365
v 0.126266 -0.003386 -0.246608
v 0.126266 0.00342 -0.246608
v 0.126405 -0.003386 -0.305311
v 0.138978 -0.003386 -0.303018
v 0.138978 0.00342 -0.303018
v 0.126405 0.00342 -0.305311
v 0.149565 -0.003386 -0.295537
v 0.149565 0.00342 -0.295537
v 0.156638 -0.003386 -0.284951
v 0.156638 0.00342 -0.284951
v 0.159122 -0.003386 -0.274055
v 0.159122 0.00342 -0.274055
v 0.156638 -0.003386 -0.262892
v 0.156638 0.00342 -0.262892
v 0.149675 -0.003386 -0.257729
v 0.149675 0.00342 -0.257729
v 0.126104 -0.003386 -0.255285
v 0.126104 0.00342 -0.255285
v 0.11118 -0.003386 -0.309624
v 0.11118 0.00342 -0.309624
v 0.098269 -0.003386 -0.30059
v 0.098269 0.00342 -0.30059
v 0.089643 -0.003386 -0.28768
v 0.089643 0.00342 -0.28768
v 0.086613 -0.003386 -0.274043
v 0.086613 0.00342 -0.274043
v 0.089643 -0.003386 -0.260429
v 0.089643 0.00342 -0.260429
v 0.098269 -0.003386 -0.252365
v 0.098269 0.00342 -0.252365
v 0.113832 -0.003386 -0.303018
v 0.113832 0.00342 -0.303018
v 0.103245 -0.003386 -0.295537
v 0.103245 0.00342 -0.295537
v 0.096172 -0.003386 -0.284951
v 0.096172 0.00342 -0.284951
v 0.093688 -0.003386 -0.274055
v 0.093688 0.00342 -0.274055
v 0.096172 -0.003386 -0.262892
v 0.096172 0.00342 -0.262892
v 0.103134 -0.003386 -0.257729
v 0.103134 0.00342 -0.257729
vn 0.188326 0.717651 -0.670456
vt 0.147427 0.209804
vn 0 0.725092 -0.688652
vt 0.140414 0.209804
vn 0 0.725092 0.688652
vt 0.140412 0.457532
vn 0.188326 0.717651 0.670456
vt 0.147425 0.457532
vn 0.592804 0.509257 -0.623891
vt 0.152525 0.209804
vn 0.592804 0.509257 0.623891
vt 0.152524 0.457532
vn 0.760022 -0.001646 -0.649896
vt 0.154439 0.209804
vn 0.760022 -0.001646 0.649896
vt 0.154438 0.457532
vn 0.590603 -0.511804 -0.623895
vt 0.151434 0.20921
vn 0.760022 -0.001646 -0.649896
vt 0.153348 0.20921
vn 0.760022 -0.001646 0.649896
vt 0.153346 0.456937
vn 0.590603 -0.511804 0.623895
vt 0.151432 0.456937
vn 0.204276 -0.707799 -0.676234
vt 0.146335 0.20921
vn 0.204276 -0.707799 0.676234
vt 0.146333 0.456937
vn 0 -0.735448 -0.677581
vt 0.139322 0.20921
vn 0 -0.735448 0.677581
vt 0.139321 0.456937
vn -0.203908 -0.707811 -0.676333
vt 0.13231 0.20921
vn -0.203908 -0.70781 0.676333
vt 0.132308 0.456937
vn -0.590935 -0.511685 -0.623678
vt 0.127198 0.20921
vn -0.590934 -0.511685 0.623678
vt 0.127196 0.456937
vn -0.759749 -0.001636 -0.650215
vt 0.125297 0.20921
vn -0.759749 -0.001636 0.650215
vt 0.125295 0.456937
vn -0.593127 0.509145 -0.623676
vt 0.128289 0.209804
vn -0.759749 -0.001636 -0.650215
vt 0.126388 0.209804
vn -0.759749 -0.001636 0.650215
vt 0.126386 0.457532
vn -0.593127 0.509145 0.623676
vt 0.128287 0.457532
vn -0.187953 0.717657 -0.670553
vt 0.133401 0.209804
vn -0.187953 0.717657 0.670553
vt 0.133399 0.457532
vn 0.590603 -0.511804 0.623895
vt 0.152524 0.457532
vn 0.204276 -0.707799 0.676234
vt 0.147425 0.457532
vn 0 -0.735448 0.677581
vt 0.140412 0.457532
vn -0.203908 -0.70781 0.676333
vt 0.133399 0.457532
vn -0.590934 -0.511685 0.623678
vt 0.128287 0.457532
vn 0.590603 -0.511804 -0.623895
vt 0.152525 0.209804
vn 0.204276 -0.707799 -0.676234
vt 0.147427 0.209804
vn 0 -0.735448 -0.677581
vt 0.140414 0.209804
vn -0.203908 -0.707811 -0.676333
vt 0.133401 0.209804
vn -0.590935 -0.511685 -0.623678
vt 0.128289 0.209804
vn 0.188336 0.717643 -0.670461
vt 0.521306 0.00451398
vn -3e-06 0.725101 -0.688643
vt 0.514847 0.00451398
vn 2.9e-05 0.72509 0.688654
vt 0.514847 0.110806
vn 0.188367 0.717656 0.670438
vt 0.521305 0.110806
vn 0.592783 0.509277 -0.623895
vt 0.526002 0.00451398
vn 0.592791 0.509284 0.623882
vt 0.526001 0.110806
vn 0.760032 -0.001649 -0.649883
vt 0.527764 0.00451398
vn 0.760032 -0.001649 0.649883
vt 0.527764 0.110806
vn 0.590585 -0.511816 -0.623902
vt 0.525948 0.00425899
vn 0.760032 -0.001649 -0.649883
vt 0.52771 0.00425899
vn 0.760032 -0.001649 0.649883
vt 0.52771 0.110551
vn 0.590634 -0.511812 0.623859
vt 0.525947 0.110551
vn 0.204297 -0.707791 -0.676236
vt 0.521252 0.00425899
vn 0.204317 -0.707766 0.676255
vt 0.521251 0.110551
vn -5e-06 -0.735457 -0.677572
vt 0.514793 0.00425899
vn 2e-06 -0.735452 0.677576
vt 0.514793 0.110551
vn -0.203917 -0.707801 -0.67634
vt 0.508335 0.00425899
vn -0.203917 -0.707801 0.67634
vt 0.508334 0.110551
vn -0.590959 -0.511668 -0.623669
vt 0.503627 0.00425899
vn -0.590959 -0.511668 0.623669
vt 0.503627 0.110551
vn -0.759733 -0.001639 -0.650233
vt 0.501876 0.00425899
vn -0.759733 -0.001639 0.650233
vt 0.501876 0.110551
vn -0.593147 0.509137 -0.623664
vt 0.503681 0.00451398
vn -0.759733 -0.001639 -0.650233
vt 0.50193 0.00451398
vn -0.759733 -0.001639 0.650233
vt 0.50193 0.110806
vn -0.593147 0.509137 0.623663
vt 0.50368 0.110806
vn -0.187949 0.717649 -0.670564
vt 0.508389 0.00451398
vn -0.187949 0.717649 0.670564
vt 0.508388 0.110806
vn 0.289927 -0.662454 -0.690722
vt 0.075195 0.26562
vn 0 -0.668093 -0.744077
vt 0.08443 0.265695
vn 0 0.668093 -0.744077
vt 0.08443 0.265695
vn 0.289927 0.662454 -0.690722
vt 0.075195 0.26562
vn 0.531934 -0.667832 -0.520622
vt 0.066608 0.269436
vn 0.531934 0.667832 -0.520622
vt 0.066608 0.269436
vn 0.684388 -0.667906 -0.292428
vt 0.103097 0.284426
vn 0.531934 -0.667832 -0.520622
vt 0.099519 0.275886
vn 0.531934 0.667832 -0.520622
vt 0.099519 0.275886
vn 0.684388 -0.667906 -0.292428
vt 0.060087 0.276009
vn 0.684388 0.667906 -0.292428
vt 0.060087 0.276009
vn 0.750061 -0.661369 0.000134
vt 0.103315 0.292753
vn 0.684388 0.667906 -0.292428
vt 0.103097 0.284426
vn 0.750061 -0.661369 0.000134
vt 0.056759 0.283646
vn 0.750061 0.661369 0.000134
vt 0.056759 0.283646
vn 0.662649 -0.646234 0.37852
vt 0.05698 0.291959
vn 0.662649 0.646234 0.37852
vt 0.05698 0.291959
vn 0.348148 -0.650708 0.674813
vt 0.06111 0.297663
vn 0.348148 0.650708 0.674813
vt 0.06111 0.297663
vn -0.000725 -0.664647 0.747157
vt 0.077003 0.304256
vn -0.000725 0.664647 0.747157
vt 0.077003 0.304256
vn 0 -0.749808 0.661656
vt 0.083615 0.26988
vn -0.2522 -0.759025 0.60023
vt 0.075994 0.269789
vn -0.2522 0.759025 0.600229
vt 0.075994 0.269789
vn 0 0.749808 0.661656
vt 0.083615 0.26988
vn -0.473348 -0.750529 0.461138
vt 0.068945 0.27296
vn -0.473348 0.750529 0.461138
vt 0.068945 0.27296
vn -0.607187 -0.750315 0.261441
vt 0.063597 0.278351
vn -0.607187 0.750315 0.261441
vt 0.063597 0.278351
vn -0.649837 -0.760072 0.001686
vt 0.060901 0.284445
vn -0.649837 0.760072 0.001686
vt 0.060901 0.284445
vn -0.508979 -0.794818 -0.330462
vt 0.061082 0.291262
vn -0.508979 0.794818 -0.330462
vt 0.061082 0.291262
vn -0.230392 -0.77168 -0.592815
vt 0.064569 0.295078
vn -0.230392 0.77168 -0.592815
vt 0.064569 0.295078
vn 0.000915 -0.731394 -0.681955
vt 0.078087 0.299196
vn 0.000915 0.731394 -0.681955
vt 0.078087 0.299196
vn 0.289927 -0.662454 -0.690722
vt 0.092992 0.269126
vn -0.2522 -0.759025 0.60023
vt 0.090687 0.27269
vn 0 -0.749808 0.661656
vt 0.083589 0.269914
vn 0 -0.668093 -0.744077
vt 0.084404 0.265729
vn -0.473348 -0.750529 0.461138
vt 0.09603 0.278276
vn -0.607187 -0.750315 0.261441
vt 0.098964 0.285279
vn -0.649837 -0.760072 0.001686
vt 0.099175 0.291939
vn 0.662649 -0.646234 0.37852
vt 0.09999 0.300376
vn -0.508979 -0.794818 -0.330462
vt 0.096449 0.29819
vn 0.348148 -0.650708 0.674813
vt 0.094021 0.304113
vn -0.230392 -0.77168 -0.592815
vt 0.091785 0.300419
vn -0.000725 -0.664647 0.747157
vt 0.076815 0.304259
vn 0.000915 -0.731394 -0.681955
vt 0.077709 0.299162
vn -0.289927 -0.662454 -0.690722
vt 0.093018 0.269092
vn -0.289927 0.662454 -0.690722
vt 0.093018 0.269092
vn -0.531934 -0.667832 -0.520622
vt 0.099545 0.275851
vn -0.531934 0.667832 -0.520622
vt 0.099545 0.275851
vn -0.531934 -0.667832 -0.520622
vt 0.066582 0.26947
vn -0.684372 -0.667913 -0.292449
vt 0.06006 0.276043
vn -0.684372 0.667913 -0.292449
vt 0.06006 0.276043
vn -0.684372 0.667913 -0.292449
vt 0.103123 0.284391
vn -0.750073 -0.661355 0.000134
vt 0.056733 0.28368
vn -0.750073 0.661355 0.000134
vt 0.056733 0.28368
vn -0.684372 -0.667913 -0.292449
vt 0.103123 0.284391
vn -0.750073 0.661355 0.000134
vt 0.103341 0.292719
vn -0.750073 -0.661355 0.000134
vt 0.103341 0.292719
vn -0.662631 -0.64624 0.378541
vt 0.100016 0.300342
vn -0.662631 0.64624 0.378541
vt 0.100016 0.300342
vn -0.348732 -0.650886 0.674339
vt 0.094047 0.304079
vn -0.348732 0.650886 0.674339
vt 0.094047 0.304079
vn 0.2522 -0.759025 0.60023
vt 0.090713 0.272656
vn 0.2522 0.759025 0.60023
vt 0.090713 0.272656
vn 0.473348 -0.750529 0.461138
vt 0.068918 0.272995
vn 0.2522 -0.759025 0.60023
vt 0.075968 0.269823
vn 0.2522 0.759025 0.60023
vt 0.075968 0.269823
vn 0.473348 -0.750529 0.461138
vt 0.096057 0.278241
vn 0.473348 0.750529 0.461138
vt 0.096057 0.278241
vn 0.607187 -0.750315 0.261441
vt 0.09899 0.285244
vn 0.607187 0.750315 0.261441
vt 0.09899 0.285244
vn 0.649838 -0.760071 0.001686
vt 0.099202 0.291905
vn 0.649838 0.760071 0.001686
vt 0.099202 0.291905
vn 0.509 -0.794809 -0.33045
vt 0.096475 0.298156
vn 0.509 0.794809 -0.33045
vt 0.096475 0.298156
vn 0.231354 -0.771346 -0.592874
vt 0.091811 0.300384
vn 0.231354 0.771346 -0.592874
vt 0.091811 0.300384
vn -0.289927 -0.662454 -0.690722
vt 0.075168 0.265654
vn 0.607187 -0.750315 0.261441
vt 0.063571 0.278385
vn 0.649838 -0.760071 0.001686
vt 0.060875 0.284479
vn 0.509 -0.794809 -0.33045
vt 0.061056 0.291297
vn -0.662631 -0.64624 0.378541
vt 0.056954 0.291994
vn 0.231354 -0.771346 -0.592874
vt 0.064543 0.295112
vn -0.348732 -0.650886 0.674339
vt 0.061083 0.297698
vn 0.590634 -0.511812 0.623859
vt 0.526001 0.110806
vn 0.204317 -0.707766 0.676255
vt 0.521305 0.110806
vn 2e-06 -0.735452 0.677576
vt 0.514847 0.110806
vn -0.203917 -0.707801 0.67634
vt 0.508388 0.110806
vn -0.590959 -0.511668 0.623669
vt 0.50368 0.110806
vn 0.590585 -0.511816 -0.623902
vt 0.526002 0.00451398
vn 0.204297 -0.707791 -0.676236
vt 0.521306 0.00451398
vn -5e-06 -0.735457 -0.677572
vt 0.514847 0.00451398
vn -0.203917 -0.707801 -0.67634
vt 0.508389 0.00451398
vn -0.590959 -0.511668 -0.623669
vt 0.503681 0.00451398
f 1/1/1 2/2/2 3/3/3
f 1/1/1 3/3/3 4/4/4
f 5/5/5 1/1/1 4/4/4
f 5/5/5 4/4/4 6/6/6
f 7/7/7 5/5/5 6/6/6
f 7/7/7 6/6/6 8/8/8
f 9/9/9 7/10/10 8/11/11
f 9/9/9 8/11/11 10/12/12
f 11/13/13 9/9/9 10/12/12
f 11/13/13 10/12/12 12/14/14
f 13/15/15 11/13/13 12/14/14
f 13/15/15 12/14/14 14/16/16
f 15/17/17 13/15/15 14/16/16
f 15/17/17 14/16/16 16/18/18
f 17/19/19 15/17/17 16/18/18
f 17/19/19 16/18/18 18/20/20
f 19/21/21 17/19/19 18/20/20
f 19/21/21 18/20/20 20/22/22
f 21/23/23 19/24/24 20/25/25
f 21/23/23 20/25/25 22/26/26
f 23/27/27 21/23/23 22/26/26
f 23/27/27 22/26/26 24/28/28
f 2/2/2 23/27/27 24/28/28
f 2/2/2 24/28/28 3/3/3
f 10/29/29 8/8/8 6/6/6
f 12/30/30 10/29/29 6/6/6
f 12/30/30 6/6/6 4/4/4
f 14/31/31 12/30/30 4/4/4
f 14/31/31 4/4/4 3/3/3
f 24/28/28 16/32/32 14/31/31
f 24/28/28 14/31/31 3/3/3
f 24/28/28 22/26/26 18/33/33
f 24/28/28 18/33/33 16/32/32
f 22/26/26 20/25/25 18/33/33
f 9/34/34 5/5/5 7/7/7
f 5/5/5 9/34/34 11/35/35
f 5/5/5 11/35/35 1/1/1
f 11/35/35 13/36/36 2/2/2
f 11/35/35 2/2/2 1/1/1
f 15/37/37 23/27/27 2/2/2
f 15/37/37 2/2/2 13/36/36
f 21/23/23 17/38/38 19/24/24
f 17/38/38 21/23/23 23/27/27
f 17/38/38 23/27/27 15/37/37
f 25/39/39 26/40/40 27/41/41
f 25/39/39 27/41/41 28/42/42
f 29/43/43 25/39/39 28/42/42
f 29/43/43 28/42/42 30/44/44
f 31/45/45 29/43/43 30/44/44
f 31/45/45 30/44/44 32/46/46
f 33/47/47 31/48/48 32/49/49
f 33/47/47 32/49/49 34/50/50
f 35/51/51 33/47/47 34/50/50
f 35/51/51 34/50/50 36/52/52
f 37/53/53 35/51/51 36/52/52
f 37/53/53 36/52/52 38/54/54
f 39/55/55 37/53/53 38/54/54
f 39/55/55 38/54/54 40/56/56
f 41/57/57 39/55/55 40/56/56
f 41/57/57 40/56/56 42/58/58
f 43/59/59 41/57/57 42/58/58
f 43/59/59 42/58/58 44/60/60
f 45/61/61 43/62/62 44/63/63
f 45/61/61 44/63/63 46/64/64
f 47/65/65 45/61/61 46/64/64
f 47/65/65 46/64/64 48/66/66
f 26/40/40 47/65/65 48/66/66
f 26/40/40 48/66/66 27/41/41
f 49/67/67 50/68/68 51/69/69
f 49/67/67 51/69/69 52/70/70
f 53/71/71 49/67/67 52/70/70
f 53/71/71 52/70/70 54/72/72
f 55/73/73 53/74/74 54/75/75
f 55/76/76 54/72/72 56/77/77
f 57/78/78 55/73/73 56/79/79
f 57/80/80 56/77/77 58/81/81
f 59/82/82 57/80/80 58/81/81
f 59/82/82 58/81/81 60/83/83
f 61/84/84 59/82/82 60/83/83
f 61/84/84 60/83/83 62/85/85
f 63/86/86 61/84/84 62/85/85
f 63/86/86 62/85/85 64/87/87
f 65/88/88 66/89/89 67/90/90
f 65/88/88 67/90/90 68/91/91
f 66/89/89 69/92/92 70/93/93
f 66/89/89 70/93/93 67/90/90
f 69/92/92 71/94/94 72/95/95
f 69/92/92 72/95/95 70/93/93
f 71/94/94 73/96/96 74/97/97
f 71/94/94 74/97/97 72/95/95
f 73/96/96 75/98/98 76/99/99
f 73/96/96 76/99/99 74/97/97
f 75/98/98 77/100/100 78/101/101
f 75/98/98 78/101/101 76/99/99
f 77/100/100 79/102/102 80/103/103
f 77/100/100 80/103/103 78/101/101
f 49/104/104 66/105/105 65/106/106
f 49/104/104 65/106/106 50/107/107
f 67/90/90 52/70/70 51/69/69
f 67/90/90 51/69/69 68/91/91
f 53/74/74 69/108/108 66/105/105
f 53/74/74 66/105/105 49/104/104
f 70/93/93 54/72/72 52/70/70
f 70/93/93 52/70/70 67/90/90
f 55/73/73 71/109/109 69/108/108
f 55/73/73 69/108/108 53/74/74
f 72/95/95 56/77/77 54/72/72
f 72/95/95 54/72/72 70/93/93
f 57/78/78 73/110/110 71/109/109
f 57/78/78 71/109/109 55/73/73
f 74/97/97 58/81/81 56/77/77
f 74/97/97 56/77/77 72/95/95
f 59/111/111 75/112/112 73/110/110
f 59/111/111 73/110/110 57/78/78
f 61/113/113 77/114/114 75/112/112
f 61/113/113 75/112/112 59/111/111
f 63/115/115 79/116/116 77/114/114
f 63/115/115 77/114/114 61/113/113
f 76/99/99 60/83/83 58/81/81
f 76/99/99 58/81/81 74/97/97
f 78/101/101 62/85/85 60/83/83
f 78/101/101 60/83/83 76/99/99
f 80/103/103 64/87/87 62/85/85
f 80/103/103 62/85/85 78/101/101
f 50/68/68 81/117/117 82/118/118
f 50/68/68 82/118/118 51/69/69
f 81/117/117 83/119/119 84/120/120
f 81/117/117 84/120/120 82/118/118
f 83/121/121 85/122/122 86/123/123
f 83/119/119 86/124/124 84/120/120
f 85/122/122 87/125/125 88/126/126
f 85/127/127 88/128/128 86/124/124
f 87/129/129 89/130/130 90/131/131
f 87/129/129 90/131/131 88/128/128
f 89/130/130 91/132/132 92/133/133
f 89/130/130 92/133/133 90/131/131
f 91/132/132 63/86/86 64/87/87
f 91/132/132 64/87/87 92/133/133
f 93/134/134 65/88/88 68/91/91
f 93/134/134 68/91/91 94/135/135
f 95/136/136 93/137/137 94/138/138
f 95/139/139 94/135/135 96/140/140
f 97/141/141 95/139/139 96/140/140
f 97/141/141 96/140/140 98/142/142
f 99/143/143 97/141/141 98/142/142
f 99/143/143 98/142/142 100/144/144
f 101/145/145 99/143/143 100/144/144
f 101/145/145 100/144/144 102/146/146
f 103/147/147 101/145/145 102/146/146
f 103/147/147 102/146/146 104/148/148
f 79/102/102 103/147/147 104/148/148
f 79/102/102 104/148/148 80/103/103
f 93/137/137 81/149/149 50/107/107
f 93/137/137 50/107/107 65/106/106
f 82/118/118 94/135/135 68/91/91
f 82/118/118 68/91/91 51/69/69
f 95/136/136 83/121/121 81/149/149
f 95/136/136 81/149/149 93/137/137
f 84/120/120 96/140/140 94/135/135
f 84/120/120 94/135/135 82/118/118
f 97/150/150 85/122/122 83/121/121
f 97/150/150 83/121/121 95/136/136
f 86/124/124 98/142/142 96/140/140
f 86/124/124 96/140/140 84/120/120
f 99/151/151 87/125/125 85/122/122
f 99/151/151 85/122/122 97/150/150
f 88/128/128 100/144/144 98/142/142
f 88/128/128 98/142/142 86/124/124
f 101/152/152 89/153/153 87/125/125
f 101/152/152 87/125/125 99/151/151
f 103/154/154 91/155/155 89/153/153
f 103/154/154 89/153/153 101/152/152
f 79/116/116 63/115/115 91/155/155
f 79/116/116 91/155/155 103/154/154
f 90/131/131 102/146/146 100/144/144
f 90/131/131 100/144/144 88/128/128
f 92/133/133 104/148/148 102/146/146
f 92/133/133 102/146/146 90/131/131
f 64/87/87 80/103/103 104/148/148
f 64/87/87 104/148/148 92/133/133
f 34/156/156 32/46/46 30/44/44
f 36/157/157 34/156/156 30/44/44
f 36/157/157 30/44/44 28/42/42
f 38/158/158 36/157/157 28/42/42
f 38/158/158 28/42/42 27/41/41
f 48/66/66 40/159/159 38/158/158
f 48/66/66 38/158/158 27/41/41
f 48/66/66 46/64/64 42/160/160
f 48/66/66 42/160/160 40/159/159
f 46/64/64 44/63/63 42/160/160
f 33/161/161 29/43/43 31/45/45
f 29/43/43 33/161/161 35/162/162
f 29/43/43 35/162/162 25/39/39
f 35/162/162 37/163/163 26/40/40
f 35/162/162 26/40/40 25/39/39
f 39/164/164 47/65/65 26/40/40
f 39/164/164 26/40/40 37/163/163
f 45/61/61 41/165/165 43/62/62
f 45/61/61 47/65/65 39/164/164
f 45/61/61 39/164/164 41/165/165
