#
# Exported by OpenBRF -- marco tarini
#
s china_25huanshou
newmtl sg_china_weapons
Ka 0.8 0.8 0.8
Kd 0.2 0.2 0.2
usemtl sg_china_weapons
v -0.01063 0.012652 -0.107298
v -0.01063 0.012652 0.096466
v -0.00044 0.013512 0.096467
v -0.00044 0.013512 -0.107298
v -0.018039 0.009262 -0.107298
v -0.018039 0.009262 0.096466
v -0.020821 -0.000493 -0.107298
v -0.020821 -0.000493 0.096466
v -0.018039 -0.01009 -0.107298
v -0.018039 -0.01009 0.096466
v -0.01063 -0.013441 -0.107298
v -0.01063 -0.013441 0.096467
v -0.00044 -0.014848 -0.107298
v -0.00044 -0.014848 0.096467
v 0.009751 -0.013441 -0.107298
v 0.009751 -0.013441 0.096467
v 0.017179 -0.01009 -0.107298
v 0.017179 -0.01009 0.096467
v 0.019942 -0.000493 -0.107298
v 0.019942 -0.000493 0.096467
v 0.017179 0.009262 -0.107298
v 0.017179 0.009262 0.096467
v 0.009751 0.012652 -0.107298
v 0.009751 0.012652 0.096467
v -0.015683 -0.00375 -0.165374
v -0.015683 0.003063 -0.165374
v -0.000443 0.003063 -0.168215
v -0.000443 -0.00375 -0.168215
v -0.028606 -0.00375 -0.156331
v -0.028606 0.003063 -0.156331
v -0.037241 -0.00375 -0.143408
v -0.037241 0.003063 -0.143408
v -0.040273 -0.00375 -0.129758
v -0.040273 0.003063 -0.129758
v -0.037241 -0.00375 -0.116132
v -0.037241 0.003063 -0.116132
v -0.028606 -0.00375 -0.10806
v -0.028606 0.003063 -0.10806
v -0.000304 -0.00375 -0.102297
v -0.000304 0.003063 -0.102297
v -0.000443 -0.00375 -0.161057
v -0.000443 0.003063 -0.161057
v -0.013028 0.003063 -0.158762
v -0.013028 -0.00375 -0.158762
v -0.023625 0.003063 -0.151274
v -0.023625 -0.00375 -0.151274
v -0.030706 0.003063 -0.140677
v -0.030706 -0.00375 -0.140677
v -0.033192 0.003063 -0.129771
v -0.033192 -0.00375 -0.129771
v -0.030706 0.003063 -0.118597
v -0.030706 -0.00375 -0.118597
v -0.023736 0.003063 -0.113429
v -0.023736 -0.00375 -0.113429
v -0.000142 0.003063 -0.110983
v -0.000142 -0.00375 -0.110983
v 0.014797 0.003063 -0.165374
v 0.014797 -0.00375 -0.165374
v 0.02772 0.003063 -0.156331
v 0.02772 -0.00375 -0.156331
v 0.036355 0.003063 -0.143408
v 0.036355 -0.00375 -0.143408
v 0.039387 0.003063 -0.129758
v 0.039387 -0.00375 -0.129758
v 0.036355 0.003063 -0.116132
v 0.036355 -0.00375 -0.116132
v 0.02772 0.003063 -0.10806
v 0.02772 -0.00375 -0.10806
v 0.012142 -0.00375 -0.158762
v 0.012142 0.003063 -0.158762
v 0.022739 -0.00375 -0.151274
v 0.022739 0.003063 -0.151274
v 0.029819 -0.00375 -0.140677
v 0.029819 0.003063 -0.140677
v 0.032306 -0.00375 -0.129771
v 0.032306 0.003063 -0.129771
v 0.029819 -0.00375 -0.118597
v 0.029819 0.003063 -0.118597
v 0.02285 -0.00375 -0.113429
v 0.02285 0.003063 -0.113429
v -0.009011 0.001684 0.84673
v 0.017145 0.001684 0.868231
v 0.017145 0.001684 0.09491
v -0.009011 0.001684 0.09491
v -0.018495 -0.000482 0.09491
v -0.018495 -0.000482 0.850465
v 0.017145 -0.000482 0.881219
v -0.009011 -0.002649 0.09491
v 0.017145 -0.002649 0.09491
v 0.017145 -0.002649 0.868231
v -0.009011 -0.002649 0.84673
vn -0.188345 0.717656 -0.670445
vt 0.462667 0.127803
vn -0.188376 0.717669 0.670422
vt 0.464528 0.00277001
vn -3.5e-05 0.725074 0.688671
vt 0.453866 0.00271499
vn -3e-06 0.725084 -0.68866
vt 0.452006 0.127749
vn -0.592789 0.509257 -0.623906
vt 0.470419 0.127843
vn -0.592797 0.509265 0.623892
vt 0.47228 0.00281
vn -0.760039 -0.001648 -0.649876
vt 0.473329 0.127858
vn -0.760039 -0.001648 0.649876
vt 0.47519 0.00282401
vn -0.59057 -0.511832 -0.623904
vt 0.470506 0.128251
vn -0.590618 -0.511828 0.623861
vt 0.472367 0.00321698
vn -0.760039 -0.001648 0.649876
vt 0.475277 0.003232
vn -0.760039 -0.001648 -0.649876
vt 0.473416 0.128266
vn -0.204282 -0.707796 -0.676235
vt 0.462755 0.128211
vn -0.204302 -0.707771 0.676255
vt 0.464615 0.003178
vn -5e-06 -0.73545 -0.677579
vt 0.452093 0.128157
vn -1.2e-05 -0.735445 0.677584
vt 0.453954 0.00312299
vn 0.203913 -0.70781 -0.676332
vt 0.441431 0.128102
vn 0.203913 -0.70781 0.676332
vt 0.443292 0.00306797
vn 0.590925 -0.511692 -0.623682
vt 0.43366 0.128062
vn 0.590925 -0.511692 0.623682
vt 0.43552 0.00302899
vn 0.759755 -0.001638 -0.650208
vt 0.43077 0.128048
vn 0.759755 -0.001638 0.650208
vt 0.43263 0.00301403
vn 0.593134 0.509125 -0.623686
vt 0.433572 0.127655
vn 0.593134 0.509125 0.623686
vt 0.435433 0.002621
vn 0.759755 -0.001638 0.650208
vt 0.432543 0.00260597
vn 0.759755 -0.001638 -0.650208
vt 0.430683 0.12764
vn 0.187973 0.717664 -0.67054
vt 0.441344 0.127694
vn 0.187973 0.717664 0.670541
vt 0.443205 0.00266099
vn -0.289943 -0.662452 -0.690717
vt 1.45937 1.10474
vn -0.289943 0.662452 -0.690717
vt 1.45937 1.10474
vn 0 0.668091 -0.744079
vt 1.46613 1.116
vn 0 -0.668091 -0.744079
vt 1.46613 1.116
vn -0.531935 -0.667837 -0.520615
vt 1.46142 1.09694
vn -0.531935 0.667837 -0.520615
vt 1.46142 1.09694
vn -0.684385 -0.667906 -0.292437
vt 1.46236 1.09099
vn -0.684385 0.667906 -0.292437
vt 1.46236 1.09099
vn -0.750063 -0.661366 0.00014
vt 1.46408 1.08651
vn -0.750063 0.661366 0.00014
vt 1.46408 1.08651
vn -0.66264 -0.646234 0.378537
vt 1.46347 1.08019
vn -0.66264 0.646234 0.378537
vt 1.46347 1.08019
vn -0.348143 -0.650712 0.674812
vt 1.46389 1.07238
vn -0.348143 0.650712 0.674812
vt 1.46389 1.07238
vn 0.000724 -0.664644 0.74716
vt 0.467571 1.11496
vn 0.000724 0.664644 0.74716
vt 0.467571 1.11496
vn -0.348143 0.650712 0.674812
vt 0.465937 1.10295
vn -0.348143 -0.650712 0.674812
vt 0.465937 1.10295
vn 0 -0.749805 0.661659
vt 1.43569 1.11544
vn 0 0.749805 0.661659
vt 1.43569 1.11544
vn 0.252193 0.759026 0.600232
vt 1.43552 1.10449
vn 0.252193 -0.759026 0.600232
vt 1.43552 1.10449
vn 0.47334 0.750525 0.461153
vt 1.43764 1.09706
vn 0.47334 -0.750525 0.461153
vt 1.43764 1.09706
vn 0.607176 0.750323 0.261442
vt 1.43946 1.09068
vn 0.607176 -0.750323 0.261442
vt 1.43946 1.09068
vn 0.649846 0.760064 0.001691
vt 1.44057 1.08601
vn 0.649846 -0.760064 0.001691
vt 1.44057 1.08601
vn 0.508973 0.794826 -0.330452
vt 1.43955 1.08033
vn 0.508973 -0.794826 -0.330452
vt 1.43955 1.08033
vn 0.230382 0.771679 -0.59282
vt 1.43966 1.07282
vn 0.230382 -0.771679 -0.59282
vt 1.43966 1.07282
vn -0.000915 0.73139 -0.681958
vt 1.43531 1.06377
vn -0.000915 -0.731391 -0.681958
vt 1.43531 1.06377
vn -0.289943 -0.662452 -0.690717
vt 0.465127 1.05983
vn 0 -0.668091 -0.744079
vt 0.466461 1.05134
vn 0 -0.749805 0.661659
vt 0.444752 1.05294
vn 0.252193 -0.759026 0.600232
vt 0.442669 1.06053
vn -0.531935 -0.667837 -0.520615
vt 0.46706 1.06958
vn 0.47334 -0.750525 0.461153
vt 0.444616 1.06902
vn -0.684385 -0.667906 -0.292437
vt 0.467193 1.07928
vn 0.607176 -0.750323 0.261442
vt 0.440873 1.07894
vn -0.750063 -0.661366 0.00014
vt 0.468359 1.08909
vn 0.649846 -0.760064 0.001691
vt 0.442855 1.08807
vn -0.66264 -0.646234 0.378537
vt 0.468235 1.09508
vn 0.508973 -0.794826 -0.330452
vt 0.44078 1.09434
vn 0.230382 -0.771679 -0.59282
vt 0.437686 1.10281
vn -0.000915 -0.731391 -0.681958
vt 0.439367 1.11409
vn 0.000724 0.664644 0.74716
vt 1.46441 1.06378
vn 0 -0.668091 -0.744079
vt 1.45739 1.00983
vn 0 0.668091 -0.744079
vt 1.45739 1.00983
vn 0.289943 0.662452 -0.690717
vt 1.45679 1.01509
vn 0.289943 -0.662452 -0.690717
vt 1.45679 1.01509
vn 0.531935 0.667837 -0.520615
vt 1.45766 1.02006
vn 0.531935 -0.667837 -0.520615
vt 1.45766 1.02006
vn 0.684385 0.667906 -0.292436
vt 1.46052 1.02696
vn 0.684385 -0.667906 -0.292436
vt 1.46052 1.02696
vn 0.750063 0.661366 0.00014
vt 1.46164 1.03603
vn 0.750063 -0.661366 0.00014
vt 1.46164 1.03603
vn 0.66264 0.646234 0.378537
vt 1.46259 1.04653
vn 0.66264 -0.646234 0.378537
vt 1.46259 1.04653
vn 0.348727 0.65089 0.674338
vt 1.46331 1.05441
vn 0.348727 -0.65089 0.674338
vt 1.46331 1.05441
vn 0.000724 -0.664644 0.74716
vt 1.46441 1.06378
vn -0.252193 -0.759026 0.600232
vt 1.43233 1.01502
vn -0.252193 0.759026 0.600232
vt 1.43233 1.01502
vn 0 0.749805 0.661659
vt 1.43267 1.01007
vn 0 -0.749805 0.661659
vt 1.43267 1.01007
vn -0.473348 -0.750533 0.461131
vt 1.4343 1.01937
vn -0.473348 0.750533 0.461131
vt 1.4343 1.01937
vn -0.607193 -0.750304 0.261457
vt 1.43337 1.02717
vn -0.607193 0.750304 0.261457
vt 1.43337 1.02717
vn -0.649821 -0.760085 0.001691
vt 1.43383 1.03591
vn -0.649821 0.760085 0.001691
vt 1.43383 1.03591
vn -0.508993 -0.794806 -0.33047
vt 0.430562 1.01871
vn -0.508993 0.794806 -0.33047
vt 0.430562 1.01871
vn -0.649821 0.760085 0.001691
vt 0.435583 1.0269
vn -0.649821 -0.760085 0.001691
vt 0.435583 1.0269
vn -0.231345 -0.771345 -0.592879
vt 1.43333 1.05405
vn -0.231345 0.771346 -0.592879
vt 1.43333 1.05405
vn -0.508993 0.794806 -0.33047
vt 1.434 1.04645
vn -0.508993 -0.794806 -0.33047
vt 1.434 1.04645
vn -0.252193 -0.759026 0.600232
vt 0.442185 1.04658
vn 0.289943 -0.662452 -0.690717
vt 0.464452 1.04756
vn -0.473348 -0.750533 0.461131
vt 0.437667 1.03972
vn 0.531935 -0.667837 -0.520615
vt 0.459742 1.03862
vn -0.607193 -0.750304 0.261457
vt 0.436704 1.03503
vn 0.684385 -0.667906 -0.292436
vt 0.459906 1.03421
vn 0.750063 -0.661366 0.00014
vt 0.459274 1.02551
vn 0.66264 -0.646234 0.378537
vt 0.459122 1.01849
vn -0.231345 -0.771345 -0.592879
vt 0.433025 1.01121
vn 0.348727 -0.65089 0.674338
vt 0.456075 1.01123
vn -0.000915 -0.731391 -0.681958
vt 0.431447 1.00583
vn 0.000724 -0.664644 0.74716
vt 0.454817 1.00619
vn -0.119428 0.991133 0.058243
vt 0.088176 0.399658
vn 0.653136 0.751938 0.089457
vt 0.094763 0.405072
vn 0.707106 0.707108 0
vt 0.094765 0.210323
vn -0.112031 0.993705 0
vt 0.088178 0.210323
vn -1 4.6e-05 0
vt 0.08579 0.210323
vn -0.911979 -0.000534 0.410237
vt 0.085788 0.400598
vn 0.291948 -0.000897 0.956434
vt 0.094763 0.408343
vn -0.112081 -0.993699 0
vt 0.079966 0.209289
vn 0.707107 -0.707107 0
vt 0.073379 0.209289
vn 0.651043 -0.753588 0.090821
vt 0.073378 0.404038
vn -0.119413 -0.990985 0.060745
vt 0.079965 0.398623
vn -0.911979 -0.000534 0.410237
vt 0.082354 0.399564
vn -1 4.6e-05 0
vt 0.082354 0.209289
vn 0.291948 -0.000897 0.956434
vt 0.073378 0.407309
vn 0.651043 -0.753588 0.090821
vt 0.094763 0.405072
vn 0.707107 -0.707107 0
vt 0.094765 0.210323
vn -0.590618 -0.511828 0.623861
vt 0.47228 0.00281
vn -0.204302 -0.707771 0.676255
vt 0.464528 0.00277001
vn -1.2e-05 -0.735445 0.677584
vt 0.453866 0.00271499
vn 0.203913 -0.70781 0.676332
vt 0.443205 0.00266099
vn 0.590925 -0.511692 0.623682
vt 0.435433 0.002621
vn -0.59057 -0.511832 -0.623904
vt 0.470419 0.127843
vn -0.204282 -0.707796 -0.676235
vt 0.462667 0.127803
vn -5e-06 -0.73545 -0.677579
vt 0.452006 0.127749
vn 0.203913 -0.70781 -0.676332
vt 0.441344 0.127694
vn 0.590925 -0.511692 -0.623682
vt 0.433572 0.127655
f 1/1/1 2/2/2 3/3/3
f 3/3/3 4/4/4 1/1/1
f 5/5/5 6/6/6 2/2/2
f 2/2/2 1/1/1 5/5/5
f 7/7/7 8/8/8 6/6/6
f 6/6/6 5/5/5 7/7/7
f 9/9/9 10/10/10 8/11/11
f 8/11/11 7/12/12 9/9/9
f 11/13/13 12/14/14 10/10/10
f 10/10/10 9/9/9 11/13/13
f 13/15/15 14/16/16 12/14/14
f 12/14/14 11/13/13 13/15/15
f 15/17/17 16/18/18 14/16/16
f 14/16/16 13/15/15 15/17/17
f 17/19/19 18/20/20 16/18/18
f 16/18/18 15/17/17 17/19/19
f 19/21/21 20/22/22 18/20/20
f 18/20/20 17/19/19 19/21/21
f 21/23/23 22/24/24 20/25/25
f 20/25/25 19/26/26 21/23/23
f 23/27/27 24/28/28 22/24/24
f 22/24/24 21/23/23 23/27/27
f 4/4/4 3/3/3 24/28/28
f 24/28/28 23/27/27 4/4/4
f 25/29/29 26/30/30 27/31/31
f 27/31/31 28/32/32 25/29/29
f 29/33/33 30/34/34 26/30/30
f 26/30/30 25/29/29 29/33/33
f 31/35/35 32/36/36 30/34/34
f 30/34/34 29/33/33 31/35/35
f 33/37/37 34/38/38 32/36/36
f 32/36/36 31/35/35 33/37/37
f 35/39/39 36/40/40 34/38/38
f 34/38/38 33/37/37 35/39/39
f 37/41/41 38/42/42 36/40/40
f 36/40/40 35/39/39 37/41/41
f 39/43/43 40/44/44 38/45/45
f 38/45/45 37/46/46 39/43/43
f 41/47/47 42/48/48 43/49/49
f 43/49/49 44/50/50 41/47/47
f 44/50/50 43/49/49 45/51/51
f 45/51/51 46/52/52 44/50/50
f 46/52/52 45/51/51 47/53/53
f 47/53/53 48/54/54 46/52/52
f 48/54/54 47/53/53 49/55/55
f 49/55/55 50/56/56 48/54/54
f 50/56/56 49/55/55 51/57/57
f 51/57/57 52/58/58 50/56/56
f 52/58/58 51/57/57 53/59/59
f 53/59/59 54/60/60 52/58/58
f 54/60/60 53/59/59 55/61/61
f 55/61/61 56/62/62 54/60/60
f 25/63/63 28/64/64 41/65/65
f 41/65/65 44/66/66 25/63/63
f 43/49/49 42/48/48 27/31/31
f 27/31/31 26/30/30 43/49/49
f 29/67/67 25/63/63 44/66/66
f 44/66/66 46/68/68 29/67/67
f 45/51/51 43/49/49 26/30/30
f 26/30/30 30/34/34 45/51/51
f 31/69/69 29/67/67 46/68/68
f 46/68/68 48/70/70 31/69/69
f 47/53/53 45/51/51 30/34/34
f 30/34/34 32/36/36 47/53/53
f 33/71/71 31/69/69 48/70/70
f 48/70/70 50/72/72 33/71/71
f 49/55/55 47/53/53 32/36/36
f 32/36/36 34/38/38 49/55/55
f 35/73/73 33/71/71 50/72/72
f 50/72/72 52/74/74 35/73/73
f 37/46/46 35/73/73 52/74/74
f 52/74/74 54/75/75 37/46/46
f 39/43/43 37/46/46 54/75/75
f 54/75/75 56/76/76 39/43/43
f 51/57/57 49/55/55 34/38/38
f 34/38/38 36/40/40 51/57/57
f 53/59/59 51/57/57 36/40/40
f 36/40/40 38/42/42 53/59/59
f 55/61/61 53/59/59 38/42/42
f 38/42/42 40/77/77 55/61/61
f 28/78/78 27/79/79 57/80/80
f 57/80/80 58/81/81 28/78/78
f 58/81/81 57/80/80 59/82/82
f 59/82/82 60/83/83 58/81/81
f 60/83/83 59/82/82 61/84/84
f 61/84/84 62/85/85 60/83/83
f 62/85/85 61/84/84 63/86/86
f 63/86/86 64/87/87 62/85/85
f 64/87/87 63/86/86 65/88/88
f 65/88/88 66/89/89 64/87/87
f 66/89/89 65/88/88 67/90/90
f 67/90/90 68/91/91 66/89/89
f 68/91/91 67/90/90 40/77/77
f 40/77/77 39/92/92 68/91/91
f 69/93/93 70/94/94 42/95/95
f 42/95/95 41/96/96 69/93/93
f 71/97/97 72/98/98 70/94/94
f 70/94/94 69/93/93 71/97/97
f 73/99/99 74/100/100 72/98/98
f 72/98/98 71/97/97 73/99/99
f 75/101/101 76/102/102 74/100/100
f 74/100/100 73/99/99 75/101/101
f 77/103/103 78/104/104 76/105/105
f 76/105/105 75/106/106 77/103/103
f 79/107/107 80/108/108 78/109/109
f 78/109/109 77/110/110 79/107/107
f 56/62/62 55/61/61 80/108/108
f 80/108/108 79/107/107 56/62/62
f 69/111/111 41/65/65 28/64/64
f 28/64/64 58/112/112 69/111/111
f 57/80/80 27/79/79 42/95/95
f 42/95/95 70/94/94 57/80/80
f 71/113/113 69/111/111 58/112/112
f 58/112/112 60/114/114 71/113/113
f 59/82/82 57/80/80 70/94/94
f 70/94/94 72/98/98 59/82/82
f 73/115/115 71/113/113 60/114/114
f 60/114/114 62/116/116 73/115/115
f 61/84/84 59/82/82 72/98/98
f 72/98/98 74/100/100 61/84/84
f 75/106/106 73/115/115 62/116/116
f 62/116/116 64/117/117 75/106/106
f 63/86/86 61/84/84 74/100/100
f 74/100/100 76/102/102 63/86/86
f 77/103/103 75/106/106 64/117/117
f 64/117/117 66/118/118 77/103/103
f 79/119/119 77/103/103 66/118/118
f 66/118/118 68/120/120 79/119/119
f 56/121/121 79/119/119 68/120/120
f 68/120/120 39/122/122 56/121/121
f 65/88/88 63/86/86 76/102/102
f 76/102/102 78/109/109 65/88/88
f 67/90/90 65/88/88 78/109/109
f 78/109/109 80/108/108 67/90/90
f 40/77/77 67/90/90 80/108/108
f 80/108/108 55/61/61 40/77/77
f 81/123/123 82/124/124 83/125/125
f 83/125/125 84/126/126 81/123/123
f 84/126/126 85/127/127 86/128/128
f 86/128/128 81/123/123 84/126/126
f 81/123/123 86/128/128 87/129/129
f 87/129/129 82/124/124 81/123/123
f 88/130/130 89/131/131 90/132/132
f 90/132/132 91/133/133 88/130/130
f 91/133/133 86/134/134 85/135/135
f 85/135/135 88/130/130 91/133/133
f 90/132/132 87/136/136 86/134/134
f 86/134/134 91/133/133 90/132/132
f 82/124/124 87/129/129 90/137/137
f 90/137/137 89/138/138 83/125/125
f 83/125/125 82/124/124 90/137/137
f 6/6/6 8/8/8 10/139/139
f 12/140/140 2/2/2 6/6/6
f 6/6/6 10/139/139 12/140/140
f 14/141/141 3/3/3 2/2/2
f 2/2/2 12/140/140 14/141/141
f 24/28/28 3/3/3 14/141/141
f 14/141/141 16/142/142 24/28/28
f 24/28/28 16/142/142 18/143/143
f 18/143/143 22/24/24 24/28/28
f 18/143/143 20/25/25 22/24/24
f 7/7/7 5/5/5 9/144/144
f 5/5/5 1/1/1 11/145/145
f 11/145/145 9/144/144 5/5/5
f 11/145/145 1/1/1 4/4/4
f 4/4/4 13/146/146 11/145/145
f 15/147/147 13/146/146 4/4/4
f 4/4/4 23/27/27 15/147/147
f 19/26/26 17/148/148 21/23/23
f 21/23/23 17/148/148 15/147/147
f 15/147/147 23/27/27 21/23/23
