#
# Exported by OpenBRF -- marco tarini
#
s mingmao3
newmtl mingmao3
Ka 0.8 0.8 0.8
Kd 0.2 0.2 0.2
usemtl mingmao3
v 0.0186146 0.000431105 1.18247
v 0.00749978 -0.00873552 1.22537
v 0.0150279 0.000425037 1.22537
v 0.0188457 -0.00720189 1.18247
v 0.00809444 -0.0178802 1.18247
v -0.0176971 0.000431105 1.18247
v -0.0176326 0.00777346 1.18247
v -0.00703356 0.0185937 1.18247
v -0.00691651 0.00958567 1.22537
v 0.0220296 0.000425037 1.32642
v 0.0362509 0.000425037 1.27794
v 0.0178809 -0.00944461 1.27794
v 0.0109247 -0.00841796 1.32642
v 0.0252811 0.000425037 1.4832
v 0.0125151 0.00484661 1.4832
v 0.0109247 0.00926812 1.32642
v -0.0214463 0.000425037 1.32642
v -0.0356676 0.000425037 1.27794
v -0.0172976 0.0102948 1.27794
v -0.0103414 0.00926812 1.32642
v -0.0246979 0.000425037 1.4832
v -0.0119318 -0.00399646 1.4832
v -0.0103414 -0.00841796 1.32642
v 0.00796174 0.0185937 1.18247
v 0.00749978 0.00958567 1.22537
v 0.018651 0.00782955 1.18247
v -0.0172976 -0.00944461 1.27794
v 0.0125151 -0.00399646 1.4832
v 0.0178809 0.0102948 1.27794
v -0.0119318 0.00484661 1.4832
v -0.0070688 -0.0178789 1.18247
v -0.0069165 -0.00873552 1.22537
v -0.0175268 -0.00760229 1.18247
v 0.000291638 0.000425037 1.53508
v -0.00862741 0.00263586 1.51192
v 0.00921069 0.00263586 1.51192
v -0.00862741 -0.00178571 1.51192
v -0.0179423 0.000425037 1.51192
v -0.0173059 0.000425037 1.25392
v -0.00831612 0.0081909 1.25392
v 0.0178892 0.000425037 1.25392
v 0.0088994 -0.00734083 1.25392
v -0.00831612 -0.00734083 1.25392
v 0.0088994 0.0081909 1.25392
v -0.0144446 0.000425037 1.22537
v 0.0185256 0.000425037 1.51192
v 0.00921069 -0.00178571 1.51192
v -0.0172893 0.00761025 -0.784721
v 0.00786292 0.0181361 -0.784721
v -0.00689318 0.0180824 -0.784721
v 0.0183887 -0.00701619 -0.784721
v 0.018335 0.00773993 -0.784721
v -0.00676352 -0.017542 -0.784721
v 0.00799258 -0.0174883 -0.784721
v -0.0172356 -0.0071458 -0.784721
v -0.0172894 0.00761017 1.19295
v -0.0172357 -0.00714588 1.19295
v -0.0068932 0.0180823 1.19295
v 0.0078629 0.018136 1.19295
v 0.018335 0.00773985 1.19295
v 0.0183887 -0.00701627 1.19295
v 0.00799256 -0.0174884 1.19295
v -0.00676354 -0.017542 1.19295
v -0.0536175 0.00056281 1.03148
v -0.0458406 0.00056281 1.09382
v -0.0322317 -0.0322919 1.09382
v -0.0377308 -0.0377911 1.03148
v -0.0377308 0.0389167 1.03148
v -0.0322317 0.0334176 1.09382
v 0.000623074 0.0548034 1.03148
v 0.000623074 0.0470264 1.09382
v 0.038977 0.0389167 1.03148
v 0.0334778 0.0334176 1.09382
v 0.0548637 0.00056281 1.03148
v 0.0470867 0.00056281 1.09382
v 0.038977 -0.0377911 1.03148
v 0.0334778 -0.0322919 1.09382
v 0.000623065 -0.0536778 1.03148
v 0.000623066 -0.0459009 1.09382
v -0.019177 0.00056281 1.18875
v -0.0133777 0.0145636 1.18875
v 0.000623072 0.0203629 1.18875
v 0.0146238 0.0145636 1.18875
v 0.0204232 0.00056281 1.18875
v 0.0146238 -0.013438 1.18875
v 0.000623068 -0.0192373 1.18875
v -0.0133777 -0.013438 1.18875
vn 0.950208 -0.268868 0.157525
vt 0.322417 0.0950268
vn 0.520706 -0.846645 0.109808
vt 0.306459 0.322652
vn 0.996378 -0.0725252 0.0443979
vt 0.315921 0.322735
vn 0.848314 -0.48737 0.206964
vt 0.322707 0.0950292
vn 0.486552 -0.840524 0.238298
vt 0.309194 0.0949112
vn -0.950507 0.273777 0.146911
vt 0.276777 0.0946285
vn -0.846565 0.49703 0.190497
vt 0.276858 0.0946292
vn -0.484651 0.844815 0.226719
vt 0.29018 0.0947455
vn -0.519755 0.847955 0.104052
vt 0.288339 0.322494
vn 0.991954 -2.1968e-06 0.126597
vt 0.323075 0.511501
vn 0.981929 -1.72127e-06 -0.189252
vt 0.341609 0.436085
vn 0.27582 -0.958612 -0.070614
vt 0.31852 0.435883
vn 0.26413 -0.963364 0.046524
vt 0.309117 0.511379
vn 0.99302 -2.80913e-06 0.11795
vt 0.325028 0.755966
vn 0.197672 0.978975 0.0503374
vt 0.308983 0.755826
vn 0.264132 0.963364 0.0465241
vt 0.309117 0.511379
vn -0.991954 -2.1968e-06 0.126597
vt 0.26843 0.511024
vn -0.981929 -1.72127e-06 -0.189252
vt 0.251215 0.435296
vn -0.275821 0.958612 -0.0706152
vt 0.274304 0.435498
vn -0.264132 0.963364 0.0465241
vt 0.282388 0.511146
vn -0.99302 -2.80515e-06 0.11795
vt 0.26221 0.755417
vn -0.197669 -0.978976 0.0503371
vt 0.278256 0.755557
vn -0.26413 -0.963364 0.0465239
vt 0.282388 0.511146
vn 0.378799 0.904893 0.194115
vt 0.309027 0.0949099
vn 0.519223 0.846715 0.116112
vt 0.306459 0.322652
vn 0.813844 0.560713 0.152511
vt 0.322462 0.0950271
vn -0.27582 -0.958612 -0.070614
vt 0.274304 0.435498
vn 0.197669 -0.978976 0.0503371
vt 0.308983 0.755826
vn 0.275821 0.958612 -0.0706152
vt 0.31852 0.435884
vn -0.197672 0.978975 0.0503374
vt 0.278256 0.755557
vn -0.373348 -0.907035 0.194679
vt 0.290135 0.0947449
vn -0.517805 -0.847705 0.115212
vt 0.288339 0.322494
vn -0.811948 -0.564336 0.149219
vt 0.276991 0.0946302
vn -9.29105e-08 -6.59505e-06 1
vt 0.292913 0.836573
vn -0.129684 0.985385 0.110449
vt 0.282018 0.800371
vn 0.129684 0.985385 0.110449
vt 0.304439 0.800567
vn -0.129681 -0.985385 0.110446
vt 0.282018 0.800371
vn -0.888184 -4.10981e-06 0.459487
vt 0.27031 0.800269
vn -0.959035 -1.25376e-06 -0.283288
vt 0.27462 0.398042
vn -0.330039 0.937789 -0.107828
vt 0.28592 0.398141
vn 0.959035 -1.25375e-06 -0.283288
vt 0.318857 0.398428
vn 0.330038 -0.937789 -0.107828
vt 0.307558 0.39833
vn -0.330038 -0.937789 -0.107828
vt 0.28592 0.398141
vn 0.330039 0.937789 -0.107828
vt 0.307558 0.39833
vn -0.996464 0.0735566 0.0406182
vt 0.278877 0.322412
vn 0.888184 -4.129e-06 0.459487
vt 0.316147 0.800669
vn 0.129681 -0.985385 0.110446
vt 0.304439 0.800567
vn -0.388019 0.15907 -0.907821
vt 0.820525 0.504343
vn 0.257405 0.627884 -0.734509
vt 0.740182 0.430608
vn -0.339512 0.811289 -0.475963
vt 0.763714 0.482746
vn 0.627884 -0.257405 -0.73451
vt 0.820525 0.356873
vn 0.81129 0.339512 -0.475963
vt 0.763714 0.37847
vn -0.257405 -0.627884 -0.73451
vt 0.900869 0.430608
vn 0.339511 -0.81129 -0.475963
vt 0.877337 0.37847
vn -0.81129 -0.339511 -0.475963
vt 0.877337 0.482746
vn -0.388019 0.15907 -0.907821
vt 0.568434 0.0594789
vn -0.925267 0.379317 3.72244e-09
vt 0.568434 0.933912
vn -0.922481 -0.386043 -1.90136e-08
vt 0.564015 0.933912
vn -0.81129 -0.339511 -0.475963
vt 0.564015 0.0594789
vn -0.339512 0.811289 -0.475963
vt 0.57262 0.0594789
vn -0.386044 0.922481 3.15558e-08
vt 0.57262 0.933912
vn 0.257405 0.627884 -0.734509
vt 0.577039 0.0594789
vn 0.379319 0.925266 4.09452e-08
vt 0.577039 0.933912
vn 0.81129 0.339512 -0.475963
vt 0.546338 0.0594789
vn 0.922481 0.386043 2.62648e-08
vt 0.546338 0.933912
vn 0.379319 0.925266 4.09452e-08
vt 0.541919 0.933912
vn 0.257405 0.627884 -0.734509
vt 0.541919 0.0594789
vn 0.627884 -0.257405 -0.73451
vt 0.550757 0.0594789
vn 0.925266 -0.379319 -4.06876e-09
vt 0.550757 0.933912
vn 0.339511 -0.81129 -0.475963
vt 0.555176 0.0594789
vn 0.386043 -0.922481 -2.09438e-08
vt 0.555176 0.933912
vn -0.257405 -0.627884 -0.73451
vt 0.559596 0.0594789
vn -0.379319 -0.925266 -2.27358e-08
vt 0.559596 0.933912
vn -0.992306 -9.52647e-09 0.123806
vt 0.949095 0.0591323
vn -0.980239 1.84804e-07 0.197817
vt 0.930308 0.139516
vn -0.693134 -0.693133 0.197817
vt 0.898662 0.13924
vn -0.701667 -0.701666 0.123806
vt 0.912152 0.0588099
vn -0.701667 0.701667 0.123806
vt 0.912152 0.0588099
vn -0.693133 0.693134 0.197818
vt 0.898662 0.13924
vn -2.15182e-08 0.992306 0.123807
vt 0.822965 0.0580316
vn -1.79076e-08 0.980239 0.197818
vt 0.822262 0.138573
vn 0.701667 0.701666 0.123807
vt 0.733777 0.0572533
vn 0.693134 0.693134 0.197818
vt 0.745862 0.137906
vn 0.992306 -2.31078e-07 0.123806
vt 0.696835 0.0569309
vn 0.980239 -3.82794e-08 0.197818
vt 0.714216 0.13763
vn 0.701667 -0.701667 0.123806
vt 0.733777 0.0572533
vn 0.693134 -0.693133 0.197817
vt 0.745862 0.137906
vn -1.64508e-08 -0.992306 0.123806
vt 0.822965 0.0580316
vn -1.07012e-08 -0.980239 0.197817
vt 0.822262 0.138573
vn -0.962746 3.77275e-07 0.270409
vt 0.867234 0.261638
vn -0.680764 0.680764 0.270409
vt 0.853749 0.26152
vn -1.42122e-08 0.962745 0.270409
vt 0.821192 0.261236
vn 0.680764 0.680764 0.270409
vt 0.788634 0.260952
vn 0.962746 1.53914e-07 0.270409
vt 0.775149 0.260834
vn 0.680764 -0.680764 0.270409
vt 0.788634 0.260952
vn -4.91612e-09 -0.962746 0.270409
vt 0.821192 0.261236
vn -0.680764 -0.680764 0.270409
vt 0.853749 0.26152
f 1/1/1 3/3/3 2/2/2
f 1/1/1 2/2/2 5/5/5
f 1/1/1 5/5/5 4/4/4
f 6/6/6 9/9/9 8/8/8
f 6/6/6 8/8/8 7/7/7
f 10/10/10 13/13/13 12/12/12
f 10/10/10 12/12/12 11/11/11
f 10/10/10 16/16/16 15/15/15
f 10/10/10 15/15/15 14/14/14
f 17/17/17 20/20/20 19/19/19
f 17/17/17 19/19/19 18/18/18
f 17/17/17 23/23/23 22/22/22
f 17/17/17 22/22/22 21/21/21
f 24/24/24 8/8/8 9/9/9
f 24/24/24 9/9/9 25/25/25
f 24/24/24 25/25/25 26/26/26
f 13/13/13 23/23/23 27/27/27
f 13/13/13 27/27/27 12/12/12
f 13/13/13 10/10/10 14/14/14
f 13/13/13 14/14/14 28/28/28
f 20/20/20 16/16/16 29/29/29
f 20/20/20 29/29/29 19/19/19
f 20/20/20 17/17/17 21/21/21
f 20/20/20 21/21/21 30/30/30
f 31/31/31 5/5/5 2/2/2
f 31/31/31 2/2/2 32/32/32
f 31/31/31 32/32/32 33/33/33
f 34/34/34 36/36/36 35/35/35
f 34/34/34 38/38/38 37/37/37
f 23/23/23 17/17/17 18/18/18
f 23/23/23 18/18/18 27/27/27
f 23/23/23 13/13/13 28/28/28
f 23/23/23 28/28/28 22/22/22
f 16/16/16 10/10/10 11/11/11
f 16/16/16 11/11/11 29/29/29
f 16/16/16 20/20/20 30/30/30
f 16/16/16 30/30/30 15/15/15
f 18/18/18 19/19/19 40/40/40
f 18/18/18 40/40/40 39/39/39
f 11/11/11 12/12/12 42/42/42
f 11/11/11 42/42/42 41/41/41
f 12/12/12 27/27/27 43/43/43
f 12/12/12 43/43/43 42/42/42
f 19/19/19 29/29/29 44/44/44
f 19/19/19 44/44/44 40/40/40
f 27/27/27 18/18/18 39/39/39
f 27/27/27 39/39/39 43/43/43
f 29/29/29 11/11/11 41/41/41
f 29/29/29 41/41/41 44/44/44
f 41/41/41 42/42/42 2/2/2
f 41/41/41 2/2/2 3/3/3
f 42/42/42 43/43/43 32/32/32
f 42/42/42 32/32/32 2/2/2
f 40/40/40 44/44/44 25/25/25
f 40/40/40 25/25/25 9/9/9
f 43/43/43 39/39/39 45/45/45
f 43/43/43 45/45/45 32/32/32
f 44/44/44 41/41/41 3/3/3
f 44/44/44 3/3/3 25/25/25
f 39/39/39 40/40/40 9/9/9
f 39/39/39 9/9/9 45/45/45
f 3/3/3 1/1/1 26/26/26
f 3/3/3 26/26/26 25/25/25
f 9/9/9 6/6/6 45/45/45
f 45/45/45 6/6/6 33/33/33
f 45/45/45 33/33/33 32/32/32
f 21/21/21 22/22/22 37/37/37
f 21/21/21 37/37/37 38/38/38
f 14/14/14 15/15/15 36/36/36
f 14/14/14 36/36/36 46/46/46
f 28/28/28 14/14/14 46/46/46
f 28/28/28 46/46/46 47/47/47
f 15/15/15 30/30/30 35/35/35
f 15/15/15 35/35/35 36/36/36
f 22/22/22 28/28/28 47/47/47
f 22/22/22 47/47/47 37/37/37
f 30/30/30 21/21/21 38/38/38
f 30/30/30 38/38/38 35/35/35
f 48/48/48 50/50/50 49/49/49
f 48/48/48 49/49/49 52/52/52
f 48/48/48 52/52/52 51/51/51
f 48/48/48 51/51/51 54/54/54
f 48/48/48 54/54/54 53/53/53
f 48/48/48 53/53/53 55/55/55
f 48/56/56 55/59/59 57/58/58
f 48/56/56 57/58/58 56/57/57
f 50/60/60 48/56/56 56/57/57
f 50/60/60 56/57/57 58/61/61
f 49/62/62 50/60/60 58/61/61
f 49/62/62 58/61/61 59/63/63
f 52/64/64 49/67/67 59/66/66
f 52/64/64 59/66/66 60/65/65
f 51/68/68 52/64/64 60/65/65
f 51/68/68 60/65/65 61/69/69
f 54/70/70 51/68/68 61/69/69
f 54/70/70 61/69/69 62/71/71
f 53/72/72 54/70/70 62/71/71
f 53/72/72 62/71/71 63/73/73
f 55/59/59 53/72/72 63/73/73
f 55/59/59 63/73/73 57/58/58
f 38/38/38 34/34/34 35/35/35
f 36/36/36 34/34/34 46/46/46
f 46/46/46 34/34/34 47/47/47
f 47/47/47 34/34/34 37/37/37
f 64/74/74 67/77/77 66/76/76
f 64/74/74 66/76/76 65/75/75
f 68/78/78 64/74/74 65/75/75
f 68/78/78 65/75/75 69/79/79
f 70/80/80 68/78/78 69/79/79
f 70/80/80 69/79/79 71/81/81
f 72/82/82 70/80/80 71/81/81
f 72/82/82 71/81/81 73/83/83
f 74/84/84 72/82/82 73/83/83
f 74/84/84 73/83/83 75/85/85
f 76/86/86 74/84/84 75/85/85
f 76/86/86 75/85/85 77/87/87
f 78/88/88 76/86/86 77/87/87
f 78/88/88 77/87/87 79/89/89
f 67/77/77 78/88/88 79/89/89
f 67/77/77 79/89/89 66/76/76
f 80/90/90 81/91/91 69/79/79
f 80/90/90 69/79/79 65/75/75
f 81/91/91 82/92/92 71/81/81
f 81/91/91 71/81/81 69/79/79
f 82/92/92 83/93/93 73/83/83
f 82/92/92 73/83/83 71/81/81
f 83/93/93 84/94/94 75/85/85
f 83/93/93 75/85/85 73/83/83
f 84/94/94 85/95/95 77/87/87
f 84/94/94 77/87/87 75/85/85
f 85/95/95 86/96/96 79/89/89
f 85/95/95 79/89/89 77/87/87
f 86/96/96 87/97/97 66/76/76
f 86/96/96 66/76/76 79/89/89
f 87/97/97 80/90/90 65/75/75
f 87/97/97 65/75/75 66/76/76
