#
# Exported by OpenBRF -- marco tarini
#
s mmingmao
newmtl mmingmao
Ka 0.8 0.8 0.8
Kd 0.2 0.2 0.2
usemtl mmingmao
v 0.0186146 0.000431105 1.18247
v 0.00749978 -0.00873552 1.32856
v 0.0150279 0.000425037 1.32856
v 0.0188457 -0.00720189 1.18247
v 0.00809444 -0.0178802 1.18247
v -0.0176971 0.000431105 1.18247
v -0.0176326 0.00777346 1.18247
v -0.00703356 0.0185937 1.18247
v -0.00691651 0.00958567 1.32856
v 0.0220296 0.000425037 1.44959
v 0.0362509 0.000425037 1.40111
v 0.0178809 -0.00944461 1.40111
v 0.0109247 -0.00841796 1.44959
v 0.0252811 0.000425037 1.60637
v 0.0125151 0.00484661 1.60637
v 0.0109247 0.00926812 1.44959
v -0.0214463 0.000425037 1.44959
v -0.0356676 0.000425037 1.40111
v -0.0172976 0.0102948 1.40111
v -0.0103414 0.00926812 1.44959
v -0.0246979 0.000425037 1.60637
v -0.0119318 -0.00399646 1.60637
v -0.0103414 -0.00841796 1.44959
v 0.00796174 0.0185937 1.18247
v 0.00749978 0.00958567 1.32856
v 0.018651 0.00782955 1.18247
v -0.0172976 -0.00944461 1.40111
v 0.0125151 -0.00399646 1.60637
v 0.0178809 0.0102948 1.40111
v -0.0119318 0.00484661 1.60637
v -0.0070688 -0.0178789 1.18247
v -0.0069165 -0.00873552 1.32856
v -0.0175268 -0.00760229 1.18247
v 0.000291638 0.000425037 1.65825
v -0.00862741 0.00263586 1.63509
v 0.00921069 0.00263586 1.63509
v -0.00862741 -0.00178571 1.63509
v -0.0179423 0.000425037 1.63509
v -0.0173059 0.000425037 1.37709
v -0.00831612 0.0081909 1.37709
v 0.0178892 0.000425037 1.37709
v 0.0088994 -0.00734083 1.37709
v -0.00831612 -0.00734083 1.37709
v 0.0088994 0.0081909 1.37709
v -0.0144446 0.000425037 1.32856
v 0.0185256 0.000425037 1.63509
v 0.00921069 -0.00178571 1.63509
v -0.0172893 0.00761025 -0.784721
v 0.00786292 0.0181361 -0.784721
v -0.00689318 0.0180824 -0.784721
v 0.0183887 -0.00701619 -0.784721
v 0.018335 0.00773993 -0.784721
v -0.00676352 -0.017542 -0.784721
v 0.00799258 -0.0174883 -0.784721
v -0.0172356 -0.0071458 -0.784721
v -0.0172894 0.00761017 1.19295
v -0.0172357 -0.00714588 1.19295
v -0.0068932 0.0180823 1.19295
v 0.0078629 0.018136 1.19295
v 0.018335 0.00773985 1.19295
v 0.0183887 -0.00701627 1.19295
v 0.00799256 -0.0174884 1.19295
v -0.00676354 -0.017542 1.19295
vn 0.961243 -0.27168 0.0469219
vt 0.24508 0.643127
vn 0.523437 -0.851405 0.033531
vt 0.271844 0.279436
vn 0.997426 -0.071429 0.00628897
vt 0.253717 0.279435
vn 0.86542 -0.497197 0.0619951
vt 0.244524 0.643127
vn 0.499615 -0.863262 0.0718596
vt 0.270412 0.643127
vn -0.960131 0.276119 0.0436762
vt 0.332515 0.643127
vn -0.86096 0.505482 0.0568857
vt 0.332359 0.643127
vn -0.495751 0.865783 0.0681949
vt 0.306838 0.643127
vn -0.52193 0.852396 0.0317758
vt 0.306556 0.279435
vn 0.991954 -2.31937e-06 0.126597
vt 0.0690684 0.554618
vn 0.981929 -1.36259e-06 -0.189251
vt 0.0494199 0.62415
vn 0.27582 -0.958612 -0.0706139
vt 0.0748004 0.62415
vn 0.26413 -0.963364 0.046524
vt 0.0844113 0.554618
vn 0.99302 -2.81057e-06 0.11795
vt 0.0645761 0.212485
vn 0.197672 0.978975 0.0503374
vt 0.0822139 0.212485
vn 0.264132 0.963364 0.0465242
vt 0.0844113 0.554618
vn -0.991954 -2.31937e-06 0.126597
vt 0.129136 0.554618
vn -0.981929 -1.36259e-06 -0.189251
vt 0.148784 0.62415
vn -0.275821 0.958612 -0.0706146
vt 0.123404 0.62415
vn -0.264132 0.963364 0.0465242
vt 0.113793 0.554618
vn -0.99302 -2.80865e-06 0.11795
vt 0.133628 0.212485
vn -0.197669 -0.978976 0.0503371
vt 0.11599 0.212485
vn -0.26413 -0.963364 0.0465239
vt 0.113793 0.554618
vn 0.383814 0.921585 0.0580421
vt 0.270731 0.643127
vn 0.521979 0.852226 0.0353245
vt 0.271844 0.279435
vn 0.822581 0.566844 0.0452653
vt 0.244993 0.643127
vn -0.27582 -0.958612 -0.0706139
vt 0.123404 0.624151
vn 0.197669 -0.978976 0.0503371
vt 0.0822139 0.212485
vn 0.275821 0.958612 -0.0706146
vt 0.0748004 0.62415
vn -0.197672 0.978975 0.0503374
vt 0.11599 0.212485
vn -0.378191 -0.923895 0.058223
vt 0.306923 0.643127
vn -0.520349 -0.853234 0.0350581
vt 0.306556 0.279436
vn -0.820247 -0.570293 0.0442685
vt 0.332105 0.643127
vn -6.25473e-08 -6.60958e-06 1
vt 0.0991022 0.138066
vn -0.129684 0.985385 0.110449
vt 0.111425 0.171286
vn 0.129684 0.985385 0.110449
vt 0.0867794 0.171286
vn -0.129681 -0.985385 0.110446
vt 0.111425 0.171286
vn -0.888184 -4.12242e-06 0.459488
vt 0.124295 0.171286
vn -0.962175 -8.66337e-07 -0.272433
vt 0.123415 0.658612
vn -0.329974 0.937658 -0.109156
vt 0.110995 0.658612
vn 0.962175 -8.65492e-07 -0.272433
vt 0.0747889 0.658612
vn 0.329973 -0.937658 -0.109155
vt 0.0872094 0.658612
vn -0.329973 -0.937658 -0.109155
vt 0.110995 0.658612
vn 0.329974 0.937658 -0.109156
vt 0.0872094 0.658612
vn 0.962175 -8.65492e-07 -0.272433
vt 0.246827 0.15861
vn 0.329973 -0.937658 -0.109155
vt 0.268473 0.15861
vn -0.329973 -0.937658 -0.109155
vt 0.309926 0.15861
vn -0.329974 0.937658 -0.109156
vt 0.309926 0.15861
vn 0.329974 0.937658 -0.109156
vt 0.268473 0.15861
vn -0.997354 0.0725155 0.00516901
vt 0.324683 0.279435
vn -0.962175 -8.66337e-07 -0.272433
vt 0.331573 0.15861
vn 0.888184 -4.13169e-06 0.459487
vt 0.0739097 0.171286
vn 0.129681 -0.985385 0.110446
vt 0.0867794 0.171286
vn -0.388019 0.15907 -0.907821
vt 0.585914 0.86452
vn 0.257405 0.627884 -0.734509
vt 0.502266 0.784177
vn -0.339512 0.811289 -0.475963
vt 0.526766 0.840988
vn 0.627884 -0.257405 -0.73451
vt 0.585914 0.703833
vn 0.81129 0.339512 -0.475963
vt 0.526766 0.727365
vn -0.257405 -0.627884 -0.73451
vt 0.669562 0.784177
vn 0.339512 -0.81129 -0.475963
vt 0.645062 0.727365
vn -0.81129 -0.339511 -0.475963
vt 0.645062 0.840988
vn -0.388019 0.15907 -0.907821
vt 0.824775 0.0360822
vn -0.925267 0.379317 3.53802e-09
vt 0.824775 0.890564
vn -0.922481 -0.386043 -1.90891e-08
vt 0.819965 0.890564
vn -0.81129 -0.339511 -0.475963
vt 0.819965 0.0360822
vn -0.339512 0.811289 -0.475963
vt 0.829584 0.0360822
vn -0.386044 0.922481 3.13674e-08
vt 0.829584 0.890564
vn 0.257405 0.627884 -0.734509
vt 0.834394 0.0360822
vn 0.379319 0.925266 4.08222e-08
vt 0.834394 0.890564
vn 0.81129 0.339512 -0.475963
vt 0.800727 0.0360822
vn 0.922481 0.386043 2.62832e-08
vt 0.800727 0.890564
vn 0.379319 0.925266 4.08222e-08
vt 0.795918 0.890564
vn 0.257405 0.627884 -0.734509
vt 0.795918 0.0360822
vn 0.627884 -0.257405 -0.73451
vt 0.805537 0.0360822
vn 0.925266 -0.379319 -4.00572e-09
vt 0.805537 0.890564
vn 0.339512 -0.81129 -0.475963
vt 0.810346 0.0360822
vn 0.386043 -0.922481 -2.10268e-08
vt 0.810346 0.890564
vn -0.257405 -0.627884 -0.73451
vt 0.815156 0.0360822
vn -0.379319 -0.925266 -2.28198e-08
vt 0.815156 0.890564
f 1/1/1 3/3/3 2/2/2
f 1/1/1 2/2/2 5/5/5
f 1/1/1 5/5/5 4/4/4
f 6/6/6 9/9/9 8/8/8
f 6/6/6 8/8/8 7/7/7
f 10/10/10 13/13/13 12/12/12
f 10/10/10 12/12/12 11/11/11
f 10/10/10 16/16/16 15/15/15
f 10/10/10 15/15/15 14/14/14
f 17/17/17 20/20/20 19/19/19
f 17/17/17 19/19/19 18/18/18
f 17/17/17 23/23/23 22/22/22
f 17/17/17 22/22/22 21/21/21
f 24/24/24 8/8/8 9/9/9
f 24/24/24 9/9/9 25/25/25
f 24/24/24 25/25/25 26/26/26
f 13/13/13 23/23/23 27/27/27
f 13/13/13 27/27/27 12/12/12
f 13/13/13 10/10/10 14/14/14
f 13/13/13 14/14/14 28/28/28
f 20/20/20 16/16/16 29/29/29
f 20/20/20 29/29/29 19/19/19
f 20/20/20 17/17/17 21/21/21
f 20/20/20 21/21/21 30/30/30
f 31/31/31 5/5/5 2/2/2
f 31/31/31 2/2/2 32/32/32
f 31/31/31 32/32/32 33/33/33
f 34/34/34 36/36/36 35/35/35
f 34/34/34 38/38/38 37/37/37
f 23/23/23 17/17/17 18/18/18
f 23/23/23 18/18/18 27/27/27
f 23/23/23 13/13/13 28/28/28
f 23/23/23 28/28/28 22/22/22
f 16/16/16 10/10/10 11/11/11
f 16/16/16 11/11/11 29/29/29
f 16/16/16 20/20/20 30/30/30
f 16/16/16 30/30/30 15/15/15
f 18/18/18 19/19/19 40/40/40
f 18/18/18 40/40/40 39/39/39
f 11/11/11 12/12/12 42/42/42
f 11/11/11 42/42/42 41/41/41
f 12/12/12 27/27/27 43/43/43
f 12/12/12 43/43/43 42/42/42
f 19/19/19 29/29/29 44/44/44
f 19/19/19 44/44/44 40/40/40
f 27/27/27 18/18/18 39/39/39
f 27/27/27 39/39/39 43/43/43
f 29/29/29 11/11/11 41/41/41
f 29/29/29 41/41/41 44/44/44
f 41/45/45 42/46/46 2/2/2
f 41/45/45 2/2/2 3/3/3
f 42/46/46 43/47/47 32/32/32
f 42/46/46 32/32/32 2/2/2
f 40/48/48 44/49/49 25/25/25
f 40/48/48 25/25/25 9/9/9
f 43/47/47 39/51/51 45/50/50
f 43/47/47 45/50/50 32/32/32
f 44/49/49 41/45/45 3/3/3
f 44/49/49 3/3/3 25/25/25
f 39/51/51 40/48/48 9/9/9
f 39/51/51 9/9/9 45/50/50
f 3/3/3 1/1/1 26/26/26
f 3/3/3 26/26/26 25/25/25
f 9/9/9 6/6/6 45/50/50
f 45/50/50 6/6/6 33/33/33
f 45/50/50 33/33/33 32/32/32
f 21/21/21 22/22/22 37/37/37
f 21/21/21 37/37/37 38/38/38
f 14/14/14 15/15/15 36/36/36
f 14/14/14 36/36/36 46/52/52
f 28/28/28 14/14/14 46/52/52
f 28/28/28 46/52/52 47/53/53
f 15/15/15 30/30/30 35/35/35
f 15/15/15 35/35/35 36/36/36
f 22/22/22 28/28/28 47/53/53
f 22/22/22 47/53/53 37/37/37
f 30/30/30 21/21/21 38/38/38
f 30/30/30 38/38/38 35/35/35
f 48/54/54 50/56/56 49/55/55
f 48/54/54 49/55/55 52/58/58
f 48/54/54 52/58/58 51/57/57
f 48/54/54 51/57/57 54/60/60
f 48/54/54 54/60/60 53/59/59
f 48/54/54 53/59/59 55/61/61
f 48/62/62 55/65/65 57/64/64
f 48/62/62 57/64/64 56/63/63
f 50/66/66 48/62/62 56/63/63
f 50/66/66 56/63/63 58/67/67
f 49/68/68 50/66/66 58/67/67
f 49/68/68 58/67/67 59/69/69
f 52/70/70 49/73/73 59/72/72
f 52/70/70 59/72/72 60/71/71
f 51/74/74 52/70/70 60/71/71
f 51/74/74 60/71/71 61/75/75
f 54/76/76 51/74/74 61/75/75
f 54/76/76 61/75/75 62/77/77
f 53/78/78 54/76/76 62/77/77
f 53/78/78 62/77/77 63/79/79
f 55/65/65 53/78/78 63/79/79
f 55/65/65 63/79/79 57/64/64
f 38/38/38 34/34/34 35/35/35
f 36/36/36 34/34/34 46/52/52
f 46/52/52 34/34/34 47/53/53
f 47/53/53 34/34/34 37/37/37
