#
# Exported by OpenBRF -- marco tarini
#
s china_pike
newmtl sg_china_weapon
Ka 0.8 0.8 0.8
Kd 0.2 0.2 0.2
usemtl sg_china_weapon
v 0.016498 0.004957 -0.486379
v -0.009456 0.01339 -0.486379
v 0.000458 0.016611 -0.486379
v 0.010372 0.01339 -0.486379
v 0.016498 -0.005467 -0.486379
v -0.015583 0.004957 -0.486379
v 0.010372 -0.0139 -0.486379
v -0.015583 -0.005467 -0.486379
v 0.000458 -0.017121 -0.486379
v -0.009456 -0.0139 -0.486379
v -0.009456 0.01339 1.41128
v 0.000458 0.016611 1.41128
v -0.015583 0.004957 1.41128
v -0.015583 -0.005467 1.41128
v -0.009456 -0.0139 1.41128
v 0.000458 -0.017121 1.41128
v 0.010372 -0.0139 1.41128
v 0.016499 -0.005467 1.41128
v 0.016499 0.004957 1.41128
v 0.010372 0.01339 1.41128
v -0.123006 -0.000353 1.65864
v -0.125697 -0.00205 1.62971
v -0.110222 -0.00232 1.63778
v -0.119813 -0.002153 1.60089
v -0.096701 -0.002556 1.62513
v -0.112777 -0.002275 1.58439
v -0.100503 -0.00249 1.57649
v -0.076491 -0.002909 1.5807
v -0.076582 -0.002907 1.62029
v -0.052362 -0.00333 1.58732
v -0.053704 -0.003306 1.62231
v -0.03352 -0.003659 1.59337
v -0.034193 -0.003647 1.63173
v -0.125697 0.001343 1.62971
v -0.110222 0.001614 1.63778
v -0.119813 0.001446 1.60089
v -0.096701 0.001849 1.62513
v -0.100503 0.001783 1.57649
v -0.112777 0.001569 1.58439
v -0.076491 0.002203 1.5807
v -0.076582 0.002201 1.62029
v -0.052362 0.002624 1.58732
v -0.053704 0.0026 1.62231
v -0.03352 0.002952 1.59337
v -0.034193 0.00294 1.63173
v -0.021692 -0.00464 1.59604
v -0.021692 -0.00464 1.64306
v -0.021692 0.004348 1.59604
v -0.021692 0.004348 1.64306
v -4.5e-05 -0.0129 1.60001
v -4.5e-05 -0.0129 1.66401
v -4.5e-05 0.012609 1.60001
v -4.5e-05 0.012609 1.66401
v 0.125607 -0.00205 1.62971
v 0.122916 -0.000353 1.65864
v 0.110133 -0.00232 1.63778
v 0.119723 -0.002153 1.60089
v 0.096612 -0.002556 1.62513
v 0.100413 -0.00249 1.57649
v 0.112687 -0.002275 1.58439
v 0.076401 -0.002909 1.5807
v 0.076493 -0.002907 1.62029
v 0.052272 -0.00333 1.58732
v 0.053614 -0.003306 1.62231
v 0.03343 -0.003659 1.59337
v 0.034103 -0.003647 1.63173
v 0.125607 0.001343 1.62971
v 0.110133 0.001614 1.63778
v 0.119723 0.001446 1.60089
v 0.096612 0.001849 1.62513
v 0.112687 0.001569 1.58439
v 0.100413 0.001783 1.57649
v 0.076401 0.002203 1.5807
v 0.076493 0.002201 1.62029
v 0.052272 0.002624 1.58732
v 0.053614 0.0026 1.62231
v 0.03343 0.002952 1.59337
v 0.034103 0.00294 1.63173
v 0.021602 -0.00464 1.59604
v 0.021602 -0.00464 1.64306
v 0.021602 0.004348 1.59604
v 0.021602 0.004348 1.64306
v -0.015715 0.005 1.58474
v -0.015715 -0.00551 1.58474
v -0.009538 -0.014013 1.58474
v 0.000458 -0.017261 1.58474
v 0.010454 -0.014013 1.58474
v 0.016631 -0.00551 1.58474
v 0.016631 0.005 1.58474
v -0.009538 0.013503 1.58474
v 0.000458 0.016751 1.58474
v 0.010454 0.013503 1.58474
v 0.020266 0.006154 1.40722
v -0.011647 0.016523 1.40722
v 0.000543 0.020484 1.40722
v 0.012733 0.016523 1.40722
v 0.020266 -0.006663 1.40722
v -0.019181 0.006154 1.40722
v 0.012733 -0.017033 1.40722
v -0.019181 -0.006663 1.40722
v 0.000543 -0.020994 1.40722
v -0.011647 -0.017033 1.40722
v -0.014162 0.000834 2.03819
v -0.014162 -0.001102 2.03819
v 0.014072 0.000834 2.03819
v 0.014072 -0.001102 2.03819
v -4.5e-05 -0.000146 2.06354
v -4.5e-05 -0.00337 2.02675
v -4.5e-05 0.003273 2.02675
vn 0.512334 0.166464 -0.453137
vt 1.03795 0.317022
vn -0.316632 0.435819 -0.45314
vt 1.05021 0.317022
vn -6e-06 0.5387 -0.453136
vt 1.05489 0.317022
vn 0.316641 0.435818 -0.453135
vt 1.05021 0.317022
vn 0.512336 -0.166452 -0.45314
vt 1.02278 0.317022
vn -0.512332 0.166478 -0.453134
vt 1.03795 0.317022
vn 0.316651 -0.435813 -0.453132
vt 1.01052 0.317022
vn -0.512334 -0.166468 -0.453136
vt 1.02278 0.317022
vn -5e-06 -0.5387 -0.453136
vt 1.00584 0.317022
vn -0.316641 -0.435815 -0.453137
vt 1.01052 0.317022
vn -0.413749 0.56951 0
vt 1.05021 0.18998
vn 9e-06 0.703939 0
vt 1.05489 0.18998
vn -0.669481 0.217544 0
vt 1.03795 0.18998
vn -0.669486 -0.217528 0
vt 1.02279 0.18998
vn -0.413763 -0.5695 0
vt 1.01052 0.18998
vn 6e-06 -0.703939 0
vt 1.00584 0.18998
vn 0.413766 -0.569497 0
vt 1.01052 0.18998
vn 0.669485 -0.217531 0
vt 1.02279 0.18998
vn 0.669482 0.217541 0
vt 1.03795 0.18998
vn 0.413757 0.569504 0
vt 1.05021 0.18998
vn -0.170779 0 0.682909
vt 0.076887 0.429669
vn -0.520718 -0.473326 -0.018578
vt 0.09706 0.415335
vn 0.346854 -0.526133 0.313698
vt 0.113006 0.431676
vn -0.494038 -0.477984 -0.151615
vt 0.108444 0.408996
vn 0.20389 -0.543385 0.39836
vt 0.137663 0.436401
vn -0.415268 -0.45149 -0.34531
vt 0.118907 0.403503
vn -0.113231 -0.444998 -0.533559
vt 0.133569 0.407454
vn 0.102434 -0.491312 -0.493609
vt 0.159432 0.409961
vn 0.024746 -0.524854 0.46845
vt 0.159334 0.433521
vn 0.134799 -0.495533 -0.481462
vt 0.185422 0.4139
vn -0.13346 -0.526729 0.44752
vt 0.183976 0.434722
vn 0.108097 -0.502301 -0.481185
vt 0.205717 0.417503
vn -0.293166 -0.509051 0.387879
vt 0.204992 0.440328
vn -0.52072 0.473324 -0.018576
vt 0.097817 0.414965
vn -0.170779 0 0.682909
vt 0.077644 0.4293
vn 0.346853 0.526131 0.313702
vt 0.113764 0.431306
vn -0.494047 0.477977 -0.151607
vt 0.109201 0.408626
vn 0.203892 0.543384 0.398362
vt 0.138421 0.436031
vn -0.113229 0.444993 -0.533564
vt 0.134326 0.407084
vn -0.415255 0.451504 -0.345307
vt 0.119664 0.403134
vn 0.102426 0.491318 -0.493604
vt 0.160189 0.409591
vn 0.02474 0.52485 0.468455
vt 0.160091 0.433151
vn 0.134801 0.495537 -0.481458
vt 0.186179 0.41353
vn -0.133458 0.526733 0.447517
vt 0.184734 0.434352
vn 0.101466 0.499976 -0.485035
vt 0.206474 0.417134
vn -0.304418 0.502933 0.387193
vt 0.205749 0.439958
vn -0.288667 -0.562394 -0.3097
vt 0.218457 0.41909
vn -0.487437 -0.485122 0.150306
vt 0.218457 0.44707
vn -0.294588 0.560914 -0.306796
vt 0.219214 0.418721
vn -0.488278 0.484744 0.148787
vt 0.219214 0.4467
vn -0.293166 -0.509051 0.387879
vt 0.205749 0.439958
vn -0.487437 -0.485122 0.150306
vt 0.219214 0.4467
vn -0.13346 -0.526729 0.44752
vt 0.184734 0.434352
vn -0.133458 0.526733 0.447517
vt 0.183976 0.434722
vn -0.304418 0.502933 0.387193
vt 0.204992 0.440328
vn 0.024746 -0.524854 0.46845
vt 0.160091 0.433151
vn 0.20389 -0.543385 0.39836
vt 0.138421 0.436031
vn 0.203892 0.543384 0.398362
vt 0.137663 0.436401
vn 0.02474 0.52485 0.468455
vt 0.159334 0.433521
vn 0.346854 -0.526133 0.313698
vt 0.113764 0.431306
vn 0.346853 0.526131 0.313702
vt 0.113006 0.431676
vn -0.520718 -0.473326 -0.018578
vt 0.097817 0.414965
vn -0.494038 -0.477984 -0.151615
vt 0.109201 0.408626
vn -0.415268 -0.45149 -0.34531
vt 0.119664 0.403134
vn -0.113231 -0.444998 -0.533559
vt 0.134326 0.407084
vn -0.113229 0.444993 -0.533564
vt 0.133569 0.407454
vn -0.415255 0.451504 -0.345307
vt 0.118907 0.403503
vn 0.102434 -0.491312 -0.493609
vt 0.160189 0.409591
vn 0.134799 -0.495533 -0.481462
vt 0.186179 0.41353
vn 0.108097 -0.502301 -0.481185
vt 0.206474 0.417134
vn -0.288667 -0.562394 -0.3097
vt 0.219214 0.418721
vn -0.288667 -0.562394 -0.3097
vt 0.17569 -0.607944
vn -0.003838 -0.699459 0.079198
vt 0.174739 -0.573798
vn 0.003084 -0.703845 0.011063
vt 0.159393 -0.573799
vn -0.487437 -0.485122 0.150306
vt 0.164416 -0.607945
vn -0.00382 0.699982 0.074437
vt 0.174906 -0.572558
vn -0.294588 0.560914 -0.306796
vt 0.175857 -0.606704
vn -0.488278 0.484744 0.148787
vt 0.164584 -0.606705
vn -0.002934 0.703848 0.010908
vt 0.159561 -0.572559
vn 0.52072 -0.473324 -0.018577
vt 0.098779 0.415335
vn 0.170772 0 0.682911
vt 0.078607 0.429669
vn -0.346854 -0.526133 0.313697
vt 0.114726 0.431676
vn 0.494038 -0.477984 -0.151616
vt 0.110164 0.408996
vn -0.203893 -0.543385 0.398359
vt 0.139382 0.436401
vn 0.113239 -0.444998 -0.533557
vt 0.135288 0.407454
vn 0.415271 -0.451492 -0.345304
vt 0.120626 0.403503
vn -0.102434 -0.491311 -0.493609
vt 0.161151 0.409961
vn -0.024745 -0.524855 0.468449
vt 0.161053 0.433521
vn -0.134797 -0.495534 -0.481462
vt 0.187141 0.4139
vn 0.133462 -0.526728 0.447521
vt 0.185696 0.434722
vn -0.10796 -0.502209 -0.481311
vt 0.207436 0.417503
vn 0.293502 -0.508767 0.387999
vt 0.206711 0.440328
vn 0.170772 0 0.682911
vt 0.077849 0.4293
vn 0.520718 0.473326 -0.018578
vt 0.098022 0.414965
vn -0.346855 0.526135 0.313693
vt 0.113968 0.431306
vn 0.494047 0.477978 -0.151606
vt 0.109406 0.408626
vn -0.203891 0.543384 0.398361
vt 0.138625 0.436031
vn 0.415259 0.451505 -0.345301
vt 0.119868 0.403134
vn 0.113237 0.444992 -0.533563
vt 0.13453 0.407084
vn -0.102424 0.491317 -0.493606
vt 0.160394 0.409591
vn -0.024736 0.524849 0.468456
vt 0.160295 0.433151
vn -0.134804 0.495537 -0.481457
vt 0.186384 0.41353
vn 0.133452 0.526733 0.447518
vt 0.184938 0.434352
vn -0.101668 0.500117 -0.484846
vt 0.206678 0.417134
vn 0.303916 0.50338 0.387006
vt 0.205954 0.439958
vn 0.297852 -0.567765 -0.290615
vt 0.220176 0.41909
vn 0.487093 -0.485168 0.151268
vt 0.220176 0.44707
vn 0.303993 0.566133 -0.287422
vt 0.219419 0.418721
vn 0.488621 0.484694 0.147822
vt 0.219419 0.4467
vn 0.487093 -0.485168 0.151268
vt 0.219419 0.4467
vn 0.293502 -0.508767 0.387999
vt 0.205954 0.439958
vn 0.133462 -0.526728 0.447521
vt 0.184938 0.434352
vn -0.024745 -0.524855 0.468449
vt 0.160295 0.433151
vn -0.203893 -0.543385 0.398359
vt 0.138625 0.436031
vn -0.346854 -0.526133 0.313697
vt 0.113968 0.431306
vn 0.52072 -0.473324 -0.018577
vt 0.098022 0.414965
vn 0.494038 -0.477984 -0.151616
vt 0.109406 0.408626
vn 0.415271 -0.451492 -0.345304
vt 0.119868 0.403134
vn 0.113239 -0.444998 -0.533557
vt 0.13453 0.407084
vn -0.102434 -0.491311 -0.493609
vt 0.160394 0.409591
vn -0.134797 -0.495534 -0.481462
vt 0.186384 0.41353
vn -0.10796 -0.502209 -0.481311
vt 0.206678 0.417134
vn 0.303993 0.566133 -0.287422
vt 0.220176 0.41909
vn -0.101668 0.500117 -0.484846
vt 0.207436 0.417503
vn 0.297852 -0.567765 -0.290615
vt 0.219419 0.418721
vn 0.297852 -0.567765 -0.290615
vt 0.17569 -0.539651
vn 0.487093 -0.485168 0.151268
vt 0.164416 -0.539652
vn 0.303993 0.566133 -0.287422
vt 0.175857 -0.538411
vn 0.488621 0.484694 0.147822
vt 0.164584 -0.538412
vn -0.629159 0.311862 -0.049303
vt 0.187074 -0.588079
vn -0.628915 -0.313028 -0.04482
vt 0.187074 -0.588079
vn -0.288667 -0.562394 -0.3097
vt 0.175857 -0.606704
vn -0.628915 -0.313028 -0.04482
vt 0.186966 -0.588879
vn -0.421915 -0.542888 0.150963
vt 0.186966 -0.582592
vn 0.001889 -0.696436 0.102486
vt 0.186966 -0.57242
vn 0.42137 -0.539881 0.162806
vt 0.186966 -0.562247
vn 0.632616 -0.30775 -0.02482
vt 0.186966 -0.55596
vn 0.632972 0.306635 -0.029189
vt 0.187074 -0.55516
vn 0.297852 -0.567765 -0.290615
vt 0.175857 -0.538411
vn 0.632616 -0.30775 -0.02482
vt 0.187074 -0.55516
vn -0.422723 0.54301 0.14824
vt 0.187074 -0.581792
vn 0.00191 0.697072 0.098068
vt 0.187074 -0.571619
vn 0.42218 0.540018 0.160232
vt 0.187074 -0.561447
vn 0.516826 0.167911 -0.447467
vt 0.302183 -0.545935
vn -0.31928 0.439527 -0.447667
vt 0.302184 -0.57654
vn 4.6e-05 0.543321 -0.447584
vt 0.302183 -0.56485
vn 0.319427 0.439576 -0.447515
vt 0.302183 -0.55316
vn 0.516827 -0.167902 -0.447469
vt 0.302183 -0.545935
vn -0.516626 0.167891 -0.447705
vt 0.302184 -0.583766
vn 0.319435 -0.439572 -0.447513
vt 0.302183 -0.55316
vn -0.516627 -0.167882 -0.447707
vt 0.302184 -0.583766
vn 4.6e-05 -0.543321 -0.447584
vt 0.302183 -0.56485
vn -0.319289 -0.439523 -0.447666
vt 0.302184 -0.57654
vn -0.628915 -0.313028 -0.04482
vt 0.191594 -0.582558
vn -0.629159 0.311862 -0.049303
vt 0.191594 -0.582558
vn -0.319289 -0.439523 -0.447666
vt 0.301839 -0.577294
vn -0.421915 -0.542888 0.150963
vt 0.19132 -0.578455
vn -0.628915 -0.313028 -0.04482
vt 0.19132 -0.583157
vn -0.516627 -0.167882 -0.447707
vt 0.301839 -0.584519
vn 4.6e-05 -0.543321 -0.447584
vt 0.301839 -0.565604
vn 0.001889 -0.696436 0.102486
vt 0.19132 -0.570847
vn 0.319435 -0.439572 -0.447513
vt 0.301839 -0.553914
vn 0.42137 -0.539881 0.162806
vt 0.19132 -0.563239
vn 0.516827 -0.167902 -0.447469
vt 0.301839 -0.546689
vn 0.632616 -0.30775 -0.02482
vt 0.19132 -0.558537
vn 0.632972 0.306635 -0.029189
vt 0.191593 -0.557938
vn 0.632616 -0.30775 -0.02482
vt 0.191593 -0.557938
vn -0.422723 0.54301 0.14824
vt 0.191594 -0.577856
vn 0.00191 0.697072 0.098068
vt 0.191594 -0.570248
vn 0.42218 0.540018 0.160232
vt 0.191594 -0.56264
vn -0.532542 0.43306 0.156167
vt 0.070096 -0.583023
vn -0.487437 -0.485122 0.150306
vt 0.164584 -0.606705
vn -0.530928 -0.434649 0.157242
vt 0.070096 -0.583023
vn 0.487093 -0.485168 0.151268
vt 0.164584 -0.538412
vn 0.532539 0.432421 0.157937
vt 0.070096 -0.562779
vn 0.532539 0.432421 0.157937
vt 0.07002 -0.563342
vn 0.530927 -0.43532 0.155381
vt 0.07002 -0.563342
vn -5e-06 -0.001253 0.703938
vt 0.063765 -0.572563
vn 0.530927 -0.43532 0.155381
vt 0.070096 -0.562779
vn -5e-06 -0.001253 0.703938
vt 0.063597 -0.573803
vn -0.532542 0.43306 0.156167
vt 0.07002 -0.583587
vn -0.530928 -0.434649 0.157242
vt 0.07002 -0.583587
vn 0.004495 -0.7034 0.02716
vt 0.071266 -0.573465
vn -0.004269 0.703364 0.028121
vt 0.071342 -0.572901
f 1/1/1 2/2/2 3/3/3
f 1/1/1 3/3/3 4/4/4
f 5/5/5 6/6/6 2/2/2
f 5/5/5 2/2/2 1/1/1
f 7/7/7 8/8/8 6/6/6
f 7/7/7 6/6/6 5/5/5
f 9/9/9 10/10/10 8/8/8
f 9/9/9 8/8/8 7/7/7
f 3/3/3 2/2/2 11/11/11
f 3/3/3 11/11/11 12/12/12
f 2/2/2 6/6/6 13/13/13
f 2/2/2 13/13/13 11/11/11
f 6/6/6 8/8/8 14/14/14
f 6/6/6 14/14/14 13/13/13
f 8/8/8 10/10/10 15/15/15
f 8/8/8 15/15/15 14/14/14
f 10/10/10 9/9/9 16/16/16
f 10/10/10 16/16/16 15/15/15
f 9/9/9 7/7/7 17/17/17
f 9/9/9 17/17/17 16/16/16
f 7/7/7 5/5/5 18/18/18
f 7/7/7 18/18/18 17/17/17
f 5/5/5 1/1/1 19/19/19
f 5/5/5 19/19/19 18/18/18
f 1/1/1 4/4/4 20/20/20
f 1/1/1 20/20/20 19/19/19
f 4/4/4 3/3/3 12/12/12
f 4/4/4 12/12/12 20/20/20
f 21/21/21 22/22/22 23/23/23
f 22/22/22 24/24/24 25/25/25
f 22/22/22 25/25/25 23/23/23
f 26/26/26 27/27/27 25/25/25
f 27/27/27 28/28/28 29/29/29
f 27/27/27 29/29/29 25/25/25
f 28/28/28 30/30/30 31/31/31
f 28/28/28 31/31/31 29/29/29
f 30/30/30 32/32/32 33/33/33
f 30/30/30 33/33/33 31/31/31
f 24/24/24 26/26/26 25/25/25
f 34/34/34 21/35/35 35/36/36
f 36/37/37 34/34/34 35/36/36
f 36/37/37 35/36/36 37/38/38
f 38/39/39 39/40/40 37/38/38
f 40/41/41 38/39/39 37/38/38
f 40/41/41 37/38/38 41/42/42
f 42/43/43 40/41/41 41/42/42
f 42/43/43 41/42/42 43/44/44
f 44/45/45 42/43/43 43/44/44
f 44/45/45 43/44/44 45/46/46
f 39/40/40 36/37/37 37/38/38
f 32/32/32 46/47/47 47/48/48
f 32/32/32 47/48/48 33/33/33
f 48/49/49 44/45/45 45/46/46
f 48/49/49 45/46/46 49/50/50
f 49/50/50 45/46/46 33/51/51
f 49/50/50 33/51/51 47/52/52
f 43/44/44 31/53/53 33/51/51
f 43/54/54 33/33/33 45/55/55
f 41/42/42 29/56/56 31/53/53
f 41/42/42 31/53/53 43/44/44
f 37/38/38 25/57/57 29/56/56
f 37/58/58 29/29/29 41/59/59
f 35/36/36 23/60/60 25/57/57
f 35/61/61 25/25/25 37/58/58
f 21/35/35 23/60/60 35/36/36
f 34/34/34 22/62/62 21/35/35
f 36/37/37 24/63/63 22/62/62
f 36/37/37 22/62/62 34/34/34
f 39/40/40 26/64/64 24/63/63
f 39/40/40 24/63/63 36/37/37
f 38/39/39 27/65/65 26/64/64
f 38/66/66 26/26/26 39/67/67
f 40/41/41 28/68/68 27/65/65
f 40/41/41 27/65/65 38/39/39
f 42/43/43 30/69/69 28/68/68
f 42/43/43 28/68/68 40/41/41
f 44/45/45 32/70/70 30/69/69
f 44/45/45 30/69/69 42/43/43
f 44/45/45 48/49/49 46/71/71
f 44/45/45 46/71/71 32/70/70
f 46/72/72 50/73/73 51/74/74
f 46/72/72 51/74/74 47/75/75
f 52/76/76 48/77/77 49/78/78
f 52/76/76 49/78/78 53/79/79
f 54/80/80 55/81/81 56/82/82
f 57/83/83 54/80/80 56/82/82
f 57/83/83 56/82/82 58/84/84
f 59/85/85 60/86/86 58/84/84
f 61/87/87 59/85/85 58/84/84
f 61/87/87 58/84/84 62/88/88
f 63/89/89 61/87/87 62/88/88
f 63/89/89 62/88/88 64/90/90
f 65/91/91 63/89/89 64/90/90
f 65/91/91 64/90/90 66/92/92
f 60/86/86 57/83/83 58/84/84
f 55/93/93 67/94/94 68/95/95
f 67/94/94 69/96/96 70/97/97
f 67/94/94 70/97/97 68/95/95
f 71/98/98 72/99/99 70/97/97
f 72/99/99 73/100/100 74/101/101
f 72/99/99 74/101/101 70/97/97
f 73/100/100 75/102/102 76/103/103
f 73/100/100 76/103/103 74/101/101
f 75/102/102 77/104/104 78/105/105
f 75/102/102 78/105/105 76/103/103
f 69/96/96 71/98/98 70/97/97
f 79/106/106 65/91/91 66/92/92
f 79/106/106 66/92/92 80/107/107
f 77/104/104 81/108/108 82/109/109
f 77/104/104 82/109/109 78/105/105
f 78/105/105 82/109/109 80/110/110
f 78/105/105 80/110/110 66/111/111
f 64/112/112 76/103/103 78/105/105
f 64/112/112 78/105/105 66/111/111
f 62/113/113 74/101/101 76/103/103
f 62/113/113 76/103/103 64/112/112
f 58/114/114 70/97/97 74/101/101
f 58/114/114 74/101/101 62/113/113
f 56/115/115 68/95/95 70/97/97
f 56/115/115 70/97/97 58/114/114
f 55/93/93 68/95/95 56/115/115
f 54/116/116 67/94/94 55/93/93
f 57/117/117 69/96/96 67/94/94
f 57/117/117 67/94/94 54/116/116
f 60/118/118 71/98/98 69/96/96
f 60/118/118 69/96/96 57/117/117
f 59/119/119 72/99/99 71/98/98
f 59/119/119 71/98/98 60/118/118
f 61/120/120 73/100/100 72/99/99
f 61/120/120 72/99/99 59/119/119
f 63/121/121 75/102/102 73/100/100
f 63/121/121 73/100/100 61/120/120
f 65/122/122 77/104/104 75/102/102
f 65/122/122 75/102/102 63/121/121
f 81/123/123 77/124/124 65/91/91
f 81/108/108 65/122/122 79/125/125
f 50/73/73 79/126/126 80/127/127
f 50/73/73 80/127/127 51/74/74
f 81/128/128 52/76/76 53/79/79
f 81/128/128 53/79/79 82/129/129
f 83/130/130 84/131/131 46/132/132
f 83/130/130 46/132/132 48/77/77
f 84/133/133 50/73/73 46/72/72
f 85/134/134 50/73/73 84/133/133
f 86/135/135 50/73/73 85/134/134
f 87/136/136 50/73/73 86/135/135
f 88/137/137 50/73/73 87/136/136
f 79/126/126 50/73/73 88/137/137
f 89/138/138 81/128/128 79/139/139
f 89/138/138 79/139/139 88/140/140
f 52/76/76 83/130/130 48/77/77
f 83/130/130 52/76/76 90/141/141
f 90/141/141 52/76/76 91/142/142
f 52/76/76 92/143/143 91/142/142
f 92/143/143 52/76/76 89/138/138
f 52/76/76 81/128/128 89/138/138
f 93/144/144 94/145/145 95/146/146
f 93/144/144 95/146/146 96/147/147
f 97/148/148 98/149/149 94/145/145
f 97/148/148 94/145/145 93/144/144
f 99/150/150 100/151/151 98/149/149
f 99/150/150 98/149/149 97/148/148
f 101/152/152 102/153/153 100/151/151
f 101/152/152 100/151/151 99/150/150
f 100/151/151 84/154/154 83/155/155
f 100/151/151 83/155/155 98/149/149
f 102/156/156 85/157/157 84/158/158
f 102/156/156 84/158/158 100/159/159
f 101/160/160 86/161/161 85/157/157
f 101/160/160 85/157/157 102/156/156
f 99/162/162 87/163/163 86/161/161
f 99/162/162 86/161/161 101/160/160
f 97/164/164 88/165/165 87/163/163
f 97/164/164 87/163/163 99/162/162
f 93/144/144 89/166/166 88/167/167
f 93/144/144 88/167/167 97/148/148
f 98/149/149 83/155/155 90/168/168
f 98/149/149 90/168/168 94/145/145
f 94/145/145 90/168/168 91/169/169
f 94/145/145 91/169/169 95/146/146
f 92/170/170 96/147/147 95/146/146
f 92/170/170 95/146/146 91/169/169
f 96/147/147 92/170/170 89/166/166
f 96/147/147 89/166/166 93/144/144
f 103/171/171 49/78/78 47/172/172
f 103/171/171 47/172/172 104/173/173
f 80/174/174 82/129/129 105/175/175
f 80/127/127 105/176/176 106/177/177
f 105/175/175 107/178/178 106/179/179
f 107/180/180 103/181/181 104/182/182
f 108/183/183 107/180/180 104/182/182
f 107/180/180 108/183/183 106/177/177
f 107/178/178 109/184/184 103/171/171
f 105/175/175 109/184/184 107/178/178
f 51/74/74 108/183/183 104/182/182
f 51/74/74 104/182/182 47/75/75
f 80/127/127 106/177/177 108/183/183
f 80/127/127 108/183/183 51/74/74
f 109/184/184 53/79/79 49/78/78
f 109/184/184 49/78/78 103/171/171
f 105/175/175 82/129/129 53/79/79
f 105/175/175 53/79/79 109/184/184
