#
# Exported by OpenBRF -- marco tarini
#
s china_s_spear_2
newmtl sg_china_weapon
Ka 0.8 0.8 0.8
Kd 0.2 0.2 0.2
usemtl sg_china_weapon
v -1.68656 -0.032357 0.346201
v -1.56738 -0.032198 0.360319
v -1.56738 -0.030105 0.362531
v -1.68721 -0.030105 0.347359
v -1.68381 -0.033626 0.337003
v -1.56738 -0.034846 0.343359
v -1.68318 -0.035395 0.334604
v -1.56738 -0.038395 0.338548
v -1.68381 -0.033626 0.324394
v -1.56738 -0.034846 0.318077
v -1.56738 -0.038395 0.322888
v -1.68318 -0.035395 0.326794
v -1.68656 -0.032357 0.315197
v -1.56738 -0.032198 0.30111
v -1.68721 -0.030105 0.314038
v -1.56738 -0.030105 0.298899
v -1.7014 -0.033586 0.330445
v -1.69474 -0.034563 0.330445
v -1.70299 -0.031857 0.340611
v -1.70354 -0.030105 0.341353
v -1.70299 -0.031857 0.320769
v -1.70354 -0.030105 0.320027
v -1.71619 -0.030105 0.330445
v -1.68318 -0.036315 0.330445
v -1.56738 -0.04028 0.330445
v -1.54726 -0.04085 0.341233
v -1.54726 -0.045077 0.330433
v -1.54726 -0.04085 0.320223
v -1.54726 -0.035472 0.315915
v -1.56738 -0.028013 0.360319
v -1.68656 -0.027853 0.346201
v -1.56738 -0.025364 0.343359
v -1.68381 -0.026584 0.337003
v -1.56738 -0.021816 0.338548
v -1.68318 -0.024815 0.334604
v -1.56738 -0.025364 0.318077
v -1.68381 -0.026584 0.324394
v -1.68318 -0.024815 0.326794
v -1.56738 -0.021816 0.322888
v -1.68656 -0.027853 0.315197
v -1.56738 -0.028013 0.30111
v -1.7014 -0.026625 0.330445
v -1.69474 -0.025647 0.330445
v -1.70299 -0.028353 0.340611
v -1.70299 -0.028353 0.320769
v -1.56738 -0.01993 0.330445
v -1.68318 -0.023896 0.330445
v -1.54726 -0.024738 0.345541
v -1.54726 -0.019361 0.341233
v -1.54726 -0.019361 0.320223
v -1.54726 -0.035472 0.345541
v -1.54726 -0.024738 0.315915
v -1.44549 -0.010025 0.330374
v -1.54726 -0.015133 0.330433
v -1.44549 -0.015695 0.343911
v -1.44549 -0.015695 0.317575
v -1.44549 -0.022906 0.312175
v -1.44549 -0.050186 0.330374
v -1.44549 -0.044516 0.343911
v -1.44549 -0.044516 0.317575
v -1.44549 -0.037304 0.312175
v -1.44549 -0.022906 0.349312
v -1.44549 -0.037304 0.349312
v 0.462666 -0.035912 0.313549
v 0.462666 -0.044955 0.34138
v 0.462666 -0.048409 0.330749
v 0.462666 -0.044955 0.320118
v 0.462666 -0.024734 0.313549
v 0.462666 -0.035912 0.34795
v 0.462666 -0.015691 0.320118
v 0.462666 -0.024734 0.34795
v 0.462666 -0.012237 0.330749
v 0.462666 -0.015691 0.34138
v -1.44699 -0.044955 0.341379
v -1.44699 -0.048409 0.330749
v -1.44699 -0.035912 0.34795
v -1.44699 -0.024734 0.34795
v -1.44699 -0.015691 0.341379
v -1.44699 -0.012237 0.330749
v -1.44699 -0.015691 0.320118
v -1.44699 -0.024734 0.313549
v -1.44699 -0.035912 0.313549
v -1.44699 -0.044955 0.320118
vn -0.110868 -0.683262 0.472113
vt 0.086006 0.406273
vn 0.081051 -0.723588 0.414585
vt 0.17163 0.395905
vn 0.159234 0.000975928 0.822601
vt 0.171612 0.393507
vn -0.203092 0.00184293 0.812883
vt 0.085482 0.404912
vn -0.069871 -0.788033 0.275954
vt 0.088249 0.417108
vn -0.059189 -0.766119 0.334048
vt 0.171766 0.414296
vn -0.097354 -0.75752 0.344549
vt 0.08877 0.419936
vn -0.08542 -0.758083 0.346471
vt 0.171804 0.419513
vn -0.070703 -0.786102 -0.2812
vt 0.088359 0.432011
vn -0.058905 -0.766147 -0.334034
vt 0.171968 0.441712
vn -0.085332 -0.75522 -0.35269
vt 0.17193 0.436495
vn -0.092147 -0.753636 -0.35436
vt 0.088838 0.429167
vn -0.112927 -0.683831 -0.4708
vt 0.086277 0.442918
vn 0.079842 -0.723203 -0.41549
vt 0.172104 0.460109
vn -0.202589 -0.00184393 -0.813009
vt 0.085773 0.444296
vn 0.159655 -0.000838928 -0.82252
vt 0.172122 0.462507
vn -0.123599 -0.828683 -0.00607508
vt 0.074449 0.42509
vn -0.130303 -0.827592 -0.0118991
vt 0.079697 0.425002
vn -0.275607 -0.656706 0.44137
vt 0.073108 0.413095
vn -0.427213 0.00103494 0.720775
vt 0.072668 0.412226
vn -0.26463 -0.658504 -0.445391
vt 0.073281 0.436548
vn -0.418875 -0.00102994 -0.725653
vt 0.072854 0.437431
vn -0.837835 6.86618e-10 -0.00785404
vt 0.062792 0.425283
vn -0.076428 -0.834294 -0.0119001
vt 0.088806 0.424851
vn -0.089612 -0.83304 -0.00651608
vt 0.171869 0.4283
vn -0.085654 -0.679261 0.483009
vt 0.186325 0.419554
vn -0.115498 -0.82984 -0.00743108
vt 0.186411 0.42736
vn -0.086641 -0.674411 -0.489584
vt 0.186493 0.434741
vn 0.084967 -0.386402 -0.738582
vt 0.186527 0.437856
vn 0.079436 0.723322 0.41536
vt 0.172386 -0.60841
vn -0.113206 0.683812 0.47076
vt 0.087978 -0.590587
vn -0.203092 0.00184293 0.812883
vt 0.087403 -0.591824
vn 0.159234 0.000975928 0.822601
vt 0.17236 -0.611019
vn -0.059142 0.76612 0.334053
vt 0.172586 -0.588405
vn -0.07412 0.787092 0.277528
vt 0.090756 -0.580446
vn -0.085287 0.758088 0.346494
vt 0.172643 -0.58273
vn -0.097622 0.757482 0.344558
vt 0.091421 -0.57779
vn -0.058949 0.766167 -0.33398
vt 0.172884 -0.558583
vn -0.065937 0.787159 -0.279395
vt 0.091812 -0.566053
vn -0.092014 0.753622 -0.354425
vt 0.092075 -0.568874
vn -0.085391 0.755207 -0.352705
vt 0.172828 -0.564257
vn -0.110147 0.683029 -0.472618
vt 0.090574 -0.555195
vn 0.081383 0.723553 -0.414581
vt 0.173085 -0.53857
vn 0.159655 -0.000838928 -0.82252
vt 0.173111 -0.535961
vn -0.202589 -0.00184393 -0.813009
vt 0.090193 -0.553787
vn -0.124053 0.828637 -0.000125933
vt 0.078437 -0.570662
vn -0.130303 0.827592 -0.0118989
vt 0.08331 -0.571532
vn -0.269775 0.658561 0.442209
vt 0.076423 -0.582059
vn -0.427213 0.00103494 0.720775
vt 0.075958 -0.582834
vn -0.271256 0.656227 -0.444764
vt 0.078084 -0.559409
vn -0.418875 -0.00102994 -0.725653
vt 0.077744 -0.558491
vn -0.837835 6.86618e-10 -0.00785404
vt 0.063424 -0.572592
vn -0.089545 0.833047 -0.00658093
vt 0.172738 -0.573172
vn -0.076561 0.83428 -0.0120279
vt 0.091769 -0.573043
vn 0.084549 0.386424 0.738618
vt 0.185786 -0.591405
vn -0.086911 0.679117 0.482986
vt 0.185837 -0.586322
vn -0.085382 0.674556 -0.489605
vt 0.186085 -0.561541
vn 0.085162 -0.386726 0.73839
vt 0.18629 0.416439
vn 0.084549 0.386424 0.738618
vt 0.18629 0.416439
vn 0.085576 0.38676 -0.738324
vt 0.186136 -0.556458
vn 0.085576 0.38676 -0.738324
vt 0.186527 0.437856
vn 0.510701 0.664198 -0.00733092
vt 0.301369 0.453521
vn -0.115499 0.829831 -0.00837493
vt 0.190529 0.442805
vn -0.086911 0.679117 0.482986
vt 0.190529 0.438513
vn 0.53307 0.510119 0.397044
vt 0.30137 0.447764
vn 0.533991 0.505548 -0.401627
vt 0.30137 0.447764
vn -0.085382 0.674556 -0.489605
vt 0.190529 0.438513
vn 0.525156 0.207345 -0.61907
vt 0.30137 0.440441
vn 0.085576 0.38676 -0.738324
vt 0.19053 0.436818
vn -0.115498 -0.82984 -0.00743108
vt 0.19006 0.416637
vn 0.510698 -0.664212 -0.00622904
vt 0.301372 0.412742
vn 0.532321 -0.510653 0.397363
vt 0.301372 0.418499
vn -0.085654 -0.679261 0.483009
vt 0.19006 0.420929
vn -0.086641 -0.674411 -0.489584
vt 0.19006 0.420929
vn 0.534727 -0.505005 -0.401331
vt 0.301372 0.418499
vn 0.084967 -0.386402 -0.738582
vt 0.19006 0.426389
vn 0.525512 -0.206807 -0.618948
vt 0.301371 0.425822
vn -0.115499 0.829831 -0.00837493
vt 0.185965 -0.573584
vn 0.084549 0.386424 0.738618
vt 0.19053 0.436818
vn 0.52542 0.206836 0.619017
vt 0.30137 0.440441
vn 0.525072 -0.207337 0.619144
vt 0.301371 0.425822
vn 0.085162 -0.386726 0.73839
vt 0.19006 0.426389
vn 0.539355 -0.198128 -0.609812
vt 0.016205 0.37322
vn 0.539352 -0.518724 0.3769
vt 0.009112 0.37322
vn 0.539348 -0.641196 -3.24795e-08
vt 0.006402 0.37322
vn 0.539352 -0.518724 -0.376901
vt 0.009112 0.37322
vn 0.539355 0.198128 -0.609812
vt 0.024972 0.37322
vn 0.539355 -0.198128 0.609812
vt 0.016205 0.37322
vn 0.539347 0.518741 -0.376884
vt 0.032066 0.37322
vn 0.539355 0.198128 0.609812
vt 0.024972 0.37322
vn 0.539359 0.641187 7.96305e-08
vt 0.034775 0.37322
vn 0.539347 0.518741 0.376885
vt 0.032066 0.37322
vn -2.15278e-08 -0.677845 0.492499
vt 0.009111 0.526003
vn -4.33912e-13 -0.837872 9.92675e-06
vt 0.006401 0.526003
vn -3.48319e-08 -0.258926 0.79686
vt 0.016204 0.526003
vn -3.48319e-08 0.258928 0.79686
vt 0.024972 0.526003
vn -2.15267e-08 0.677864 0.492473
vt 0.032065 0.526003
vn -3.96604e-13 0.837872 9.07325e-06
vt 0.034774 0.526003
vn 2.15273e-08 0.677854 -0.492487
vt 0.032065 0.526003
vn 3.48322e-08 0.258902 -0.796868
vt 0.024972 0.526003
vn 3.48322e-08 -0.258904 -0.796868
vt 0.016204 0.526003
vn 2.15283e-08 -0.677837 -0.49251
vt 0.009111 0.526003
f 1/1/1 2/2/2 3/3/3
f 1/1/1 3/3/3 4/4/4
f 5/5/5 6/6/6 2/2/2
f 6/6/6 5/5/5 7/7/7
f 6/6/6 7/7/7 8/8/8
f 9/9/9 10/10/10 11/11/11
f 9/9/9 11/11/11 12/12/12
f 9/9/9 13/13/13 14/14/14
f 14/14/14 13/13/13 15/15/15
f 14/14/14 15/15/15 16/16/16
f 5/5/5 17/17/17 18/18/18
f 9/9/9 12/12/12 18/18/18
f 19/19/19 1/1/1 4/4/4
f 19/19/19 4/4/4 20/20/20
f 17/17/17 5/5/5 1/1/1
f 17/17/17 1/1/1 19/19/19
f 13/13/13 21/21/21 22/22/22
f 13/13/13 22/22/22 15/15/15
f 9/9/9 17/17/17 21/21/21
f 9/9/9 21/21/21 13/13/13
f 23/23/23 19/19/19 20/20/20
f 23/23/23 17/17/17 19/19/19
f 21/21/21 17/17/17 23/23/23
f 22/22/22 21/21/21 23/23/23
f 1/1/1 5/5/5 2/2/2
f 10/10/10 9/9/9 14/14/14
f 7/7/7 5/5/5 18/18/18
f 17/17/17 9/9/9 18/18/18
f 24/24/24 25/25/25 8/8/8
f 24/24/24 8/8/8 7/7/7
f 24/24/24 12/12/12 11/11/11
f 24/24/24 11/11/11 25/25/25
f 18/18/18 24/24/24 7/7/7
f 12/12/12 24/24/24 18/18/18
f 6/6/6 8/8/8 26/26/26
f 25/25/25 27/27/27 26/26/26
f 28/28/28 27/27/27 25/25/25
f 10/10/10 29/29/29 28/28/28
f 30/30/30 31/31/31 4/32/32
f 30/30/30 4/32/32 3/33/33
f 32/34/34 33/35/35 30/30/30
f 33/35/35 32/34/34 34/36/36
f 33/35/35 34/36/36 35/37/37
f 36/38/38 37/39/39 38/40/40
f 36/38/38 38/40/40 39/41/41
f 40/42/42 37/39/39 41/43/43
f 40/42/42 41/43/43 16/44/44
f 40/42/42 16/44/44 15/45/45
f 42/46/46 33/35/35 43/47/47
f 38/40/40 37/39/39 43/47/47
f 31/31/31 44/48/48 20/49/49
f 31/31/31 20/49/49 4/32/32
f 33/35/35 42/46/46 44/48/48
f 33/35/35 44/48/48 31/31/31
f 45/50/50 40/42/42 15/45/45
f 45/50/50 15/45/45 22/51/51
f 42/46/46 37/39/39 40/42/42
f 42/46/46 40/42/42 45/50/50
f 44/48/48 23/52/52 20/49/49
f 42/46/46 23/52/52 44/48/48
f 42/46/46 45/50/50 23/52/52
f 45/50/50 22/51/51 23/52/52
f 33/35/35 31/31/31 30/30/30
f 37/39/39 36/38/38 41/43/43
f 33/35/35 35/37/37 43/47/47
f 37/39/39 42/46/46 43/47/47
f 46/53/53 47/54/54 35/37/37
f 46/53/53 35/37/37 34/36/36
f 38/40/40 47/54/54 46/53/53
f 38/40/40 46/53/53 39/41/41
f 47/54/54 43/47/47 35/37/37
f 47/54/54 38/40/40 43/47/47
f 32/34/34 48/55/55 49/56/56
f 46/53/53 34/36/36 49/56/56
f 50/57/57 39/41/41 46/53/53
f 36/38/38 39/41/41 50/57/57
f 51/58/58 3/3/3 2/2/2
f 6/6/6 51/58/58 2/2/2
f 29/29/29 10/10/10 14/14/14
f 16/16/16 29/29/29 14/14/14
f 48/55/55 32/34/34 30/30/30
f 48/55/55 30/30/30 3/33/33
f 48/59/59 3/3/3 51/58/58
f 36/38/38 52/60/60 41/43/43
f 41/43/43 52/60/60 16/44/44
f 16/16/16 52/61/61 29/29/29
f 53/62/62 54/63/63 49/64/64
f 53/62/62 49/64/64 55/65/65
f 56/66/66 50/67/67 54/63/63
f 56/66/66 54/63/63 53/62/62
f 57/68/68 52/69/69 50/67/67
f 57/68/68 50/67/67 56/66/66
f 27/70/70 58/71/71 59/72/72
f 27/70/70 59/72/72 26/73/73
f 28/74/74 60/75/75 58/71/71
f 28/74/74 58/71/71 27/70/70
f 29/76/76 61/77/77 60/75/75
f 29/76/76 60/75/75 28/74/74
f 52/69/69 57/68/68 61/77/77
f 52/69/69 61/77/77 29/76/76
f 54/78/78 46/53/53 49/56/56
f 54/78/78 50/57/57 46/53/53
f 8/8/8 25/25/25 26/26/26
f 11/11/11 28/28/28 25/25/25
f 51/58/58 6/6/6 26/26/26
f 11/11/11 10/10/10 28/28/28
f 34/36/36 32/34/34 49/56/56
f 52/60/60 36/38/38 50/57/57
f 48/79/79 62/80/80 55/65/65
f 48/79/79 55/65/65 49/64/64
f 63/81/81 51/82/82 26/73/73
f 63/81/81 26/73/73 59/72/72
f 62/80/80 48/79/79 51/82/82
f 62/80/80 51/82/82 63/81/81
f 64/83/83 65/84/84 66/85/85
f 64/83/83 66/85/85 67/86/86
f 68/87/87 69/88/88 65/84/84
f 68/87/87 65/84/84 64/83/83
f 70/89/89 71/90/90 69/88/88
f 70/89/89 69/88/88 68/87/87
f 72/91/91 73/92/92 71/90/90
f 72/91/91 71/90/90 70/89/89
f 66/85/85 65/84/84 74/93/93
f 66/85/85 74/93/93 75/94/94
f 65/84/84 69/88/88 76/95/95
f 65/84/84 76/95/95 74/93/93
f 69/88/88 71/90/90 77/96/96
f 69/88/88 77/96/96 76/95/95
f 71/90/90 73/92/92 78/97/97
f 71/90/90 78/97/97 77/96/96
f 73/92/92 72/91/91 79/98/98
f 73/92/92 79/98/98 78/97/97
f 72/91/91 70/89/89 80/99/99
f 72/91/91 80/99/99 79/98/98
f 70/89/89 68/87/87 81/100/100
f 70/89/89 81/100/100 80/99/99
f 68/87/87 64/83/83 82/101/101
f 68/87/87 82/101/101 81/100/100
f 64/83/83 67/86/86 83/102/102
f 64/83/83 83/102/102 82/101/101
f 67/86/86 66/85/85 75/94/94
f 67/86/86 75/94/94 83/102/102
f 62/80/80 63/81/81 59/72/72
f 62/80/80 59/72/72 55/65/65
f 58/71/71 53/62/62 55/65/65
f 58/71/71 55/65/65 59/72/72
f 60/75/75 56/66/66 53/62/62
f 60/75/75 53/62/62 58/71/71
f 61/77/77 57/68/68 56/66/66
f 61/77/77 56/66/66 60/75/75
