#
# Exported by OpenBRF -- marco tarini
#
s bronzetuff
newmtl sg_long
Ka 0.8 0.8 0.8
Kd 0.2 0.2 0.2
usemtl sg_long
v -0.014797 -0.02451 0.955373
v 0.015991 -0.024328 0.955373
v 0.030973 -0.00027 0.955373
v -0.029895 -0.000663 0.955373
v -0.014759 0.023566 0.921457
v -0.029895 -0.000663 0.921457
v -0.014759 0.023566 0.955373
v 0.016427 0.024897 0.921457
v 0.016427 0.024897 0.955373
v 0.030973 -0.00027 0.921457
v -0.014797 -0.02451 0.921457
v 0.015991 -0.024328 0.921457
v 0.016843 -0.028359 0.657696
v 0.016843 -0.028359 0.673701
v -0.016112 -0.028572 0.673701
v -0.016112 -0.028572 0.657696
v -0.032273 -0.000614 0.673701
v -0.032273 -0.000614 0.657696
v -0.016071 0.027608 0.673701
v -0.016071 0.027608 0.657696
v 0.01731 0.029163 0.673701
v 0.01731 0.029163 0.657696
v 0.03288 -0.000194 0.673701
v 0.03288 -0.000194 0.657696
v -0.011228 0.018062 0.672281
v -0.022872 -0.00057 0.672281
v -0.022872 -0.00057 0.744042
v -0.011228 0.018062 0.744042
v 0.012763 0.019086 0.672281
v 0.012763 0.019086 0.744042
v 0.023953 -0.000268 0.672281
v 0.023953 -0.000268 0.744042
v -0.011257 -0.018922 0.672281
v -0.011257 -0.018922 0.744042
v 0.012427 -0.018782 0.672281
v 0.012427 -0.018782 0.744042
v -0.017799 -0.000503 0.803425
v -0.008678 0.014087 0.803425
v 0.010117 0.014889 0.803425
v 0.018883 -0.000267 0.803425
v -0.0087 -0.014887 0.803425
v 0.009854 -0.014777 0.803425
v -0.022872 -0.00057 0.855381
v -0.011228 0.018062 0.855381
v 0.012763 0.019086 0.855381
v 0.023953 -0.000268 0.855381
v -0.011257 -0.018922 0.855381
v 0.012427 -0.018782 0.855381
v -0.029895 -0.000663 0.873045
v -0.014759 0.023566 0.873045
v 0.016427 0.024897 0.873045
v 0.030973 -0.00027 0.873045
v -0.014797 -0.02451 0.873045
v 0.015991 -0.024328 0.873045
v -0.022872 -0.00057 0.887954
v -0.011228 0.018062 0.887954
v 0.012763 0.019086 0.887954
v 0.023953 -0.000268 0.887954
v -0.011257 -0.018922 0.887954
v 0.012427 -0.018782 0.887954
v -0.022872 -0.00057 0.924425
v -0.011228 0.018062 0.924425
v 0.012763 0.019086 0.924425
v 0.023953 -0.000268 0.924425
v -0.011257 -0.018922 0.924425
v 0.012427 -0.018782 0.924425
v 0.019613 0.000118 0.681145
v 0.019618 0.000127 -0.796089
v 0.010361 0.01758 -0.796089
v 0.010366 0.01757 0.681145
v -0.009485 0.016655 -0.796089
v -0.009474 0.016656 0.681145
v -0.019117 -0.000124 -0.796089
v -0.019111 -0.000114 0.681145
v -0.009509 -0.016745 -0.796089
v -0.009514 -0.016736 0.681145
v 0.010084 -0.016618 -0.796089
v 0.010073 -0.016618 0.681145
vn -0.379119 -0.693586 0.612542
vt 0.329983 0.34001
vn 0.385659 -0.689684 0.612865
vt 0.303251 0.339852
vn 0.79416 -0.013067 0.607569
vt 0.290242 0.318963
vn -0.796497 -0.002401 0.604638
vt 0.343092 0.319304
vn -0.503402 0.864052 0
vt 0.327636 0.344833
vn -0.999995 -0.003014 0
vt 0.345627 0.344833
vn -0.796497 -0.002401 0.604638
vt 0.345627 0.377047
vn -0.396666 0.68085 0.615711
vt 0.327636 0.377047
vn 0.481212 0.876604 0
vt 0.306535 0.344833
vn 0.382428 0.696653 0.606979
vt 0.306535 0.377047
vn 0.999865 -0.016452 0
vt 0.287813 0.344833
vn 0.79416 -0.013067 0.607569
vt 0.287813 0.377047
vn -0.479631 -0.87747 0
vt 0.327672 0.344833
vn -0.379119 -0.693586 0.612542
vt 0.327672 0.377047
vn 0.48806 -0.87281 0
vt 0.306432 0.344833
vn 0.385659 -0.689684 0.612865
vt 0.306432 0.377047
vn 0.505381 -0.862896 0
vt 0.307597 0.316435
vn 0.505382 -0.862896 0
vt 0.307597 0.330276
vn -0.496972 -0.867766 0
vt 0.326652 0.330276
vn -0.496973 -0.867766 0
vt 0.326652 0.316435
vn -0.999999 -0.001485 0
vt 0.345998 0.330276
vn -0.999999 -0.001485 0
vt 0.345998 0.316435
vn -0.521064 0.853517 0
vt 0.326616 0.330276
vn -0.521064 0.853517 0
vt 0.326616 0.316435
vn 0.495405 0.868662 0
vt 0.307563 0.330276
vn 0.495405 0.868662 0
vt 0.307563 0.316435
vn 0.999888 -0.014982 0
vt 0.289654 0.330276
vn 0.999888 -0.014982 0
vt 0.289654 0.316435
vn -0.503328 0.864095 0
vt 0.32328 0.083964
vn -0.999996 -0.00285 0
vt 0.337597 0.083964
vn -0.999114 -0.002979 0.041982
vt 0.337597 0.131131
vn -0.503352 0.863193 0.039168
vt 0.32328 0.131131
vn 0.481146 0.876641 0
vt 0.305805 0.083964
vn 0.48143 0.875524 0.041034
vt 0.305805 0.131131
vn 0.999867 -0.016311 0
vt 0.291819 0.083964
vn 0.998988 -0.016077 0.041997
vt 0.291819 0.131131
vn -0.4797 -0.877433 0
vt 0.323302 0.083964
vn -0.479989 -0.876382 0.039561
vt 0.323302 0.131131
vn 0.488119 -0.872777 0
vt 0.30605 0.083964
vn 0.48837 -0.871744 0.039447
vt 0.30605 0.131131
vn -0.999978 -0.002342 -0.006216
vt 0.337548 0.174387
vn -0.502287 0.864682 -0.00577
vt 0.323581 0.174387
vn 0.479447 0.87755 -0.006106
vt 0.306006 0.174387
vn 0.999842 -0.016646 -0.006273
vt 0.291866 0.174387
vn -0.478215 -0.878223 -0.005833
vt 0.323597 0.174387
vn 0.486741 -0.873527 -0.005852
vt 0.306198 0.174387
vn -0.968933 -0.002122 -0.247314
vt 0.337597 0.212233
vn -0.4881 0.842097 -0.229415
vt 0.32328 0.212233
vn 0.463731 0.852475 -0.24133
vt 0.305805 0.212233
vn 0.968928 -0.016798 -0.24677
vt 0.291819 0.212233
vn -0.46364 -0.855093 -0.232065
vt 0.323302 0.212233
vn 0.472067 -0.85067 -0.231327
vt 0.30605 0.212233
vn -0.999617 -0.004125 0.027374
vt 0.342712 0.2251
vn -0.506735 0.861693 0.026546
vt 0.325853 0.2251
vn 0.486747 0.873122 0.027129
vt 0.303136 0.2251
vn 0.999514 -0.014647 0.027536
vt 0.286706 0.2251
vn -0.485093 -0.874057 0.026634
vt 0.32588 0.2251
vn 0.493184 -0.869517 0.026625
vt 0.303454 0.2251
vn -0.971744 -0.00185 0.236029
vt 0.337597 0.23596
vn -0.488504 0.844797 0.218363
vt 0.32328 0.23596
vn 0.463643 0.855617 0.230118
vt 0.305805 0.23596
vn 0.971798 -0.01729 0.235179
vt 0.291819 0.23596
vn -0.463471 -0.858101 0.221039
vt 0.323302 0.23596
vn 0.472059 -0.853597 0.220303
vt 0.30605 0.23596
vn -0.999996 -0.00285 0
vt 0.337597 0.262526
vn -0.503328 0.864095 0
vt 0.32328 0.262526
vn 0.481146 0.876641 0
vt 0.305805 0.262526
vn 0.999867 -0.016311 0
vt 0.291819 0.262526
vn -0.4797 -0.877433 0
vt 0.323302 0.262526
vn 0.488119 -0.872777 0
vt 0.30605 0.262526
vn 0.382428 0.696653 0.606979
vt 0.302872 0.297111
vn -0.396666 0.68085 0.615711
vt 0.32995 0.298267
vn 0.999881 -0.015423 0
vt 0.012141 0.992012
vn 0.789949 -0.011819 -0.613059
vt 0.012138 0.205029
vn 0.394754 0.692216 -0.604157
vt 0.040883 0.205029
vn 0.495802 0.868436 0
vt 0.040881 0.992012
vn -0.411615 0.674194 -0.613218
vt 0.074283 0.205029
vn -0.520664 0.853762 0
vt 0.074279 0.992012
vn -0.792299 -0.001194 -0.610132
vt 0.103193 0.205029
vn -0.999999 -0.001018 0
vt 0.10319 0.992012
vn -0.393959 -0.687918 -0.609562
vt 0.074294 0.205029
vn -0.497383 -0.867531 0
vt 0.074296 0.992012
vn 0.400469 -0.683735 -0.610025
vt 0.041005 0.205029
vn 0.504986 -0.863128 0
vt 0.04101 0.992012
f 1/1/1 2/2/2 3/3/3
f 4/4/4 1/1/1 3/3/3
f 5/5/5 6/6/6 4/7/7
f 4/7/7 7/8/8 5/5/5
f 8/9/9 5/5/5 7/8/8
f 7/8/8 9/10/10 8/9/9
f 10/11/11 8/9/9 9/10/10
f 9/10/10 3/12/12 10/11/11
f 6/6/6 11/13/13 1/14/14
f 1/14/14 4/7/7 6/6/6
f 11/13/13 12/15/15 2/16/16
f 2/16/16 1/14/14 11/13/13
f 12/15/15 10/11/11 3/12/12
f 3/12/12 2/16/16 12/15/15
f 13/17/17 14/18/18 15/19/19
f 15/19/19 16/20/20 13/17/17
f 16/20/20 15/19/19 17/21/21
f 17/21/21 18/22/22 16/20/20
f 18/22/22 17/21/21 19/23/23
f 19/23/23 20/24/24 18/22/22
f 20/24/24 19/23/23 21/25/25
f 21/25/25 22/26/26 20/24/24
f 23/27/27 24/28/28 22/26/26
f 22/26/26 21/25/25 23/27/27
f 24/28/28 23/27/27 14/18/18
f 14/18/18 13/17/17 24/28/28
f 25/29/29 26/30/30 27/31/31
f 27/31/31 28/32/32 25/29/29
f 29/33/33 25/29/29 28/32/32
f 28/32/32 30/34/34 29/33/33
f 31/35/35 29/33/33 30/34/34
f 30/34/34 32/36/36 31/35/35
f 26/30/30 33/37/37 34/38/38
f 34/38/38 27/31/31 26/30/30
f 33/37/37 35/39/39 36/40/40
f 36/40/40 34/38/38 33/37/37
f 35/39/39 31/35/35 32/36/36
f 32/36/36 36/40/40 35/39/39
f 28/32/32 27/31/31 37/41/41
f 37/41/41 38/42/42 28/32/32
f 30/34/34 28/32/32 38/42/42
f 38/42/42 39/43/43 30/34/34
f 32/36/36 30/34/34 39/43/43
f 39/43/43 40/44/44 32/36/36
f 27/31/31 34/38/38 41/45/45
f 41/45/45 37/41/41 27/31/31
f 34/38/38 36/40/40 42/46/46
f 42/46/46 41/45/45 34/38/38
f 36/40/40 32/36/36 40/44/44
f 40/44/44 42/46/46 36/40/40
f 38/42/42 37/41/41 43/47/47
f 43/47/47 44/48/48 38/42/42
f 39/43/43 38/42/42 44/48/48
f 44/48/48 45/49/49 39/43/43
f 40/44/44 39/43/43 45/49/49
f 45/49/49 46/50/50 40/44/44
f 37/41/41 41/45/45 47/51/51
f 47/51/51 43/47/47 37/41/41
f 41/45/45 42/46/46 48/52/52
f 48/52/52 47/51/51 41/45/45
f 42/46/46 40/44/44 46/50/50
f 46/50/50 48/52/52 42/46/46
f 44/48/48 43/47/47 49/53/53
f 49/53/53 50/54/54 44/48/48
f 45/49/49 44/48/48 50/54/54
f 50/54/54 51/55/55 45/49/49
f 46/50/50 45/49/49 51/55/55
f 51/55/55 52/56/56 46/50/50
f 43/47/47 47/51/51 53/57/57
f 53/57/57 49/53/53 43/47/47
f 47/51/51 48/52/52 54/58/58
f 54/58/58 53/57/57 47/51/51
f 48/52/52 46/50/50 52/56/56
f 52/56/56 54/58/58 48/52/52
f 50/54/54 49/53/53 55/59/59
f 55/59/59 56/60/60 50/54/54
f 51/55/55 50/54/54 56/60/60
f 56/60/60 57/61/61 51/55/55
f 52/56/56 51/55/55 57/61/61
f 57/61/61 58/62/62 52/56/56
f 49/53/53 53/57/57 59/63/63
f 59/63/63 55/59/59 49/53/53
f 53/57/57 54/58/58 60/64/64
f 60/64/64 59/63/63 53/57/57
f 54/58/58 52/56/56 58/62/62
f 58/62/62 60/64/64 54/58/58
f 56/60/60 55/59/59 61/65/65
f 61/65/65 62/66/66 56/60/60
f 57/61/61 56/60/60 62/66/66
f 62/66/66 63/67/67 57/61/61
f 58/62/62 57/61/61 63/67/67
f 63/67/67 64/68/68 58/62/62
f 55/59/59 59/63/63 65/69/69
f 65/69/69 61/65/65 55/59/59
f 59/63/63 60/64/64 66/70/70
f 66/70/70 65/69/69 59/63/63
f 60/64/64 58/62/62 64/68/68
f 64/68/68 66/70/70 60/64/64
f 3/3/3 9/71/71 7/72/72
f 3/3/3 7/72/72 4/4/4
f 21/25/25 19/23/23 17/21/21
f 17/21/21 15/19/19 14/18/18
f 21/25/25 17/21/21 14/18/18
f 21/25/25 14/18/18 23/27/27
f 13/17/17 16/20/20 18/22/22
f 13/17/17 18/22/22 20/24/24
f 24/28/28 13/17/17 20/24/24
f 24/28/28 20/24/24 22/26/26
f 5/5/5 8/9/9 10/11/11
f 12/15/15 11/13/13 6/6/6
f 10/11/11 12/15/15 6/6/6
f 5/5/5 10/11/11 6/6/6
f 67/73/73 68/74/74 69/75/75
f 69/75/75 70/76/76 67/73/73
f 70/76/76 69/75/75 71/77/77
f 71/77/77 72/78/78 70/76/76
f 72/78/78 71/77/77 73/79/79
f 73/79/79 74/80/80 72/78/78
f 74/80/80 73/79/79 75/81/81
f 75/81/81 76/82/82 74/80/80
f 76/82/82 75/81/81 77/83/83
f 77/83/83 78/84/84 76/82/82
f 78/84/84 77/83/83 68/74/74
f 68/74/74 67/73/73 78/84/84
f 77/83/83 75/81/81 73/79/79
f 73/79/79 71/77/77 69/75/75
f 77/83/83 73/79/79 69/75/75
f 68/74/74 77/83/83 69/75/75
