#
# Exported by OpenBRF -- marco tarini
#
s congspear
newmtl sg_long
Ka 0.8 0.8 0.8
Kd 0.2 0.2 0.2
usemtl sg_long
v -0.000289 0.014881 2.14002
v 0.037413 1.1e-05 2.12249
v 0.006048 1.1e-05 2.11701
v -0.000244 0.010279 2.11684
v 0.000683 0.011262 2.53156
v 0.000163 1.1e-05 2.62027
v 0.028014 1.1e-05 2.53156
v -0.024913 8.3e-05 2.53156
v -0.006298 1.1e-05 2.11701
v -0.037181 1.1e-05 2.12249
v -0.000222 0.013961 2.43839
v -0.027845 1.1e-05 2.43839
v -0.024913 -6.2e-05 2.53156
v -0.029253 1.1e-05 2.18817
v -0.000246 0.01473 2.18919
v 0.029901 1.1e-05 2.19024
v 0.029996 1.1e-05 2.43839
v 0.037413 3.4e-05 2.12249
v -0.000289 -0.014836 2.14002
v 0.006048 3.4e-05 2.11701
v -0.000244 -0.010234 2.11684
v 0.000163 3.4e-05 2.62027
v 0.000683 -0.011217 2.53156
v 0.028014 3.4e-05 2.53156
v -0.024913 -3.8e-05 2.53156
v -0.006298 3.4e-05 2.11701
v -0.037181 3.4e-05 2.12249
v -0.000222 -0.013916 2.43839
v -0.027845 3.4e-05 2.43839
v -0.024913 0.000107 2.53156
v -0.000246 -0.014685 2.18919
v -0.029253 3.4e-05 2.18817
v 0.029901 3.4e-05 2.19024
v 0.029996 3.4e-05 2.43839
v 0.007466 0.013584 1.94912
v 0.006287 0.011495 2.09816
v 0.015264 1.5e-05 1.94912
v -0.00843 0.013569 1.94912
v -0.007207 0.011535 2.09816
v -0.0161 2.5e-05 1.94912
v -0.013731 6.1e-05 2.09816
v -0.008196 -0.01347 1.94912
v -0.007031 -0.011382 2.09816
v 0.007594 -0.013397 1.94912
v 0.006365 -0.011368 2.09816
v 0.012889 -1.5e-05 2.09816
v 0.025887 4e-06 1.94689
v 0.012843 0.022838 1.94689
v -0.013805 0.022742 1.94689
v -0.026721 8e-06 1.94689
v -0.013532 -0.022722 1.94689
v 0.012971 -0.022548 1.94689
v -0.012346 0.020277 1.81473
v -0.014728 0.024312 1.71004
v -0.023858 1.2e-05 1.81473
v -0.009649 -0.015974 -0.468017
v -0.018809 -0.000114 -0.468017
v 0.009036 -0.015861 -0.468017
v -0.009618 0.015886 -0.468017
v 0.009301 0.016743 -0.468573
v 0.018135 0.00011 -0.46774
v -0.013315 2.9e-05 2.12545
v -0.006795 -0.011037 2.12519
v -0.007026 0.011159 2.12545
v 0.006182 -0.010992 2.12545
v 0.012471 1.7e-05 2.12545
v 0.006048 0.011148 2.12545
v -0.009927 0.016185 1.93598
v 0.00902 0.016257 1.93598
v -0.019111 2e-05 1.93598
v 0.018293 1.9e-05 1.93598
v -0.009734 -0.01614 1.93598
v 0.009109 -0.016016 1.93598
v 0.015562 8e-06 2.12218
v 0.015919 8e-06 2.10111
v 0.007598 0.013812 2.12218
v 0.007779 0.014123 2.10111
v -0.008614 0.013824 2.12218
v -0.008794 0.014132 2.10111
v -0.016414 2.3e-05 2.12218
v -0.016769 2.3e-05 2.10111
v -0.008327 -0.013697 2.12218
v -0.008506 -0.014008 2.10111
v 0.007763 -0.013644 2.12218
v 0.007943 -0.013951 2.10111
v 0.011042 0.019739 1.83328
v 0.022307 1.1e-05 1.83328
v -0.011976 0.019651 1.83328
v -0.023132 1.3e-05 1.83328
v 0.01115 -0.019468 1.83328
v -0.011742 -0.019619 1.83328
v -0.02867 4e-06 1.70999
v -0.014604 -0.02424 1.71004
v 0.013763 -0.024223 1.71003
v -0.012105 -0.020248 1.81473
v 0.02774 -0.000168 1.71002
v 0.011519 -0.020092 1.81473
v 0.013927 0.024363 1.71003
v 0.023032 1e-05 1.81473
v 0.011408 0.020368 1.81473
v -0.015908 0.026302 1.82441
v 0.014923 0.026421 1.82441
v 0.030012 -3e-06 1.82441
v -0.030851 -1e-06 1.82441
v -0.015595 -0.026297 1.82441
v 0.015068 -0.026095 1.82441
v 0.009055 0.01637 1.71222
v 0.009086 0.016372 1.71222
v -0.010006 0.016267 1.71222
v -0.009991 0.016293 1.71222
v -0.019224 -7e-06 1.71222
v -0.019238 1.9e-05 1.71222
v -0.009767 -0.016249 1.71222
v -0.009798 -0.01625 1.71222
v 0.009189 -0.016099 1.71222
v 0.009174 -0.016126 1.71222
v 0.018421 1.9e-05 1.71222
v 0.009101 0.016344 1.71222
vn -0.004882 0.989307 -0.145764
vt 0.438 0.5174
vn 0.282847 0.940297 -0.189314
vt 0.406818 0.50356
vn 0.417759 0.811209 -0.409167
vt 0.432472 0.498612
vn -0.008135 0.980819 -0.194749
vt 0.437632 0.498384
vn -0.011495 0.997294 0.072611
vt 0.44281 0.838643
vn -0.002689 0.991957 0.12655
vt 0.444507 0.911409
vn 0.384528 0.920873 0.064279
vt 0.420387 0.839034
vn -0.699595 0.697376 0.155672
vt 0.463809 0.838276
vn -0.426351 0.806415 -0.409781
vt 0.442601 0.498436
vn -0.287382 0.938513 -0.191326
vt 0.468016 0.502491
vn -0.020422 0.999715 0.012346
vt 0.442218 0.762191
vn -0.446123 0.894854 0.014539
vt 0.464881 0.761796
vn -0.962287 0 0.272035
vt 0.463809 0.838276
vn -0.439777 0.898019 0.012564
vt 0.462452 0.556491
vn -0.007664 0.999966 0.003078
vt 0.438669 0.557738
vn 0.426318 0.904506 0.010995
vt 0.413951 0.559034
vn 0.419134 0.907914 0.00435
vt 0.417427 0.762624
vn 0.282847 -0.940297 -0.189314
vt 0.406955 0.503938
vn -0.004882 -0.989307 -0.145764
vt 0.437986 0.517711
vn 0.417759 -0.811209 -0.409167
vt 0.432484 0.499014
vn -0.008135 -0.980819 -0.194749
vt 0.437618 0.498788
vn -0.002689 -0.991957 0.12655
vt 0.44446 0.909804
vn -0.011495 -0.997294 0.072611
vt 0.442772 0.837392
vn 0.384528 -0.920873 0.064279
vt 0.420458 0.837781
vn -0.699595 -0.697376 0.155672
vt 0.463669 0.837027
vn -0.426351 -0.806415 -0.409781
vt 0.442563 0.498839
vn -0.287382 -0.938513 -0.191326
vt 0.467855 0.502875
vn -0.020422 -0.999715 0.012346
vt 0.442183 0.761312
vn -0.446123 -0.894854 0.014539
vt 0.464735 0.760918
vn -0.962287 0 0.272035
vt 0.463669 0.837027
vn -0.007664 -0.999966 0.003078
vt 0.438651 0.557853
vn -0.439777 -0.898019 0.012564
vt 0.462319 0.556612
vn 0.426318 -0.904506 0.010995
vt 0.414053 0.559143
vn 0.419134 -0.907914 0.00435
vt 0.417512 0.761743
vn 0.328005 0.567233 0.75542
vt 0.310802 0.284597
vn 0.453396 0.77829 -0.434392
vt 0.310058 0.387529
vn 0.657276 0.000837 0.753649
vt 0.299622 0.284902
vn -0.330319 0.565798 0.755487
vt 0.326979 0.284597
vn -0.448725 0.779595 -0.436895
vt 0.325978 0.387529
vn -0.656732 -0.005173 0.754106
vt 0.335251 0.284597
vn -0.899927 -0.005454 -0.436007
vt 0.334959 0.387529
vn -0.325004 -0.57004 0.754604
vt 0.326799 0.284597
vn -0.448396 -0.781852 -0.433185
vt 0.325843 0.387529
vn 0.330669 -0.567155 0.754317
vt 0.310704 0.284597
vn 0.449002 -0.780591 -0.434827
vt 0.309998 0.387529
vn 0.900444 -0.000938 -0.434972
vt 0.299827 0.387529
vn 0.953517 -0.000634 0.301337
vt 0.291465 0.283186
vn 0.477649 0.825516 0.300624
vt 0.306673 0.28288
vn -0.481892 0.823172 0.300279
vt 0.33019 0.28288
vn -0.953678 -0.004049 0.300803
vt 0.34362 0.28288
vn -0.473801 -0.827615 0.300944
vt 0.32998 0.28288
vn 0.481549 -0.823057 0.301142
vt 0.306575 0.28288
vn -0.47752 0.818119 -0.320399
vt 0.327542 0.211112
vn -0.404573 0.69637 -0.592781
vt 0.327386 0.162947
vn -0.947555 -0.004477 -0.319561
vt 0.338368 0.211112
vn -0.394262 -0.687717 -0.609593
vt 0.21158 0.217586
vn -0.794983 -0.003576 -0.606621
vt 0.252204 0.217586
vn 0.400599 -0.686247 -0.607112
vt 0.167583 0.217586
vn -0.421239 0.679767 -0.600395
vt 0.211569 0.217586
vn 0.392403 0.684039 -0.614907
vt 0.167489 0.217389
vn 0.809214 -0.017817 -0.587243
vt 0.132078 0.217684
vn -0.485627 -0.013768 0.874058
vt 0.334639 0.408479
vn -0.240989 -0.41486 0.877391
vt 0.325662 0.408278
vn -0.247067 0.424505 0.871064
vt 0.325839 0.408479
vn 0.240014 -0.421894 0.874299
vt 0.310139 0.408479
vn 0.490876 0.000688 0.871229
vt 0.300148 0.408479
vn 0.247126 0.428359 0.869159
vt 0.310242 0.408479
vn -0.478666 0.82016 -0.313395
vt 0.327212 0.274503
vn 0.474966 0.822315 -0.313376
vt 0.309609 0.274503
vn -0.94978 -0.004696 -0.312884
vt 0.337776 0.274503
vn 0.950005 -0.000432 -0.312233
vt 0.297296 0.274809
vn -0.470854 -0.82489 -0.312813
vt 0.327064 0.274503
vn 0.478561 -0.820677 -0.312199
vt 0.30954 0.274503
vn 0.939414 0.001711 0.342781
vt 0.297774 0.405973
vn 0.939175 0.001958 -0.343433
vt 0.2975 0.389788
vn 0.470416 0.813418 0.342141
vt 0.309051 0.405973
vn 0.469984 0.813413 -0.342746
vt 0.308912 0.389788
vn -0.473588 0.811167 0.343107
vt 0.327059 0.405973
vn -0.473841 0.810707 -0.343845
vt 0.327197 0.389788
vn -0.938644 -0.009921 0.344746
vt 0.337019 0.405973
vn -0.938989 -0.008301 -0.343848
vt 0.337291 0.389788
vn -0.46416 -0.811144 0.355811
vt 0.326838 0.405973
vn -0.464839 -0.816554 -0.342292
vt 0.326976 0.389788
vn 0.473494 -0.811525 0.34239
vt 0.308925 0.405973
vn 0.47374 -0.811098 -0.343061
vt 0.308786 0.389788
vn 0.455816 0.789205 0.411568
vt 0.309583 0.233605
vn 0.9121 -0.00045 0.409968
vt 0.29732 0.233605
vn -0.459454 0.787232 0.4113
vt 0.327258 0.233605
vn -0.911777 -0.004499 0.41066
vt 0.33781 0.233605
vn 0.459423 -0.787969 0.409921
vt 0.3095 0.233605
vn -0.451978 -0.79186 0.4107
vt 0.327079 0.233605
vn -0.804188 -0.001976 -0.594371
vt 0.338489 0.162905
vn -0.401933 -0.697708 -0.593004
vt 0.327291 0.162945
vn 0.401516 -0.697292 -0.593776
vt 0.309479 0.162934
vn -0.469799 -0.822981 -0.319359
vt 0.327357 0.211112
vn 0.80442 -0.00544 -0.594037
vt 0.296761 0.162933
vn 0.47747 -0.818804 -0.31872
vt 0.309217 0.211112
vn 0.40585 0.695819 -0.592555
vt 0.309353 0.162935
vn 0.947831 -0.000469 -0.318774
vt 0.296763 0.211112
vn 0.473657 0.820391 -0.320325
vt 0.309302 0.211112
vn -0.504957 0.862297 0.038226
vt 0.330278 0.221599
vn 0.500307 0.865005 0.038214
vt 0.306603 0.221599
vn 0.999267 -0.000834 0.038267
vt 0.291403 0.221599
vn -0.99926 -0.004123 0.038249
vt 0.343737 0.221599
vn -0.496412 -0.867245 0.038224
vt 0.330037 0.221599
vn 0.504679 -0.86246 0.038249
vt 0.306491 0.221599
vn -0.0344 0.999408 7.3e-05
vt 0.167576 0.989865
vn 0.485849 0.874043 0.000295
vt 0.167565 0.989865
vn -0.867818 0.496881 -0.000229
vt 0.211707 0.989865
vn -0.501914 0.864918 -0.000256
vt 0.211702 0.989865
vn -0.872835 -0.488016 -0.000259
vt 0.252351 0.989865
vn -0.999936 0.011297 -0.00034
vt 0.252356 0.989865
vn 0.019444 -0.999811 -1e-05
vt 0.211622 0.989865
vn -0.485062 -0.87448 -1.4e-05
vt 0.211633 0.989865
vn 0.870975 -0.491328 -7.9e-05
vt 0.167529 0.989865
vn 0.509879 -0.860246 -8.5e-05
vt 0.167534 0.989865
vn 1 -0.000719 -0.000131
vt 0.131977 0.989865
vn 0.875084 0.483971 3.8e-05
vt 0.16756 0.989865
f 1/1/1 2/2/2 3/3/3
f 3/3/3 4/4/4 1/1/1
f 5/5/5 6/6/6 7/7/7
f 8/8/8 6/6/6 5/5/5
f 1/1/1 4/4/4 9/9/9
f 9/9/9 10/10/10 1/1/1
f 5/5/5 11/11/11 12/12/12
f 12/12/12 8/8/8 5/5/5
f 13/13/13 6/6/6 8/8/8
f 14/14/14 15/15/15 1/1/1
f 1/1/1 10/10/10 14/14/14
f 16/16/16 15/15/15 11/11/11
f 11/11/11 17/17/17 16/16/16
f 11/11/11 5/5/5 7/7/7
f 7/7/7 17/17/17 11/11/11
f 14/14/14 12/12/12 11/11/11
f 11/11/11 15/15/15 14/14/14
f 16/16/16 2/2/2 1/1/1
f 1/1/1 15/15/15 16/16/16
f 18/18/18 19/19/19 20/20/20
f 21/21/21 20/20/20 19/19/19
f 22/22/22 23/23/23 24/24/24
f 22/22/22 25/25/25 23/23/23
f 21/21/21 19/19/19 26/26/26
f 27/27/27 26/26/26 19/19/19
f 28/28/28 23/23/23 29/29/29
f 25/25/25 29/29/29 23/23/23
f 22/22/22 30/30/30 25/25/25
f 31/31/31 32/32/32 19/19/19
f 27/27/27 19/19/19 32/32/32
f 31/31/31 33/33/33 28/28/28
f 34/34/34 28/28/28 33/33/33
f 23/23/23 28/28/28 24/24/24
f 34/34/34 24/24/24 28/28/28
f 29/29/29 32/32/32 28/28/28
f 31/31/31 28/28/28 32/32/32
f 18/18/18 33/33/33 19/19/19
f 31/31/31 19/19/19 33/33/33
f 35/35/35 36/36/36 37/37/37
f 38/38/38 39/39/39 35/35/35
f 40/40/40 41/41/41 38/38/38
f 42/42/42 43/43/43 40/40/40
f 44/44/44 45/45/45 42/42/42
f 37/37/37 46/46/46 44/44/44
f 37/37/37 47/47/47 35/35/35
f 48/48/48 35/35/35 47/47/47
f 35/35/35 48/48/48 38/38/38
f 49/49/49 38/38/38 48/48/48
f 38/38/38 49/49/49 40/40/40
f 50/50/50 40/40/40 49/49/49
f 40/40/40 50/50/50 42/42/42
f 51/51/51 42/42/42 50/50/50
f 42/42/42 51/51/51 44/44/44
f 52/52/52 44/44/44 51/51/51
f 44/44/44 52/52/52 37/37/37
f 47/47/47 37/37/37 52/52/52
f 53/53/53 54/54/54 55/55/55
f 56/56/56 57/57/57 58/58/58
f 59/59/59 60/60/60 57/57/57
f 57/57/57 60/60/60 58/58/58
f 58/58/58 60/60/60 61/61/61
f 62/62/62 63/63/63 64/64/64
f 65/65/65 66/66/66 63/63/63
f 63/63/63 66/66/66 64/64/64
f 64/64/64 66/66/66 67/67/67
f 68/68/68 49/49/49 69/69/69
f 48/48/48 69/69/69 49/49/49
f 70/70/70 50/50/50 68/68/68
f 49/49/49 68/68/68 50/50/50
f 48/48/48 47/47/47 69/69/69
f 71/71/71 69/69/69 47/47/47
f 72/72/72 51/51/51 70/70/70
f 50/50/50 70/70/70 51/51/51
f 73/73/73 52/52/52 72/72/72
f 51/51/51 72/72/72 52/52/52
f 73/73/73 71/71/71 52/52/52
f 47/47/47 52/52/52 71/71/71
f 74/74/74 75/75/75 76/76/76
f 77/77/77 76/76/76 75/75/75
f 76/76/76 77/77/77 78/78/78
f 79/79/79 78/78/78 77/77/77
f 78/78/78 79/79/79 80/80/80
f 81/81/81 80/80/80 79/79/79
f 80/80/80 81/81/81 82/82/82
f 83/83/83 82/82/82 81/81/81
f 82/82/82 83/83/83 84/84/84
f 85/85/85 84/84/84 83/83/83
f 84/84/84 85/85/85 74/74/74
f 75/75/75 74/74/74 85/85/85
f 75/75/75 46/46/46 77/77/77
f 36/36/36 77/77/77 46/46/46
f 77/77/77 36/36/36 79/79/79
f 39/39/39 79/79/79 36/36/36
f 79/79/79 39/39/39 81/81/81
f 41/41/41 81/81/81 39/39/39
f 81/81/81 41/41/41 83/83/83
f 43/43/43 83/83/83 41/41/41
f 83/83/83 43/43/43 85/85/85
f 45/45/45 85/85/85 43/43/43
f 85/85/85 45/45/45 75/75/75
f 46/46/46 75/75/75 45/45/45
f 66/66/66 74/74/74 67/67/67
f 76/76/76 67/67/67 74/74/74
f 67/67/67 76/76/76 64/64/64
f 78/78/78 64/64/64 76/76/76
f 64/64/64 78/78/78 62/62/62
f 80/80/80 62/62/62 78/78/78
f 62/62/62 80/80/80 63/63/63
f 82/82/82 63/63/63 80/80/80
f 63/63/63 82/82/82 65/65/65
f 84/84/84 65/65/65 82/82/82
f 65/65/65 84/84/84 66/66/66
f 74/74/74 66/66/66 84/84/84
f 69/69/69 71/71/71 86/86/86
f 87/87/87 86/86/86 71/71/71
f 88/88/88 68/68/68 86/86/86
f 69/69/69 86/86/86 68/68/68
f 89/89/89 70/70/70 88/88/88
f 68/68/68 88/88/88 70/70/70
f 90/90/90 73/73/73 91/91/91
f 72/72/72 91/91/91 73/73/73
f 90/90/90 87/87/87 73/73/73
f 71/71/71 73/73/73 87/87/87
f 91/91/91 72/72/72 89/89/89
f 70/70/70 89/89/89 72/72/72
f 92/92/92 93/93/93 55/55/55
f 93/93/93 94/94/94 95/95/95
f 94/94/94 96/96/96 97/97/97
f 96/96/96 98/98/98 99/99/99
f 98/98/98 54/54/54 100/100/100
f 101/101/101 88/88/88 102/102/102
f 86/86/86 102/102/102 88/88/88
f 53/53/53 101/101/101 100/100/100
f 102/102/102 100/100/100 101/101/101
f 86/86/86 87/87/87 102/102/102
f 103/103/103 102/102/102 87/87/87
f 102/102/102 103/103/103 100/100/100
f 99/99/99 100/100/100 103/103/103
f 104/104/104 89/89/89 101/101/101
f 88/88/88 101/101/101 89/89/89
f 55/55/55 104/104/104 53/53/53
f 101/101/101 53/53/53 104/104/104
f 105/105/105 91/91/91 104/104/104
f 89/89/89 104/104/104 91/91/91
f 106/106/106 90/90/90 105/105/105
f 91/91/91 105/105/105 90/90/90
f 106/106/106 103/103/103 90/90/90
f 87/87/87 90/90/90 103/103/103
f 95/95/95 105/105/105 55/55/55
f 104/104/104 55/55/55 105/105/105
f 97/97/97 106/106/106 95/95/95
f 105/105/105 95/95/95 106/106/106
f 97/97/97 99/99/99 106/106/106
f 103/103/103 106/106/106 99/99/99
f 107/107/107 108/108/108 59/59/59
f 60/60/60 59/59/59 108/108/108
f 109/109/109 110/110/110 57/57/57
f 59/59/59 57/57/57 110/110/110
f 111/111/111 112/112/112 56/56/56
f 57/57/57 56/56/56 112/112/112
f 113/113/113 114/114/114 58/58/58
f 56/56/56 58/58/58 114/114/114
f 115/115/115 116/116/116 61/61/61
f 58/58/58 61/61/61 116/116/116
f 117/117/117 61/61/61 118/118/118
f 110/110/110 107/107/107 59/59/59
f 112/112/112 109/109/109 57/57/57
f 114/114/114 111/111/111 56/56/56
f 116/116/116 113/113/113 58/58/58
f 117/117/117 115/115/115 61/61/61
f 61/61/61 60/60/60 118/118/118
f 108/108/108 118/118/118 60/60/60
f 55/55/55 54/54/54 92/92/92
f 95/95/95 55/55/55 93/93/93
f 97/97/97 95/95/95 94/94/94
f 99/99/99 97/97/97 96/96/96
f 100/100/100 99/99/99 98/98/98
f 53/53/53 100/100/100 54/54/54
f 37/37/37 36/36/36 46/46/46
f 35/35/35 39/39/39 36/36/36
f 38/38/38 41/41/41 39/39/39
f 40/40/40 43/43/43 41/41/41
f 42/42/42 45/45/45 43/43/43
f 44/44/44 46/46/46 45/45/45
f 54/54/54 98/98/98 96/96/96
f 96/96/96 94/94/94 93/93/93
f 54/54/54 96/96/96 93/93/93
f 92/92/92 54/54/54 93/93/93
