#
# Exported by OpenBRF -- marco tarini
#
s dbspear
newmtl sg_long
Ka 0.8 0.8 0.8
Kd 0.2 0.2 0.2
usemtl sg_long
v 0.011919 -0.019688 -0.606597
v -0.01127 -0.019769 -0.606221
v 0.000176 -0.008745 -0.606597
v 0.023156 -1.6e-05 -0.606597
v -0.02292 6e-06 -0.606597
v 0.015781 0.026958 -0.511901
v 0.015781 0.026958 -0.502994
v 0.030752 4.3e-05 -0.502994
v 0.030752 4.3e-05 -0.511901
v -0.015087 0.026495 -0.511901
v -0.015087 0.026495 -0.502994
v -0.030343 3.6e-05 -0.511901
v -0.030343 3.6e-05 -0.502994
v -0.015372 -0.026858 -0.511901
v -0.015372 -0.026858 -0.502994
v 0.015496 -0.026394 -0.511901
v 0.015496 -0.026394 -0.502994
v 0.012403 0.021122 -0.514394
v 0.024126 6.3e-05 -0.514394
v -0.01177 0.020759 -0.514394
v -0.023717 1.6e-05 -0.514394
v -0.011994 -0.021021 -0.514394
v 0.012179 -0.020658 -0.514394
v 0.023533 1.5e-05 -0.592631
v 0.01196 0.020358 -0.592631
v -0.011717 0.020229 -0.592631
v -0.02323 1e-05 -0.592631
v -0.011549 -0.020252 -0.592631
v 0.01202 -0.020065 -0.592631
v 1.8e-05 0.009899 -0.606597
v 0.011679 0.019873 -0.606597
v -0.011683 0.019892 -0.606597
v 0.022952 -1.6e-05 -0.619506
v 0.000443 -0.008745 -0.619506
v 0.00024 0.009899 -0.619506
v -0.022215 6e-06 -0.619506
v 0.050046 -0.000111 -0.634262
v 0.00012 -0.01382 -0.634262
v -0.000329 0.015155 -0.634262
v -0.050136 -8.2e-05 -0.634262
v 0.024914 -1e-06 -0.670109
v 0.00014 -0.008293 -0.670109
v -8.3e-05 0.009417 -0.670109
v -0.024798 2e-05 -0.670109
v 0.031757 -2.9e-05 -0.604407
v 0.016023 0.027349 -0.604407
v -0.016049 0.027318 -0.604407
v -0.031525 -9e-06 -0.604407
v -0.015576 -0.027237 -0.604407
v 0.016282 -0.02709 -0.604407
v 0.031974 -1.1e-05 -0.595249
v 0.016185 0.027628 -0.595249
v -0.016069 0.027511 -0.595249
v -0.031703 -6e-06 -0.595249
v -0.015739 -0.027518 -0.595249
v 0.01634 -0.027307 -0.595249
v 0.000242 0.000272 -0.793205
v 0.019613 0.000118 1.28454
v 0.019618 0.000127 -0.505282
v 0.010361 0.01758 -0.505282
v 0.010366 0.01757 1.28454
v -0.009485 0.016655 -0.505282
v -0.009474 0.016656 1.28454
v -0.019117 -0.000124 -0.505282
v -0.019111 -0.000114 1.28454
v -0.009509 -0.016745 -0.505282
v -0.009514 -0.016736 1.28454
v 0.010084 -0.016618 -0.505282
v 0.010073 -0.016618 1.28454
v 0.011919 -0.019688 1.38605
v 0.023156 -1.6e-05 1.38605
v 0.000176 -0.008745 1.38605
v -0.01127 -0.019768 1.38567
v -0.02292 6e-06 1.38605
v 0.015781 0.026958 1.29135
v 0.030752 4.3e-05 1.29135
v 0.030752 4.3e-05 1.28244
v 0.015781 0.026958 1.28244
v -0.015087 0.026495 1.29135
v -0.015087 0.026495 1.28244
v -0.030343 3.6e-05 1.29135
v -0.030343 3.6e-05 1.28244
v -0.015372 -0.026858 1.29135
v -0.015372 -0.026858 1.28244
v 0.015496 -0.026394 1.29135
v 0.015496 -0.026394 1.28244
v 0.012403 0.021122 1.29385
v 0.024126 6.3e-05 1.29385
v -0.01177 0.020759 1.29385
v -0.023717 1.6e-05 1.29385
v -0.011994 -0.021021 1.29385
v 0.012179 -0.020658 1.29385
v 0.023533 1.5e-05 1.37208
v 0.01196 0.020358 1.37208
v -0.011717 0.020229 1.37208
v -0.02323 1e-05 1.37208
v -0.011549 -0.020252 1.37208
v 0.01202 -0.020065 1.37208
v 0.011679 0.019873 1.38605
v 1.8e-05 0.009899 1.38605
v -0.011683 0.019893 1.38605
v 0.022952 -1.6e-05 1.39896
v 0.000443 -0.008745 1.39896
v 0.00024 0.009899 1.39896
v -0.022215 6e-06 1.39896
v -0.00033 0.015156 1.41371
v 0.050046 -0.000111 1.41371
v 0.00012 -0.01382 1.41371
v -0.050136 -8.1e-05 1.41371
v 0.024914 -1e-06 1.44956
v 0.00014 -0.008293 1.44956
v -8.3e-05 0.009417 1.44956
v -0.024798 2e-05 1.44956
v 0.031757 -2.9e-05 1.38386
v 0.016023 0.027349 1.38386
v -0.016049 0.027318 1.38386
v -0.031525 -9e-06 1.38386
v -0.015576 -0.027237 1.38386
v 0.016281 -0.02709 1.38386
v 0.031974 -1.1e-05 1.3747
v 0.016185 0.027628 1.3747
v -0.016069 0.027511 1.3747
v -0.031703 -6e-06 1.3747
v -0.015739 -0.027518 1.3747
v 0.01634 -0.027307 1.3747
v 0.000242 0.000272 1.57266
vn 0.075503 -0.147583 -0.986164
vt 0.303837 0.392169
vn -0.074055 -0.131128 -0.988596
vt 0.328572 0.391768
vn -0.008643 -0.611176 -0.791448
vt 0.316363 0.392169
vn 0.379791 -0.003996 -0.925064
vt 0.289477 0.392169
vn -0.374633 -0.01525 -0.927048
vt 0.345041 0.392169
vn 0.434112 0.751004 -0.497535
vt 0.299717 0.29116
vn 0.500426 0.865779 0
vt 0.299717 0.281659
vn 0.999969 -0.007886 0
vt 0.282079 0.281659
vn 0.867071 -0.006631 -0.498141
vt 0.282079 0.29116
vn -0.439193 0.747699 -0.498052
vt 0.332643 0.29116
vn -0.506726 0.862107 0
vt 0.332643 0.281659
vn -0.867069 0.006339 -0.498148
vt 0.352254 0.29116
vn -0.999972 0.00754 0
vt 0.352254 0.281659
vn -0.433972 -0.751066 -0.497563
vt 0.332947 0.29116
vn -0.500269 -0.86587 0
vt 0.332947 0.281659
vn 0.439066 -0.747763 -0.498068
vt 0.300021 0.29116
vn 0.506585 -0.86219 0
vt 0.300021 0.281659
vn 0.364797 0.6323 -0.683462
vt 0.30332 0.293819
vn 0.738429 -0.006015 -0.674304
vt 0.289147 0.293819
vn -0.374257 0.636168 -0.674701
vt 0.329105 0.293819
vn -0.738974 0.005637 -0.673711
vt 0.345186 0.293819
vn -0.364581 -0.63272 -0.683189
vt 0.329344 0.293819
vn 0.374151 -0.635918 -0.674996
vt 0.303559 0.293819
vn 0.714229 -0.001296 0.699911
vt 0.289075 0.377272
vn 0.356075 0.617019 0.701782
vt 0.303793 0.377272
vn -0.358677 0.61468 0.702509
vt 0.329049 0.377272
vn -0.71324 -0.001757 0.700918
vt 0.345371 0.377272
vn -0.353943 -0.619287 0.700862
vt 0.328869 0.377272
vn 0.359428 -0.616312 0.700693
vt 0.303729 0.377272
vn -0.004836 0.588392 -0.808561
vt 0.316531 0.392169
vn 0.081999 0.141866 -0.986484
vt 0.304093 0.392169
vn -0.082822 0.142343 -0.986346
vt 0.329012 0.392169
vn 0.731671 0.045638 0.680129
vt 0.431048 0.868043
vn 0.379791 -0.003996 -0.925064
vt 0.430915 0.859629
vn -0.008643 -0.611176 -0.791448
vt 0.445892 0.859629
vn -0.016279 -0.98212 0.187553
vt 0.445718 0.868043
vn 0.030519 0.980304 0.195123
vt 0.445851 0.868043
vn -0.004836 0.588392 -0.808561
vt 0.445995 0.859629
vn -0.724479 -0.108038 0.680777
vt 0.460486 0.868043
vn -0.374633 -0.01525 -0.927048
vt 0.460945 0.859629
vn 0.98795 -0.00632 0.154646
vt 0.413389 0.87766
vn -0.01531 -0.996061 0.087335
vt 0.445929 0.87766
vn 0.01093 0.99608 0.087774
vt 0.446222 0.87766
vn -0.98761 -0.016783 0.156029
vt 0.478684 0.87766
vn 0.922204 -0.018631 -0.386255
vt 0.429769 0.901024
vn 0.000593 -0.993715 -0.111935
vt 0.445916 0.901023
vn -0.000979 0.993097 -0.117292
vt 0.446061 0.901023
vn -0.920572 -0.021416 -0.389985
vt 0.462169 0.901023
vn 0.839542 0.000251 -0.543295
vt 0.280302 0.389833
vn 0.419523 0.724032 -0.54752
vt 0.299459 0.389833
vn -0.426339 0.72484 -0.541148
vt 0.333669 0.389833
vn -0.839753 -0.007779 -0.542913
vt 0.354219 0.389833
vn -0.411255 -0.718776 -0.560562
vt 0.333165 0.389833
vn 0.42261 -0.724342 -0.544729
vt 0.299183 0.389833
vn 0.861866 0.000575 0.507136
vt 0.280071 0.380065
vn 0.433676 0.748455 0.501736
vt 0.299286 0.380065
vn -0.433389 0.743827 0.508817
vt 0.333691 0.380065
vn -0.860805 -0.004859 0.508911
vt 0.354409 0.380065
vn -0.430027 -0.750666 0.501576
vt 0.333339 0.380065
vn 0.433996 -0.744767 0.506922
vt 0.299121 0.380065
vn 0.001555 -0.000862 -0.999998
vt 0.445849 0.981252
vn 0.999881 -0.01544 0
vt 0.012141 0.992012
vn 0.999888 -0.01496 6e-06
vt 0.012138 0.205029
vn 0.495384 0.868674 6e-06
vt 0.040883 0.205029
vn 0.495804 0.868434 0
vt 0.040881 0.992012
vn -0.521088 0.853503 6e-06
vt 0.074283 0.205029
vn -0.520665 0.853761 0
vt 0.074279 0.992012
vn -0.999999 -0.001506 6e-06
vt 0.103193 0.205029
vn -0.999999 -0.001014 0
vt 0.10319 0.992012
vn -0.496959 -0.867774 6e-06
vt 0.074294 0.205029
vn -0.497381 -0.867532 0
vt 0.074296 0.992012
vn 0.505399 -0.862886 6e-06
vt 0.041005 0.205029
vn 0.504979 -0.863131 0
vt 0.04101 0.992012
vn 0.075473 -0.147524 0.986175
vt 0.30345 0.392558
vn 0.379714 -0.004 0.925095
vt 0.289091 0.392558
vn -0.008644 -0.611176 0.791447
vt 0.315977 0.392558
vn -0.074015 -0.131048 0.988609
vt 0.328186 0.392157
vn -0.374556 -0.015253 0.927079
vt 0.344655 0.392558
vn 0.434112 0.751005 0.497532
vt 0.299331 0.291548
vn 0.867072 -0.006631 0.498138
vt 0.281693 0.291548
vn 0.999969 -0.007886 0
vt 0.281693 0.282048
vn 0.500426 0.865779 0
vt 0.299331 0.282048
vn -0.439194 0.747701 0.498049
vt 0.332257 0.291548
vn -0.506726 0.862107 0
vt 0.332257 0.282048
vn -0.867071 0.006339 0.498145
vt 0.351867 0.291548
vn -0.999972 0.00754 0
vt 0.351867 0.282048
vn -0.433973 -0.751067 0.49756
vt 0.332561 0.291548
vn -0.500269 -0.86587 0
vt 0.332561 0.282048
vn 0.439067 -0.747764 0.498066
vt 0.299635 0.291548
vn 0.506585 -0.86219 0
vt 0.299635 0.282048
vn 0.364798 0.632303 0.683458
vt 0.302934 0.294208
vn 0.738433 -0.006015 0.6743
vt 0.288761 0.294208
vn -0.374259 0.636171 0.674697
vt 0.328719 0.294208
vn -0.738977 0.005637 0.673707
vt 0.3448 0.294208
vn -0.364583 -0.632723 0.683185
vt 0.328958 0.294208
vn 0.374153 -0.635921 0.674992
vt 0.303173 0.294208
vn 0.714226 -0.001296 -0.699914
vt 0.288689 0.377661
vn 0.356074 0.617016 -0.701786
vt 0.303407 0.377661
vn -0.358676 0.614677 -0.702513
vt 0.328662 0.377661
vn -0.713237 -0.001757 -0.700921
vt 0.344985 0.377661
vn -0.353941 -0.619284 -0.700866
vt 0.328483 0.377661
vn 0.359426 -0.61631 -0.700696
vt 0.303343 0.377661
vn 0.081965 0.141797 0.986497
vt 0.303707 0.392558
vn -0.004836 0.588392 0.808561
vt 0.316145 0.392558
vn -0.082789 0.142293 0.986356
vt 0.328626 0.392558
vn 0.771091 -0.025976 -0.636194
vt 0.431165 0.868312
vn 0.006747 -0.985353 -0.170391
vt 0.445835 0.868312
vn -0.008644 -0.611176 0.791447
vt 0.446009 0.859898
vn 0.379714 -0.004 0.925095
vt 0.431032 0.859898
vn 0.004552 0.984234 -0.17681
vt 0.445968 0.868312
vn -0.004836 0.588392 0.808561
vt 0.446112 0.859898
vn -0.771331 -0.029323 -0.635759
vt 0.460603 0.868312
vn -0.374556 -0.015253 0.927079
vt 0.461062 0.859898
vn -0.005454 0.994587 -0.103764
vt 0.446339 0.877929
vn 0.986065 -0.010647 -0.166018
vt 0.413506 0.877929
vn -0.001385 -0.994976 -0.100103
vt 0.446046 0.877929
vn -0.985571 -0.011908 -0.16884
vt 0.4788 0.877929
vn 0.922201 -0.018635 0.386262
vt 0.429886 0.901293
vn 0.000593 -0.993715 0.111935
vt 0.446033 0.901293
vn -0.000976 0.993095 0.117306
vt 0.446178 0.901293
vn -0.920566 -0.021427 0.389999
vt 0.462286 0.901293
vn 0.839518 0.000248 0.543333
vt 0.279916 0.390223
vn 0.419513 0.724012 0.547554
vt 0.299073 0.390223
vn -0.426332 0.724823 0.541177
vt 0.333283 0.390223
vn -0.839729 -0.00778 0.54295
vt 0.353833 0.390223
vn -0.41124 -0.718752 0.560604
vt 0.332779 0.390223
vn 0.42256 -0.724328 0.544787
vt 0.298798 0.390223
vn 0.861864 0.000575 -0.507139
vt 0.279685 0.380453
vn 0.433675 0.748453 -0.50174
vt 0.2989 0.380453
vn -0.433389 0.743825 -0.50882
vt 0.333305 0.380453
vn -0.860804 -0.004859 -0.508914
vt 0.354023 0.380453
vn -0.430025 -0.750664 -0.501579
vt 0.332953 0.380453
vn 0.434012 -0.744768 -0.506906
vt 0.298735 0.380453
vn 0.001555 -0.000862 0.999998
vt 0.445966 0.981521
f 1/1/1 2/2/2 3/3/3
f 3/3/3 4/4/4 1/1/1
f 3/3/3 2/2/2 5/5/5
f 6/6/6 7/7/7 8/8/8
f 8/8/8 9/9/9 6/6/6
f 10/10/10 11/11/11 7/7/7
f 7/7/7 6/6/6 10/10/10
f 12/12/12 13/13/13 11/11/11
f 11/11/11 10/10/10 12/12/12
f 14/14/14 15/15/15 13/13/13
f 13/13/13 12/12/12 14/14/14
f 16/16/16 17/17/17 15/15/15
f 15/15/15 14/14/14 16/16/16
f 9/9/9 8/8/8 17/17/17
f 17/17/17 16/16/16 9/9/9
f 18/18/18 6/6/6 9/9/9
f 9/9/9 19/19/19 18/18/18
f 20/20/20 10/10/10 6/6/6
f 6/6/6 18/18/18 20/20/20
f 21/21/21 12/12/12 10/10/10
f 10/10/10 20/20/20 21/21/21
f 22/22/22 14/14/14 12/12/12
f 12/12/12 21/21/21 22/22/22
f 23/23/23 16/16/16 14/14/14
f 14/14/14 22/22/22 23/23/23
f 19/19/19 9/9/9 16/16/16
f 16/16/16 23/23/23 19/19/19
f 24/24/24 25/25/25 18/18/18
f 18/18/18 19/19/19 24/24/24
f 25/25/25 26/26/26 20/20/20
f 20/20/20 18/18/18 25/25/25
f 26/26/26 27/27/27 21/21/21
f 21/21/21 20/20/20 26/26/26
f 27/27/27 28/28/28 22/22/22
f 22/22/22 21/21/21 27/27/27
f 28/28/28 29/29/29 23/23/23
f 23/23/23 22/22/22 28/28/28
f 29/29/29 24/24/24 19/19/19
f 19/19/19 23/23/23 29/29/29
f 30/30/30 31/31/31 4/4/4
f 32/32/32 31/31/31 30/30/30
f 30/30/30 5/5/5 32/32/32
f 33/33/33 4/34/34 3/35/35
f 3/35/35 34/36/36 33/33/33
f 35/37/37 30/38/38 4/34/34
f 4/34/34 33/33/33 35/37/37
f 36/39/39 5/40/40 30/38/38
f 30/38/38 35/37/37 36/39/39
f 34/36/36 3/35/35 5/40/40
f 5/40/40 36/39/39 34/36/36
f 37/41/41 33/33/33 34/36/36
f 34/36/36 38/42/42 37/41/41
f 39/43/43 35/37/37 33/33/33
f 33/33/33 37/41/41 39/43/43
f 40/44/44 36/39/39 35/37/37
f 35/37/37 39/43/43 40/44/44
f 38/42/42 34/36/36 36/39/39
f 36/39/39 40/44/44 38/42/42
f 41/45/45 37/41/41 38/42/42
f 38/42/42 42/46/46 41/45/45
f 41/45/45 43/47/47 39/43/43
f 39/43/43 37/41/41 41/45/45
f 44/48/48 40/44/44 39/43/43
f 39/43/43 43/47/47 44/48/48
f 44/48/48 42/46/46 38/42/42
f 38/42/42 40/44/44 44/48/48
f 45/49/49 4/4/4 31/31/31
f 31/31/31 46/50/50 45/49/49
f 46/50/50 31/31/31 32/32/32
f 32/32/32 47/51/51 46/50/50
f 47/51/51 32/32/32 5/5/5
f 5/5/5 48/52/52 47/51/51
f 48/52/52 5/5/5 2/2/2
f 2/2/2 49/53/53 48/52/52
f 2/2/2 1/1/1 50/54/54
f 50/54/54 49/53/53 2/2/2
f 50/54/54 1/1/1 4/4/4
f 4/4/4 45/49/49 50/54/54
f 51/55/55 45/49/49 46/50/50
f 46/50/50 52/56/56 51/55/55
f 52/56/56 46/50/50 47/51/51
f 47/51/51 53/57/57 52/56/56
f 53/57/57 47/51/51 48/52/52
f 48/52/52 54/58/58 53/57/57
f 54/58/58 48/52/52 49/53/53
f 49/53/53 55/59/59 54/58/58
f 55/59/59 49/53/53 50/54/54
f 50/54/54 56/60/60 55/59/59
f 56/60/60 50/54/54 45/49/49
f 45/49/49 51/55/55 56/60/60
f 24/24/24 51/55/55 52/56/56
f 52/56/56 25/25/25 24/24/24
f 25/25/25 52/56/56 53/57/57
f 53/57/57 26/26/26 25/25/25
f 26/26/26 53/57/57 54/58/58
f 54/58/58 27/27/27 26/26/26
f 27/27/27 54/58/58 55/59/59
f 55/59/59 28/28/28 27/27/27
f 28/28/28 55/59/59 56/60/60
f 56/60/60 29/29/29 28/28/28
f 29/29/29 56/60/60 51/55/55
f 51/55/55 24/24/24 29/29/29
f 57/61/61 41/45/45 42/46/46
f 43/47/47 41/45/45 57/61/61
f 57/61/61 44/48/48 43/47/47
f 42/46/46 44/48/48 57/61/61
f 58/62/62 59/63/63 60/64/64
f 60/64/64 61/65/65 58/62/62
f 61/65/65 60/64/64 62/66/66
f 62/66/66 63/67/67 61/65/65
f 63/67/67 62/66/66 64/68/68
f 64/68/68 65/69/69 63/67/67
f 65/69/69 64/68/68 66/70/70
f 66/70/70 67/71/71 65/69/69
f 67/71/71 66/70/70 68/72/72
f 68/72/72 69/73/73 67/71/71
f 69/73/73 68/72/72 59/63/63
f 59/63/63 58/62/62 69/73/73
f 70/74/74 71/75/75 72/76/76
f 72/76/76 73/77/77 70/74/74
f 73/77/77 72/76/76 74/78/78
f 75/79/79 76/80/80 77/81/81
f 77/81/81 78/82/82 75/79/79
f 79/83/83 75/79/79 78/82/82
f 78/82/82 80/84/84 79/83/83
f 81/85/85 79/83/83 80/84/84
f 80/84/84 82/86/86 81/85/85
f 83/87/87 81/85/85 82/86/86
f 82/86/86 84/88/88 83/87/87
f 85/89/89 83/87/87 84/88/88
f 84/88/88 86/90/90 85/89/89
f 76/80/80 85/89/89 86/90/90
f 86/90/90 77/81/81 76/80/80
f 87/91/91 88/92/92 76/80/80
f 76/80/80 75/79/79 87/91/91
f 89/93/93 87/91/91 75/79/79
f 75/79/79 79/83/83 89/93/93
f 90/94/94 89/93/93 79/83/83
f 79/83/83 81/85/85 90/94/94
f 91/95/95 90/94/94 81/85/85
f 81/85/85 83/87/87 91/95/95
f 92/96/96 91/95/95 83/87/87
f 83/87/87 85/89/89 92/96/96
f 88/92/92 92/96/96 85/89/89
f 85/89/89 76/80/80 88/92/92
f 93/97/97 88/92/92 87/91/91
f 87/91/91 94/98/98 93/97/97
f 94/98/98 87/91/91 89/93/93
f 89/93/93 95/99/99 94/98/98
f 95/99/99 89/93/93 90/94/94
f 90/94/94 96/100/100 95/99/99
f 96/100/100 90/94/94 91/95/95
f 91/95/95 97/101/101 96/100/100
f 97/101/101 91/95/95 92/96/96
f 92/96/96 98/102/102 97/101/101
f 98/102/102 92/96/96 88/92/92
f 88/92/92 93/97/97 98/102/102
f 99/103/103 100/104/104 71/75/75
f 101/105/105 74/78/78 100/104/104
f 100/104/104 99/103/103 101/105/105
f 102/106/106 103/107/107 72/108/108
f 72/108/108 71/109/109 102/106/106
f 104/110/110 102/106/106 71/109/109
f 71/109/109 100/111/111 104/110/110
f 105/112/112 104/110/110 100/111/111
f 100/111/111 74/113/113 105/112/112
f 103/107/107 105/112/112 74/113/113
f 74/113/113 72/108/108 103/107/107
f 106/114/114 107/115/115 102/106/106
f 102/106/106 104/110/110 106/114/114
f 108/116/116 109/117/117 105/112/112
f 105/112/112 103/107/107 108/116/116
f 110/118/118 111/119/119 108/116/116
f 108/116/116 107/115/115 110/118/118
f 110/118/118 107/115/115 106/114/114
f 106/114/114 112/120/120 110/118/118
f 113/121/121 112/120/120 106/114/114
f 106/114/114 109/117/117 113/121/121
f 113/121/121 109/117/117 108/116/116
f 108/116/116 111/119/119 113/121/121
f 114/122/122 115/123/123 99/103/103
f 99/103/103 71/75/75 114/122/122
f 115/123/123 116/124/124 101/105/105
f 101/105/105 99/103/103 115/123/123
f 116/124/124 117/125/125 74/78/78
f 74/78/78 101/105/105 116/124/124
f 117/125/125 118/126/126 73/77/77
f 73/77/77 74/78/78 117/125/125
f 73/77/77 118/126/126 119/127/127
f 119/127/127 70/74/74 73/77/77
f 119/127/127 114/122/122 71/75/75
f 71/75/75 70/74/74 119/127/127
f 120/128/128 121/129/129 115/123/123
f 115/123/123 114/122/122 120/128/128
f 121/129/129 122/130/130 116/124/124
f 116/124/124 115/123/123 121/129/129
f 122/130/130 123/131/131 117/125/125
f 117/125/125 116/124/124 122/130/130
f 123/131/131 124/132/132 118/126/126
f 118/126/126 117/125/125 123/131/131
f 124/132/132 125/133/133 119/127/127
f 119/127/127 118/126/126 124/132/132
f 125/133/133 120/128/128 114/122/122
f 114/122/122 119/127/127 125/133/133
f 93/97/97 94/98/98 121/129/129
f 121/129/129 120/128/128 93/97/97
f 94/98/98 95/99/99 122/130/130
f 122/130/130 121/129/129 94/98/98
f 95/99/99 96/100/100 123/131/131
f 123/131/131 122/130/130 95/99/99
f 96/100/100 97/101/101 124/132/132
f 124/132/132 123/131/131 96/100/100
f 97/101/101 98/102/102 125/133/133
f 125/133/133 124/132/132 97/101/101
f 98/102/102 93/97/97 120/128/128
f 120/128/128 125/133/133 98/102/102
f 111/119/119 110/118/118 126/134/134
f 126/134/134 110/118/118 112/120/120
f 112/120/120 113/121/121 126/134/134
f 126/134/134 113/121/121 111/119/119
f 105/112/112 109/117/117 106/114/114
f 106/114/114 104/110/110 105/112/112
f 102/106/106 107/115/115 108/116/116
f 108/116/116 103/107/107 102/106/106
f 86/90/90 84/88/88 82/86/86
f 82/86/86 80/84/84 78/82/82
f 86/90/90 82/86/86 78/82/82
f 77/81/81 86/90/90 78/82/82
f 11/11/11 13/13/13 15/15/15
f 15/15/15 17/17/17 8/8/8
f 11/11/11 15/15/15 8/8/8
f 7/7/7 11/11/11 8/8/8
