#
# Exported by OpenBRF -- marco tarini
#
s lianhalberd
newmtl sg_long
Ka 0.8 0.8 0.8
Kd 0.2 0.2 0.2
usemtl sg_long
v -0.015486 0.000204 1.37025
v -0.015486 -0.006297 1.45634
v -0.057443 -0.006297 1.45634
v -0.057443 0.000204 1.38123
v -0.128943 -0.004479 1.45634
v -0.128943 0.000204 1.43754
v -0.249439 0.000204 1.45741
v -0.015486 -0.006297 1.4994
v -0.057443 -0.006297 1.4994
v -0.128943 -0.004479 1.4994
v -0.278119 0.000204 1.4994
v -0.057443 0.006705 1.45634
v -0.015486 0.006705 1.45634
v -0.128943 0.004887 1.45634
v -0.057443 0.006705 1.4994
v -0.015486 0.006705 1.4994
v -0.128943 0.004887 1.4994
v 0.020952 0.000118 1.34084
v 0.020957 0.000127 -0.622005
v 0.0117 0.01758 -0.622005
v 0.011705 0.01757 1.34084
v -0.008146 0.016655 -0.622005
v -0.008135 0.016656 1.34084
v -0.017778 -0.000124 -0.622005
v -0.017772 -0.000114 1.34084
v -0.00817 -0.016745 -0.622005
v -0.008175 -0.016736 1.34084
v 0.011423 -0.016618 -0.622005
v 0.011412 -0.016618 1.34084
v -0.015486 0.000204 1.18984
v -0.015486 -0.006297 1.27594
v -0.057443 -0.006297 1.27594
v -0.057443 0.000204 1.20082
v -0.128943 -0.004479 1.27594
v -0.128943 0.000204 1.25713
v -0.249439 0.000204 1.277
v -0.015486 -0.006297 1.31899
v -0.057443 -0.006297 1.31899
v -0.128943 -0.004479 1.31899
v -0.278119 0.000204 1.31899
v -0.057443 0.006705 1.27594
v -0.015486 0.006705 1.27594
v -0.128943 0.004887 1.27594
v -0.057443 0.006705 1.31899
v -0.015486 0.006705 1.31899
v -0.128943 0.004887 1.31899
v 0.001379 0 1.87106
v 0.006546 0.00128 1.85088
v 0.001379 0.003199 1.85088
v -0.003788 0.00128 1.85088
v -0.010246 0 1.85088
v 0.006546 -0.00128 1.85088
v 0.013004 0 1.85088
v -0.003788 -0.00128 1.85088
v 0.001379 -0.003199 1.85088
v -0.020331 0 1.32149
v -0.015566 0.01577 1.36049
v -0.015566 0.01577 1.32149
v -0.015566 -0.01577 1.32149
v -0.020331 0 1.36049
v 0.022992 0 1.32149
v 0.018226 0.01577 1.36049
v 0.022992 0 1.36049
v 0.00133 0.021662 1.32149
v 0.018226 0.01577 1.32149
v 0.00133 0.021662 1.36049
v -0.01293 0.01331 1.36452
v -0.01293 -0.01331 1.36452
v -0.016952 0 1.36452
v 0.015591 0.01331 1.36452
v 0.019613 0 1.36452
v 0.018226 -0.01577 1.32149
v 0.015591 -0.01331 1.36452
v 0.018226 -0.01577 1.36049
v 0.00133 0.018282 1.36452
v -0.020331 0 1.36855
v -0.015566 0.01577 1.5151
v -0.015566 0.01577 1.36855
v -0.015566 -0.01577 1.36855
v -0.020331 0 1.5151
v 0.022992 0 1.36855
v 0.018226 0.01577 1.5151
v 0.022992 0 1.5151
v 0.018226 0.01577 1.36855
v 0.00133 0.021662 1.36855
v 0.00133 0.021662 1.5151
v -0.014182 0.011328 1.54192
v -0.014182 -0.011328 1.54192
v -0.034938 0 1.54192
v 0.01694 0.011328 1.54192
v 0.037696 0 1.54192
v 0.018226 -0.01577 1.36855
v 0.01694 -0.011328 1.54192
v 0.018226 -0.01577 1.5151
v 0.001379 0.022378 1.54192
v -0.026908 0 1.56507
v 0.029667 0 1.56507
v 0.001379 0.013815 1.56507
v 0.013952 0.00592 1.56507
v -0.011194 0.00592 1.56507
v -0.02357 0 1.58798
v -0.011194 -0.00592 1.56507
v 0.026329 0 1.58798
v 0.001379 0.009901 1.58798
v 0.010007 0.002746 1.58798
v -0.007249 0.002746 1.58798
v -0.02357 0 1.79596
v -0.007249 -0.002746 1.79596
v 0.010007 0.002746 1.79596
v 0.026329 0 1.79596
v 0.013952 -0.00592 1.56507
v 0.001379 0.006866 1.79596
v -0.007249 0.002746 1.79596
v -0.017932 0 1.83221
v 0.02069 0 1.83221
v 0.010007 -0.002746 1.79596
v -0.005299 0.002125 1.83221
v 0.001379 0.005315 1.83221
v 0.008057 0.002125 1.83221
v -0.005299 -0.002125 1.83221
v 0.008057 -0.002125 1.83221
v 0.00133 -0.021662 1.32149
v 0.00133 -0.021662 1.36049
v -0.015566 -0.01577 1.36049
v 0.00133 -0.018282 1.36452
v 0.00133 -0.021662 1.36855
v 0.00133 -0.021662 1.5151
v -0.015566 -0.01577 1.5151
v 0.001379 -0.022378 1.54192
v 0.001379 -0.013815 1.56507
v 0.001379 -0.009901 1.58798
v 0.010007 -0.002746 1.58798
v -0.007249 -0.002746 1.58798
v 0.001379 -0.006866 1.79596
v 0.001379 -0.005315 1.83221
vn 0.457992 0 -0.888956
vt 0.400143 0.809173
vn 0.698724 -0.714883 -0.026953
vt 0.442186 0.809459
vn -0.014319 -0.999049 -0.041184
vt 0.441959 0.783477
vn -0.323763 0 -0.946138
vt 0.406716 0.783131
vn -0.051145 -0.993404 -0.102628
vt 0.442324 0.739199
vn -0.476898 0 -0.878959
vt 0.43068 0.7393
vn -0.687424 0 -0.726256
vt 0.442334 0.664574
vn 0.57735 -0.57735 0.57735
vt 0.468849 0.809226
vn -0.009024 -0.709888 0.704257
vt 0.469374 0.783244
vn -0.020099 -0.707491 0.706437
vt 0.468988 0.739717
vn -0.94042 0 0.340016
vt 0.468933 0.646586
vn -0.014319 0.999049 -0.041184
vt 0.441959 0.783477
vn 0.698724 0.714883 -0.026953
vt 0.442186 0.809459
vn -0.051145 0.993404 -0.102628
vt 0.442324 0.739199
vn -0.009024 0.709888 0.704257
vt 0.469374 0.783244
vn 0.57735 0.57735 0.57735
vt 0.468849 0.809226
vn -0.020099 0.707491 0.706437
vt 0.468988 0.739717
vn 0.999881 -0.015422 0
vt 0.012141 0.992012
vn 0.789949 -0.011819 -0.613059
vt 0.012138 0.205029
vn 0.394755 0.692216 -0.604157
vt 0.040883 0.205029
vn 0.495802 0.868436 0
vt 0.040881 0.992012
vn -0.411614 0.674194 -0.613218
vt 0.074283 0.205029
vn -0.520664 0.853762 0
vt 0.074279 0.992012
vn -0.792299 -0.001193 -0.610132
vt 0.103193 0.205029
vn -0.999999 -0.001018 0
vt 0.10319 0.992012
vn -0.393958 -0.687917 -0.609563
vt 0.074294 0.205029
vn -0.497383 -0.867531 0
vt 0.074296 0.992012
vn 0.400469 -0.683735 -0.610026
vt 0.041005 0.205029
vn 0.504986 -0.863128 0
vt 0.04101 0.992012
vn 0.457992 0 -0.888956
vt 0.400143 0.809173
vn 0.698724 -0.714883 -0.026953
vt 0.442186 0.809459
vn -0.014319 -0.999049 -0.041184
vt 0.441959 0.783477
vn -0.323765 0 -0.946138
vt 0.406716 0.783131
vn -0.051145 -0.993404 -0.102628
vt 0.442324 0.739199
vn -0.476904 0 -0.878955
vt 0.43068 0.7393
vn -0.687419 0 -0.726261
vt 0.442334 0.664574
vn 0.57735 -0.57735 0.57735
vt 0.468849 0.809226
vn -0.009024 -0.709888 0.704257
vt 0.469374 0.783244
vn -0.020099 -0.707491 0.706437
vt 0.468988 0.739717
vn -0.940421 0 0.340012
vt 0.468933 0.646586
vn -0.014319 0.999049 -0.041184
vt 0.441959 0.783477
vn 0.698724 0.714883 -0.026953
vt 0.442186 0.809459
vn -0.051145 0.993404 -0.102628
vt 0.442324 0.739199
vn -0.009024 0.709888 0.704257
vt 0.469374 0.783244
vn 0.57735 0.57735 0.57735
vt 0.468849 0.809226
vn -0.020099 0.707491 0.706437
vt 0.468988 0.739717
vn -1e-06 0 1
vt 0.441369 1.79545
vn 0.271966 0.956677 0.103937
vt 0.436278 1.77556
vn 0 0.990983 0.133985
vt 0.441369 1.77556
vn -0.271966 0.956677 0.103937
vt 0.446461 1.77556
vn -0.920107 0 0.391666
vt 0.452825 1.77556
vn -1e-06 0 1
vt 0.538461 0.297745
vn 0.271966 -0.956677 0.103937
vt 0.537829 0.294097
vn 0.920108 0 0.391666
vt 0.536929 0.294098
vn -0.271966 -0.956677 0.103937
vt 0.539328 0.294146
vn 0 -0.990983 0.133985
vt 0.538579 0.294087
vn -0.762125 0 -0.647429
vt 0.347849 0.089821
vn -0.682767 0.653585 0.326583
vt 0.332882 0.148545
vn -0.567587 0.54418 -0.61783
vt 0.332882 0.089821
vn -0.567587 -0.54418 -0.61783
vt 0.332882 0.089821
vn -0.946313 0 0.323251
vt 0.347849 0.148545
vn 0.762134 0 -0.647419
vt 0.282618 0.089821
vn 0.682751 0.65362 0.326545
vt 0.298453 0.148545
vn 0.946318 0 0.323236
vt 0.282618 0.148545
vn 0 0.768409 -0.639959
vt 0.315235 0.089821
vn 0.567569 0.544194 -0.617834
vt 0.298453 0.089821
vn -3e-06 0.947106 0.320922
vt 0.315235 0.148545
vn -0.946313 0 0.323251
vt 0.348404 0.279987
vn -0.71931 0.694689 6.5e-05
vt 0.332215 0.282752
vn -0.682767 0.653585 0.326583
vt 0.334024 0.279987
vn -0.946313 0 0.323251
vt 0.543054 0.211781
vn -0.71931 -0.694689 6.5e-05
vt 0.540969 0.212341
vn -1 0 5.8e-05
vt 0.542869 0.212477
vn 0.946318 0 0.323236
vt 0.290896 0.279987
vn 0.719323 0.694676 6.5e-05
vt 0.307085 0.282752
vn 1 0 5.8e-05
vt 0.304324 0.282752
vn 0.567569 -0.544194 -0.617834
vt 0.298453 0.089821
vn 0.946318 0 0.323236
vt 0.534555 0.2117
vn 0.719323 -0.694676 6.5e-05
vt 0.536627 0.212355
vn 0.682751 -0.65362 0.326545
vt 0.536614 0.211666
vn -3e-06 0.947106 0.320922
vt 0.319959 0.279987
vn -1.3e-05 1 6e-05
vt 0.319959 0.282752
vn 0.682751 0.65362 0.326545
vt 0.305276 0.279987
vn -0.946328 0 -0.323208
vt 0.348404 0.285517
vn -0.731956 0.680233 0.039027
vt 0.334024 0.386102
vn -0.682777 0.653595 -0.326542
vt 0.334024 0.285517
vn -1 0 5.8e-05
vt 0.334976 0.282752
vn -0.946328 0 -0.323208
vt 0.54263 0.212779
vn -0.682777 -0.653595 -0.326542
vt 0.540765 0.212744
vn -0.999499 0 -0.031642
vt 0.543833 0.233529
vn -0.71931 -0.694689 6.5e-05
vt 0.540755 0.212138
vn 0.946333 0 -0.323193
vt 0.290896 0.285517
vn 0.731777 0.680502 0.037683
vt 0.305276 0.386102
vn 0.999445 0 -0.033317
vt 0.290896 0.386102
vn 0.682762 0.65363 -0.326504
vt 0.305276 0.285517
vn 0.946333 0 -0.323193
vt 0.534872 0.212528
vn 0.719323 -0.694676 6.5e-05
vt 0.536784 0.212009
vn 1 0 5.8e-05
vt 0.535046 0.21189
vn -3e-06 0.94712 -0.32088
vt 0.319959 0.285517
vn -0.000193 0.99991 -0.013378
vt 0.319959 0.386102
vn -0.999499 0 -0.031642
vt 0.348404 0.386102
vn -0.999499 0 -0.031642
vt 0.337871 0.311581
vn -0.564404 0.816342 0.122613
vt 0.332786 0.333765
vn -0.731956 0.680233 0.039027
vt 0.33393 0.311581
vn -0.564404 -0.816342 0.122613
vt 0.332786 0.333765
vn -0.997667 0 -0.068264
vt 0.34995 0.333765
vn 0.999445 0 -0.033317
vt 0.302046 0.311581
vn 0.564498 0.81647 0.121317
vt 0.307051 0.333765
vn 0.997589 0 -0.069399
vt 0.289887 0.333765
vn 0.999445 0 -0.033317
vt 0.534544 0.233943
vn 0.682762 -0.65363 -0.326504
vt 0.536735 0.212614
vn 0.564498 -0.81647 0.121317
vt 0.307051 0.333765
vn 0.731777 -0.680502 0.037683
vt 0.305987 0.311581
vn -0.000193 0.99991 -0.013378
vt 0.319959 0.311581
vn 0.000329 0.975913 0.21816
vt 0.319918 0.333765
vn 0.731777 0.680502 0.037683
vt 0.305987 0.311581
vn -0.936892 0 0.349618
vt 0.343309 0.352905
vn 0.936894 0 0.349613
vt 0.296526 0.352905
vn 0 0.967996 0.250965
vt 0.319918 0.352905
vn 0.423568 0.88504 0.193117
vt 0.309521 0.352905
vn -0.423577 0.885036 0.193117
vt 0.330315 0.352905
vn -0.936892 0 0.349618
vt 0.46685 1.49392
vn -0.955705 0 0.294327
vt 0.46356 1.5165
vn -0.423577 0.885036 0.193117
vt 0.451365 1.49392
vn -0.936892 0 0.349618
vt 0.544692 0.24308
vn -0.423577 -0.885036 0.193117
vt 0.541699 0.242858
vn -0.955705 0 0.294327
vt 0.543617 0.258425
vn 0.936894 0 0.349613
vt 0.4111 1.49392
vn 0.423568 0.88504 0.193117
vt 0.426586 1.49392
vn 0.955703 0 0.294332
vt 0.414389 1.5165
vn 0 0.967996 0.250965
vt 0.438975 1.49392
vn 0 0.991363 0.131149
vt 0.438975 1.5165
vn 0.419425 0.902331 0.099407
vt 0.430473 1.5165
vn -0.419429 0.902329 0.099407
vt 0.447477 1.5165
vn -0.997289 0 0.073587
vt 0.465954 1.72145
vn -0.299341 -0.954009 0.01619
vt 0.540826 0.284869
vn -0.997289 0 0.073587
vt 0.543391 0.284984
vn 0.299336 0.95401 0.016191
vt 0.432867 1.72145
vn 0.997288 0 0.0736
vt 0.416783 1.72145
vn 0.955703 0 0.294332
vt 0.534413 0.258126
vn 0.423568 -0.88504 0.193117
vt 0.536255 0.242884
vn 0.936894 0 0.349613
vt 0.533262 0.243136
vn 0 0.999769 0.02148
vt 0.441369 1.72145
vn -0.299341 0.954009 0.01619
vt 0.449872 1.72145
vn -0.967842 0 0.25156
vt 0.460399 1.75717
vn -0.967842 0 0.25156
vt 0.541474 0.291253
vn 0.967841 0 0.251564
vt 0.42234 1.75717
vn 0.997288 0 0.0736
vt 0.534379 0.284691
vn 0.299336 -0.95401 0.016191
vt 0.536946 0.284743
vn -0.301725 0.951966 0.052185
vt 0.44795 1.75717
vn 0 0.997847 0.065585
vt 0.441369 1.75717
vn 0.301725 0.951966 0.052185
vt 0.434789 1.75717
vn -0.301725 -0.951966 0.052185
vt 0.540026 0.290782
vn -0.920107 0 0.391666
vt 0.540225 0.294205
vn 0.920108 0 0.391666
vt 0.429914 1.77556
vn 0.967841 0 0.251564
vt 0.535204 0.290742
vn 0.301725 -0.951966 0.052185
vt 0.53735 0.290695
vn -1 0 5.8e-05
vt 0.542497 0.212131
vn 1 0 5.8e-05
vt 0.53471 0.212409
vn 0 -0.768409 -0.639959
vt 0.315235 0.089821
vn -3e-06 -0.947106 0.320922
vt 0.315235 0.148545
vn -0.682767 -0.653585 0.326583
vt 0.332882 0.148545
vn 0.682751 -0.65362 0.326545
vt 0.298453 0.148545
vn -3e-06 -0.947106 0.320922
vt 0.538823 0.211679
vn -0.682767 -0.653585 0.326583
vt 0.541009 0.211678
vn -1.3e-05 -1 6e-05
vt 0.538821 0.212364
vn -3e-06 -0.94712 -0.32088
vt 0.53875 0.212675
vn -0.000193 -0.99991 -0.013378
vt 0.539104 0.233381
vn -1.3e-05 -1 6e-05
vt 0.53877 0.212043
vn 0.731777 -0.680502 0.037683
vt 0.536647 0.2333
vn -0.731956 -0.680233 0.039027
vt 0.54156 0.233459
vn -0.000193 -0.99991 -0.013378
vt 0.319959 0.311581
vn 0.000329 -0.975913 0.21816
vt 0.319918 0.333765
vn -0.731956 -0.680233 0.039027
vt 0.33393 0.311581
vn 0 -0.967996 0.250965
vt 0.319918 0.352905
vn 0.423568 -0.88504 0.193117
vt 0.309521 0.352905
vn -0.423577 -0.885036 0.193117
vt 0.330315 0.352905
vn 0 -0.967996 0.250965
vt 0.538974 0.242562
vn 0 -0.991363 0.131149
vt 0.539018 0.258172
vn 0.419425 -0.902331 0.099407
vt 0.536619 0.258149
vn -0.419429 -0.902329 0.099407
vt 0.541414 0.258305
vn 0 -0.999769 0.02148
vt 0.538886 0.284787
vn 0 -0.997847 0.065585
vt 0.538689 0.2907
vn 0.762134 0 -0.647419
vt 0.53459 0.203648
vn 0.567569 -0.544194 -0.617834
vt 0.536625 0.203746
vn 0 -0.768409 -0.639959
vt 0.538796 0.20376
vn -0.567587 -0.54418 -0.61783
vt 0.540971 0.203777
vn -0.762125 0 -0.647429
vt 0.542997 0.203739
vn -0.567587 0.54418 -0.61783
vt 0.540971 0.203777
vn 0 0.768409 -0.639959
vt 0.538796 0.20376
vn 0.567569 0.544194 -0.617834
vt 0.536625 0.203746
f 1/1/1 2/2/2 3/3/3
f 3/3/3 4/4/4 1/1/1
f 4/4/4 3/3/3 5/5/5
f 5/5/5 6/6/6 4/4/4
f 6/6/6 5/5/5 7/7/7
f 2/2/2 8/8/8 9/9/9
f 9/9/9 3/3/3 2/2/2
f 3/3/3 9/9/9 10/10/10
f 10/10/10 5/5/5 3/3/3
f 5/5/5 10/10/10 11/11/11
f 11/11/11 7/7/7 5/5/5
f 1/1/1 4/4/4 12/12/12
f 12/12/12 13/13/13 1/1/1
f 4/4/4 6/6/6 14/14/14
f 14/14/14 12/12/12 4/4/4
f 6/6/6 7/7/7 14/14/14
f 13/13/13 12/12/12 15/15/15
f 15/15/15 16/16/16 13/13/13
f 12/12/12 14/14/14 17/17/17
f 17/17/17 15/15/15 12/12/12
f 14/14/14 7/7/7 11/11/11
f 11/11/11 17/17/17 14/14/14
f 11/11/11 10/10/10 17/17/17
f 10/10/10 9/9/9 15/15/15
f 15/15/15 17/17/17 10/10/10
f 9/9/9 8/8/8 16/16/16
f 16/16/16 15/15/15 9/9/9
f 8/8/8 2/2/2 13/13/13
f 13/13/13 16/16/16 8/8/8
f 2/2/2 1/1/1 13/13/13
f 18/18/18 19/19/19 20/20/20
f 20/20/20 21/21/21 18/18/18
f 21/21/21 20/20/20 22/22/22
f 22/22/22 23/23/23 21/21/21
f 23/23/23 22/22/22 24/24/24
f 24/24/24 25/25/25 23/23/23
f 25/25/25 24/24/24 26/26/26
f 26/26/26 27/27/27 25/25/25
f 27/27/27 26/26/26 28/28/28
f 28/28/28 29/29/29 27/27/27
f 29/29/29 28/28/28 19/19/19
f 19/19/19 18/18/18 29/29/29
f 28/28/28 26/26/26 24/24/24
f 24/24/24 22/22/22 20/20/20
f 28/28/28 24/24/24 20/20/20
f 19/19/19 28/28/28 20/20/20
f 30/30/30 31/31/31 32/32/32
f 32/32/32 33/33/33 30/30/30
f 33/33/33 32/32/32 34/34/34
f 34/34/34 35/35/35 33/33/33
f 35/35/35 34/34/34 36/36/36
f 31/31/31 37/37/37 38/38/38
f 38/38/38 32/32/32 31/31/31
f 32/32/32 38/38/38 39/39/39
f 39/39/39 34/34/34 32/32/32
f 34/34/34 39/39/39 40/40/40
f 40/40/40 36/36/36 34/34/34
f 30/30/30 33/33/33 41/41/41
f 41/41/41 42/42/42 30/30/30
f 33/33/33 35/35/35 43/43/43
f 43/43/43 41/41/41 33/33/33
f 35/35/35 36/36/36 43/43/43
f 42/42/42 41/41/41 44/44/44
f 44/44/44 45/45/45 42/42/42
f 41/41/41 43/43/43 46/46/46
f 46/46/46 44/44/44 41/41/41
f 43/43/43 36/36/36 40/40/40
f 40/40/40 46/46/46 43/43/43
f 40/40/40 39/39/39 46/46/46
f 39/39/39 38/38/38 44/44/44
f 44/44/44 46/46/46 39/39/39
f 38/38/38 37/37/37 45/45/45
f 45/45/45 44/44/44 38/38/38
f 37/37/37 31/31/31 42/42/42
f 42/42/42 45/45/45 37/37/37
f 31/31/31 30/30/30 42/42/42
f 47/47/47 48/48/48 49/49/49
f 47/47/47 50/50/50 51/51/51
f 47/52/52 52/53/53 53/54/54
f 47/52/52 54/55/55 55/56/56
f 56/57/57 57/58/58 58/59/59
f 56/57/57 59/60/60 60/61/61
f 61/62/62 62/63/63 63/64/64
f 64/65/65 62/63/63 65/66/66
f 64/65/65 57/58/58 66/67/67
f 58/59/59 57/58/58 64/65/65
f 65/66/66 62/63/63 61/62/62
f 60/61/61 57/58/58 56/57/57
f 60/68/68 67/69/69 57/70/70
f 60/71/71 68/72/72 69/73/73
f 63/74/74 70/75/75 71/76/76
f 63/64/64 72/77/77 61/62/62
f 63/78/78 73/79/79 74/80/80
f 66/67/67 62/63/63 64/65/65
f 66/81/81 67/69/69 75/82/82
f 66/81/81 70/75/75 62/83/83
f 62/83/83 70/75/75 63/74/74
f 57/70/70 67/69/69 66/81/81
f 76/84/84 77/85/85 78/86/86
f 76/84/84 67/69/69 69/87/87
f 76/88/88 79/89/89 80/90/90
f 76/88/88 68/91/91 79/89/89
f 81/92/92 82/93/93 83/94/94
f 81/92/92 70/75/75 84/95/95
f 81/96/96 73/97/97 71/98/98
f 85/99/99 82/93/93 84/95/95
f 85/99/99 77/85/85 86/100/100
f 85/99/99 67/69/69 78/86/86
f 85/99/99 70/75/75 75/82/82
f 84/95/95 82/93/93 81/92/92
f 84/95/95 70/75/75 85/99/99
f 78/86/86 77/85/85 85/99/99
f 78/86/86 67/69/69 76/84/84
f 80/101/101 77/85/85 76/84/84
f 80/102/102 87/103/103 77/104/104
f 80/102/102 88/105/105 89/106/106
f 83/107/107 90/108/108 91/109/109
f 83/110/110 92/111/111 81/96/96
f 83/107/107 93/112/112 94/113/113
f 86/100/100 82/93/93 85/99/99
f 86/114/114 95/115/115 82/116/116
f 82/116/116 95/115/115 90/108/108
f 82/116/116 90/108/108 83/107/107
f 77/104/104 95/115/115 86/114/114
f 89/106/106 87/103/103 80/102/102
f 89/106/106 96/117/117 87/103/103
f 89/106/106 88/105/105 96/117/117
f 91/109/109 90/108/108 97/118/118
f 91/109/109 93/112/112 83/107/107
f 95/115/115 98/119/119 90/108/108
f 90/108/108 98/119/119 99/120/120
f 87/103/103 95/115/115 77/104/104
f 87/103/103 96/117/117 100/121/121
f 87/103/103 98/119/119 95/115/115
f 96/122/122 101/123/123 100/124/124
f 96/125/125 102/126/126 101/127/127
f 97/128/128 99/129/129 103/130/130
f 97/118/118 93/112/112 91/109/109
f 98/131/131 104/132/132 99/129/129
f 99/120/120 97/118/118 90/108/108
f 99/129/129 104/132/132 105/133/133
f 100/121/121 98/119/119 87/103/103
f 100/124/124 101/123/123 106/134/134
f 100/124/124 104/132/132 98/131/131
f 101/123/123 107/135/135 106/134/134
f 101/127/127 108/136/136 107/137/137
f 103/130/130 109/138/138 110/139/139
f 103/140/140 111/141/141 97/142/142
f 104/132/132 112/143/143 105/133/133
f 105/133/133 103/130/130 99/129/129
f 105/133/133 112/143/143 109/138/138
f 106/134/134 104/132/132 100/124/124
f 106/134/134 107/135/135 113/144/144
f 106/134/134 112/143/143 104/132/132
f 107/135/135 114/145/145 113/144/144
f 107/137/137 108/136/136 114/146/146
f 110/139/139 109/138/138 115/147/147
f 110/148/148 116/149/149 103/140/140
f 112/143/143 117/150/150 118/151/151
f 109/138/138 103/130/130 105/133/133
f 109/138/138 112/143/143 119/152/152
f 113/144/144 112/143/143 106/134/134
f 113/144/144 114/145/145 117/150/150
f 114/145/145 51/51/51 117/150/150
f 114/146/146 120/153/153 51/154/154
f 115/147/147 119/152/152 53/155/155
f 115/156/156 116/149/149 110/148/148
f 118/151/151 119/152/152 112/143/143
f 118/151/151 50/50/50 49/49/49
f 119/152/152 115/147/147 109/138/138
f 119/152/152 118/151/151 48/48/48
f 117/150/150 112/143/143 113/144/144
f 117/150/150 51/51/51 50/50/50
f 51/154/154 54/55/55 47/52/52
f 53/155/155 48/48/48 47/47/47
f 53/54/54 121/157/157 115/156/156
f 49/49/49 48/48/48 118/151/151
f 49/49/49 50/50/50 47/47/47
f 48/48/48 53/155/155 119/152/152
f 50/50/50 118/151/151 117/150/150
f 75/82/82 67/69/69 85/99/99
f 75/82/82 70/75/75 66/81/81
f 69/87/87 67/69/69 60/68/68
f 69/158/158 68/91/91 76/88/88
f 71/76/76 70/75/75 81/92/92
f 71/159/159 73/79/79 63/78/78
f 122/160/160 123/161/161 59/60/60
f 59/60/60 123/161/161 124/162/162
f 72/77/77 63/64/64 74/163/163
f 72/77/77 123/161/161 122/160/160
f 123/164/164 68/72/72 124/165/165
f 123/164/164 73/79/79 125/166/166
f 74/163/163 123/161/161 72/77/77
f 74/80/80 73/79/79 123/164/164
f 124/162/162 60/61/61 59/60/60
f 124/165/165 68/72/72 60/71/71
f 126/167/167 127/168/168 79/89/89
f 126/167/167 68/91/91 125/169/169
f 126/167/167 73/97/97 92/111/111
f 92/111/111 83/110/110 94/170/170
f 92/111/111 127/168/168 126/167/167
f 92/111/111 73/97/97 81/96/96
f 79/89/89 127/168/168 128/171/171
f 79/89/89 68/91/91 126/167/167
f 127/172/172 129/173/173 128/174/174
f 94/170/170 127/168/168 92/111/111
f 94/113/113 129/173/173 127/172/172
f 128/171/171 80/90/90 79/89/89
f 128/174/174 129/173/173 88/105/105
f 128/174/174 88/105/105 80/102/102
f 129/173/173 130/175/175 88/105/105
f 93/112/112 97/118/118 111/176/176
f 93/112/112 129/173/173 94/113/113
f 93/112/112 130/175/175 129/173/173
f 88/105/105 130/175/175 102/177/177
f 130/178/178 131/179/179 102/126/126
f 111/141/141 103/140/140 132/180/180
f 111/176/176 130/175/175 93/112/112
f 111/141/141 131/179/179 130/178/178
f 102/177/177 96/117/117 88/105/105
f 102/126/126 131/179/179 133/181/181
f 131/179/179 134/182/182 133/181/181
f 132/180/180 103/140/140 116/149/149
f 132/180/180 131/179/179 111/141/141
f 132/180/180 134/182/182 131/179/179
f 133/181/181 101/127/127 102/126/126
f 133/181/181 134/182/182 108/136/136
f 134/182/182 121/157/157 135/183/183
f 116/149/149 115/156/156 121/157/157
f 116/149/149 134/182/182 132/180/180
f 108/136/136 101/127/127 133/181/181
f 108/136/136 134/182/182 120/153/153
f 135/183/183 120/153/153 134/182/182
f 135/183/183 52/53/53 55/56/56
f 121/157/157 53/54/54 52/53/53
f 121/157/157 134/182/182 116/149/149
f 120/153/153 114/146/146 108/136/136
f 120/153/153 135/183/183 54/55/55
f 55/56/56 52/53/53 47/52/52
f 55/56/56 54/55/55 135/183/183
f 52/53/53 135/183/183 121/157/157
f 54/55/55 51/154/154 120/153/153
f 125/166/166 68/72/72 123/164/164
f 125/169/169 73/97/97 126/167/167
f 61/184/184 72/185/185 122/186/186
f 122/186/186 59/187/187 56/188/188
f 56/188/188 58/189/189 64/190/190
f 122/186/186 56/188/188 64/190/190
f 61/184/184 122/186/186 64/190/190
f 65/191/191 61/184/184 64/190/190
