#
# Exported by OpenBRF -- marco tarini
#
s longlance
newmtl sg_long
Ka 0.8 0.8 0.8
Kd 0.2 0.2 0.2
usemtl sg_long
v 0.026203 2.4e-05 1.31978
v 0.034828 6.7e-05 1.42158
v 0.013337 -0.023208 1.31978
v 0.017672 -0.030911 1.42158
v 0.013394 0.022778 1.31978
v 0.017748 0.030406 1.42158
v 0.024286 2e-06 1.50178
v 0.012362 -0.02153 1.50178
v 0.012415 0.02109 1.50178
v -0.017531 -0.030911 1.42158
v -0.033559 6.7e-05 1.42158
v -0.013064 -0.023208 1.31978
v -0.025085 2.4e-05 1.31978
v -0.017603 0.030406 1.42158
v -0.013118 0.022778 1.31978
v -0.012106 -0.02153 1.50178
v -0.023247 2e-06 1.50178
v -0.012156 0.02109 1.50178
v -0.022908 2.4e-05 1.31978
v -0.012141 -0.021853 1.31978
v -0.011841 0.02169 1.31978
v 0.024285 2.4e-05 1.31978
v 0.012445 0.020986 1.31978
v 0.012426 -0.021349 1.31978
v 0.000246 -0.010551 1.75176
v 2.4e-05 -0.010551 1.70099
v 0.023162 -5e-06 1.70099
v 0.022957 -5e-06 1.75176
v -0.022209 0.000168 1.75176
v -0.022915 0.000168 1.70099
v -0.00014 -0.014976 1.83178
v 0.033591 0.000205 1.83178
v -0.031913 0.000148 1.83178
v 4e-06 -5.7e-05 1.93104
v 4.5e-05 -0.008264 1.69577
v -0.017436 0.000102 1.69577
v 0.017679 -7.6e-05 1.69577
v 2.4e-05 0.011131 1.70099
v 0.000246 0.011131 1.75176
v 0.023162 6e-06 1.70099
v 0.022957 6e-06 1.75176
v -0.022915 0.000111 1.70099
v -0.022209 0.000111 1.75176
v -0.00014 0.015556 1.83178
v 0.033591 0.000375 1.83178
v -0.031913 0.000224 1.83178
v 4e-06 -7.3e-05 1.93104
v 4.5e-05 0.008844 1.69577
v -0.017436 0.000177 1.69577
v 0.017679 7.7e-05 1.69577
v -0.008502 -0.013722 1.69541
v 0.009075 -0.013661 1.6957
v 0.000174 -0.005366 1.6957
v 0.017593 0.00125 1.6957
v -0.017333 0.001267 1.6957
v 0.008893 0.016326 1.6957
v 5.4e-05 0.008766 1.6957
v -0.008815 0.016341 1.6957
v 0.017954 0.001255 1.67668
v 0.031763 0.001203 1.66718
v 0.009089 0.016667 1.67668
v 0.016029 0.02858 1.66718
v -0.008975 0.016656 1.67668
v -0.016043 0.02855 1.66718
v -0.017686 0.001268 1.67668
v -0.031519 0.001223 1.66718
v -0.00869 -0.014046 1.67668
v -0.01557 -0.026005 1.66718
v 0.009243 -0.01398 1.67668
v 0.016287 -0.025858 1.66718
v 0.03198 0.001221 1.64687
v 0.016191 0.02886 1.64687
v -0.016063 0.028743 1.64687
v -0.031697 0.001226 1.64687
v -0.015733 -0.026286 1.64687
v 0.016346 -0.026075 1.64687
v 0.019064 0.001385 1.63702
v 0.009701 0.017845 1.63702
v -0.009456 0.01774 1.63702
v -0.018924 0.001379 1.63702
v -0.009547 -0.015145 1.63702
v 0.009698 -0.015038 1.63702
v 0.013865 0.024876 1.50053
v -0.013804 0.024525 1.50091
v 0.027421 0.001255 1.50034
v -0.01319 -0.022364 1.5009
v -0.026926 0.000961 1.50109
v 0.013992 -0.022174 1.50053
v 0.027161 0.000797 1.50035
v 0.019613 0.000118 1.50152
v 0.019618 0.000127 -0.461327
v 0.010361 0.01758 -0.461327
v 0.010366 0.01757 1.50152
v -0.009485 0.016655 -0.461327
v -0.009474 0.016656 1.50152
v -0.019117 -0.000124 -0.461327
v -0.019111 -0.000114 1.50152
v -0.009509 -0.016745 -0.461327
v -0.009514 -0.016736 1.50152
v 0.010084 -0.016618 -0.461327
v 0.010073 -0.016618 1.50152
vn 0.765309 0.002634 -0.643658
vt 0.086614 0.00867403
vn 0.999744 0.003559 0.022345
vt 0.086517 0.106327
vn 0.390045 -0.660995 -0.641054
vt 0.062016 0.00878298
vn 0.507038 -0.861625 0.0227
vt 0.062062 0.106472
vn 0.387429 0.66224 -0.641356
vt 0.061914 0.00887299
vn 0.504286 0.863238 0.022701
vt 0.061977 0.106562
vn 0.765309 0.002634 -0.643658
vt 0.086457 0.00876498
vn 0.999744 0.003559 0.022345
vt 0.08636 0.106418
vn 0.750621 0.002528 0.660728
vt 0.086298 0.183976
vn 0.382645 -0.648113 0.658432
vt 0.061895 0.184077
vn 0.379995 0.649364 0.658734
vt 0.061788 0.184168
vn 0.750621 0.002528 0.660728
vt 0.086141 0.184067
vn -0.519059 -0.854437 0.022699
vt 0.028019 0.106769
vn -0.999758 0.003422 0.021742
vt 0.004652 0.106904
vn -0.400155 -0.656657 -0.639279
vt 0.027902 0.00828999
vn -0.762201 0.002511 -0.647336
vt 0.004837 0.00839198
vn -0.999758 0.003422 0.021742
vt 0.004495 0.106995
vn -0.516453 0.856014 0.022706
vt 0.027791 0.106861
vn -0.762201 0.002511 -0.647336
vt 0.004679 0.00848299
vn -0.397651 0.657907 -0.639556
vt 0.027692 0.00838202
vn -0.392724 -0.643844 0.656683
vt 0.028934 0.183568
vn -0.747825 0.002419 0.663891
vt 0.004575 0.183662
vn -0.747825 0.002419 0.663891
vt 0.004417 0.183753
vn -0.390189 0.645103 0.656958
vt 0.02873 0.18366
vn 0 0 -1
vt 0.006939 0.00837398
vn 0 0 -1
vt 0.028797 0.00828302
vn -0.397651 0.657907 -0.639556
vt 0.027849 0.00829101
vn 0 0 -1
vt 0.029085 0.00827998
vn -0.390189 0.645103 0.656958
vt 0.028887 0.183569
vn 0.379995 0.649364 0.658734
vt 0.061945 0.184077
vn 0 0 -1
vt 0.084759 0.00869
vn 0.387429 0.66224 -0.641356
vt 0.062072 0.00878203
vn 0 0 -1
vt 0.061152 0.00879002
vn 0 0 -1
vt 0.061133 0.00879097
vn -0.004543 -0.999619 -0.02723
vt 0.439488 0.578882
vn -0.004974 -0.980818 -0.194861
vt 0.438902 0.534111
vn 0.411918 -0.900459 -0.13963
vt 0.418499 0.534467
vn 0.419564 -0.907392 -0.024634
vt 0.419462 0.579231
vn -0.42959 -0.902664 -0.025493
vt 0.459288 0.578536
vn -0.421296 -0.896316 -0.1383
vt 0.459129 0.533758
vn -0.010647 -0.998934 0.044912
vt 0.44106 0.64944
vn 0.41015 -0.91132 0.03567
vt 0.411316 0.649959
vn -0.429623 -0.902297 0.035842
vt 0.469077 0.648951
vn 0.000161 -0.988891 0.148646
vt 0.44246 0.73696
vn -0.000731 -0.915002 -0.403448
vt 0.113857 0.709282
vn -0.004974 -0.980818 -0.194861
vt 0.11182 0.709736
vn -0.421296 -0.896316 -0.1383
vt 0.11182 0.715542
vn -0.394943 -0.825244 -0.403722
vt 0.113857 0.713707
vn 0.383134 -0.838748 -0.386923
vt 0.113857 0.701858
vn 0.411918 -0.900459 -0.13963
vt 0.11182 0.699995
vn 0.000553 0.980726 -0.195385
vt 0.438902 0.534111
vn 0.000844 0.999616 -0.027708
vt 0.439488 0.578882
vn 0.42995 0.890937 -0.146196
vt 0.418499 0.534467
vn 0.435746 0.899716 -0.025251
vt 0.419462 0.579231
vn -0.431393 0.891021 -0.141356
vt 0.459129 0.533758
vn -0.439331 0.897932 -0.026591
vt 0.459288 0.578536
vn -0.012221 0.998828 0.046835
vt 0.44106 0.64944
vn 0.410157 0.911337 0.035169
vt 0.411316 0.649959
vn -0.434904 0.899652 0.038538
vt 0.469077 0.648951
vn -0.003006 0.987822 0.155556
vt 0.44246 0.73696
vn 0.000553 0.980726 -0.195385
vt 0.11182 0.709736
vn 0.007404 0.914606 -0.404279
vt 0.113857 0.709282
vn -0.431393 0.891021 -0.141356
vt 0.11182 0.715542
vn -0.404393 0.815644 -0.413753
vt 0.113857 0.713707
vn 0.42995 0.890937 -0.146196
vt 0.11182 0.699995
vn 0.398448 0.825414 -0.399914
vt 0.113857 0.701858
vn -0.393169 -0.691084 0.606483
vt 0.324722 0.4071
vn 0.393585 -0.680358 0.618226
vt 0.307103 0.407519
vn -0.005843 -0.008879 0.999943
vt 0.315257 0.407519
vn 0.786626 0.001592 0.617428
vt 0.289662 0.407519
vn -0.78614 -0.009509 0.617976
vt 0.340981 0.407519
vn 0.393818 0.680724 0.617675
vt 0.30737 0.407519
vn 0 0 1
vt 0.315433 0.407519
vn -0.397077 0.680031 0.61635
vt 0.325182 0.407519
vn 0.836831 0.002049 0.547457
vt 0.282391 0.153037
vn 0.908318 0.000421 0.41828
vt 0.282272 0.143407
vn 0.418342 0.724379 0.547964
vt 0.301485 0.153037
vn 0.454864 0.785459 0.419705
vt 0.302021 0.143407
vn -0.420127 0.722691 0.548827
vt 0.326755 0.153037
vn -0.459478 0.783892 0.417604
vt 0.32698 0.143407
vn -0.836353 -0.00756 0.548139
vt 0.346324 0.153037
vn -0.908648 -0.006241 0.417517
vt 0.346468 0.143407
vn -0.414023 -0.727217 0.547485
vt 0.326466 0.153037
vn -0.450438 -0.787952 0.419806
vt 0.3265 0.143407
vn 0.42008 -0.723357 0.547985
vt 0.301329 0.153037
vn 0.45874 -0.783909 0.418384
vt 0.301759 0.143407
vn 0.920629 -0.000406 -0.390438
vt 0.282052 0.122801
vn 0.462467 0.79791 -0.386606
vt 0.301857 0.122801
vn -0.46486 0.794892 -0.389939
vt 0.327 0.122801
vn -0.920949 -0.004894 -0.389652
vt 0.346648 0.122801
vn -0.457884 -0.800582 -0.386537
vt 0.326666 0.122801
vn 0.464573 -0.794908 -0.390248
vt 0.301699 0.122801
vn 0.874421 0.002079 -0.485163
vt 0.281896 0.112805
vn 0.436734 0.757722 -0.484893
vt 0.301496 0.112805
vn -0.438663 0.757558 -0.483405
vt 0.327243 0.112805
vn -0.876403 0.004191 -0.481561
vt 0.346317 0.112805
vn -0.440807 -0.756486 -0.483134
vt 0.327335 0.112805
vn 0.438976 -0.756043 -0.485489
vt 0.301499 0.112805
vn 0.836831 0.002049 0.547457
vt 0.289132 0.38778
vn 0.418342 0.724379 0.547964
vt 0.307082 0.38778
vn -0.420127 0.722691 0.548827
vt 0.325417 0.38778
vn -0.836353 -0.00756 0.548139
vt 0.3415 0.38778
vn -0.414023 -0.727217 0.547485
vt 0.324999 0.38778
vn 0.42008 -0.723357 0.547985
vt 0.306856 0.38778
vn 0.397456 0.703346 -0.58935
vt 0.303916 0.211599
vn -0.438663 0.757558 -0.483405
vt 0.327984 0.396162
vn 0.436734 0.757722 -0.484893
vt 0.303721 0.396162
vn -0.418726 0.694663 -0.584904
vt 0.328249 0.211525
vn -0.876403 0.004191 -0.481561
vt 0.34918 0.396162
vn 0.804551 0.001487 -0.593882
vt 0.283706 0.211811
vn 0.874421 0.002079 -0.485163
vt 0.284135 0.396162
vn -0.402984 -0.703913 -0.584902
vt 0.328231 0.211511
vn 0.438976 -0.756043 -0.485489
vt 0.303725 0.396162
vn -0.440807 -0.756486 -0.483134
vt 0.328119 0.396162
vn -0.812528 -0.009755 -0.582841
vt 0.348992 0.211644
vn 0.403811 -0.698949 -0.590261
vt 0.303729 0.211596
vn 0.624896 -0.361963 -0.691728
vt 0.284088 0.211817
vn 0.999881 -0.015423 0
vt 0.012141 0.992012
vn 0.789948 -0.011818 -0.61306
vt 0.012138 0.205029
vn 0.394754 0.692216 -0.604158
vt 0.040883 0.205029
vn 0.495803 0.868435 0
vt 0.040881 0.992012
vn -0.411615 0.674193 -0.613219
vt 0.074283 0.205029
vn -0.520663 0.853762 0
vt 0.074279 0.992012
vn -0.792298 -0.001194 -0.610133
vt 0.103193 0.205029
vn -0.999999 -0.001016 0
vt 0.10319 0.992012
vn -0.393957 -0.687917 -0.609563
vt 0.074294 0.205029
vn -0.497384 -0.867531 0
vt 0.074296 0.992012
vn 0.400469 -0.683734 -0.610026
vt 0.041005 0.205029
vn 0.504985 -0.863128 0
vt 0.04101 0.992012
f 1/1/1 2/2/2 3/3/3
f 4/4/4 3/3/3 2/2/2
f 5/5/5 6/6/6 1/7/7
f 2/8/8 1/7/7 6/6/6
f 2/2/2 7/9/9 4/4/4
f 8/10/10 4/4/4 7/9/9
f 6/6/6 9/11/11 2/8/8
f 7/12/12 2/8/8 9/11/11
f 10/13/13 11/14/14 12/15/15
f 13/16/16 12/15/15 11/14/14
f 11/17/17 14/18/18 13/19/19
f 15/20/20 13/19/19 14/18/18
f 16/21/21 17/22/22 10/13/13
f 11/14/14 10/13/13 17/22/22
f 17/23/23 18/24/24 11/17/17
f 14/18/18 11/17/17 18/24/24
f 13/16/16 19/25/25 12/15/15
f 20/26/26 12/15/15 19/25/25
f 15/27/27 21/28/28 13/16/16
f 19/25/25 13/16/16 21/28/28
f 15/20/20 14/18/18 5/5/5
f 6/6/6 5/5/5 14/18/18
f 14/18/18 18/24/24 6/6/6
f 9/11/11 6/6/6 18/24/24
f 18/29/29 17/22/22 9/30/30
f 7/9/9 9/30/30 17/22/22
f 17/22/22 16/21/21 7/9/9
f 8/10/10 7/9/9 16/21/21
f 16/21/21 10/13/13 8/10/10
f 4/4/4 8/10/10 10/13/13
f 10/13/13 12/15/15 4/4/4
f 3/3/3 4/4/4 12/15/15
f 1/1/1 22/31/31 5/32/32
f 23/33/33 5/32/32 22/31/31
f 24/34/34 3/3/3 20/26/26
f 12/15/15 20/26/26 3/3/3
f 5/32/32 23/33/33 15/27/27
f 21/28/28 15/27/27 23/33/33
f 1/1/1 3/3/3 22/31/31
f 24/34/34 22/31/31 3/3/3
f 25/35/35 26/36/36 27/37/37
f 27/37/37 28/38/38 25/35/35
f 29/39/39 30/40/40 26/36/36
f 26/36/36 25/35/35 29/39/39
f 31/41/41 25/35/35 28/38/38
f 28/38/38 32/42/42 31/41/41
f 33/43/43 29/39/39 25/35/35
f 25/35/35 31/41/41 33/43/43
f 34/44/44 31/41/41 32/42/42
f 34/44/44 33/43/43 31/41/41
f 35/45/45 26/46/46 30/47/47
f 30/47/47 36/48/48 35/45/45
f 37/49/49 27/50/50 26/46/46
f 26/46/46 35/45/45 37/49/49
f 38/51/51 39/52/52 40/53/53
f 41/54/54 40/53/53 39/52/52
f 42/55/55 43/56/56 38/51/51
f 39/52/52 38/51/51 43/56/56
f 39/52/52 44/57/57 41/54/54
f 45/58/58 41/54/54 44/57/57
f 43/56/56 46/59/59 39/52/52
f 44/57/57 39/52/52 46/59/59
f 44/57/57 47/60/60 45/58/58
f 46/59/59 47/60/60 44/57/57
f 38/61/61 48/62/62 42/63/63
f 49/64/64 42/63/63 48/62/62
f 40/65/65 50/66/66 38/61/61
f 48/62/62 38/61/61 50/66/66
f 51/67/67 52/68/68 53/69/69
f 54/70/70 53/69/69 52/68/68
f 51/67/67 53/69/69 55/71/71
f 56/72/72 57/73/73 54/70/70
f 56/72/72 58/74/74 57/73/73
f 55/71/71 57/73/73 58/74/74
f 59/75/75 60/76/76 61/77/77
f 62/78/78 61/77/77 60/76/76
f 61/77/77 62/78/78 63/79/79
f 64/80/80 63/79/79 62/78/78
f 63/79/79 64/80/80 65/81/81
f 66/82/82 65/81/81 64/80/80
f 65/81/81 66/82/82 67/83/83
f 68/84/84 67/83/83 66/82/82
f 67/83/83 68/84/84 69/85/85
f 70/86/86 69/85/85 68/84/84
f 69/85/85 70/86/86 59/75/75
f 60/76/76 59/75/75 70/86/86
f 60/76/76 71/87/87 62/78/78
f 72/88/88 62/78/78 71/87/87
f 62/78/78 72/88/88 64/80/80
f 73/89/89 64/80/80 72/88/88
f 64/80/80 73/89/89 66/82/82
f 74/90/90 66/82/82 73/89/89
f 66/82/82 74/90/90 68/84/84
f 75/91/91 68/84/84 74/90/90
f 68/84/84 75/91/91 70/86/86
f 76/92/92 70/86/86 75/91/91
f 70/86/86 76/92/92 60/76/76
f 71/87/87 60/76/76 76/92/92
f 71/87/87 77/93/93 72/88/88
f 78/94/94 72/88/88 77/93/93
f 72/88/88 78/94/94 73/89/89
f 79/95/95 73/89/89 78/94/94
f 73/89/89 79/95/95 74/90/90
f 80/96/96 74/90/90 79/95/95
f 74/90/90 80/96/96 75/91/91
f 81/97/97 75/91/91 80/96/96
f 75/91/91 81/97/97 76/92/92
f 82/98/98 76/92/92 81/97/97
f 76/92/92 82/98/98 71/87/87
f 77/93/93 71/87/87 82/98/98
f 54/70/70 59/99/99 56/72/72
f 61/100/100 56/72/72 59/99/99
f 56/72/72 61/100/100 58/74/74
f 63/101/101 58/74/74 61/100/100
f 58/74/74 63/101/101 55/71/71
f 65/102/102 55/71/71 63/101/101
f 55/71/71 65/102/102 51/67/67
f 67/103/103 51/67/67 65/102/102
f 52/68/68 51/67/67 69/104/104
f 67/103/103 69/104/104 51/67/67
f 52/68/68 69/104/104 54/70/70
f 59/99/99 54/70/70 69/104/104
f 55/71/71 53/69/69 57/73/73
f 54/70/70 57/73/73 53/69/69
f 83/105/105 79/106/106 78/107/107
f 84/108/108 80/109/109 79/106/106
f 85/110/110 83/105/105 77/111/111
f 86/112/112 82/113/113 81/114/114
f 87/115/115 81/114/114 80/109/109
f 88/116/116 89/117/117 82/113/113
f 84/108/108 79/106/106 83/105/105
f 87/115/115 80/109/109 84/108/108
f 78/107/107 77/111/111 83/105/105
f 88/116/116 82/113/113 86/112/112
f 86/112/112 81/114/114 87/115/115
f 77/111/111 82/113/113 89/117/117
f 89/117/117 85/110/110 77/111/111
f 83/105/105 85/110/110 89/117/117
f 89/117/117 88/116/116 86/112/112
f 83/105/105 89/117/117 86/112/112
f 83/105/105 86/112/112 87/115/115
f 83/105/105 87/115/115 84/108/108
f 90/118/118 91/119/119 92/120/120
f 92/120/120 93/121/121 90/118/118
f 93/121/121 92/120/120 94/122/122
f 94/122/122 95/123/123 93/121/121
f 95/123/123 94/122/122 96/124/124
f 96/124/124 97/125/125 95/123/123
f 97/125/125 96/124/124 98/126/126
f 98/126/126 99/127/127 97/125/125
f 99/127/127 98/126/126 100/128/128
f 100/128/128 101/129/129 99/127/127
f 101/129/129 100/128/128 91/119/119
f 91/119/119 90/118/118 101/129/129
f 100/128/128 98/126/126 96/124/124
f 96/124/124 94/122/122 92/120/120
f 100/128/128 96/124/124 92/120/120
f 91/119/119 100/128/128 92/120/120
