#
# Exported by OpenBRF -- marco tarini
#
s mapick
newmtl sg_long
Ka 0.8 0.8 0.8
Kd 0.2 0.2 0.2
usemtl sg_long
v -3.6e-05 0.009894 1.37812
v 0.020542 -9.5e-05 1.37812
v 0.012786 -9.5e-05 1.37264
v -3.6e-05 0.006802 1.37264
v 8.1e-05 0.007463 1.68768
v 0.000416 -9.5e-05 1.76048
v 0.016541 -9.5e-05 1.68768
v -0.016969 -4.6e-05 1.68768
v -0.011454 -9.5e-05 1.37264
v -0.019197 -9.5e-05 1.37812
v -3.6e-05 0.009276 1.57861
v -0.019955 -9.5e-05 1.57861
v -0.016969 -0.000144 1.68768
v 0.020446 -9.5e-05 1.57861
v 0.020542 -1.2e-05 1.37812
v -3.6e-05 -0.010001 1.37812
v 0.012786 -1.2e-05 1.37264
v -3.6e-05 -0.006909 1.37264
v 0.000416 -1.2e-05 1.76048
v 8.1e-05 -0.00757 1.68768
v 0.016541 -1.2e-05 1.68768
v -0.016969 -6.1e-05 1.68768
v -0.011454 -1.2e-05 1.37264
v -0.019197 -1.2e-05 1.37812
v -3.6e-05 -0.009383 1.57861
v -0.019955 -1.2e-05 1.57861
v -0.016969 3.7e-05 1.68768
v 0.020446 -1.2e-05 1.57861
v 0.011279 2.1e-05 1.36189
v 0.011283 2.3e-05 1.32122
v 0.00582 0.009498 1.3617
v 0.005828 0.009514 1.32122
v -0.005299 0.009499 1.36185
v -0.005291 0.009503 1.32122
v -0.010655 3e-05 1.36166
v -0.010655 3e-05 1.32122
v -0.005117 -0.009394 1.36186
v -0.005127 -0.009409 1.32122
v 0.005923 -0.00935 1.3617
v 0.005918 -0.009358 1.32122
v 0.01671 1.9e-05 1.31848
v 0.008586 0.01424 1.31848
v -0.00801 0.01418 1.31848
v -0.016054 2.1e-05 1.31848
v -0.00784 -0.014135 1.31848
v 0.008666 -0.014027 1.31848
v 0.016724 2.5e-05 1.25732
v 0.008611 0.014287 1.25732
v -0.007989 0.014197 1.25732
v -0.01606 2.2e-05 1.25732
v -0.007871 -0.014183 1.25732
v 0.008653 -0.014052 1.25732
v 0.012353 0.020715 -0.463231
v 0.023281 0.000111 -0.463231
v 0.000104 0.020144 -0.463231
v 0.000104 -0.019733 -0.463231
v 0.012025 -0.019656 -0.463231
v 0.022227 2e-05 1.24432
v 0.016913 -5.3e-05 1.24263
v 0.011399 0.019088 1.24432
v 0.008745 0.014454 1.24275
v -0.010781 0.018944 1.24432
v -0.008034 0.014394 1.2427
v -0.021565 9e-06 1.24432
v -0.016215 0.000111 1.24268
v -0.010628 -0.018962 1.24432
v -0.007965 -0.014311 1.2427
v 0.011446 -0.018787 1.24432
v 0.008737 -0.01423 1.24275
v 0.011379 0.019056 1.25558
v 0.0222 1.8e-05 1.25558
v 0.011431 -0.018765 1.25558
v -0.010616 -0.01894 1.25558
v -0.021541 1.1e-05 1.25558
v -0.01077 0.018924 1.25558
v 0.000104 0.020144 -0.456874
v -0.011076 0.019624 -0.456874
v -0.011075 0.019623 -0.463231
v 0.023281 0.000111 -0.456874
v 0.012353 0.020713 -0.456874
v 0.012026 -0.019656 -0.456874
v 0.000104 -0.019734 -0.456874
v -0.022447 -0.000184 -0.456874
v -0.022446 -0.000184 -0.463231
v -0.011104 -0.019806 -0.456874
v -0.011103 -0.019805 -0.463231
v -0.00559 -0.01131 1.41182
v 0.006428 -0.011265 1.41201
v 0.006304 0.011005 1.41201
v 0.011275 1.9e-05 1.3775
v -0.009283 0.01644 1.19177
v 0.009956 0.016587 1.192
v 0.019337 3.5e-05 1.19211
v 0.009988 -0.016276 1.192
v -0.009155 -0.016427 1.19177
v -0.018637 1.9e-05 1.19166
v 0.01237 0.020748 1.17234
v -0.011708 0.020555 1.17216
v 0.024107 2.9e-05 1.17242
v 0.012407 -0.020384 1.17234
v -0.011549 -0.020572 1.17217
v -0.023415 6e-06 1.17208
v 0.014193 0.02389 1.08496
v 0.027578 0.000233 1.08496
v 0.014347 -0.023259 1.08496
v -0.013346 -0.023682 1.08496
v -0.027132 -0.000252 1.08496
v -0.013657 0.023404 1.08496
v -0.005804 0.011016 1.41201
v -0.010655 2.9e-05 1.3775
v 0.000159 0.016492 -0.438358
v 0.000159 0.016492 -0.449522
v -0.008981 0.01607 -0.438358
v -0.008979 0.016068 -0.449522
v 0.019104 0.000118 -0.438358
v 0.019103 0.000118 -0.449522
v 0.010168 0.016954 -0.438358
v 0.010169 0.016956 -0.449522
v 0.009904 -0.01604 -0.438358
v 0.009903 -0.016038 -0.449522
v 0.000159 -0.016103 -0.438358
v 0.000159 -0.016102 -0.449522
v -0.018275 -0.000121 -0.438358
v -0.018273 -0.000122 -0.449522
v -0.009003 -0.016162 -0.438358
v -0.009002 -0.016161 -0.449522
v 9.5e-05 0.020761 -0.437429
v -0.011433 0.020229 -0.437429
v 0.023989 0.000109 -0.437429
v 0.012719 0.021343 -0.437429
v 0.012385 -0.02027 -0.437429
v 9.5e-05 -0.020349 -0.437429
v -0.023155 -0.000192 -0.437429
v -0.01146 -0.020424 -0.437429
v 9.5e-05 0.020761 -0.423094
v 0.012718 0.021341 -0.423094
v 9.5e-05 -0.02035 -0.423094
v -0.011461 -0.020425 -0.423094
v 0.000159 0.016492 -0.419357
v -0.008984 0.016073 -0.419357
v -0.011435 0.020231 -0.423094
v 0.019106 0.000117 -0.419357
v 0.023991 0.000109 -0.423094
v 0.010167 0.016951 -0.419357
v 0.009904 -0.016042 -0.419357
v 0.012386 -0.020271 -0.423094
v 0.000159 -0.016105 -0.419357
v -0.018278 -0.00012 -0.419357
v -0.023157 -0.000191 -0.423094
v -0.009004 -0.016165 -0.419357
v -0.009649 -0.015974 -0.425454
v -0.018809 -0.000114 -0.425454
v 0.009036 -0.015861 -0.425454
v -0.009618 0.015886 -0.425454
v 0.009301 0.016743 -0.425852
v 0.018135 0.00011 -0.425256
v 0.009055 0.01637 1.09362
v 0.009086 0.016372 1.09362
v -0.010006 0.016267 1.09362
v -0.009991 0.016293 1.09362
v -0.019224 -7e-06 1.09362
v -0.019238 1.9e-05 1.09362
v -0.009767 -0.016249 1.09362
v -0.009798 -0.01625 1.09362
v 0.009189 -0.016099 1.09362
v 0.009174 -0.016126 1.09362
v 0.018421 1.9e-05 1.09362
v 0.009101 0.016344 1.09362
vn -0.015198 0.967938 -0.25073
vt 0.198674 0.487294
vn 0.429962 0.88575 -0.174868
vt 0.198674 0.492778
vn 0.379879 0.769454 -0.513452
vt 0.201022 0.489903
vn -0.026092 0.870786 -0.49097
vt 0.201022 0.486631
vn 0.006482 0.998289 0.058106
vt 0.441398 0.746849
vn -0.000598 0.994587 0.103904
vt 0.441528 0.67447
vn 0.41667 0.907659 0.050403
vt 0.464046 0.746499
vn -0.703208 0.698483 0.132739
vt 0.420575 0.747213
vn -0.40058 0.748201 -0.528896
vt 0.201022 0.480918
vn -0.454192 0.871235 -0.186168
vt 0.198674 0.478049
vn -0.005418 0.999936 0.009892
vt 0.442827 0.803951
vn -0.425738 0.904805 0.008679
vt 0.4185 0.804376
vn -0.972654 0 0.232259
vt 0.420575 0.747213
vn -0.015198 0.967938 -0.25073
vt 0.447101 0.994212
vn -0.454192 0.871235 -0.186168
vt 0.422427 0.994621
vn 0.416789 0.908962 0.00869
vt 0.467842 0.803515
vn 0.429962 0.88575 -0.174868
vt 0.472233 0.993774
vn 0.429962 -0.88575 -0.174868
vt 0.198674 0.492778
vn -0.015198 -0.967938 -0.25073
vt 0.198674 0.487294
vn 0.379879 -0.769454 -0.513452
vt 0.201022 0.489903
vn -0.026092 -0.870786 -0.49097
vt 0.201022 0.486631
vn -0.000597 -0.994587 0.103904
vt 0.441528 0.67447
vn 0.006482 -0.998289 0.058106
vt 0.441398 0.746849
vn 0.41667 -0.907659 0.050403
vt 0.464046 0.746499
vn -0.703208 -0.698483 0.132739
vt 0.420575 0.747213
vn -0.40058 -0.748201 -0.528896
vt 0.201022 0.480918
vn -0.454192 -0.871235 -0.186168
vt 0.198674 0.478049
vn -0.005418 -0.999936 0.009892
vt 0.442827 0.803951
vn -0.425738 -0.904805 0.008679
vt 0.4185 0.804376
vn -0.972654 0 0.232259
vt 0.420575 0.747213
vn -0.015198 -0.967938 -0.25073
vt 0.447101 0.994212
vn -0.454192 -0.871235 -0.186168
vt 0.422427 0.994621
vn 0.416789 -0.908962 0.00869
vt 0.467842 0.803515
vn 0.429962 -0.88575 -0.174868
vt 0.472233 0.993774
vn 0.999982 -0.002123 -0.005677
vt 0.295254 0.322155
vn 0.78835 0.001049 0.615226
vt 0.29463 0.292238
vn 0.501429 0.865066 -0.0152
vt 0.309362 0.321876
vn 0.39343 0.680843 0.617791
vt 0.308731 0.292238
vn -0.507698 0.861459 -0.011432
vt 0.325491 0.322089
vn -0.397713 0.679928 0.616053
vt 0.324861 0.292238
vn -0.99997 -0.004017 -0.006657
vt 0.338212 0.321815
vn -0.788984 -0.006387 0.614381
vt 0.337593 0.292238
vn -0.496384 -0.867893 -0.019101
vt 0.325227 0.322098
vn -0.390381 -0.683904 0.616343
vt 0.324623 0.292238
vn 0.508363 -0.861031 -0.013847
vt 0.309213 0.321881
vn 0.3968 -0.680903 0.615566
vt 0.308601 0.292238
vn 0.887212 -0.000385 0.461361
vt 0.286138 0.288262
vn 0.444281 0.767773 0.46167
vt 0.304731 0.288262
vn -0.448056 0.766351 0.460382
vt 0.328805 0.288262
vn -0.887661 -0.00409 0.46048
vt 0.346043 0.288262
vn -0.440567 -0.770138 0.461289
vt 0.328558 0.288262
vn 0.447883 -0.766148 0.460888
vt 0.304615 0.288262
vn 0.713873 -0.001169 0.700275
vt 0.286118 0.232962
vn 0.355398 0.61508 0.703825
vt 0.304694 0.232962
vn -0.359582 0.615179 0.70161
vt 0.328774 0.232962
vn -0.713424 -0.002088 0.70073
vt 0.346052 0.232962
vn -0.353077 -0.617449 0.702917
vt 0.328603 0.232962
vn 0.359737 -0.616225 0.700611
vt 0.304633 0.232962
vn 0.39479 0.692271 -0.604071
vt 0.307609 0.387997
vn 0.789952 -0.011831 -0.613055
vt 0.293746 0.387997
vn -0.0329 0.70633 -0.707117
vt 0.31837 0.387997
vn 0.004575 -0.707049 -0.70715
vt 0.31837 0.387997
vn 0.400412 -0.68374 -0.610057
vt 0.307897 0.387997
vn 0.857293 -0.002178 -0.514824
vt 0.278135 0.21411
vn 0.731551 -0.008889 -0.681728
vt 0.285844 0.211661
vn 0.427448 0.740685 -0.518338
vt 0.30065 0.21411
vn 0.359002 0.61925 -0.698317
vt 0.304499 0.21183
vn -0.432686 0.738223 -0.517504
vt 0.332824 0.21411
vn -0.362769 0.625532 -0.69073
vt 0.32884 0.211761
vn -0.855765 -0.00254 -0.517359
vt 0.354038 0.21411
vn -0.725478 0.002832 -0.688239
vt 0.346277 0.211727
vn -0.424793 -0.742535 -0.517872
vt 0.332602 0.21411
vn -0.358817 -0.625579 -0.692749
vt 0.328739 0.211761
vn 0.431344 -0.737187 -0.520093
vt 0.300582 0.21411
vn 0.361212 -0.62274 -0.694062
vt 0.304511 0.21183
vn 0.428487 0.74162 0.516138
vt 0.300679 0.23045
vn 0.856285 -0.001681 0.516501
vt 0.278175 0.23045
vn 0.432406 -0.739398 0.516057
vt 0.300604 0.23045
vn -0.425812 -0.743522 0.515615
vt 0.332585 0.23045
vn -0.856448 -0.002188 0.516229
vt 0.354003 0.23045
vn -0.432804 0.739287 0.515884
vt 0.332808 0.23045
vn -0.04522 0.972513 0.228417
vt 0.31837 0.393582
vn -0.505704 0.829864 0.235775
vt 0.328192 0.393582
vn -0.411565 0.674148 -0.613302
vt 0.328191 0.387997
vn 0.971163 -0.013826 0.238016
vt 0.293746 0.393582
vn 0.480978 0.842247 0.243475
vt 0.307609 0.393582
vn 0.490922 -0.838036 0.2381
vt 0.307896 0.393582
vn 0.006317 -0.9738 0.227318
vt 0.31837 0.393582
vn -0.971459 -0.002167 0.237199
vt 0.341692 0.393582
vn -0.792253 -0.001187 -0.610191
vt 0.341691 0.387997
vn -0.482779 -0.842636 0.238516
vt 0.328217 0.393582
vn -0.39392 -0.68786 -0.609652
vt 0.328216 0.387997
vn -0.535097 -0.606803 0.58776
vt 0.325913 0.367339
vn 0.534778 -0.59787 0.59713
vt 0.30848 0.367622
vn 0.533821 0.598297 0.597559
vt 0.30866 0.367622
vn 0.999602 -0.027729 0.005264
vt 0.29526 0.344799
vn -0.501213 0.852763 0.146903
vt 0.327539 0.346241
vn -0.362769 0.625532 -0.69073
vt 0.327571 0.363979
vn 0.493775 0.856977 0.147571
vt 0.307451 0.346072
vn 0.359002 0.61925 -0.698317
vt 0.307386 0.363653
vn 0.989256 -0.002249 0.146177
vt 0.292117 0.346168
vn 0.498338 -0.85455 0.1463
vt 0.307424 0.346073
vn 0.731551 -0.008889 -0.681728
vt 0.292356 0.36392
vn 0.361212 -0.62274 -0.694062
vt 0.307393 0.363653
vn -0.4923 -0.857804 0.147691
vt 0.32743 0.346242
vn -0.358817 -0.625579 -0.692749
vt 0.327512 0.363979
vn -0.989064 -0.002574 0.147463
vt 0.343948 0.346144
vn -0.725478 0.002832 -0.688239
vt 0.344077 0.363959
vn 0.494916 0.858206 0.136166
vt 0.307221 0.329283
vn -0.501932 0.854268 0.135246
vt 0.327412 0.329501
vn 0.990846 -0.002407 0.134974
vt 0.292439 0.329356
vn 0.499645 -0.855682 0.134767
vt 0.307189 0.329284
vn -0.492499 -0.859612 0.136061
vt 0.327276 0.329502
vn -0.990691 -0.002039 0.136118
vt 0.343999 0.32943
vn 0.400184 0.698795 -0.592907
vt 0.307129 0.282035
vn 0.802662 0.001394 -0.596433
vt 0.292406 0.282035
vn 0.41062 -0.690258 -0.595764
vt 0.306998 0.282035
vn -0.394448 -0.700831 -0.594346
vt 0.327346 0.282035
vn -0.804321 -0.005727 -0.594168
vt 0.343877 0.282035
vn -0.410116 0.690382 -0.595967
vt 0.327611 0.282035
vn -0.538684 0.594288 0.597195
vt 0.326224 0.367622
vn -0.999515 0.030396 0.006745
vt 0.338212 0.344799
vn -0.035938 0.777864 -0.627404
vt 0.318572 0.400825
vn -0.045091 0.972524 0.228394
vt 0.318572 0.394777
vn -0.344265 0.561765 -0.752265
vt 0.326602 0.400825
vn -0.50226 0.820084 0.274221
vt 0.326601 0.394777
vn 0.657354 -0.010774 -0.753505
vt 0.297667 0.400825
vn 0.960665 -0.015561 0.277273
vt 0.297668 0.394777
vn 0.313991 0.551996 -0.77247
vt 0.309779 0.400825
vn 0.473362 0.831759 0.290011
vt 0.309778 0.394777
vn 0.328947 -0.561729 -0.759114
vt 0.310011 0.400825
vn 0.485256 -0.82862 0.279133
vt 0.310012 0.394777
vn 0.005024 -0.77897 -0.627041
vt 0.318572 0.400825
vn 0.00632 -0.973795 0.227339
vt 0.318572 0.394777
vn -0.651672 0.000144 -0.758501
vt 0.338277 0.400825
vn -0.960617 -0.000106 0.277877
vt 0.338276 0.394777
vn -0.322689 -0.563907 -0.760184
vt 0.326622 0.400825
vn -0.476825 -0.833187 0.280067
vt 0.326621 0.394777
vn -0.035856 0.777847 -0.62743
vt 0.318629 0.401641
vn -0.433033 0.710283 -0.55496
vt 0.328757 0.401641
vn 0.83144 -0.012014 -0.555485
vt 0.293375 0.401641
vn 0.414019 0.725387 -0.549911
vt 0.307538 0.401641
vn 0.421028 -0.718896 -0.553104
vt 0.307831 0.401641
vn 0.005029 -0.778973 -0.627037
vt 0.318629 0.401641
vn -0.83322 -0.00157 -0.552939
vt 0.342565 0.401641
vn -0.414148 -0.72305 -0.552884
vt 0.32878 0.401641
vn -0.041814 0.909755 0.413034
vt 0.318629 0.406213
vn 0.454818 0.796318 0.398771
vt 0.307539 0.406213
vn 0.00589 -0.911261 0.411787
vt 0.318629 0.406213
vn -0.456524 -0.796812 0.395824
vt 0.328781 0.406213
vn -0.030191 0.658107 0.752319
vt 0.318572 0.409496
vn -0.321895 0.520827 0.790647
vt 0.326605 0.409496
vn -0.47797 0.78493 0.394245
vt 0.328758 0.406213
vn 0.607544 -0.01201 0.794195
vt 0.297665 0.409496
vn 0.918017 -0.012836 0.396332
vt 0.293373 0.406213
vn 0.29184 0.515995 0.805344
vt 0.30978 0.409496
vn 0.306118 -0.523182 0.795345
vt 0.310011 0.409496
vn 0.46419 -0.792513 0.395538
vt 0.30783 0.406213
vn 0.004286 -0.660815 0.750536
vt 0.318572 0.409496
vn -0.608099 0.002291 0.793858
vt 0.33828 0.409496
vn -0.918811 -0.002104 0.394692
vt 0.342566 0.406213
vn -0.300002 -0.525426 0.796195
vt 0.326623 0.409496
vn -0.394221 -0.6877 -0.609638
vt 0.21158 0.217586
vn -0.794173 -0.002845 -0.607686
vt 0.252204 0.217586
vn 0.400464 -0.685582 -0.607952
vt 0.167583 0.217586
vn -0.418338 0.678296 -0.604076
vt 0.211569 0.217586
vn 0.3932 0.686345 -0.611821
vt 0.167489 0.217389
vn 0.803849 -0.016083 -0.594616
vt 0.132078 0.217684
vn -0.034472 0.999406 0.000105
vt 0.167576 0.989865
vn 0.485857 0.874038 0.000423
vt 0.167565 0.989865
vn -0.867822 0.496875 -0.000329
vt 0.211707 0.989865
vn -0.501935 0.864905 -0.000368
vt 0.211702 0.989865
vn -0.872853 -0.487983 -0.000373
vt 0.252351 0.989865
vn -0.999936 0.01127 -0.000487
vt 0.252356 0.989865
vn 0.019444 -0.999811 -1.5e-05
vt 0.211622 0.989865
vn -0.485115 -0.874451 -2.1e-05
vt 0.211633 0.989865
vn 0.870975 -0.491327 -0.000113
vt 0.167529 0.989865
vn 0.509856 -0.86026 -0.000122
vt 0.167534 0.989865
vn 1 -0.000724 -0.000188
vt 0.131977 0.989865
vn 0.875095 0.483951 5.5e-05
vt 0.16756 0.989865
f 1/1/1 2/2/2 3/3/3
f 3/3/3 4/4/4 1/1/1
f 5/5/5 6/6/6 7/7/7
f 8/8/8 6/6/6 5/5/5
f 1/1/1 4/4/4 9/9/9
f 9/9/9 10/10/10 1/1/1
f 5/5/5 11/11/11 12/12/12
f 12/12/12 8/8/8 5/5/5
f 13/13/13 6/6/6 8/8/8
f 12/12/12 11/11/11 1/14/14
f 1/14/14 10/15/15 12/12/12
f 1/14/14 11/11/11 14/16/16
f 14/16/16 2/17/17 1/14/14
f 11/11/11 5/5/5 7/7/7
f 7/7/7 14/16/16 11/11/11
f 15/18/18 16/19/19 17/20/20
f 18/21/21 17/20/20 16/19/19
f 19/22/22 20/23/23 21/24/24
f 19/22/22 22/25/25 20/23/23
f 18/21/21 16/19/19 23/26/26
f 24/27/27 23/26/26 16/19/19
f 25/28/28 20/23/23 26/29/29
f 22/25/25 26/29/29 20/23/23
f 19/22/22 27/30/30 22/25/25
f 25/28/28 26/29/29 16/31/31
f 24/32/32 16/31/31 26/29/29
f 25/28/28 16/31/31 28/33/33
f 15/34/34 28/33/33 16/31/31
f 20/23/23 25/28/28 21/24/24
f 28/33/33 21/24/24 25/28/28
f 29/35/35 30/36/36 31/37/37
f 32/38/38 31/37/37 30/36/36
f 31/37/37 32/38/38 33/39/39
f 34/40/40 33/39/39 32/38/38
f 33/39/39 34/40/40 35/41/41
f 36/42/42 35/41/41 34/40/40
f 35/41/41 36/42/42 37/43/43
f 38/44/44 37/43/43 36/42/42
f 37/43/43 38/44/44 39/45/45
f 40/46/46 39/45/45 38/44/44
f 39/45/45 40/46/46 29/35/35
f 30/36/36 29/35/35 40/46/46
f 30/36/36 41/47/47 32/38/38
f 42/48/48 32/38/38 41/47/47
f 32/38/38 42/48/48 34/40/40
f 43/49/49 34/40/40 42/48/48
f 34/40/40 43/49/49 36/42/42
f 44/50/50 36/42/42 43/49/49
f 36/42/42 44/50/50 38/44/44
f 45/51/51 38/44/44 44/50/50
f 38/44/44 45/51/51 40/46/46
f 46/52/52 40/46/46 45/51/51
f 40/46/46 46/52/52 30/36/36
f 41/47/47 30/36/36 46/52/52
f 41/47/47 47/53/53 42/48/48
f 48/54/54 42/48/48 47/53/53
f 42/48/48 48/54/54 43/49/49
f 49/55/55 43/49/49 48/54/54
f 43/49/49 49/55/55 44/50/50
f 50/56/56 44/50/50 49/55/55
f 44/50/50 50/56/56 45/51/51
f 51/57/57 45/51/51 50/56/56
f 45/51/51 51/57/57 46/52/52
f 52/58/58 46/52/52 51/57/57
f 46/52/52 52/58/58 41/47/47
f 47/53/53 41/47/47 52/58/58
f 53/59/59 54/60/60 55/61/61
f 55/61/61 54/60/60 56/62/62
f 56/62/62 54/60/60 57/63/63
f 58/64/64 59/65/65 60/66/66
f 61/67/67 60/66/66 59/65/65
f 62/68/68 60/66/66 63/69/69
f 61/67/67 63/69/69 60/66/66
f 62/68/68 63/69/69 64/70/70
f 65/71/71 64/70/70 63/69/69
f 64/70/70 65/71/71 66/72/72
f 67/73/73 66/72/72 65/71/71
f 68/74/74 66/72/72 69/75/75
f 67/73/73 69/75/75 66/72/72
f 68/74/74 69/75/75 58/64/64
f 59/65/65 58/64/64 69/75/75
f 70/76/76 71/77/77 60/66/66
f 58/64/64 60/66/66 71/77/77
f 72/78/78 71/77/77 52/58/58
f 47/53/53 52/58/58 71/77/77
f 73/79/79 51/57/57 74/80/80
f 50/56/56 74/80/80 51/57/57
f 74/80/80 50/56/56 75/81/81
f 49/55/55 75/81/81 50/56/56
f 76/82/82 55/61/61 77/83/83
f 78/84/84 77/83/83 55/61/61
f 79/85/85 54/60/60 80/86/86
f 53/59/59 80/86/86 54/60/60
f 81/87/87 57/63/63 79/85/85
f 54/60/60 79/85/85 57/63/63
f 82/88/88 56/62/62 81/87/87
f 57/63/63 81/87/87 56/62/62
f 83/89/89 84/90/90 85/91/91
f 86/92/92 85/91/91 84/90/90
f 77/83/83 78/84/84 83/89/89
f 84/90/90 83/89/89 78/84/84
f 87/93/93 88/94/94 89/95/95
f 88/94/94 90/96/96 89/95/95
f 47/53/53 71/77/77 48/54/54
f 70/76/76 48/54/54 71/77/77
f 58/64/64 71/77/77 68/74/74
f 72/78/78 68/74/74 71/77/77
f 66/72/72 73/79/79 64/70/70
f 74/80/80 64/70/70 73/79/79
f 64/70/70 74/80/80 62/68/68
f 75/81/81 62/68/68 74/80/80
f 91/97/97 63/98/98 92/99/99
f 92/99/99 61/100/100 93/101/101
f 94/102/102 93/101/101 59/103/103
f 94/102/102 69/104/104 95/105/105
f 95/105/105 67/106/106 96/107/107
f 96/107/107 65/108/108 91/97/97
f 92/99/99 97/109/109 91/97/97
f 98/110/110 91/97/97 97/109/109
f 93/101/101 99/111/111 92/99/99
f 97/109/109 92/99/99 99/111/111
f 94/102/102 100/112/112 93/101/101
f 99/111/111 93/101/101 100/112/112
f 95/105/105 101/113/113 94/102/102
f 100/112/112 94/102/102 101/113/113
f 96/107/107 102/114/114 95/105/105
f 101/113/113 95/105/105 102/114/114
f 91/97/97 98/110/110 96/107/107
f 102/114/114 96/107/107 98/110/110
f 97/109/109 103/115/115 98/110/110
f 99/111/111 104/116/116 97/109/109
f 100/112/112 105/117/117 99/111/111
f 101/113/113 106/118/118 100/112/112
f 102/114/114 107/119/119 101/113/113
f 98/110/110 108/120/120 102/114/114
f 90/96/96 29/35/35 89/95/95
f 31/37/37 89/95/95 29/35/35
f 89/95/95 31/37/37 109/121/121
f 33/39/39 109/121/121 31/37/37
f 109/121/121 33/39/39 110/122/122
f 35/41/41 110/122/122 33/39/39
f 110/122/122 35/41/41 87/93/93
f 37/43/43 87/93/93 35/41/41
f 87/93/93 37/43/43 88/94/94
f 39/45/45 88/94/94 37/43/43
f 88/94/94 39/45/45 90/96/96
f 29/35/35 90/96/96 39/45/45
f 78/84/84 55/61/61 84/90/90
f 84/90/90 55/61/61 86/92/92
f 86/92/92 55/61/61 56/62/62
f 75/81/81 49/55/55 70/76/76
f 48/54/54 70/76/76 49/55/55
f 72/78/78 52/58/58 73/79/79
f 51/57/57 73/79/79 52/58/58
f 110/122/122 87/93/93 109/121/121
f 109/121/121 87/93/93 89/95/95
f 75/81/81 70/76/76 62/68/68
f 60/66/66 62/68/68 70/76/76
f 72/78/78 73/79/79 68/74/74
f 66/72/72 68/74/74 73/79/79
f 111/123/123 112/124/124 113/125/125
f 114/126/126 113/125/125 112/124/124
f 115/127/127 116/128/128 117/129/129
f 118/130/130 117/129/129 116/128/128
f 119/131/131 120/132/132 115/127/127
f 116/128/128 115/127/127 120/132/132
f 121/133/133 122/134/134 119/131/131
f 120/132/132 119/131/131 122/134/134
f 123/135/135 124/136/136 125/137/137
f 126/138/138 125/137/137 124/136/136
f 113/125/125 114/126/126 123/135/135
f 124/136/136 123/135/135 114/126/126
f 76/82/82 112/124/124 80/86/86
f 118/130/130 80/86/86 112/124/124
f 82/88/88 122/134/134 85/91/91
f 126/138/138 85/91/91 122/134/134
f 112/124/124 111/123/123 118/130/130
f 117/129/129 118/130/130 111/123/123
f 122/134/134 121/133/133 126/138/138
f 125/137/137 126/138/138 121/133/133
f 127/139/139 111/123/123 128/140/140
f 113/125/125 128/140/140 111/123/123
f 129/141/141 115/127/127 130/142/142
f 117/129/129 130/142/142 115/127/127
f 131/143/143 119/131/131 129/141/141
f 115/127/127 129/141/141 119/131/131
f 132/144/144 121/133/133 131/143/143
f 119/131/131 131/143/143 121/133/133
f 133/145/145 123/135/135 134/146/146
f 125/137/137 134/146/146 123/135/135
f 128/140/140 113/125/125 133/145/145
f 123/135/135 133/145/145 113/125/125
f 112/124/124 76/82/82 114/126/126
f 77/83/83 114/126/126 76/82/82
f 116/128/128 79/85/85 118/130/130
f 80/86/86 118/130/130 79/85/85
f 120/132/132 81/87/87 116/128/128
f 79/85/85 116/128/128 81/87/87
f 122/134/134 82/88/88 120/132/132
f 81/87/87 120/132/132 82/88/88
f 124/136/136 83/89/89 126/138/138
f 85/91/91 126/138/138 83/89/89
f 114/126/126 77/83/83 124/136/136
f 83/89/89 124/136/136 77/83/83
f 55/61/61 76/82/82 53/59/59
f 80/86/86 53/59/59 76/82/82
f 56/62/62 82/88/88 86/92/92
f 85/91/91 86/92/92 82/88/88
f 127/139/139 135/147/147 130/142/142
f 136/148/148 130/142/142 135/147/147
f 132/144/144 137/149/149 134/146/146
f 138/150/150 134/146/146 137/149/149
f 139/151/151 135/147/147 140/152/152
f 141/153/153 140/152/152 135/147/147
f 142/154/154 143/155/155 144/156/156
f 136/148/148 144/156/156 143/155/155
f 145/157/157 146/158/158 142/154/154
f 143/155/155 142/154/154 146/158/158
f 147/159/159 137/149/149 145/157/157
f 146/158/158 145/157/157 137/149/149
f 148/160/160 149/161/161 150/162/162
f 138/150/150 150/162/162 149/161/161
f 140/152/152 141/153/153 148/160/160
f 149/161/161 148/160/160 141/153/153
f 135/147/147 139/151/151 136/148/148
f 144/156/156 136/148/148 139/151/151
f 137/149/149 147/159/159 138/150/150
f 150/162/162 138/150/150 147/159/159
f 135/147/147 127/139/139 141/153/153
f 128/140/140 141/153/153 127/139/139
f 143/155/155 129/141/141 136/148/148
f 130/142/142 136/148/148 129/141/141
f 146/158/158 131/143/143 143/155/155
f 129/141/141 143/155/155 131/143/143
f 137/149/149 132/144/144 146/158/158
f 131/143/143 146/158/158 132/144/144
f 149/161/161 133/145/145 138/150/150
f 134/146/146 138/150/150 133/145/145
f 141/153/153 128/140/140 149/161/161
f 133/145/145 149/161/161 128/140/140
f 111/123/123 127/139/139 117/129/129
f 130/142/142 117/129/129 127/139/139
f 121/133/133 132/144/144 125/137/137
f 134/146/146 125/137/137 132/144/144
f 98/110/110 103/115/115 108/120/120
f 97/109/109 104/116/116 103/115/115
f 99/111/111 105/117/117 104/116/116
f 100/112/112 106/118/118 105/117/117
f 101/113/113 107/119/119 106/118/118
f 102/114/114 108/120/120 107/119/119
f 92/99/99 63/98/98 61/100/100
f 93/101/101 61/100/100 59/103/103
f 94/102/102 59/103/103 69/104/104
f 95/105/105 69/104/104 67/106/106
f 96/107/107 67/106/106 65/108/108
f 91/97/97 65/108/108 63/98/98
f 104/116/116 105/117/117 106/118/118
f 106/118/118 107/119/119 108/120/120
f 104/116/116 106/118/118 108/120/120
f 103/115/115 104/116/116 108/120/120
f 151/163/163 152/164/164 153/165/165
f 154/166/166 155/167/167 152/164/164
f 152/164/164 155/167/167 153/165/165
f 153/165/165 155/167/167 156/168/168
f 157/169/169 158/170/170 154/166/166
f 155/167/167 154/166/166 158/170/170
f 159/171/171 160/172/172 152/164/164
f 154/166/166 152/164/164 160/172/172
f 161/173/173 162/174/174 151/163/163
f 152/164/164 151/163/163 162/174/174
f 163/175/175 164/176/176 153/165/165
f 151/163/163 153/165/165 164/176/176
f 165/177/177 166/178/178 156/168/168
f 153/165/165 156/168/168 166/178/178
f 167/179/179 156/168/168 168/180/180
f 160/172/172 157/169/169 154/166/166
f 162/174/174 159/171/171 152/164/164
f 164/176/176 161/173/173 151/163/163
f 166/178/178 163/175/175 153/165/165
f 167/179/179 165/177/177 156/168/168
f 156/168/168 155/167/167 168/180/180
f 158/170/170 168/180/180 155/167/167
