#
# Exported by OpenBRF -- marco tarini
#
s spear1
newmtl sg_long
Ka 0.8 0.8 0.8
Kd 0.2 0.2 0.2
usemtl sg_long
v 0.000308 0.014994 1.74157
v 0.03801 0.000123 1.72404
v 0.006645 0.000123 1.71856
v 0.000353 0.010391 1.73609
v 0.000371 0.011375 1.87469
v 0.000527 0.000123 1.96339
v 0.02286 0.000123 1.87469
v -0.020585 0.000196 1.87469
v -0.0057 0.000123 1.71856
v -0.036584 0.000123 1.72404
v 0.000308 0.014073 1.78152
v -0.030166 0.000123 1.78152
v -0.020585 5e-05 1.87469
v 0.033646 0.000123 1.78152
v 0.03801 -0.000101 1.72404
v 0.000308 -0.014972 1.74157
v 0.006645 -0.000101 1.71856
v 0.000353 -0.010369 1.73609
v 0.000527 -0.000101 1.96339
v 0.000371 -0.011353 1.87469
v 0.02286 -0.000101 1.87469
v -0.020585 -0.000174 1.87469
v -0.0057 -0.000101 1.71856
v -0.036584 -0.000101 1.72404
v 0.000308 -0.014051 1.78152
v -0.030166 -0.000101 1.78152
v -0.020585 -2.8e-05 1.87469
v 0.033646 -0.000101 1.78152
v 0.006028 -2.3e-05 1.74379
v 0.013983 -4.7e-05 1.58411
v 0.003202 0.004873 1.74379
v 0.007198 0.011759 1.58411
v -0.002549 0.004878 1.74379
v -0.006632 0.011745 1.58411
v -0.005315 -1.8e-05 1.74379
v -0.013305 -3.8e-05 1.58411
v -0.002447 -0.004886 1.74365
v -0.006428 -0.011779 1.58411
v 0.003261 -0.004866 1.74379
v 0.007309 -0.011716 1.58411
v 0.019424 -5e-05 1.57275
v 0.009963 0.016511 1.57275
v -0.009363 0.016442 1.57275
v -0.018731 -4.7e-05 1.57275
v -0.009165 -0.016532 1.57275
v 0.010056 -0.016405 1.57275
v -0.008979 0.015794 1.51239
v 0.009591 0.015874 1.51239
v -0.017986 -4.9e-05 1.51239
v -0.008794 -0.015885 1.51239
v 0.030955 -6.8e-05 1.36161
v 0.03133 -6.8e-05 1.35658
v 0.015796 0.026555 1.36161
v 0.015981 0.026875 1.3567
v -0.014946 -0.026549 1.36161
v -0.015121 -0.026853 1.35694
v 0.015923 -0.026332 1.36161
v 0.01611 -0.026647 1.3567
v -0.015429 0.02671 1.35694
v -0.015251 0.026409 1.36161
v -0.030655 -7.9e-05 1.35706
v -0.030313 -7.8e-05 1.36161
v 0.026377 -5.9e-05 1.36228
v 0.013486 0.022579 1.36228
v -0.012656 -0.022578 1.36228
v 0.013595 -0.022393 1.36228
v -0.012915 0.022456 1.36228
v -0.025723 -6.7e-05 1.36228
v 0.018666 -4.6e-05 1.51239
v 0.009672 -0.015758 1.51239
v 0.019613 0.000118 1.37327
v 0.019618 0.000127 -0.481662
v 0.010361 0.01758 -0.481662
v 0.010366 0.01757 1.37327
v -0.009485 0.016655 -0.481662
v -0.009474 0.016656 1.37327
v -0.019117 -0.000124 -0.481662
v -0.019111 -0.000114 1.37327
v -0.009509 -0.016745 -0.481662
v -0.009514 -0.016736 1.37327
v 0.010084 -0.016618 -0.481662
v 0.010073 -0.016618 1.37327
vn -0.007576 0.982723 -0.18493
vt 0.441904 0.844235
vn 0.280817 0.94005 -0.193513
vt 0.474898 0.859575
vn 0.06395 0.846106 -0.529165
vt 0.44745 0.864373
vn 0.06395 0.846106 -0.529165
vt 0.131334 0.37823
vn -0.000606 0.765895 -0.642966
vt 0.124568 0.378114
vn -0.007576 0.982723 -0.18493
vt 0.122451 0.378989
vn -0.009522 0.996651 0.081213
vt 0.44196 0.727737
vn -0.002076 0.991951 0.126608
vt 0.442096 0.650114
vn 0.438852 0.896087 0.06661
vt 0.46164 0.727737
vn -0.733943 0.662813 0.148349
vt 0.423621 0.727737
vn -0.065031 0.845766 -0.529577
vt 0.131334 0.374105
vn -0.065031 0.845766 -0.529577
vt 0.436647 0.864373
vn -0.286859 0.93845 -0.192417
vt 0.40962 0.859575
vn -0.013791 0.999452 0.030084
vt 0.441904 0.809271
vn -0.414033 0.909732 0.03104
vt 0.415236 0.809272
vn -0.972825 0 0.231543
vt 0.423621 0.727737
vn 0.383817 0.922774 0.034236
vt 0.471079 0.809272
vn 0.280817 -0.94005 -0.193513
vt 0.474898 0.859575
vn -0.007576 -0.982723 -0.18493
vt 0.441904 0.844235
vn 0.06395 -0.846106 -0.529165
vt 0.44745 0.864373
vn -0.000606 -0.765895 -0.642966
vt 0.124568 0.378114
vn 0.06395 -0.846106 -0.529165
vt 0.131334 0.37823
vn -0.007576 -0.982723 -0.18493
vt 0.122451 0.378989
vn -0.002076 -0.991951 0.126608
vt 0.442096 0.650114
vn -0.009522 -0.996651 0.081213
vt 0.44196 0.727737
vn 0.438852 -0.896087 0.06661
vt 0.46164 0.727737
vn -0.733943 -0.662813 0.148349
vt 0.423621 0.727737
vn -0.065031 -0.845766 -0.529577
vt 0.131334 0.374105
vn -0.286859 -0.93845 -0.192417
vt 0.40962 0.859575
vn -0.065031 -0.845766 -0.529577
vt 0.436647 0.864373
vn -0.013791 -0.999452 0.030084
vt 0.441904 0.809271
vn -0.414033 -0.909732 0.03104
vt 0.415236 0.809272
vn -0.972825 0 0.231543
vt 0.423621 0.727737
vn 0.383817 -0.922774 0.034236
vt 0.471079 0.809272
vn 0.775012 -0.000371 0.631946
vt 0.295382 0.380879
vn 0.965072 0.000995 0.261984
vt 0.295424 0.303918
vn 0.389181 0.673284 0.628671
vt 0.310283 0.380879
vn 0.482902 0.834911 0.264062
vt 0.310445 0.303918
vn -0.392505 0.669159 0.631004
vt 0.324054 0.380879
vn -0.486971 0.833036 0.26251
vt 0.324244 0.303918
vn -0.7693 -0.012545 0.638764
vt 0.337046 0.380879
vn -0.965193 -0.007226 0.261439
vt 0.337326 0.303918
vn -0.387757 -0.681451 0.620701
vt 0.323997 0.380799
vn -0.478237 -0.837849 0.263248
vt 0.324129 0.303918
vn 0.382715 -0.667736 0.63848
vt 0.31025 0.380879
vn 0.486335 -0.833485 0.262263
vt 0.310382 0.303918
vn 0.979396 -0.00031 0.201947
vt 0.292349 0.297499
vn 0.490391 0.847523 0.203029
vt 0.308882 0.297499
vn -0.494253 0.845639 0.201519
vt 0.325788 0.297499
vn -0.979441 -0.004682 0.201679
vt 0.340393 0.297499
vn -0.486183 -0.850015 0.202733
vt 0.325676 0.297499
vn 0.494125 -0.845713 0.201519
vt 0.30883 0.297499
vn -0.504617 0.863118 0.019751
vt 0.326744 0.349548
vn -0.494253 0.845639 0.201519
vt 0.327116 0.383694
vn 0.500438 0.865545 0.019824
vt 0.307569 0.349548
vn 0.490391 0.847523 0.203029
vt 0.307802 0.383694
vn -0.999794 -0.004508 0.019764
vt 0.34615 0.349548
vn -0.979441 -0.004682 0.201679
vt 0.346278 0.383694
vn -0.495891 -0.868161 0.019721
vt 0.326565 0.349548
vn -0.486183 -0.850015 0.202733
vt 0.326924 0.383694
vn -0.7693 -0.012545 0.638764
vt 0.118338 0.374192
vn -0.387757 -0.681451 0.620701
vt 0.118393 0.376091
vn -0.392505 0.669159 0.631004
vt 0.118338 0.374169
vn 0.382715 -0.667736 0.63848
vt 0.118338 0.377994
vn 0.775012 -0.000371 0.631946
vt 0.118338 0.377982
vn 0.389181 0.673284 0.628671
vt 0.118338 0.376091
vn 0.80334 -0.000917 0.59552
vt 0.277096 0.218016
vn 0.810398 -0.000873 -0.585879
vt 0.276632 0.211798
vn 0.402481 0.695989 0.59465
vt 0.300167 0.218016
vn 0.404727 0.704911 -0.582492
vt 0.300175 0.211705
vn -0.398655 -0.698032 0.594833
vt 0.328419 0.218016
vn -0.406299 -0.706291 -0.579719
vt 0.328635 0.21176
vn 0.40557 -0.693825 0.59508
vt 0.300009 0.218016
vn 0.407714 -0.702129 -0.583767
vt 0.300019 0.211704
vn -0.413513 0.701878 -0.579978
vt 0.329017 0.211763
vn -0.405775 0.693762 0.595014
vt 0.328796 0.218016
vn -0.815546 -0.003586 -0.578681
vt 0.353366 0.211668
vn -0.803367 -0.003564 0.595474
vt 0.352943 0.218016
vn 0.612411 -0.000603 0.790539
vt 0.290635 0.176265
vn 0.80334 -0.000917 0.59552
vt 0.286057 0.175485
vn 0.304608 0.527042 0.793373
vt 0.316603 0.176265
vn 0.402481 0.695989 0.59465
vt 0.316594 0.175485
vn -0.302296 -0.529816 0.792409
vt 0.31678 0.177192
vn -0.398655 -0.698032 0.594833
vt 0.316789 0.176412
vn 0.308344 -0.528012 0.791282
vt 0.342897 0.177192
vn 0.40557 -0.693825 0.59508
vt 0.347499 0.176412
vn 0.308344 -0.528012 0.791282
vt 0.290488 0.176265
vn 0.40557 -0.693825 0.59508
vt 0.285884 0.175485
vn -0.405775 0.693762 0.595014
vt 0.347523 0.175485
vn -0.307862 0.526929 0.792191
vt 0.342903 0.176265
vn -0.803367 -0.003564 0.595474
vt 0.286132 0.176412
vn -0.611266 -0.002833 0.79142
vt 0.29071 0.177192
vn -0.405775 0.693762 0.595014
vt 0.28586 0.176412
vn -0.307862 0.526929 0.792191
vt 0.29048 0.177192
vn 0.999806 -0.000838 0.019655
vt 0.287505 0.349548
vn 0.612411 -0.000603 0.790539
vt 0.287749 0.290773
vn 0.304608 0.527042 0.793373
vt 0.30795 0.290773
vn -0.302296 -0.529816 0.792409
vt 0.327339 0.290773
vn 0.50442 -0.863236 0.019607
vt 0.307491 0.349548
vn 0.308344 -0.528012 0.791282
vt 0.307844 0.290773
vn -0.307862 0.526929 0.792191
vt 0.32759 0.290773
vn -0.611266 -0.002833 0.79142
vt 0.345931 0.290773
vn 0.979396 -0.00031 0.201947
vt 0.287364 0.383694
vn 0.494125 -0.845713 0.201519
vt 0.307712 0.383694
vn 0.407714 -0.702129 -0.583767
vt 0.285516 0.169822
vn -0.406299 -0.706291 -0.579719
vt 0.316789 0.171024
vn -0.815546 -0.003586 -0.578681
vt 0.285791 0.171161
vn -0.413513 0.701878 -0.579978
vt 0.28551 0.171027
vn 0.404727 0.704911 -0.582492
vt 0.316594 0.169822
vn 0.810398 -0.000873 -0.585879
vt 0.285681 0.169687
vn 0.999881 -0.015422 0
vt 0.012141 0.992012
vn 0.789949 -0.011819 -0.613059
vt 0.012138 0.205029
vn 0.394755 0.692216 -0.604157
vt 0.040883 0.205029
vn 0.495802 0.868436 0
vt 0.040881 0.992012
vn -0.411614 0.674194 -0.613218
vt 0.074283 0.205029
vn -0.520664 0.853762 0
vt 0.074279 0.992012
vn -0.792299 -0.001193 -0.610132
vt 0.103193 0.205029
vn -0.999999 -0.001019 0
vt 0.10319 0.992012
vn -0.393959 -0.687917 -0.609562
vt 0.074294 0.205029
vn -0.497383 -0.867531 0
vt 0.074296 0.992012
vn 0.400469 -0.683735 -0.610026
vt 0.041005 0.205029
vn 0.504986 -0.863128 0
vt 0.04101 0.992012
f 1/1/1 2/2/2 3/3/3
f 3/4/4 4/5/5 1/6/6
f 5/7/7 6/8/8 7/9/9
f 8/10/10 6/8/8 5/7/7
f 1/6/6 4/5/5 9/11/11
f 9/12/12 10/13/13 1/1/1
f 5/7/7 11/14/14 12/15/15
f 12/15/15 8/10/10 5/7/7
f 13/16/16 6/8/8 8/10/10
f 12/15/15 11/14/14 1/1/1
f 1/1/1 10/13/13 12/15/15
f 1/1/1 11/14/14 14/17/17
f 14/17/17 2/2/2 1/1/1
f 11/14/14 5/7/7 7/9/9
f 7/9/9 14/17/17 11/14/14
f 15/18/18 16/19/19 17/20/20
f 18/21/21 17/22/22 16/23/23
f 19/24/24 20/25/25 21/26/26
f 19/24/24 22/27/27 20/25/25
f 18/21/21 16/23/23 23/28/28
f 24/29/29 23/30/30 16/19/19
f 25/31/31 20/25/25 26/32/32
f 22/27/27 26/32/32 20/25/25
f 19/24/24 27/33/33 22/27/27
f 25/31/31 26/32/32 16/19/19
f 24/29/29 16/19/19 26/32/32
f 25/31/31 16/19/19 28/34/34
f 15/18/18 28/34/34 16/19/19
f 20/25/25 25/31/31 21/26/26
f 28/34/34 21/26/26 25/31/31
f 29/35/35 30/36/36 31/37/37
f 32/38/38 31/37/37 30/36/36
f 31/37/37 32/38/38 33/39/39
f 34/40/40 33/39/39 32/38/38
f 33/39/39 34/40/40 35/41/41
f 36/42/42 35/41/41 34/40/40
f 35/41/41 36/42/42 37/43/43
f 38/44/44 37/43/43 36/42/42
f 39/45/45 37/43/43 40/46/46
f 38/44/44 40/46/46 37/43/43
f 39/45/45 40/46/46 29/35/35
f 30/36/36 29/35/35 40/46/46
f 30/36/36 41/47/47 32/38/38
f 42/48/48 32/38/38 41/47/47
f 32/38/38 42/48/48 34/40/40
f 43/49/49 34/40/40 42/48/48
f 34/40/40 43/49/49 36/42/42
f 44/50/50 36/42/42 43/49/49
f 36/42/42 44/50/50 38/44/44
f 45/51/51 38/44/44 44/50/50
f 38/44/44 45/51/51 40/46/46
f 46/52/52 40/46/46 45/51/51
f 40/46/46 46/52/52 30/36/36
f 41/47/47 30/36/36 46/52/52
f 47/53/53 43/54/54 48/55/55
f 42/56/56 48/55/55 43/54/54
f 49/57/57 44/58/58 47/53/53
f 43/54/54 47/53/53 44/58/58
f 50/59/59 45/60/60 49/57/57
f 44/58/58 49/57/57 45/60/60
f 35/61/61 37/62/62 33/63/63
f 39/64/64 29/65/65 37/62/62
f 37/62/62 29/65/65 33/63/63
f 33/63/63 29/65/65 31/66/66
f 51/67/67 52/68/68 53/69/69
f 54/70/70 53/69/69 52/68/68
f 55/71/71 56/72/72 57/73/73
f 58/74/74 57/73/73 56/72/72
f 57/73/73 58/74/74 51/67/67
f 52/68/68 51/67/67 58/74/74
f 59/75/75 60/76/76 54/70/70
f 53/69/69 54/70/70 60/76/76
f 61/77/77 62/78/78 59/75/75
f 60/76/76 59/75/75 62/78/78
f 56/72/72 55/71/71 61/77/77
f 62/78/78 61/77/77 55/71/71
f 63/79/79 51/80/80 64/81/81
f 53/82/82 64/81/81 51/80/80
f 65/83/83 55/84/84 66/85/85
f 57/86/86 66/85/85 55/84/84
f 66/87/87 57/88/88 63/79/79
f 51/80/80 63/79/79 57/88/88
f 60/89/89 67/90/90 53/82/82
f 64/81/81 53/82/82 67/90/90
f 62/91/91 68/92/92 60/93/93
f 67/94/94 60/93/93 68/92/92
f 55/84/84 65/83/83 62/91/91
f 68/92/92 62/91/91 65/83/83
f 69/95/95 63/96/96 48/55/55
f 64/97/97 48/55/55 63/96/96
f 50/59/59 65/98/98 70/99/99
f 66/100/100 70/99/99 65/98/98
f 70/99/99 66/100/100 69/95/95
f 63/96/96 69/95/95 66/100/100
f 67/101/101 47/53/53 64/97/97
f 48/55/55 64/97/97 47/53/53
f 68/102/102 49/57/57 67/101/101
f 47/53/53 67/101/101 49/57/57
f 65/98/98 50/59/59 68/102/102
f 49/57/57 68/102/102 50/59/59
f 41/103/103 69/95/95 42/56/56
f 48/55/55 42/56/56 69/95/95
f 45/60/60 50/59/59 46/104/104
f 70/99/99 46/104/104 50/59/59
f 46/104/104 70/99/99 41/103/103
f 69/95/95 41/103/103 70/99/99
f 58/105/105 56/106/106 61/107/107
f 61/107/107 59/108/108 54/109/109
f 58/105/105 61/107/107 54/109/109
f 52/110/110 58/105/105 54/109/109
f 71/111/111 72/112/112 73/113/113
f 73/113/113 74/114/114 71/111/111
f 74/114/114 73/113/113 75/115/115
f 75/115/115 76/116/116 74/114/114
f 76/116/116 75/115/115 77/117/117
f 77/117/117 78/118/118 76/116/116
f 78/118/118 77/117/117 79/119/119
f 79/119/119 80/120/120 78/118/118
f 80/120/120 79/119/119 81/121/121
f 81/121/121 82/122/122 80/120/120
f 82/122/122 81/121/121 72/112/112
f 72/112/112 71/111/111 82/122/122
f 81/121/121 79/119/119 77/117/117
f 77/117/117 75/115/115 73/113/113
f 81/121/121 77/117/117 73/113/113
f 72/112/112 81/121/121 73/113/113
