#
# Exported by OpenBRF -- marco tarini
#
s steelspear
newmtl sg_long
Ka 0.8 0.8 0.8
Kd 0.2 0.2 0.2
usemtl sg_long
v 0.04085 9.8e-05 1.19612
v 0.029701 3.5e-05 1.29792
v 0.020701 -0.036285 1.19612
v 0.015089 -0.026348 1.29792
v 0.02079 0.035733 1.19612
v 0.015154 0.025875 1.29792
v 0.024286 2e-06 1.37812
v 0.012362 -0.02153 1.37812
v 0.012415 0.02109 1.37812
v -0.014892 -0.026348 1.29792
v -0.028543 3.5e-05 1.29792
v -0.020645 -0.036285 1.19612
v -0.03947 9.8e-05 1.19612
v -0.014954 0.025875 1.29792
v -0.020729 0.035733 1.19612
v -0.012106 -0.02153 1.37812
v -0.023247 2e-06 1.37812
v -0.012156 0.02109 1.37812
v -0.036061 9.8e-05 1.19612
v -0.019199 -0.034163 1.19612
v -0.018729 0.034029 1.19612
v 0.037847 9.8e-05 1.19612
v 0.019304 0.032926 1.19612
v 0.019274 -0.033373 1.19612
v 0.019613 0.000118 1.37786
v 0.019618 0.000127 -0.409861
v 0.010361 0.01758 -0.409861
v 0.010366 0.01757 1.37786
v -0.009485 0.016655 -0.409861
v -0.009474 0.016656 1.37786
v -0.019117 -0.000124 -0.409861
v -0.019111 -0.000114 1.37786
v -0.009509 -0.016745 -0.409861
v -0.009514 -0.016736 1.37786
v 0.010084 -0.016618 -0.409861
v 0.010073 -0.016618 1.37786
v 1e-05 -0.010173 1.55098
v 0.011753 -0.014778 1.55098
v 0.022786 -0.000161 1.551
v -0.02238 -0.000139 1.551
v -0.011435 -0.014812 1.55098
v 0.028712 -0.000101 1.37491
v 0.01466 0.025163 1.37491
v 0.01466 0.025163 1.38455
v 0.028712 -0.000101 1.38455
v -0.014314 0.024728 1.37491
v -0.014314 0.024728 1.38455
v -0.028634 -0.000108 1.37491
v -0.028634 -0.000108 1.38455
v -0.014582 -0.025352 1.37491
v -0.014582 -0.025352 1.38455
v 0.014392 -0.024917 1.37491
v 0.014392 -0.024917 1.38455
v 0.013261 0.022747 1.38793
v 0.025969 -8e-05 1.38793
v -0.012941 0.022353 1.38793
v -0.02589 -0.000131 1.38793
v -0.013183 -0.022934 1.38793
v 0.013019 -0.022541 1.38793
v 0.009764 0.016887 1.49987
v 0.01959 -5.5e-05 1.49987
v -0.01012 0.016774 1.49987
v -0.019653 -0.000246 1.49959
v -0.009699 -0.017073 1.49987
v 0.010059 -0.016887 1.49987
v 0.011513 0.014791 1.55098
v -0.000147 0.010593 1.55098
v -0.011848 0.014799 1.55098
v -0.000147 0.010593 1.55098
v 0.028048 -6.9e-05 -0.406513
v 0.014258 -0.024287 -0.406513
v 0.014258 -0.024287 -0.41413
v 0.028048 -6.9e-05 -0.41413
v -0.014079 -0.024471 -0.406513
v -0.014079 -0.024471 -0.41413
v -0.027976 -0.000431 -0.406513
v -0.027976 -0.000431 -0.41413
v -0.014045 0.023837 -0.406513
v -0.014045 0.023837 -0.41413
v 0.01466 0.025174 -0.406513
v 0.01466 0.025174 -0.41413
v 0.010617 -0.017952 -0.416167
v 0.020831 -1.3e-05 -0.416167
v -0.010373 -0.018088 -0.416167
v -0.020667 -0.000281 -0.416167
v -0.010348 0.017695 -0.416167
v 0.010915 0.018686 -0.416167
v -0.023086 -0.000139 1.50556
v -0.011435 -0.019913 1.50556
v 0.011753 -0.019832 1.50556
v 0.022991 -0.000161 1.50556
v 0.011513 0.019729 1.50556
v -0.011848 0.019748 1.50556
v 0.013721 0.023525 1.50357
v 0.027381 -0.000171 1.50357
v 0.027926 -0.000164 1.49911
v 0.014017 0.024036 1.49911
v -0.014093 0.023536 1.50357
v -0.014335 0.02401 1.49911
v -0.027483 -0.000146 1.50357
v -0.028014 -0.000146 1.49911
v -0.013623 -0.023709 1.50357
v -0.013919 -0.02422 1.49911
v 0.013991 -0.023604 1.50357
v 0.014246 -0.024085 1.49911
v 0.000277 -0.008889 1.551
v 7.5e-05 0.009754 1.551
v -0.013483 -0.023429 -0.470397
v -0.026815 -0.000366 -0.470397
v -0.01345 0.022915 -0.470397
v 0.014088 0.024198 -0.470397
v 0.026932 -1.9e-05 -0.470397
v 0.013703 -0.023253 -0.470397
v 0.010617 -0.017952 -0.440775
v 0.020831 -1.3e-05 -0.440775
v -0.010373 -0.018088 -0.440775
v -0.020667 -0.000281 -0.440775
v -0.010348 0.017695 -0.440775
v 0.010915 0.018686 -0.440775
v 0.026932 -1.9e-05 -0.443465
v 0.013703 -0.023253 -0.443465
v -0.013483 -0.023429 -0.443465
v -0.026815 -0.000366 -0.443465
v -0.01345 0.022915 -0.443465
v 0.014088 0.024198 -0.443465
v 0.01372 -0.008889 1.60104
v -0.008104 5.6e-05 1.60153
v -0.020318 9.7e-05 1.55086
v -0.010507 -0.008889 1.64785
v -0.029247 -0.000132 1.64824
v 0.001643 -0.008648 1.55086
v 0.03381 -0.000129 1.85004
v 0.009655 0.000396 1.82423
v 0.010236 -0.008889 1.80632
v 0.029405 -0.000572 1.8064
v -0.010507 -0.008889 1.74972
v 0.010694 -0.000321 1.74935
v 0.010955 -0.008889 1.70145
v 0.030173 -0.000205 1.70103
v 0.01092 -0.000242 1.64762
v 0.033022 9.1e-05 1.60101
v 0.021155 0.000324 1.55059
v -0.010262 -0.000279 1.70184
v -0.030348 1.1e-05 1.74968
v -0.010971 -1.6e-05 1.80617
v -0.022536 8.4e-05 1.85086
v 0.013517 0.009754 1.60104
v 0.033022 9.1e-05 1.60101
v 0.021155 0.000324 1.55059
v -0.010709 0.009754 1.64785
v 0.01092 -0.000242 1.64762
v 0.009655 0.000396 1.82423
v 0.010033 0.009754 1.80632
v -0.022536 8.4e-05 1.85086
v 0.000197 0.00948 1.55086
v 0.010753 0.009754 1.70145
v 0.030173 -0.000205 1.70103
v -0.010709 0.009754 1.74972
v 0.010694 -0.000321 1.74935
v 0.029405 -0.000572 1.8064
v 0.03381 -0.000129 1.85004
v -0.010971 -1.6e-05 1.80617
v -0.030348 1.1e-05 1.74968
v -0.010262 -0.000279 1.70184
v -0.029247 -0.000132 1.64824
v -0.008104 5.6e-05 1.60153
v -0.020318 9.7e-05 1.55086
vn 0.821065 0.002916 -0.570827
vt 0.086614 0.00867403
vn 0.996051 0.003463 0.088712
vt 0.086517 0.106327
vn 0.417921 -0.710198 -0.566534
vt 0.062016 0.00878298
vn 0.505759 -0.857886 0.090771
vt 0.062062 0.106472
vn 0.415422 0.71111 -0.567227
vt 0.061914 0.00887299
vn 0.502708 0.859722 0.090353
vt 0.061977 0.106562
vn 0.821065 0.002916 -0.570827
vt 0.086457 0.00876498
vn 0.996051 0.003463 0.088712
vt 0.08636 0.106418
vn 0.770613 0.00264 0.637298
vt 0.086298 0.183976
vn 0.392699 -0.665753 0.634477
vt 0.061895 0.184077
vn 0.390079 0.666912 0.634875
vt 0.061788 0.184168
vn 0.770613 0.00264 0.637298
vt 0.086141 0.184067
vn -0.517839 -0.850592 0.091302
vt 0.028019 0.106769
vn -0.996215 0.003323 0.086854
vt 0.004652 0.106904
vn -0.428614 -0.705591 -0.564298
vt 0.027902 0.00828999
vn -0.817556 0.00279 -0.575843
vt 0.004837 0.00839198
vn -0.996215 0.003323 0.086854
vt 0.004495 0.106995
vn -0.514932 0.852398 0.090893
vt 0.027791 0.106861
vn -0.817556 0.00279 -0.575843
vt 0.004679 0.00848299
vn -0.426233 0.706499 -0.564964
vt 0.027692 0.00838202
vn -0.402951 -0.661399 0.632599
vt 0.028934 0.183568
vn -0.767554 0.002527 0.640979
vt 0.004575 0.183662
vn -0.767554 0.002527 0.640979
vt 0.004417 0.183753
vn -0.400447 0.662565 0.632969
vt 0.02873 0.18366
vn 0 0 -1
vt 0.006939 0.00837398
vn 0 0 -1
vt 0.028797 0.00828302
vn -0.426233 0.706499 -0.564964
vt 0.027849 0.00829101
vn 0 0 -1
vt 0.029085 0.00827998
vn -0.400447 0.662565 0.632969
vt 0.028887 0.183569
vn 0.390079 0.666912 0.634875
vt 0.061945 0.184077
vn 0 0 -1
vt 0.084759 0.00869
vn 0.415422 0.71111 -0.567227
vt 0.062072 0.00878203
vn 0 0 -1
vt 0.061152 0.00879002
vn 0 0 -1
vt 0.061133 0.00879097
vn 0.999881 -0.015422 0
vt 0.012141 0.992012
vn 0.789949 -0.011819 -0.613059
vt 0.012138 0.205029
vn 0.394754 0.692216 -0.604158
vt 0.040883 0.205029
vn 0.495802 0.868435 0
vt 0.040881 0.992012
vn -0.411615 0.674193 -0.613219
vt 0.074283 0.205029
vn -0.520663 0.853762 0
vt 0.074279 0.992012
vn -0.792298 -0.001194 -0.610133
vt 0.103193 0.205029
vn -0.999999 -0.001018 0
vt 0.10319 0.992012
vn -0.393958 -0.687917 -0.609563
vt 0.074294 0.205029
vn -0.497384 -0.867531 0
vt 0.074296 0.992012
vn 0.400469 -0.683734 -0.610026
vt 0.041005 0.205029
vn 0.504986 -0.863128 0
vt 0.04101 0.992012
vn -0.000162 -0.004745 0.999989
vt 0.14045 0.96991
vn 0.346854 -0.670459 0.655879
vt 0.14045 0.975121
vn 0.911214 0.017027 0.411581
vt 0.140443 0.976051
vn -0.906658 -0.025833 0.421075
vt 0.140443 0.95971
vn -0.362516 -0.670356 0.647461
vt 0.14045 0.966742
vn 0.999969 -0.007888 0
vt 0.275218 0.21122
vn 0.500429 0.865778 0
vt 0.300501 0.21122
vn 0.476222 0.82381 0.307489
vt 0.300501 0.224288
vn 0.952265 -0.007445 0.305182
vt 0.275218 0.224288
vn -0.506735 0.862102 0
vt 0.327824 0.21122
vn -0.482261 0.821156 0.305167
vt 0.327824 0.224288
vn -0.999972 0.007545 0
vt 0.352992 0.21122
vn -0.952241 0.00717 0.305263
vt 0.352992 0.224288
vn -0.500283 -0.865862 0
vt 0.328188 0.21122
vn -0.476058 -0.823859 0.307612
vt 0.328188 0.224288
vn 0.506584 -0.86219 0
vt 0.300865 0.21122
vn 0.482094 -0.821234 0.305221
vt 0.300865 0.224288
vn 0.456874 0.791461 0.406025
vt 0.302398 0.228873
vn 0.917394 -0.006757 0.397922
vt 0.278938 0.228873
vn -0.465227 0.790567 0.398206
vt 0.325962 0.228873
vn -0.917662 0.00623 0.397314
vt 0.34927 0.228873
vn -0.456633 -0.791687 0.405853
vt 0.32629 0.228873
vn 0.465097 -0.790414 0.39866
vt 0.302727 0.228873
vn 0.456874 0.791461 0.406025
vt 0.304837 0.28877
vn 0.494869 0.86691 0.059762
vt 0.305103 0.387852
vn 0.998255 0.004006 0.058908
vt 0.286033 0.387852
vn -0.465227 0.790567 0.398206
vt 0.326615 0.28877
vn -0.505561 0.8609 0.057096
vt 0.326476 0.387852
vn -0.917662 0.00623 0.397314
vt 0.346092 0.28877
vn -0.998225 -0.010449 0.058637
vt 0.346229 0.387609
vn -0.456633 -0.791687 0.405853
vt 0.32683 0.28877
vn -0.48777 -0.870898 0.060139
vt 0.326103 0.387852
vn 0.465097 -0.790414 0.39866
vt 0.305051 0.28877
vn 0.507146 -0.859924 0.057739
vt 0.304842 0.387852
vn 0.917394 -0.006757 0.397922
vt 0.286044 0.28877
vn 0.911214 0.017027 0.411581
vt 0.140413 0.975973
vn 0.363117 0.671555 0.645879
vt 0.14042 0.968765
vn -0.000436 0.007832 0.999969
vt 0.14042 0.965427
vn -0.358869 0.667824 0.652092
vt 0.14042 0.960314
vn 0.000307 0.000853 1
vt 0.14042 0.965427
vn 0.999888 -0.01499 0
vt 0.27677 0.223782
vn 0.505389 -0.862892 0
vt 0.299324 0.223782
vn 0.429569 -0.733944 -0.526115
vt 0.299324 0.21247
vn 0.849465 -0.012511 -0.527497
vt 0.27677 0.21247
vn -0.496949 -0.86778 0
vt 0.328774 0.223782
vn -0.42263 -0.737631 -0.526578
vt 0.328774 0.21247
vn -0.999999 -0.001513 0
vt 0.350994 0.223782
vn -0.850339 -0.001878 -0.526232
vt 0.350994 0.21247
vn -0.521076 0.85351 0
vt 0.328729 0.223782
vn -0.442664 0.725444 -0.527048
vt 0.328729 0.21247
vn 0.495408 0.86866 0
vt 0.298791 0.223782
vn 0.422262 0.740068 -0.523444
vt 0.298791 0.21247
vn 0.352354 -0.59976 -0.718425
vt 0.304148 0.209771
vn 0.702279 -0.011299 -0.711812
vt 0.286331 0.209771
vn -0.344027 -0.602109 -0.720493
vt 0.323864 0.209771
vn -0.695762 0.001095 -0.718271
vt 0.341311 0.209771
vn -0.367156 0.600088 -0.710697
vt 0.323831 0.209771
vn 0.337072 0.592357 -0.731776
vt 0.303753 0.209771
vn -0.758743 -0.014019 0.651239
vt 0.342354 0.290225
vn -0.359573 -0.64823 0.671197
vt 0.325759 0.290225
vn -0.362516 -0.670356 0.647461
vt 0.325759 0.342974
vn -0.906658 -0.025833 0.421075
vt 0.34241 0.342992
vn 0.362563 -0.653428 0.664515
vt 0.305396 0.290225
vn 0.76183 0.009427 0.647708
vt 0.288843 0.290225
vn 0.911214 0.017027 0.411581
vt 0.289081 0.342992
vn 0.346854 -0.670459 0.655879
vt 0.305396 0.342974
vn 0.364208 0.645728 0.67111
vt 0.305675 0.290225
vn 0.363117 0.671555 0.645879
vt 0.305675 0.342974
vn -0.363121 0.650578 0.667002
vt 0.326239 0.290225
vn -0.358869 0.667824 0.652092
vt 0.326239 0.342974
vn 0.424572 0.733471 0.53081
vt 0.303111 0.287909
vn 0.849914 0.001077 0.526921
vt 0.283745 0.287909
vn 0.992553 0.002046 0.121799
vt 0.283112 0.282731
vn 0.496661 0.858032 0.130806
vt 0.302767 0.282731
vn -0.430447 0.733897 0.525463
vt 0.328846 0.287909
vn -0.498957 0.858475 0.118583
vt 0.329127 0.282731
vn -0.850722 -0.007058 0.525569
vt 0.347461 0.287909
vn -0.992865 -0.007769 0.118993
vt 0.348077 0.282731
vn -0.419968 -0.736214 0.530676
vt 0.3283 0.287909
vn -0.491618 -0.860913 0.130923
vt 0.328644 0.282731
vn 0.429573 -0.733628 0.526552
vt 0.302797 0.287909
vn 0.498993 -0.858085 0.12123
vt 0.302501 0.282731
vn -0.906658 -0.025833 0.421075
vt 0.140413 0.959632
vn -0.000162 -0.004745 0.999989
vt 0.14042 0.969832
vn -0.362516 -0.670356 0.647461
vt 0.14042 0.966663
vn 0.346854 -0.670459 0.655879
vt 0.14042 0.975043
vn 0.000914 -0.01263 0.99992
vt 0.140443 0.969738
vn 0.002037 0.019575 0.999806
vt 0.140413 0.965683
vn -0.393958 -0.687915 -0.609566
vt 0.327985 0.137923
vn -0.792298 -0.001188 -0.610133
vt 0.349456 0.137923
vn -0.411602 0.674199 -0.613221
vt 0.327941 0.137923
vn 0.394766 0.692207 -0.60416
vt 0.299549 0.137923
vn 0.789946 -0.011831 -0.613062
vt 0.278248 0.137923
vn 0.400461 -0.683737 -0.610029
vt 0.300059 0.137923
vn 0.386421 -0.658993 0.645296
vt 0.304148 0.177168
vn 0.768414 -0.013443 0.639812
vt 0.286331 0.177168
vn -0.377807 -0.66186 0.647459
vt 0.323864 0.177168
vn -0.763689 0.000638 0.645584
vt 0.341311 0.177168
vn -0.402352 0.655906 0.638671
vt 0.323831 0.177168
vn 0.371015 0.651893 0.661349
vt 0.303753 0.177168
vn 0.876755 -0.012543 0.480773
vt 0.278248 0.173604
vn 0.44344 -0.757343 0.479367
vt 0.300059 0.173604
vn -0.43624 -0.761123 0.479985
vt 0.327985 0.173604
vn -0.877413 -0.001847 0.479732
vt 0.349456 0.173604
vn -0.456608 0.748886 0.48029
vt 0.327941 0.173604
vn 0.434832 0.762107 0.479702
vt 0.299549 0.173604
vn 0.498993 -0.858085 0.12123
vt 0.160814 0.977893
vn -0.491618 -0.860913 0.130923
vt 0.160844 0.967813
vn -0.992865 -0.007769 0.118993
vt 0.160844 0.957674
vn -0.498957 0.858475 0.118583
vt 0.160844 0.957564
vn 0.496661 0.858032 0.130806
vt 0.160814 0.967735
vn 0.992553 0.002046 0.121799
vt 0.160814 0.977833
vn 0.109712 -0.993813 0.017324
vt 0.336049 0.71697
vn -0.384558 -0.921095 -0.060818
vt 0.371277 0.716811
vn -0.370739 -0.924758 0.085884
vt 0.371332 0.754534
vn -0.128925 -0.991637 -0.005899
vt 0.336259 0.68153
vn -0.41715 -0.908776 -0.010602
vt 0.371383 0.681583
vn -0.031205 -0.999507 0.003532
vt 0.336221 0.754534
vn 0.041224 -0.983728 0.174871
vt 0.297122 0.529333
vn -0.046244 -0.887493 0.458495
vt 0.336494 0.548759
vn 0.053709 -0.997269 0.0507
vt 0.336443 0.562244
vn 0.39433 -0.915637 -0.078182
vt 0.297279 0.562185
vn -0.110065 -0.993923 -0.001797
vt 0.336154 0.605058
vn 0.379113 -0.925047 0.023676
vt 0.297286 0.605129
vn 0.113207 -0.99357 -0.001423
vt 0.336036 0.641185
vn 0.406943 -0.913453 -0.000306
vt 0.297227 0.641228
vn 0.379412 -0.924595 0.034221
vt 0.297151 0.681433
vn 0.420936 -0.906535 0.031744
vt 0.297157 0.71679
vn 0.414448 -0.904368 -0.101743
vt 0.29717 0.754531
vn -0.379732 -0.924835 -0.022013
vt 0.371657 0.641156
vn -0.406346 -0.913697 -0.006304
vt 0.371232 0.605083
vn -0.386019 -0.922281 0.019671
vt 0.371559 0.562359
vn -0.076463 -0.986832 0.142531
vt 0.371488 0.528715
vn 0.110512 0.99334 0.032605
vt 0.336202 0.71697
vn 0.440418 0.896511 0.047959
vt 0.297157 0.71679
vn 0.407476 0.906831 -0.107798
vt 0.29717 0.754531
vn -0.143906 0.989298 -0.024105
vt 0.336411 0.68153
vn 0.423258 0.905689 0.024072
vt 0.297151 0.681433
vn -0.04404 0.885872 0.461835
vt 0.336494 0.548759
vn 0.076924 0.995884 0.047935
vt 0.336595 0.562244
vn -0.108265 0.984957 0.134676
vt 0.371488 0.528715
vn -0.073067 0.997256 0.011877
vt 0.336148 0.754534
vn 0.122534 0.992372 0.013522
vt 0.336188 0.641185
vn 0.452133 0.89189 0.010382
vt 0.297227 0.641228
vn -0.112244 0.993595 -0.013059
vt 0.336306 0.605058
vn 0.430755 0.902364 0.0138
vt 0.297286 0.605129
vn 0.468468 0.878153 -0.096877
vt 0.297279 0.562185
vn 0.118644 0.98043 0.157098
vt 0.297122 0.529333
vn -0.424023 0.905323 0.024397
vt 0.371559 0.562359
vn -0.442912 0.896413 -0.016498
vt 0.371232 0.605083
vn -0.434932 0.900383 -0.012021
vt 0.371657 0.641156
vn -0.462406 0.886455 -0.019437
vt 0.371383 0.681583
vn -0.41071 0.910527 -0.047527
vt 0.371277 0.716811
vn -0.413839 0.904786 0.100496
vt 0.371332 0.754534
f 1/1/1 2/2/2 3/3/3
f 4/4/4 3/3/3 2/2/2
f 5/5/5 6/6/6 1/7/7
f 2/8/8 1/7/7 6/6/6
f 2/2/2 7/9/9 4/4/4
f 8/10/10 4/4/4 7/9/9
f 6/6/6 9/11/11 2/8/8
f 7/12/12 2/8/8 9/11/11
f 10/13/13 11/14/14 12/15/15
f 13/16/16 12/15/15 11/14/14
f 11/17/17 14/18/18 13/19/19
f 15/20/20 13/19/19 14/18/18
f 16/21/21 17/22/22 10/13/13
f 11/14/14 10/13/13 17/22/22
f 17/23/23 18/24/24 11/17/17
f 14/18/18 11/17/17 18/24/24
f 13/16/16 19/25/25 12/15/15
f 20/26/26 12/15/15 19/25/25
f 15/27/27 21/28/28 13/16/16
f 19/25/25 13/16/16 21/28/28
f 15/20/20 14/18/18 5/5/5
f 6/6/6 5/5/5 14/18/18
f 14/18/18 18/24/24 6/6/6
f 9/11/11 6/6/6 18/24/24
f 18/29/29 17/22/22 9/30/30
f 7/9/9 9/30/30 17/22/22
f 17/22/22 16/21/21 7/9/9
f 8/10/10 7/9/9 16/21/21
f 16/21/21 10/13/13 8/10/10
f 4/4/4 8/10/10 10/13/13
f 10/13/13 12/15/15 4/4/4
f 3/3/3 4/4/4 12/15/15
f 1/1/1 22/31/31 5/32/32
f 23/33/33 5/32/32 22/31/31
f 24/34/34 3/3/3 20/26/26
f 12/15/15 20/26/26 3/3/3
f 5/32/32 23/33/33 15/27/27
f 21/28/28 15/27/27 23/33/33
f 1/1/1 3/3/3 22/31/31
f 24/34/34 22/31/31 3/3/3
f 25/35/35 26/36/36 27/37/37
f 27/37/37 28/38/38 25/35/35
f 28/38/38 27/37/37 29/39/39
f 29/39/39 30/40/40 28/38/38
f 30/40/40 29/39/39 31/41/41
f 31/41/41 32/42/42 30/40/40
f 32/42/42 31/41/41 33/43/43
f 33/43/43 34/44/44 32/42/42
f 34/44/44 33/43/43 35/45/45
f 35/45/45 36/46/46 34/44/44
f 36/46/46 35/45/45 26/36/36
f 26/36/36 25/35/35 36/46/46
f 35/45/45 33/43/43 31/41/41
f 31/41/41 29/39/39 27/37/37
f 35/45/45 31/41/41 27/37/37
f 26/36/36 35/45/45 27/37/37
f 37/47/47 38/48/48 39/49/49
f 40/50/50 41/51/51 37/47/47
f 42/52/52 43/53/53 44/54/54
f 44/54/54 45/55/55 42/52/52
f 43/53/53 46/56/56 47/57/57
f 47/57/57 44/54/54 43/53/53
f 46/56/56 48/58/58 49/59/59
f 49/59/59 47/57/57 46/56/56
f 48/58/58 50/60/60 51/61/61
f 51/61/61 49/59/59 48/58/58
f 50/60/60 52/62/62 53/63/63
f 53/63/63 51/61/61 50/60/60
f 52/62/62 42/52/52 45/55/55
f 45/55/55 53/63/63 52/62/62
f 45/55/55 44/54/54 54/64/64
f 54/64/64 55/65/65 45/55/55
f 44/54/54 47/57/57 56/66/66
f 56/66/66 54/64/64 44/54/54
f 47/57/57 49/59/59 57/67/67
f 57/67/67 56/66/66 47/57/57
f 49/59/59 51/61/61 58/68/68
f 58/68/68 57/67/67 49/59/59
f 51/61/61 53/63/63 59/69/69
f 59/69/69 58/68/68 51/61/61
f 53/63/63 45/55/55 55/65/65
f 55/65/65 59/69/69 53/63/63
f 54/70/70 60/71/71 61/72/72
f 56/73/73 62/74/74 60/71/71
f 57/75/75 63/76/76 62/74/74
f 58/77/77 64/78/78 63/76/76
f 59/79/79 65/80/80 64/78/78
f 55/81/81 61/72/72 65/80/80
f 39/82/82 66/83/83 67/84/84
f 68/85/85 69/86/86 67/84/84
f 67/84/84 66/83/83 68/85/85
f 70/87/87 71/88/88 72/89/89
f 72/89/89 73/90/90 70/87/87
f 71/88/88 74/91/91 75/92/92
f 75/92/92 72/89/89 71/88/88
f 74/91/91 76/93/93 77/94/94
f 77/94/94 75/92/92 74/91/91
f 76/93/93 78/95/95 79/96/96
f 79/96/96 77/94/94 76/93/93
f 78/95/95 80/97/97 81/98/98
f 81/98/98 79/96/96 78/95/95
f 80/97/97 70/87/87 73/90/90
f 73/90/90 81/98/98 80/97/97
f 73/90/90 72/89/89 82/99/99
f 82/99/99 83/100/100 73/90/90
f 72/89/89 75/92/92 84/101/101
f 84/101/101 82/99/99 72/89/89
f 75/92/92 77/94/94 85/102/102
f 85/102/102 84/101/101 75/92/92
f 77/94/94 79/96/96 86/103/103
f 86/103/103 85/102/102 77/94/94
f 79/96/96 81/98/98 87/104/104
f 87/104/104 86/103/103 79/96/96
f 81/98/98 73/90/90 83/100/100
f 83/100/100 87/104/104 81/98/98
f 88/105/105 89/106/106 41/107/107
f 41/107/107 40/108/108 88/105/105
f 90/109/109 91/110/110 39/111/111
f 39/111/111 38/112/112 90/109/109
f 91/110/110 92/113/113 66/114/114
f 66/114/114 39/111/111 91/110/110
f 93/115/115 68/116/116 66/114/114
f 66/114/114 92/113/113 93/115/115
f 93/115/115 88/105/105 40/108/108
f 40/108/108 68/116/116 93/115/115
f 94/117/117 95/118/118 96/119/119
f 96/119/119 97/120/120 94/117/117
f 98/121/121 94/117/117 97/120/120
f 97/120/120 99/122/122 98/121/121
f 100/123/123 98/121/121 99/122/122
f 99/122/122 101/124/124 100/123/123
f 102/125/125 100/123/123 101/124/124
f 101/124/124 103/126/126 102/125/125
f 104/127/127 102/125/125 103/126/126
f 103/126/126 105/128/128 104/127/127
f 95/118/118 104/127/127 105/128/128
f 105/128/128 96/119/119 95/118/118
f 92/113/113 91/110/110 95/118/118
f 95/118/118 94/117/117 92/113/113
f 93/115/115 92/113/113 94/117/117
f 94/117/117 98/121/121 93/115/115
f 88/105/105 93/115/115 98/121/121
f 98/121/121 100/123/123 88/105/105
f 89/106/106 88/105/105 100/123/123
f 100/123/123 102/125/125 89/106/106
f 90/109/109 89/106/106 102/125/125
f 102/125/125 104/127/127 90/109/109
f 91/110/110 90/109/109 104/127/127
f 104/127/127 95/118/118 91/110/110
f 68/85/85 40/129/129 69/86/86
f 37/130/130 41/131/131 38/132/132
f 38/112/112 41/107/107 89/106/106
f 89/106/106 90/109/109 38/112/112
f 37/47/47 39/49/49 106/133/133
f 106/133/133 40/50/50 37/47/47
f 67/84/84 69/86/86 40/129/129
f 67/84/84 40/129/129 107/134/134
f 39/82/82 67/84/84 107/134/134
f 108/135/135 109/136/136 110/137/137
f 110/137/137 111/138/138 112/139/139
f 108/135/135 110/137/137 112/139/139
f 113/140/140 108/135/135 112/139/139
f 82/99/99 114/141/141 115/142/142
f 115/142/142 83/100/100 82/99/99
f 84/101/101 116/143/143 114/141/141
f 114/141/141 82/99/99 84/101/101
f 85/102/102 117/144/144 116/143/143
f 116/143/143 84/101/101 85/102/102
f 86/103/103 118/145/145 117/144/144
f 117/144/144 85/102/102 86/103/103
f 87/104/104 119/146/146 118/145/145
f 118/145/145 86/103/103 87/104/104
f 83/100/100 115/142/142 119/146/146
f 119/146/146 87/104/104 83/100/100
f 113/140/140 112/139/139 120/147/147
f 120/147/147 121/148/148 113/140/140
f 108/135/135 113/140/140 121/148/148
f 121/148/148 122/149/149 108/135/135
f 109/136/136 108/135/135 122/149/149
f 122/149/149 123/150/150 109/136/136
f 110/137/137 109/136/136 123/150/150
f 123/150/150 124/151/151 110/137/137
f 111/138/138 110/137/137 124/151/151
f 124/151/151 125/152/152 111/138/138
f 112/139/139 111/138/138 125/152/152
f 125/152/152 120/147/147 112/139/139
f 121/148/148 120/147/147 115/142/142
f 115/142/142 114/141/141 121/148/148
f 122/149/149 121/148/148 114/141/141
f 114/141/141 116/143/143 122/149/149
f 123/150/150 122/149/149 116/143/143
f 116/143/143 117/144/144 123/150/150
f 124/151/151 123/150/150 117/144/144
f 117/144/144 118/145/145 124/151/151
f 125/152/152 124/151/151 118/145/145
f 118/145/145 119/146/146 125/152/152
f 120/147/147 125/152/152 119/146/146
f 119/146/146 115/142/142 120/147/147
f 55/81/81 54/70/70 61/72/72
f 60/71/71 54/70/70 56/73/73
f 62/74/74 56/73/73 57/75/75
f 63/76/76 57/75/75 58/77/77
f 64/78/78 58/77/77 59/79/79
f 65/80/80 59/79/79 55/81/81
f 80/97/97 78/95/95 76/93/93
f 76/93/93 74/91/91 71/88/88
f 80/97/97 76/93/93 71/88/88
f 70/87/87 80/97/97 71/88/88
f 52/62/62 50/60/60 48/58/58
f 48/58/58 46/56/56 43/53/53
f 52/62/62 48/58/58 43/53/53
f 42/52/52 52/62/62 43/53/53
f 107/134/134 40/129/129 106/133/133
f 106/133/133 39/49/49 107/134/134
f 105/153/153 103/154/154 101/155/155
f 101/155/155 99/156/156 97/157/157
f 105/153/153 101/155/155 97/157/157
f 96/158/158 105/153/153 97/157/157
f 126/159/159 127/160/160 128/161/161
f 126/159/159 129/162/162 127/160/160
f 129/162/162 130/163/163 127/160/160
f 131/164/164 126/159/159 128/161/161
f 132/165/165 133/166/166 134/167/167
f 132/165/165 134/167/167 135/168/168
f 135/168/168 134/167/167 136/169/169
f 135/168/168 136/169/169 137/170/170
f 137/170/170 136/169/169 138/171/171
f 137/170/170 138/171/171 139/172/172
f 139/172/172 138/171/171 129/162/162
f 139/172/172 129/162/162 140/173/173
f 140/173/173 129/162/162 126/159/159
f 140/173/173 126/159/159 141/174/174
f 141/174/174 126/159/159 131/164/164
f 141/174/174 131/164/164 142/175/175
f 130/163/163 129/162/162 138/171/171
f 130/163/163 138/171/171 143/176/176
f 143/176/176 138/171/171 136/169/169
f 143/176/176 136/169/169 144/177/177
f 144/177/177 136/169/169 134/167/167
f 144/177/177 134/167/167 145/178/178
f 145/178/178 134/167/167 146/179/179
f 146/179/179 134/167/167 133/166/166
f 147/180/180 148/181/181 149/182/182
f 147/180/180 150/183/183 148/181/181
f 150/183/183 151/184/184 148/181/181
f 152/185/185 153/186/186 154/187/187
f 155/188/188 147/180/180 149/182/182
f 151/184/184 150/183/183 156/189/189
f 151/184/184 156/189/189 157/190/190
f 157/190/190 156/189/189 158/191/191
f 157/190/190 158/191/191 159/192/192
f 159/192/192 158/191/191 153/186/186
f 159/192/192 153/186/186 160/193/193
f 160/193/193 153/186/186 161/194/194
f 161/194/194 153/186/186 152/185/185
f 154/187/187 153/186/186 162/195/195
f 162/195/195 153/186/186 158/191/191
f 162/195/195 158/191/191 163/196/196
f 163/196/196 158/191/191 156/189/189
f 163/196/196 156/189/189 164/197/197
f 164/197/197 156/189/189 150/183/183
f 164/197/197 150/183/183 165/198/198
f 165/198/198 150/183/183 147/180/180
f 165/198/198 147/180/180 166/199/199
f 166/199/199 147/180/180 155/188/188
f 166/199/199 155/188/188 167/200/200
