#
# Exported by OpenBRF -- marco tarini
#
s zhanmabardiche
newmtl sg_long
Ka 0.8 0.8 0.8
Kd 0.2 0.2 0.2
usemtl sg_long
v 0.000181 -0.017832 -0.446477
v 0.000181 0.0001 -0.443247
v -0.060441 0.0001 -0.478247
v -0.057644 -0.017832 -0.479862
v 0.000181 0.018032 -0.446477
v -0.057644 0.018032 -0.479862
v 0.000181 0.021446 -0.458137
v -0.047546 0.021446 -0.485692
v 0.000181 0.0001 -0.464711
v -0.041852 0.0001 -0.488979
v 0.000181 -0.021246 -0.458137
v -0.047546 -0.021246 -0.485692
v -0.060441 0.0001 -0.548247
v -0.057644 -0.017832 -0.546632
v -0.057644 0.018032 -0.546632
v -0.047546 0.021446 -0.540802
v -0.041852 0.0001 -0.537515
v -0.047546 -0.021246 -0.540802
v 0.000181 0.0001 -0.583247
v 0.000181 -0.017832 -0.580017
v 0.000181 0.018032 -0.580017
v 0.000181 0.021446 -0.568357
v 0.000181 0.0001 -0.561783
v 0.000181 -0.021246 -0.568357
v 0.060803 0.0001 -0.548247
v 0.058005 -0.017832 -0.546632
v 0.058005 0.018032 -0.546632
v 0.047907 0.021446 -0.540802
v 0.042214 0.0001 -0.537515
v 0.047907 -0.021246 -0.540802
v 0.060803 0.0001 -0.478247
v 0.058005 -0.017832 -0.479862
v 0.058005 0.018032 -0.479862
v 0.047907 0.021446 -0.485692
v 0.042214 0.0001 -0.488979
v 0.047907 -0.021246 -0.485692
v 0.084186 0.001073 0.913846
v 0.084763 0.001121 0.900325
v 0.042349 0.073868 0.913846
v 0.04278 0.074613 0.900325
v -0.042932 0.073789 0.913846
v -0.042985 0.074301 0.900325
v -0.084083 0.001125 0.913846
v -0.084555 0.001134 0.900325
v -0.041673 -0.071275 0.913846
v -0.042108 -0.072022 0.900325
v 0.043036 -0.070884 0.913846
v 0.043193 -0.071461 0.900325
v 0.013865 0.024876 0.80969
v -0.013981 0.025505 0.904207
v 0.014258 0.02566 0.904207
v -0.013804 0.024525 0.810069
v -0.027938 0.001388 0.904207
v 0.027421 0.001255 0.809505
v 0.028059 0.001396 0.904207
v -0.01319 -0.022364 0.810061
v 0.014253 -0.022812 0.904207
v -0.014115 -0.02297 0.904207
v -0.026926 0.000961 0.810249
v 0.013992 -0.022174 0.809688
v 0.027161 0.000797 0.809508
v 0.019613 0.000118 0.810683
v 0.019618 0.000127 -0.461327
v 0.010361 0.01758 -0.461327
v 0.010366 0.01757 0.810683
v -0.009485 0.016655 -0.461327
v -0.009474 0.016656 0.810683
v -0.019117 -0.000124 -0.461327
v -0.019111 -0.000114 0.810683
v -0.009509 -0.016745 -0.461327
v -0.009514 -0.016736 0.810683
v 0.010084 -0.016618 -0.461327
v 0.010073 -0.016618 0.810683
v 0.053865 0.005968 1.78905
v -0.062126 -0.000908 1.73893
v 0.053865 -0.007784 1.78905
v 0.053865 0.005968 0.911579
v -0.062126 -0.000908 0.911579
v 0.053865 -0.007784 0.911579
vn 2e-06 -0.594602 0.804021
vt 0.190241 0.733889
vn 1e-06 -1e-06 1
vt 0.190241 0.737125
vn -0.866024 -1e-06 0.500002
vt 0.25098 0.702057
vn -0.696306 -0.594595 0.402014
vt 0.248178 0.700439
vn 2e-06 0.594602 0.80402
vt 0.190241 0.733889
vn -0.696306 0.594595 0.402012
vt 0.248178 0.700439
vn 0 0.966725 -0.255819
vt 0.190241 0.722206
vn 0.221541 0.966726 -0.127904
vt 0.23806 0.694598
vn -2e-06 -2e-06 -1
vt 0.190241 0.715619
vn 0.866022 -1e-06 -0.500006
vt 0.232355 0.691304
vn 0 -0.966724 -0.25582
vt 0.190241 0.722206
vn 0.221543 -0.966726 -0.127903
vt 0.23806 0.694598
vn -0.866024 0 -0.500003
vt 0.25098 0.631922
vn -0.696307 -0.594596 -0.402011
vt 0.248178 0.63354
vn -0.696307 0.594596 -0.402011
vt 0.248178 0.63354
vn 0.221542 0.966726 0.127902
vt 0.23806 0.639381
vn 0.866022 1e-06 0.500006
vt 0.232355 0.642675
vn 0.221541 -0.966727 0.127902
vt 0.23806 0.639381
vn 1e-06 1e-06 -1
vt 0.190241 0.596854
vn 2e-06 -0.594602 -0.80402
vt 0.190241 0.60009
vn 2e-06 0.594601 -0.804021
vt 0.190241 0.60009
vn 0 0.966724 0.25582
vt 0.190241 0.611773
vn -2e-06 2e-06 1
vt 0.190241 0.61836
vn 0 -0.966725 0.255819
vt 0.190241 0.611773
vn 0.866028 1e-06 -0.499995
vt 0.129502 0.631922
vn 0.696293 -0.594615 -0.402007
vt 0.132304 0.63354
vn 0.696292 0.594615 -0.402008
vt 0.132304 0.63354
vn -0.221554 0.966722 0.127912
vt 0.142422 0.639381
vn -0.866027 1e-06 0.499997
vt 0.148126 0.642675
vn -0.221553 -0.966723 0.127913
vt 0.142422 0.639381
vn 0.866029 -1e-06 0.499994
vt 0.129502 0.702057
vn 0.696292 -0.594614 0.40201
vt 0.132304 0.700439
vn 0.696292 0.594614 0.402009
vt 0.132304 0.700439
vn -0.221553 0.966722 -0.127914
vt 0.142422 0.694598
vn -0.866027 -1e-06 -0.499997
vt 0.148126 0.691304
vn -0.221554 -0.966722 -0.127914
vt 0.142422 0.694598
vn 0.779535 -0.000276 0.626358
vt 0.282272 0.143407
vn 0.804243 0.001373 -0.594299
vt 0.282052 0.122801
vn 0.388082 0.66952 0.633352
vt 0.302021 0.143407
vn 0.406451 0.701286 -0.585657
vt 0.301857 0.122801
vn -0.398656 0.673349 0.622635
vt 0.32698 0.143407
vn -0.401944 0.694654 -0.59657
vt 0.327 0.122801
vn -0.782121 -0.005451 0.623103
vt 0.346468 0.143407
vn -0.802326 -0.004908 -0.596866
vt 0.346648 0.122801
vn -0.384297 -0.67141 0.63366
vt 0.3265 0.143407
vn -0.402891 -0.703249 -0.585765
vt 0.326666 0.122801
vn 0.395894 -0.671708 0.62616
vt 0.301759 0.143407
vn 0.403411 -0.69594 -0.594077
vt 0.301699 0.122801
vn 0.387801 0.68627 -0.615341
vt 0.303916 0.211599
vn -0.50151 0.865106 -0.008933
vt 0.327984 0.396162
vn 0.500228 0.865844 -0.009257
vt 0.303721 0.396162
vn -0.408681 0.677619 -0.611402
vt 0.328249 0.211525
vn -0.999955 0.00417 -0.008531
vt 0.34918 0.396162
vn 0.785795 0.001687 -0.618485
vt 0.283706 0.211811
vn 0.999974 0.000264 -0.007262
vt 0.284135 0.396162
vn -0.392991 -0.686954 -0.611271
vt 0.328231 0.211511
vn 0.504338 -0.86348 -0.006737
vt 0.303725 0.396162
vn -0.501031 -0.86539 -0.008301
vt 0.328119 0.396162
vn -0.792627 -0.009503 -0.609633
vt 0.348992 0.211644
vn 0.393858 -0.682353 -0.61585
vt 0.303729 0.211596
vn 0.607031 -0.351439 -0.712744
vt 0.284088 0.211817
vn 0.999881 -0.015423 0
vt 0.012141 0.992012
vn 0.789949 -0.011819 -0.613058
vt 0.012138 0.205029
vn 0.394754 0.692217 -0.604157
vt 0.040883 0.205029
vn 0.495802 0.868436 0
vt 0.040881 0.992012
vn -0.411615 0.674194 -0.613217
vt 0.074283 0.205029
vn -0.520664 0.853762 0
vt 0.074279 0.992012
vn -0.792299 -0.001194 -0.610131
vt 0.103193 0.205029
vn -0.999999 -0.001018 0
vt 0.10319 0.992012
vn -0.393959 -0.687918 -0.609562
vt 0.074294 0.205029
vn -0.497384 -0.867531 0
vt 0.074296 0.992012
vn 0.40047 -0.683735 -0.610025
vt 0.041005 0.205029
vn 0.504986 -0.863128 0
vt 0.04101 0.992012
vn 0.444804 0.573795 0.687684
vt 0.807492 0.939119
vn -0.940891 0 0.33871
vt 0.871774 0.91019
vn 0.444804 -0.573795 0.687684
vt 0.807492 0.939119
vn 0.685866 0.727728 0
vt 0.807492 0.432702
vn -1 0 0
vt 0.871774 0.432702
vn 0.685866 -0.727728 0
vt 0.807492 0.432702
vn 0.685866 -0.727728 0
vt 0.774924 0.431283
vn 0.685866 0.727728 0
vt 0.782887 0.431283
vn 0.444804 0.573795 0.687684
vt 0.782887 0.939347
vn 0.444804 -0.573795 0.687684
vt 0.774924 0.939347
f 1/1/1 2/2/2 3/3/3
f 3/3/3 4/4/4 1/1/1
f 2/2/2 5/5/5 6/6/6
f 6/6/6 3/3/3 2/2/2
f 5/5/5 7/7/7 8/8/8
f 8/8/8 6/6/6 5/5/5
f 7/7/7 9/9/9 10/10/10
f 10/10/10 8/8/8 7/7/7
f 9/9/9 11/11/11 12/12/12
f 12/12/12 10/10/10 9/9/9
f 11/11/11 1/1/1 4/4/4
f 4/4/4 12/12/12 11/11/11
f 4/4/4 3/3/3 13/13/13
f 13/13/13 14/14/14 4/4/4
f 3/3/3 6/6/6 15/15/15
f 15/15/15 13/13/13 3/3/3
f 6/6/6 8/8/8 16/16/16
f 16/16/16 15/15/15 6/6/6
f 8/8/8 10/10/10 17/17/17
f 17/17/17 16/16/16 8/8/8
f 10/10/10 12/12/12 18/18/18
f 18/18/18 17/17/17 10/10/10
f 12/12/12 4/4/4 14/14/14
f 14/14/14 18/18/18 12/12/12
f 14/14/14 13/13/13 19/19/19
f 19/19/19 20/20/20 14/14/14
f 13/13/13 15/15/15 21/21/21
f 21/21/21 19/19/19 13/13/13
f 15/15/15 16/16/16 22/22/22
f 22/22/22 21/21/21 15/15/15
f 16/16/16 17/17/17 23/23/23
f 23/23/23 22/22/22 16/16/16
f 17/17/17 18/18/18 24/24/24
f 24/24/24 23/23/23 17/17/17
f 18/18/18 14/14/14 20/20/20
f 20/20/20 24/24/24 18/18/18
f 20/20/20 19/19/19 25/25/25
f 25/25/25 26/26/26 20/20/20
f 19/19/19 21/21/21 27/27/27
f 27/27/27 25/25/25 19/19/19
f 21/21/21 22/22/22 28/28/28
f 28/28/28 27/27/27 21/21/21
f 22/22/22 23/23/23 29/29/29
f 29/29/29 28/28/28 22/22/22
f 23/23/23 24/24/24 30/30/30
f 30/30/30 29/29/29 23/23/23
f 24/24/24 20/20/20 26/26/26
f 26/26/26 30/30/30 24/24/24
f 26/26/26 25/25/25 31/31/31
f 31/31/31 32/32/32 26/26/26
f 25/25/25 27/27/27 33/33/33
f 33/33/33 31/31/31 25/25/25
f 27/27/27 28/28/28 34/34/34
f 34/34/34 33/33/33 27/27/27
f 28/28/28 29/29/29 35/35/35
f 35/35/35 34/34/34 28/28/28
f 29/29/29 30/30/30 36/36/36
f 36/36/36 35/35/35 29/29/29
f 30/30/30 26/26/26 32/32/32
f 32/32/32 36/36/36 30/30/30
f 32/32/32 31/31/31 2/2/2
f 2/2/2 1/1/1 32/32/32
f 31/31/31 33/33/33 5/5/5
f 5/5/5 2/2/2 31/31/31
f 33/33/33 34/34/34 7/7/7
f 7/7/7 5/5/5 33/33/33
f 34/34/34 35/35/35 9/9/9
f 9/9/9 7/7/7 34/34/34
f 35/35/35 36/36/36 11/11/11
f 11/11/11 9/9/9 35/35/35
f 36/36/36 32/32/32 1/1/1
f 1/1/1 11/11/11 36/36/36
f 37/37/37 38/38/38 39/39/39
f 40/40/40 39/39/39 38/38/38
f 39/39/39 40/40/40 41/41/41
f 42/42/42 41/41/41 40/40/40
f 41/41/41 42/42/42 43/43/43
f 44/44/44 43/43/43 42/42/42
f 43/43/43 44/44/44 45/45/45
f 46/46/46 45/45/45 44/44/44
f 45/45/45 46/46/46 47/47/47
f 48/48/48 47/47/47 46/46/46
f 47/47/47 48/48/48 37/37/37
f 38/38/38 37/37/37 48/48/48
f 49/49/49 50/50/50 51/51/51
f 52/52/52 53/53/53 50/50/50
f 54/54/54 49/49/49 55/55/55
f 56/56/56 57/57/57 58/58/58
f 59/59/59 58/58/58 53/53/53
f 60/60/60 61/61/61 57/57/57
f 52/52/52 50/50/50 49/49/49
f 59/59/59 53/53/53 52/52/52
f 51/51/51 55/55/55 49/49/49
f 60/60/60 57/57/57 56/56/56
f 56/56/56 58/58/58 59/59/59
f 55/55/55 57/57/57 61/61/61
f 61/61/61 54/54/54 55/55/55
f 49/49/49 54/54/54 61/61/61
f 61/61/61 60/60/60 56/56/56
f 49/49/49 61/61/61 56/56/56
f 49/49/49 56/56/56 59/59/59
f 49/49/49 59/59/59 52/52/52
f 62/62/62 63/63/63 64/64/64
f 64/64/64 65/65/65 62/62/62
f 65/65/65 64/64/64 66/66/66
f 66/66/66 67/67/67 65/65/65
f 67/67/67 66/66/66 68/68/68
f 68/68/68 69/69/69 67/67/67
f 69/69/69 68/68/68 70/70/70
f 70/70/70 71/71/71 69/69/69
f 71/71/71 70/70/70 72/72/72
f 72/72/72 73/73/73 71/71/71
f 73/73/73 72/72/72 63/63/63
f 63/63/63 62/62/62 73/73/73
f 72/72/72 70/70/70 68/68/68
f 68/68/68 66/66/66 64/64/64
f 72/72/72 68/68/68 64/64/64
f 63/63/63 72/72/72 64/64/64
f 41/41/41 43/43/43 45/45/45
f 45/45/45 47/47/47 37/37/37
f 41/41/41 45/45/45 37/37/37
f 39/39/39 41/41/41 37/37/37
f 48/48/48 46/46/46 44/44/44
f 44/44/44 42/42/42 40/40/40
f 48/48/48 44/44/44 40/40/40
f 38/38/38 48/48/48 40/40/40
f 74/74/74 75/75/75 76/76/76
f 77/77/77 78/78/78 75/75/75
f 75/75/75 74/74/74 77/77/77
f 78/78/78 79/79/79 76/76/76
f 76/76/76 75/75/75 78/78/78
f 79/80/80 77/81/81 74/82/82
f 74/82/82 76/83/83 79/80/80
