#
# Exported by OpenBRF -- marco tarini
#
s zhongzhandao
newmtl sg_long
Ka 0.8 0.8 0.8
Kd 0.2 0.2 0.2
usemtl sg_long
v 0.071935 0.006238 0.809521
v -0.022805 0.006238 0.809521
v -0.024512 0.006239 1.28622
v 0.071935 0.006239 1.27074
v -0.072126 -0.000406 0.809521
v -0.072126 -0.000406 1.29472
v -0.020982 0.006239 1.34392
v 0.076765 0.006239 1.3194
v -0.068431 -0.000406 1.35613
v 0.083042 0.006239 1.35548
v -0.003105 0.006239 1.39508
v 0.11906 0.006239 1.45636
v -0.037702 -0.000406 1.41016
v 0.071935 -0.00705 0.809521
v 0.071935 -0.00705 1.27074
v -0.024512 -0.00705 1.28622
v -0.022805 -0.00705 0.809521
v 0.076765 -0.00705 1.3194
v -0.020982 -0.00705 1.34392
v 0.083042 -0.00705 1.35548
v 0.11906 -0.00705 1.45636
v -0.003105 -0.00705 1.39508
v 0.000181 -0.017832 -0.446477
v 0.000181 0.0001 -0.443247
v -0.060441 0.0001 -0.478247
v -0.057644 -0.017832 -0.479862
v 0.000181 0.018032 -0.446477
v -0.057644 0.018032 -0.479862
v 0.000181 0.021446 -0.458137
v -0.047546 0.021446 -0.485692
v 0.000181 0.0001 -0.464711
v -0.041852 0.0001 -0.488979
v 0.000181 -0.021246 -0.458137
v -0.047546 -0.021246 -0.485692
v -0.060441 0.0001 -0.548247
v -0.057644 -0.017832 -0.546632
v -0.057644 0.018032 -0.546632
v -0.047546 0.021446 -0.540802
v -0.041852 0.0001 -0.537515
v -0.047546 -0.021246 -0.540802
v 0.000181 0.0001 -0.583247
v 0.000181 -0.017832 -0.580017
v 0.000181 0.018032 -0.580017
v 0.000181 0.021446 -0.568357
v 0.000181 0.0001 -0.561783
v 0.000181 -0.021246 -0.568357
v 0.060803 0.0001 -0.548247
v 0.058005 -0.017832 -0.546632
v 0.058005 0.018032 -0.546632
v 0.047907 0.021446 -0.540802
v 0.042214 0.0001 -0.537515
v 0.047907 -0.021246 -0.540802
v 0.060803 0.0001 -0.478247
v 0.058005 -0.017832 -0.479862
v 0.058005 0.018032 -0.479862
v 0.047907 0.021446 -0.485692
v 0.042214 0.0001 -0.488979
v 0.047907 -0.021246 -0.485692
v 0.084186 0.001073 0.808942
v 0.084763 0.001121 0.795421
v 0.042349 0.073868 0.808942
v 0.04278 0.074613 0.795421
v -0.042932 0.073789 0.808942
v -0.042985 0.074301 0.795421
v -0.084083 0.001125 0.808942
v -0.084555 0.001134 0.795421
v -0.041673 -0.071275 0.808942
v -0.042108 -0.072022 0.795421
v 0.043036 -0.070884 0.808942
v 0.043193 -0.071461 0.795421
v 0.013865 0.024876 0.704786
v -0.013981 0.025505 0.799303
v 0.014258 0.02566 0.799303
v -0.013804 0.024525 0.705165
v -0.027938 0.001388 0.799303
v 0.027421 0.001255 0.704601
v 0.028059 0.001396 0.799303
v -0.01319 -0.022364 0.705157
v 0.014253 -0.022812 0.799303
v -0.014115 -0.02297 0.799303
v -0.026926 0.000961 0.705345
v 0.013992 -0.022174 0.704784
v 0.027161 0.000797 0.704604
v 0.019613 0.000118 0.705779
v 0.019618 0.000127 -0.461327
v 0.010361 0.01758 -0.461327
v 0.010366 0.01757 0.705779
v -0.009485 0.016655 -0.461327
v -0.009474 0.016656 0.705779
v -0.019117 -0.000124 -0.461327
v -0.019111 -0.000114 0.705779
v -0.009509 -0.016745 -0.461327
v -0.009514 -0.016736 0.705779
v 0.010084 -0.016618 -0.461327
v 0.010073 -0.016618 0.705779
vn 0.707107 0.707106 -1e-06
vt 0.802226 0.500345
vn -0.066902 0.99776 -1.7e-05
vt 0.851486 0.500345
vn -0.070364 0.99752 0.001786
vt 0.850825 0.788991
vn 0.694772 0.718407 -0.034395
vt 0.802226 0.789194
vn -1 0 0
vt 0.87505 0.500345
vn -0.999511 -1e-05 0.031259
vt 0.87505 0.789347
vn -0.071972 0.997307 0.014092
vt 0.851561 0.823926
vn 0.69225 0.715451 -0.094443
vt 0.802248 0.82345
vn -0.970463 -9e-06 0.241248
vt 0.874729 0.823656
vn 0.664179 0.726807 -0.174982
vt 0.802132 0.855317
vn -0.07347 0.993207 0.090239
vt 0.851274 0.854905
vn 0.604323 0.553029 0.573543
vt 0.85106 0.911166
vn -0.71959 -1.2e-05 0.694399
vt 0.875096 0.855411
vn 0.707107 -0.707107 0
vt 0.802226 0.500345
vn 0.694772 -0.718407 -0.034394
vt 0.802226 0.789194
vn -0.070353 -0.997521 0.001786
vt 0.850825 0.788991
vn -0.066901 -0.99776 -1.6e-05
vt 0.851486 0.500345
vn 0.69225 -0.715451 -0.094443
vt 0.802248 0.82345
vn -0.071962 -0.997308 0.01409
vt 0.851561 0.823926
vn 0.664179 -0.726807 -0.174982
vt 0.802132 0.855317
vn 0.604324 -0.553029 0.573543
vt 0.85106 0.911166
vn -0.073459 -0.993208 0.090226
vt 0.851274 0.854905
vn 0.604323 0.553029 0.573543
vt 0.781489 0.902158
vn 0.604324 -0.553029 0.573543
vt 0.773271 0.902158
vn 0.664179 -0.726807 -0.174982
vt 0.773271 0.839778
vn 0.664179 0.726807 -0.174982
vt 0.781489 0.839778
vn 0.69225 -0.715451 -0.094443
vt 0.773271 0.817467
vn 0.69225 0.715451 -0.094443
vt 0.781489 0.817467
vn 0.694772 0.718407 -0.034395
vt 0.781489 0.787374
vn 0.694772 -0.718407 -0.034394
vt 0.773271 0.787374
vn 0.707107 -0.707107 0
vt 0.773271 0.502159
vn 0.707107 0.707106 -1e-06
vt 0.781489 0.502159
vn 3e-06 -0.594599 0.804022
vt 0.190241 0.733889
vn 1e-06 -1e-06 1
vt 0.190241 0.737125
vn -0.866023 0 0.500003
vt 0.25098 0.702057
vn -0.696306 -0.594596 0.402011
vt 0.248178 0.700439
vn 1e-06 0.5946 0.804022
vt 0.190241 0.733889
vn -0.696306 0.594596 0.402011
vt 0.248178 0.700439
vn 1e-06 0.966724 -0.25582
vt 0.190241 0.722206
vn 0.221541 0.966727 -0.127903
vt 0.23806 0.694598
vn -2e-06 -2e-06 -1
vt 0.190241 0.715619
vn 0.866023 -2e-06 -0.500004
vt 0.232355 0.691304
vn 0 -0.966724 -0.255822
vt 0.190241 0.722206
vn 0.221542 -0.966726 -0.127903
vt 0.23806 0.694598
vn -0.866023 0 -0.500003
vt 0.25098 0.631922
vn -0.696307 -0.594596 -0.402011
vt 0.248178 0.63354
vn -0.696307 0.594596 -0.402011
vt 0.248178 0.63354
vn 0.221542 0.966727 0.127902
vt 0.23806 0.639381
vn 0.866023 2e-06 0.500004
vt 0.232355 0.642675
vn 0.22154 -0.966727 0.127902
vt 0.23806 0.639381
vn 1e-06 1e-06 -1
vt 0.190241 0.596854
vn 1e-06 -0.5946 -0.804022
vt 0.190241 0.60009
vn 3e-06 0.594599 -0.804022
vt 0.190241 0.60009
vn 0 0.966725 0.25582
vt 0.190241 0.611773
vn -2e-06 2e-06 1
vt 0.190241 0.61836
vn 1e-06 -0.966725 0.255818
vt 0.190241 0.611773
vn 0.866028 1e-06 -0.499995
vt 0.129502 0.631922
vn 0.696293 -0.594615 -0.402007
vt 0.132304 0.63354
vn 0.696292 0.594614 -0.402009
vt 0.132304 0.63354
vn -0.221553 0.966723 0.127913
vt 0.142422 0.639381
vn -0.866028 0 0.499995
vt 0.148126 0.642675
vn -0.221552 -0.966723 0.127913
vt 0.142422 0.639381
vn 0.866028 -1e-06 0.499995
vt 0.129502 0.702057
vn 0.696292 -0.594615 0.402009
vt 0.132304 0.700439
vn 0.696292 0.594615 0.402007
vt 0.132304 0.700439
vn -0.221553 0.966722 -0.127914
vt 0.142422 0.694598
vn -0.866028 0 -0.499996
vt 0.148126 0.691304
vn -0.221553 -0.966722 -0.127913
vt 0.142422 0.694598
vn 0.779535 -0.000276 0.626359
vt 0.282272 0.143407
vn 0.804244 0.001373 -0.594298
vt 0.282052 0.122801
vn 0.388082 0.66952 0.633352
vt 0.302021 0.143407
vn 0.406451 0.701286 -0.585657
vt 0.301857 0.122801
vn -0.398656 0.673349 0.622635
vt 0.32698 0.143407
vn -0.401944 0.694654 -0.59657
vt 0.327 0.122801
vn -0.78212 -0.005451 0.623104
vt 0.346468 0.143407
vn -0.802326 -0.004908 -0.596866
vt 0.346648 0.122801
vn -0.384297 -0.67141 0.63366
vt 0.3265 0.143407
vn -0.402891 -0.703249 -0.585765
vt 0.326666 0.122801
vn 0.395894 -0.671708 0.62616
vt 0.301759 0.143407
vn 0.403411 -0.69594 -0.594077
vt 0.301699 0.122801
vn 0.387802 0.686268 -0.615342
vt 0.303916 0.211599
vn -0.501503 0.86511 -0.008934
vt 0.327984 0.396162
vn 0.500241 0.865837 -0.009262
vt 0.303721 0.396162
vn -0.408679 0.677619 -0.611403
vt 0.328249 0.211525
vn -0.999955 0.004174 -0.008531
vt 0.34918 0.396162
vn 0.785796 0.001688 -0.618483
vt 0.283706 0.211811
vn 0.999974 0.000245 -0.007262
vt 0.284135 0.396162
vn -0.392992 -0.686955 -0.611269
vt 0.328231 0.211511
vn 0.504339 -0.86348 -0.006735
vt 0.303725 0.396162
vn -0.501021 -0.865395 -0.0083
vt 0.328119 0.396162
vn -0.792627 -0.009505 -0.609633
vt 0.348992 0.211644
vn 0.393858 -0.682354 -0.615848
vt 0.303729 0.211596
vn 0.607032 -0.35144 -0.712743
vt 0.284088 0.211817
vn 0.999881 -0.015422 0
vt 0.140776 0.992012
vn 0.78995 -0.011819 -0.613058
vt 0.140773 0.205029
vn 0.394755 0.692217 -0.604156
vt 0.169518 0.205029
vn 0.495802 0.868436 0
vt 0.169516 0.992012
vn -0.411615 0.674195 -0.613217
vt 0.202918 0.205029
vn -0.520664 0.853762 0
vt 0.202914 0.992012
vn -0.7923 -0.001193 -0.610131
vt 0.231828 0.205029
vn -0.999999 -0.001018 0
vt 0.231825 0.992012
vn -0.393959 -0.687918 -0.609561
vt 0.202929 0.205029
vn -0.497384 -0.867531 0
vt 0.202931 0.992012
vn 0.40047 -0.683735 -0.610025
vt 0.16964 0.205029
vn 0.504986 -0.863128 0
vt 0.169645 0.992012
f 1/1/1 2/2/2 3/3/3
f 3/3/3 4/4/4 1/1/1
f 2/2/2 5/5/5 6/6/6
f 6/6/6 3/3/3 2/2/2
f 3/3/3 7/7/7 8/8/8
f 8/8/8 4/4/4 3/3/3
f 3/3/3 6/6/6 9/9/9
f 9/9/9 7/7/7 3/3/3
f 10/10/10 11/11/11 12/12/12
f 11/11/11 13/13/13 12/12/12
f 14/14/14 15/15/15 16/16/16
f 16/16/16 17/17/17 14/14/14
f 17/17/17 16/16/16 6/6/6
f 6/6/6 5/5/5 17/17/17
f 18/18/18 19/19/19 16/16/16
f 16/16/16 15/15/15 18/18/18
f 16/16/16 19/19/19 9/9/9
f 9/9/9 6/6/6 16/16/16
f 20/20/20 21/21/21 22/22/22
f 22/22/22 21/21/21 13/13/13
f 13/13/13 21/21/21 12/12/12
f 12/23/23 21/24/24 20/25/25
f 20/25/25 10/26/26 12/23/23
f 20/25/25 18/27/27 8/28/28
f 8/28/28 10/26/26 20/25/25
f 4/29/29 15/30/30 14/31/31
f 14/31/31 1/32/32 4/29/29
f 7/7/7 11/11/11 10/10/10
f 10/10/10 8/8/8 7/7/7
f 9/9/9 13/13/13 11/11/11
f 11/11/11 7/7/7 9/9/9
f 20/20/20 22/22/22 19/19/19
f 19/19/19 18/18/18 20/20/20
f 22/22/22 13/13/13 9/9/9
f 9/9/9 19/19/19 22/22/22
f 15/30/30 4/29/29 8/28/28
f 8/28/28 18/27/27 15/30/30
f 23/33/33 24/34/34 25/35/35
f 25/35/35 26/36/36 23/33/33
f 24/34/34 27/37/37 28/38/38
f 28/38/38 25/35/35 24/34/34
f 27/37/37 29/39/39 30/40/40
f 30/40/40 28/38/38 27/37/37
f 29/39/39 31/41/41 32/42/42
f 32/42/42 30/40/40 29/39/39
f 31/41/41 33/43/43 34/44/44
f 34/44/44 32/42/42 31/41/41
f 33/43/43 23/33/33 26/36/36
f 26/36/36 34/44/44 33/43/43
f 26/36/36 25/35/35 35/45/45
f 35/45/45 36/46/46 26/36/36
f 25/35/35 28/38/38 37/47/47
f 37/47/47 35/45/45 25/35/35
f 28/38/38 30/40/40 38/48/48
f 38/48/48 37/47/47 28/38/38
f 30/40/40 32/42/42 39/49/49
f 39/49/49 38/48/48 30/40/40
f 32/42/42 34/44/44 40/50/50
f 40/50/50 39/49/49 32/42/42
f 34/44/44 26/36/36 36/46/46
f 36/46/46 40/50/50 34/44/44
f 36/46/46 35/45/45 41/51/51
f 41/51/51 42/52/52 36/46/46
f 35/45/45 37/47/47 43/53/53
f 43/53/53 41/51/51 35/45/45
f 37/47/47 38/48/48 44/54/54
f 44/54/54 43/53/53 37/47/47
f 38/48/48 39/49/49 45/55/55
f 45/55/55 44/54/54 38/48/48
f 39/49/49 40/50/50 46/56/56
f 46/56/56 45/55/55 39/49/49
f 40/50/50 36/46/46 42/52/52
f 42/52/52 46/56/56 40/50/50
f 42/52/52 41/51/51 47/57/57
f 47/57/57 48/58/58 42/52/52
f 41/51/51 43/53/53 49/59/59
f 49/59/59 47/57/57 41/51/51
f 43/53/53 44/54/54 50/60/60
f 50/60/60 49/59/59 43/53/53
f 44/54/54 45/55/55 51/61/61
f 51/61/61 50/60/60 44/54/54
f 45/55/55 46/56/56 52/62/62
f 52/62/62 51/61/61 45/55/55
f 46/56/56 42/52/52 48/58/58
f 48/58/58 52/62/62 46/56/56
f 48/58/58 47/57/57 53/63/63
f 53/63/63 54/64/64 48/58/58
f 47/57/57 49/59/59 55/65/65
f 55/65/65 53/63/63 47/57/57
f 49/59/59 50/60/60 56/66/66
f 56/66/66 55/65/65 49/59/59
f 50/60/60 51/61/61 57/67/67
f 57/67/67 56/66/66 50/60/60
f 51/61/61 52/62/62 58/68/68
f 58/68/68 57/67/67 51/61/61
f 52/62/62 48/58/58 54/64/64
f 54/64/64 58/68/68 52/62/62
f 54/64/64 53/63/63 24/34/34
f 24/34/34 23/33/33 54/64/64
f 53/63/63 55/65/65 27/37/37
f 27/37/37 24/34/34 53/63/63
f 55/65/65 56/66/66 29/39/39
f 29/39/39 27/37/37 55/65/65
f 56/66/66 57/67/67 31/41/41
f 31/41/41 29/39/39 56/66/66
f 57/67/67 58/68/68 33/43/43
f 33/43/43 31/41/41 57/67/67
f 58/68/68 54/64/64 23/33/33
f 23/33/33 33/43/43 58/68/68
f 59/69/69 60/70/70 61/71/71
f 62/72/72 61/71/71 60/70/70
f 61/71/71 62/72/72 63/73/73
f 64/74/74 63/73/73 62/72/72
f 63/73/73 64/74/74 65/75/75
f 66/76/76 65/75/75 64/74/74
f 65/75/75 66/76/76 67/77/77
f 68/78/78 67/77/77 66/76/76
f 67/77/77 68/78/78 69/79/79
f 70/80/80 69/79/79 68/78/78
f 69/79/79 70/80/80 59/69/69
f 60/70/70 59/69/69 70/80/80
f 71/81/81 72/82/82 73/83/83
f 74/84/84 75/85/85 72/82/82
f 76/86/86 71/81/81 77/87/87
f 78/88/88 79/89/89 80/90/90
f 81/91/91 80/90/90 75/85/85
f 82/92/92 83/93/93 79/89/89
f 74/84/84 72/82/82 71/81/81
f 81/91/91 75/85/85 74/84/84
f 73/83/83 77/87/87 71/81/81
f 82/92/92 79/89/89 78/88/88
f 78/88/88 80/90/90 81/91/91
f 77/87/87 79/89/89 83/93/93
f 83/93/93 76/86/86 77/87/87
f 71/81/81 76/86/86 83/93/93
f 83/93/93 82/92/92 78/88/88
f 71/81/81 83/93/93 78/88/88
f 71/81/81 78/88/88 81/91/91
f 71/81/81 81/91/91 74/84/84
f 84/94/94 85/95/95 86/96/96
f 86/96/96 87/97/97 84/94/94
f 87/97/97 86/96/96 88/98/98
f 88/98/98 89/99/99 87/97/97
f 89/99/99 88/98/98 90/100/100
f 90/100/100 91/101/101 89/99/99
f 91/101/101 90/100/100 92/102/102
f 92/102/102 93/103/103 91/101/101
f 93/103/103 92/102/102 94/104/104
f 94/104/104 95/105/105 93/103/103
f 95/105/105 94/104/104 85/95/95
f 85/95/95 84/94/94 95/105/105
f 94/104/104 92/102/102 90/100/100
f 90/100/100 88/98/98 86/96/96
f 94/104/104 90/100/100 86/96/96
f 85/95/95 94/104/104 86/96/96
f 63/73/73 65/75/75 67/77/77
f 67/77/77 69/79/79 59/69/69
f 63/73/73 67/77/77 59/69/69
f 61/71/71 63/73/73 59/69/69
f 70/80/80 68/78/78 66/76/76
f 66/76/76 64/74/74 62/72/72
f 70/80/80 66/76/76 62/72/72
f 60/70/70 70/80/80 62/72/72
